<svg width="24" height="24" viewBox="0 0 24 24" fill="none" xmlns="http://www.w3.org/2000/svg">
<path opacity="0.4" d="M19.9707 10V18C19.9707 21 18.9707 22 15.9707 22H7.9707C4.9707 22 3.9707 21 3.9707 18V10H19.9707Z" fill="#8ABEFE"/>
<path d="M21.5 7V8C21.5 9.1 20.97 10 19.5 10H4.5C2.97 10 2.5 9.1 2.5 8V7C2.5 5.9 2.97 5 4.5 5H19.5C20.97 5 21.5 5.9 21.5 7Z" fill="url(#paint0_linear_4082_34465)"/>
<path opacity="0.4" d="M11.6408 4.99994H6.12076C5.78076 4.62994 5.79076 4.05994 6.15076 3.69994L7.57076 2.27994C7.94076 1.90994 8.55076 1.90994 8.92076 2.27994L11.6408 4.99994Z" fill="url(#paint1_linear_4082_34465)"/>
<path opacity="0.4" d="M17.8696 4.99994H12.3496L15.0696 2.27994C15.4396 1.90994 16.0496 1.90994 16.4196 2.27994L17.8396 3.69994C18.1996 4.05994 18.2096 4.62994 17.8696 4.99994Z" fill="url(#paint2_linear_4082_34465)"/>
<path opacity="0.6" d="M8.93945 10V15.14C8.93945 15.94 9.81945 16.41 10.4895 15.98L11.4295 15.36C11.7695 15.14 12.1995 15.14 12.5295 15.36L13.4195 15.96C14.0795 16.4 14.9695 15.93 14.9695 15.13V10H8.93945Z" fill="url(#paint3_linear_4082_34465)"/>
<defs>
<linearGradient id="paint0_linear_4082_34465" x1="-0.757532" y1="2.0625" x2="-2.02553" y2="11.7204" gradientUnits="userSpaceOnUse">
<stop stop-color="#01A0FF"/>
<stop offset="1" stop-color="#0123F7"/>
</linearGradient>
<linearGradient id="paint1_linear_4082_34465" x1="4.88418" y1="0.24141" x2="3.45327" y2="5.76014" gradientUnits="userSpaceOnUse">
<stop stop-color="#01A0FF"/>
<stop offset="1" stop-color="#0123F7"/>
</linearGradient>
<linearGradient id="paint2_linear_4082_34465" x1="11.3607" y1="0.24141" x2="9.92983" y2="5.76014" gradientUnits="userSpaceOnUse">
<stop stop-color="#01A0FF"/>
<stop offset="1" stop-color="#0123F7"/>
</linearGradient>
<linearGradient id="paint3_linear_4082_34465" x1="7.90562" y1="6.39105" x2="3.03039" y2="15.9833" gradientUnits="userSpaceOnUse">
<stop stop-color="#01A0FF"/>
<stop offset="1" stop-color="#0123F7"/>
</linearGradient>
</defs>
</svg>
