<svg width="61" height="60" viewBox="0 0 61 60" fill="none" xmlns="http://www.w3.org/2000/svg">
<rect x="0.5" width="60" height="60" rx="8" fill="#FEFFFF"/>
<path d="M44.0003 37.5225V37.2959C44.0003 34.5617 42.612 33.1875 39.892 33.1875C37.172 33.1875 35.7837 34.5759 35.7837 37.2959V37.5225C34.2962 37.8908 33.7012 38.9108 33.7012 40.9508V41.9991C33.7012 44.62 34.6787 45.5833 37.2853 45.5833H42.4987C45.1195 45.5833 46.0828 44.6058 46.0828 41.9991V40.9508C46.0828 38.925 45.4878 37.8908 44.0003 37.5225ZM39.8778 35.1425C41.7053 35.1425 42.0312 35.8367 42.0312 37.2959V37.3667H37.7245V37.2959C37.7245 35.8367 38.0503 35.1425 39.8778 35.1425Z" fill="url(#paint0_linear_2096_41747)"/>
<path d="M25.3851 16.0742V25.2117H16.2334V24.2484C16.2334 19.1342 19.2792 16.0884 24.3934 16.0884H25.3851V16.0742Z" fill="url(#paint1_linear_2096_41747)"/>
<path d="M44.3396 24.2343C44.3396 24.7726 43.9005 25.1976 43.3763 25.1976H35.2305V16.0601H36.1797C40.6847 16.0742 44.3396 19.7293 44.3396 24.2343Z" fill="url(#paint2_linear_2096_41747)"/>
<path d="M25.3846 35.0293V43.1893C25.3846 43.7276 24.9454 44.1526 24.4212 44.1526H24.4071C19.9021 44.1526 16.2471 40.4976 16.2471 35.9926V35.0293H25.3846Z" fill="url(#paint3_linear_2096_41747)"/>
<path opacity="0.4" d="M25.3987 25.1973H16.2471V35.0289H25.3987V25.1973Z" fill="url(#paint4_linear_2096_41747)"/>
<path d="M35.2183 25.1973V33.6123C35.2183 34.3914 34.5808 35.0289 33.8017 35.0289H25.3867V25.1973H35.2183Z" fill="url(#paint5_linear_2096_41747)"/>
<path opacity="0.4" d="M35.2183 16.0742H25.3867V25.2117H35.2183V16.0742Z" fill="url(#paint6_linear_2096_41747)"/>
<defs>
<linearGradient id="paint0_linear_2096_41747" x1="31.5783" y1="25.9049" x2="21.8419" y2="45.3982" gradientUnits="userSpaceOnUse">
<stop stop-color="#01A0FF"/>
<stop offset="1" stop-color="#0123F7"/>
</linearGradient>
<linearGradient id="paint1_linear_2096_41747" x1="14.6643" y1="10.7059" x2="7.49883" y2="25.0907" gradientUnits="userSpaceOnUse">
<stop stop-color="#01A0FF"/>
<stop offset="1" stop-color="#0123F7"/>
</linearGradient>
<linearGradient id="paint2_linear_2096_41747" x1="33.6687" y1="10.6918" x2="26.4831" y2="25.0498" gradientUnits="userSpaceOnUse">
<stop stop-color="#01A0FF"/>
<stop offset="1" stop-color="#0123F7"/>
</linearGradient>
<linearGradient id="paint3_linear_2096_41747" x1="14.6805" y1="29.6693" x2="7.52607" y2="44.0318" gradientUnits="userSpaceOnUse">
<stop stop-color="#01A0FF"/>
<stop offset="1" stop-color="#0123F7"/>
</linearGradient>
<linearGradient id="paint4_linear_2096_41747" x1="14.678" y1="19.4212" x2="6.63463" y2="34.4282" gradientUnits="userSpaceOnUse">
<stop stop-color="#01A0FF"/>
<stop offset="1" stop-color="#0123F7"/>
</linearGradient>
<linearGradient id="paint5_linear_2096_41747" x1="23.7011" y1="19.4212" x2="15.984" y2="34.8891" gradientUnits="userSpaceOnUse">
<stop stop-color="#01A0FF"/>
<stop offset="1" stop-color="#0123F7"/>
</linearGradient>
<linearGradient id="paint6_linear_2096_41747" x1="23.7011" y1="10.7059" x2="16.8492" y2="25.483" gradientUnits="userSpaceOnUse">
<stop stop-color="#01A0FF"/>
<stop offset="1" stop-color="#0123F7"/>
</linearGradient>
</defs>
</svg>
