<svg width="60" height="60" viewBox="0 0 60 60" fill="none" xmlns="http://www.w3.org/2000/svg">
<rect width="60" height="60" rx="8" fill="#8ABEFE"/>
<path d="M39.0625 24.3335V27.3085C38.4392 27.2235 37.7308 27.181 36.9375 27.1668V24.3335C36.9375 19.871 35.6767 16.896 29.5 16.896C23.3233 16.896 22.0625 19.871 22.0625 24.3335V27.1668C21.2692 27.181 20.5608 27.2235 19.9375 27.3085V24.3335C19.9375 20.2252 20.9292 14.771 29.5 14.771C38.0708 14.771 39.0625 20.2252 39.0625 24.3335Z" fill="url(#paint0_linear_2096_41746)"/>
<path opacity="0.4" d="M43.6663 34.2498V37.0832C43.6663 42.7498 42.2497 44.1665 36.583 44.1665H22.4163C16.7497 44.1665 15.333 42.7498 15.333 37.0832V34.2498C15.333 29.5182 16.3247 27.7473 19.9372 27.3082C20.5605 27.2232 21.2688 27.1807 22.0622 27.1665H36.9372C37.7305 27.1807 38.4388 27.2232 39.0622 27.3082C42.6747 27.7473 43.6663 29.5182 43.6663 34.2498Z" fill="url(#paint1_linear_2096_41746)"/>
<path d="M23.8337 37.0832C23.6495 37.0832 23.4653 37.0407 23.2953 36.9699C23.1112 36.8991 22.9695 36.7999 22.8278 36.6724C22.5728 36.4032 22.417 36.0349 22.417 35.6666C22.417 35.4824 22.4595 35.2982 22.5303 35.1282C22.6011 34.9582 22.7003 34.8024 22.8278 34.6607C22.9695 34.5332 23.1112 34.4341 23.2953 34.3632C23.8195 34.1366 24.4428 34.264 24.8395 34.6607C24.967 34.8024 25.0662 34.9582 25.137 35.1282C25.2078 35.2982 25.2503 35.4824 25.2503 35.6666C25.2503 36.0349 25.0945 36.4032 24.8395 36.6724C24.5703 36.9274 24.202 37.0832 23.8337 37.0832Z" fill="url(#paint2_linear_2096_41746)"/>
<path d="M29.4997 37.0832C29.1172 37.0832 28.763 36.9274 28.4939 36.6724C28.3664 36.5307 28.2672 36.3749 28.1963 36.2049C28.1255 36.0349 28.083 35.8507 28.083 35.6665C28.083 35.284 28.2389 34.9299 28.4939 34.6607C29.018 34.1365 29.9672 34.1365 30.5055 34.6607C30.7605 34.9299 30.9163 35.284 30.9163 35.6665C30.9163 35.8507 30.8739 36.0349 30.803 36.2049C30.7322 36.3749 30.633 36.5307 30.5055 36.6724C30.2363 36.9274 29.868 37.0832 29.4997 37.0832Z" fill="url(#paint3_linear_2096_41746)"/>
<path d="M35.1667 37.0832C34.7983 37.0832 34.43 36.9274 34.1608 36.6724C33.9058 36.4032 33.75 36.049 33.75 35.6665C33.75 35.284 33.9058 34.9299 34.1608 34.6607C34.6992 34.1365 35.6483 34.1365 36.1725 34.6607C36.2292 34.7315 36.2858 34.8024 36.3425 34.8874C36.3991 34.9582 36.4417 35.0432 36.47 35.1282C36.5125 35.2132 36.5408 35.2982 36.555 35.3832C36.5692 35.4824 36.5833 35.5815 36.5833 35.6665C36.5833 36.0349 36.4275 36.4032 36.1725 36.6724C35.9033 36.9274 35.535 37.0832 35.1667 37.0832Z" fill="url(#paint4_linear_2096_41746)"/>
<defs>
<linearGradient id="paint0_linear_2096_41746" x1="19.9375" y1="15.3805" x2="39.7551" y2="16.2118" gradientUnits="userSpaceOnUse">
<stop stop-color="#001873"/>
<stop offset="1" stop-color="#011A91"/>
</linearGradient>
<linearGradient id="paint1_linear_2096_41746" x1="15.333" y1="27.9929" x2="44.6825" y2="29.3381" gradientUnits="userSpaceOnUse">
<stop stop-color="#001873"/>
<stop offset="1" stop-color="#011A91"/>
</linearGradient>
<linearGradient id="paint2_linear_2096_41746" x1="22.417" y1="34.3891" x2="25.3559" y2="34.47" gradientUnits="userSpaceOnUse">
<stop stop-color="#001873"/>
<stop offset="1" stop-color="#011A91"/>
</linearGradient>
<linearGradient id="paint3_linear_2096_41746" x1="28.083" y1="34.4044" x2="31.0219" y2="34.4858" gradientUnits="userSpaceOnUse">
<stop stop-color="#001873"/>
<stop offset="1" stop-color="#011A91"/>
</linearGradient>
<linearGradient id="paint4_linear_2096_41746" x1="33.75" y1="34.4044" x2="36.6889" y2="34.4858" gradientUnits="userSpaceOnUse">
<stop stop-color="#001873"/>
<stop offset="1" stop-color="#011A91"/>
</linearGradient>
</defs>
</svg>
