<svg width="149" height="36" viewBox="0 0 149 36" fill="none" xmlns="http://www.w3.org/2000/svg">
<g clip-path="url(#clip0_1849_38759)">
<path d="M15.6445 35.3105L15.1607 35.0234C12.0282 33.1472 9.38241 30.5551 7.43916 27.4585C5.49591 24.3619 4.31023 20.8486 3.97886 17.2052V17.1772C3.91552 16.4406 3.72553 11.513 3.72553 10.9491L3.7002 10.2531L15.6065 5.93506L27.8979 10.535L27.366 16.4787C27.1472 20.255 26.0084 23.9199 24.0493 27.1525C22.0902 30.3851 19.3705 33.0867 16.1284 35.0209L15.6445 35.3105ZM5.8788 17.0401C6.17551 20.2843 7.21009 23.4171 8.90304 26.1978C10.596 28.9785 12.9022 31.333 15.6445 33.0803C18.4904 31.2747 20.8659 28.8148 22.5739 25.9046C24.282 22.9944 25.2734 19.7178 25.466 16.3466V16.3187L25.8713 11.8203L15.5863 7.98486L5.64321 11.579C5.71161 13.3875 5.83574 16.5397 5.88134 17.0147L5.8788 17.0401Z" fill="#001268"/>
<path d="M30.1273 23.2861L29.8562 23.1312L23.4572 19.471C23.8972 17.9218 23.8628 16.2758 23.3584 14.7465L29.6916 10.8857L29.9449 10.7257C30.3105 10.4579 30.5658 10.0653 30.6627 9.62185C30.7595 9.17838 30.6912 8.71471 30.4706 8.31826C30.25 7.92181 29.8924 7.61999 29.4652 7.4697C29.0379 7.3194 28.5706 7.33103 28.1513 7.50238L27.6447 7.80465L21.4052 11.6147C20.358 10.5735 19.0422 9.84521 17.6053 9.51154V1.85083C17.5818 1.40344 17.3979 0.979633 17.0875 0.657356C16.7771 0.335078 16.3611 0.136003 15.916 0.0967523C15.4709 0.0575014 15.0267 0.180714 14.665 0.443723C14.3032 0.706732 14.0484 1.09185 13.9473 1.52824V9.53186C12.4548 9.89495 11.0996 10.6847 10.0461 11.8052L3.52039 8.07135L3.26707 7.92403C2.85535 7.73178 2.38758 7.69772 1.95248 7.82831C1.51738 7.9589 1.1452 8.24505 0.906543 8.6325C0.667883 9.01995 0.579337 9.48174 0.657694 9.9303C0.736052 10.3789 0.975865 10.783 1.33165 11.066L1.8155 11.3454L8.20947 14.9904C7.75856 16.5112 7.77091 18.1325 8.24493 19.6462L1.98017 23.469L1.49885 23.7636C1.1488 24.0562 0.918471 24.4678 0.85181 24.9198C0.785149 25.3718 0.88683 25.8326 1.13744 26.2143C1.38806 26.5959 1.77005 26.8716 2.21052 26.9889C2.65099 27.1061 3.11908 27.0566 3.52546 26.8498L3.79145 26.6847L10.1246 22.8137C11.1648 23.8893 12.4876 24.6475 13.9397 25.0006V32.8899C14.0231 33.3459 14.2733 33.7542 14.6413 34.0347C15.0093 34.3153 15.4686 34.4479 15.929 34.4066C16.3895 34.3652 16.818 34.1529 17.1304 33.8113C17.4429 33.4696 17.6168 33.0233 17.618 32.5597V25.0235C19.1603 24.6623 20.5596 23.8467 21.6358 22.6816L27.9107 26.2706L28.4173 26.5551C28.841 26.7159 29.3087 26.7157 29.7322 26.5544C30.1557 26.3932 30.5056 26.0821 30.716 25.6798C30.9264 25.2776 30.9827 24.812 30.8743 24.3711C30.7658 23.9301 30.5001 23.5441 30.1273 23.2861ZM15.8219 22.5546C14.7705 22.5511 13.7437 22.2352 12.8712 21.647C11.9987 21.0588 11.3196 20.2245 10.9197 19.2495C10.5198 18.2745 10.4169 17.2026 10.6242 16.169C10.8315 15.1355 11.3395 14.1867 12.0842 13.4425C12.8289 12.6983 13.7769 12.1921 14.8083 11.9877C15.8398 11.7833 16.9085 11.89 17.8796 12.2942C18.8506 12.6985 19.6804 13.3821 20.2642 14.2589C20.8479 15.1357 21.1595 16.1663 21.1595 17.2205C21.1548 18.6368 20.5904 19.9935 19.5899 20.9934C18.5894 21.9932 17.2345 22.5546 15.8219 22.5546Z" fill="url(#paint0_linear_1849_38759)"/>
<path d="M148.362 26.2603C148.346 26.3491 148.316 26.4348 148.274 26.5143C148.233 26.5897 148.178 26.6563 148.111 26.7099C148.037 26.7693 147.95 26.8125 147.858 26.8369C147.739 26.8701 147.617 26.8863 147.493 26.8851C147.37 26.8865 147.247 26.8702 147.129 26.8369C147.037 26.8115 146.951 26.7683 146.875 26.7099C146.808 26.6569 146.753 26.5903 146.713 26.5143C146.671 26.4346 146.641 26.3489 146.624 26.2603C146.608 26.1664 146.599 26.0712 146.599 25.9758C146.599 25.3764 146.898 25.0766 147.496 25.0766C147.645 25.0725 147.794 25.0966 147.934 25.1478C148.043 25.1856 148.139 25.2545 148.21 25.3459C148.275 25.4287 148.322 25.5237 148.35 25.6253C148.378 25.7399 148.392 25.8577 148.39 25.9758C148.389 26.0713 148.38 26.1665 148.362 26.2603ZM148.137 25.6913C148.116 25.611 148.081 25.5352 148.033 25.4678C147.977 25.3983 147.904 25.3455 147.82 25.3154C147.715 25.2774 147.603 25.2593 147.491 25.2621C147.378 25.2588 147.267 25.2778 147.161 25.3179C147.078 25.3474 147.005 25.4003 146.951 25.4703C146.9 25.5364 146.864 25.6126 146.845 25.6939C146.821 25.7859 146.81 25.8808 146.812 25.9758C146.81 26.0715 146.821 26.1671 146.842 26.2603C146.864 26.3413 146.901 26.4173 146.951 26.4838C147.004 26.5553 147.078 26.6093 147.161 26.6387C147.267 26.6748 147.379 26.692 147.491 26.6896C147.603 26.6918 147.714 26.6746 147.82 26.6387C147.904 26.6087 147.978 26.5549 148.033 26.4838C148.082 26.417 148.117 26.341 148.137 26.2603C148.161 26.1674 148.172 26.0717 148.17 25.9758C148.172 25.8799 148.16 25.7842 148.137 25.6913ZM147.807 26.3644C147.766 26.402 147.718 26.4306 147.665 26.4485C147.612 26.4664 147.556 26.4733 147.501 26.4686C147.436 26.4751 147.371 26.4665 147.311 26.4436C147.25 26.4207 147.196 26.384 147.151 26.3365C147.077 26.2355 147.039 26.1116 147.045 25.986C147.039 25.8587 147.076 25.7331 147.151 25.6304C147.194 25.5823 147.248 25.5451 147.308 25.5217C147.367 25.4983 147.432 25.4894 147.496 25.4957C147.552 25.4919 147.608 25.4994 147.661 25.5177C147.714 25.5361 147.763 25.5649 147.805 25.6024C147.841 25.6431 147.869 25.6905 147.887 25.7419C147.904 25.7933 147.912 25.8478 147.909 25.9021H147.721C147.723 25.8399 147.701 25.7793 147.661 25.732C147.64 25.7131 147.615 25.6986 147.589 25.6894C147.562 25.6802 147.534 25.6766 147.506 25.6786C147.341 25.6786 147.253 25.7802 147.253 25.9783C147.253 26.1765 147.334 26.2831 147.506 26.2831C147.562 26.2868 147.618 26.2686 147.661 26.2324C147.7 26.1863 147.721 26.1278 147.721 26.0672H147.921C147.924 26.122 147.915 26.1766 147.895 26.2277C147.876 26.2788 147.846 26.3253 147.807 26.3644Z" fill="#001268"/>
<path d="M52.9039 23.2886C52.614 24.0124 52.1595 24.6583 51.5768 25.1751C50.9942 25.6919 50.2992 26.0653 49.5474 26.2655C48.4329 26.6007 47.273 26.7593 46.1097 26.7354C43.3282 26.7354 41.3168 26.1723 40.0755 25.0463C38.8342 23.9202 38.1941 22.3047 38.1553 20.1999H41.1952C41.2898 22.8043 42.9009 24.1065 46.0287 24.1065C48.8659 24.1065 50.2837 23.2386 50.282 21.5029C50.2857 21.1903 50.2088 20.882 50.0588 20.6079C49.9088 20.3338 49.6908 20.1031 49.4258 19.9383C48.7793 19.5119 48.0495 19.2287 47.2852 19.1077C46.4289 18.9502 45.5043 18.7606 44.5112 18.5387C43.5182 18.3169 42.5893 18.0773 41.7246 17.8199C40.8877 17.5808 40.1346 17.1108 39.5511 16.4635C38.9636 15.7996 38.6431 14.9405 38.6518 14.053C38.6518 12.3732 39.2226 11.049 40.3643 10.0804C41.5059 9.11184 43.2919 8.62669 45.7221 8.625C48.1895 8.625 50.0169 9.16941 51.2041 10.2582C52.3914 11.3471 52.9951 12.8795 53.0154 14.8557H50.0034C49.9307 13.6009 49.5491 12.6738 48.8583 12.0744C48.1676 11.4749 47.0859 11.1769 45.6132 11.1803C42.9786 11.1803 41.6622 12.0388 41.6638 13.7559C41.6656 14.0506 41.7459 14.3396 41.8964 14.5928C42.047 14.8461 42.2623 15.0543 42.5201 15.196C43.1783 15.5974 43.9108 15.8609 44.6734 15.9708C45.5397 16.1198 46.4686 16.3094 47.46 16.5397C48.4017 16.7551 49.3318 17.0187 50.2466 17.3297C51.0874 17.6071 51.8341 18.1148 52.4024 18.7953C52.9879 19.5223 53.292 20.4369 53.2586 21.3708C53.2631 22.0269 53.1427 22.6778 52.9039 23.2886Z" fill="#001268"/>
<path d="M66.0946 26.1665L65.6437 24.4113C65.2755 25.0395 64.6 25.5839 63.6171 26.0445C62.5082 26.5314 61.3059 26.7673 60.0958 26.7354C58.4948 26.7354 57.1834 26.3663 56.1617 25.628C55.1399 24.8897 54.6333 23.8102 54.6417 22.3894C54.6417 21.0974 55.1112 20.128 56.0502 19.4811C56.9892 18.8342 58.4804 18.4109 60.5239 18.2111L64.9698 17.7691C64.9344 16.6617 64.6489 15.8446 64.1136 15.318C63.5782 14.7914 62.6392 14.528 61.2966 14.528C60.0452 14.528 59.1754 14.7634 58.6873 15.2342C58.1993 15.7049 57.9552 16.4111 57.9552 17.3526L55.0825 17.3805C55.0825 15.7396 55.5334 14.4612 56.4353 13.5451C57.3371 12.629 58.9483 12.1726 61.2687 12.176C62.2443 12.1597 63.2183 12.2621 64.1693 12.4808C64.8528 12.6289 65.5035 12.901 66.0895 13.2834C66.5694 13.6292 66.9538 14.0916 67.2067 14.6271C67.4774 15.1712 67.6596 15.7551 67.7463 16.3569C67.8366 17.0644 67.8781 17.7773 67.8704 18.4905V26.7405H66.8571C66.6838 26.7464 66.5136 26.6927 66.3749 26.5883C66.2362 26.4839 66.1373 26.335 66.0946 26.1665ZM64.9445 20.012L60.9394 20.4565C59.7251 20.5835 58.8739 20.7951 58.3859 21.0915C58.1594 21.2154 57.9712 21.3995 57.8421 21.6235C57.713 21.8475 57.6478 22.1028 57.6538 22.3615C57.645 22.6628 57.7158 22.961 57.8591 23.226C58.0023 23.4909 58.2129 23.7132 58.4695 23.8703C59.0116 24.2309 59.7986 24.4113 60.8305 24.4113C62.1191 24.4113 63.1273 24.0599 63.8552 23.3572C64.5831 22.6544 64.9462 21.6858 64.9445 20.4514V20.012Z" fill="#001268"/>
<path d="M74.0769 14.8278V26.5983H71.2903V14.8278H69.2637V13.0498L71.2903 12.4402V11.0838C71.2903 9.59029 71.7125 8.51502 72.5569 7.858C73.4013 7.20098 74.7592 6.87331 76.6304 6.87501C77.1827 6.87501 77.6158 6.87501 77.9274 6.90295V9.31089C77.7982 9.31089 77.6336 9.31089 77.4208 9.31089C77.208 9.31089 77.0712 9.29819 76.98 9.29819C75.873 9.29819 75.1155 9.44551 74.7001 9.74016C74.4894 9.90043 74.3222 10.1111 74.2137 10.353C74.1053 10.5948 74.0591 10.8601 74.0794 11.1245V12.4275H77.9173V14.8354L74.0769 14.8278Z" fill="#001268"/>
<path d="M89.3727 25.3385C88.3695 26.1852 86.8276 26.6085 84.747 26.6085C80.0182 26.6085 77.6538 24.1709 77.6538 19.2958C77.6538 14.4596 80.0106 12.0414 84.7242 12.0414C85.6423 12.0252 86.5554 12.1802 87.417 12.4986C88.1359 12.7614 88.7868 13.1824 89.322 13.7306C89.826 14.2724 90.22 14.9074 90.4823 15.6C90.7685 16.3335 90.9543 17.1025 91.0345 17.886C91.1177 18.7466 91.1219 19.613 91.0472 20.4743H80.714C80.8829 23.0398 82.19 24.3233 84.6355 24.325C86.5118 24.325 87.6349 23.5681 88.0047 22.0542H91.0979C91.0424 22.6891 90.8612 23.3066 90.565 23.8705C90.2688 24.4344 89.8635 24.9335 89.3727 25.3385ZM87.1764 15.3968C86.6072 14.6856 85.6961 14.33 84.443 14.33C82.1411 14.33 80.9074 15.5949 80.7419 18.1248H88.0047C88.0225 18.1248 88.0225 18.1248 88.0047 18.0969C87.987 18.0689 88.0225 18.0689 88.0047 18.0689C88.0575 17.1074 87.7635 16.1589 87.1764 15.3968Z" fill="#001268"/>
<path d="M101.363 26.7355L95.3968 20.3677V26.7355H92.4404V7.15698H95.3942V18.1248L100.727 12.5571H104.841L97.6311 19.2602L105.393 26.7355H101.363Z" fill="#001268"/>
<path d="M115.524 25.4756C114.51 26.3223 112.968 26.7456 110.895 26.7456C106.167 26.7456 103.802 24.3089 103.802 19.4354C103.802 14.5992 106.16 12.1811 110.875 12.1811C111.793 12.1648 112.706 12.3199 113.568 12.6383C114.287 12.9017 114.937 13.3225 115.473 13.8702C115.976 14.4127 116.37 15.0475 116.633 15.7397C116.92 16.4775 117.105 17.2507 117.185 18.0384C117.263 18.8994 117.263 19.7657 117.185 20.6267H106.865C107.034 23.1921 108.341 24.4748 110.786 24.4748C112.664 24.4748 113.788 23.7179 114.156 22.204H117.249C117.192 22.8369 117.011 23.4521 116.714 24.0138C116.418 24.5755 116.013 25.0724 115.524 25.4756ZM113.327 15.5339C112.758 14.8329 111.847 14.4824 110.594 14.4824C108.292 14.4824 107.058 15.7464 106.893 18.2746H114.156C114.173 18.2746 114.173 18.2746 114.156 18.2467C114.138 18.2187 114.173 18.2187 114.156 18.2187C114.211 17.253 113.917 16.2997 113.327 15.5339Z" fill="#001268"/>
<path d="M129.649 25.4756C128.646 26.3223 127.104 26.7456 125.023 26.7456C120.295 26.7456 117.93 24.3089 117.93 19.4354C117.93 14.5992 120.287 12.1811 125.001 12.1811C125.919 12.1646 126.832 12.3197 127.693 12.6383C128.413 12.9005 129.064 13.3215 129.598 13.8702C130.103 14.4115 130.497 15.0466 130.759 15.7397C131.046 16.477 131.23 17.2506 131.306 18.0384C131.39 18.8989 131.395 19.7653 131.321 20.6267H120.99C121.159 23.1921 122.466 24.4749 124.912 24.4749C126.792 24.4749 127.915 23.7179 128.284 22.2041H131.377C131.32 22.8371 131.138 23.4523 130.841 24.014C130.544 24.5757 130.139 25.0726 129.649 25.4756ZM127.455 15.534C126.883 14.8329 125.971 14.4824 124.719 14.4824C122.419 14.4824 121.185 15.7465 121.018 18.2746H128.284C128.301 18.2746 128.301 18.2746 128.284 18.2467C128.266 18.2188 128.301 18.2188 128.284 18.2188C128.339 17.253 128.045 16.2997 127.455 15.534Z" fill="#001268"/>
<path d="M140.436 26.705C138.059 26.705 136.455 26.0582 135.622 24.7645V32.0492H132.729V12.331H134.331L134.938 14.363C135.288 13.7704 135.9 13.253 136.775 12.8111C137.65 12.3691 138.85 12.1448 140.375 12.138C141.368 12.1106 142.355 12.3095 143.26 12.7196C144.025 13.0742 144.672 13.641 145.125 14.3529C145.569 15.057 145.896 15.8292 146.092 16.6389C146.305 17.5548 146.407 18.4928 146.396 19.4329C146.4 24.2793 144.413 26.7033 140.436 26.705ZM142.63 15.8058C142.087 14.9845 141.074 14.5739 139.59 14.5739C138.059 14.5739 137.014 14.9803 136.453 15.7931C135.893 16.6059 135.612 17.8242 135.612 19.4482C135.612 21.0365 135.874 22.232 136.398 23.0347C136.925 23.8373 137.958 24.2387 139.506 24.2387C141.054 24.2387 142.075 23.8373 142.627 23.0347C143.179 22.232 143.455 21.0357 143.455 19.4482C143.455 17.8607 143.174 16.6287 142.63 15.8058Z" fill="#001268"/>
</g>
<defs>
<linearGradient id="paint0_linear_1849_38759" x1="27.5307" y1="28.9986" x2="3.95424" y2="5.4824" gradientUnits="userSpaceOnUse">
<stop stop-color="#001FF6"/>
<stop offset="1" stop-color="#00A9FF"/>
</linearGradient>
<clipPath id="clip0_1849_38759">
<rect width="148" height="36" fill="white" transform="translate(0.5)"/>
</clipPath>
</defs>
</svg>
