<svg width="31" height="30" viewBox="0 0 31 30" fill="none" xmlns="http://www.w3.org/2000/svg">
<path d="M19.25 7.68756H8C5.2375 7.68756 3 9.92506 3 12.6876V8.175C3 5.625 5.0625 3.5625 7.6125 3.5625H14.6375C17.1875 3.5625 19.25 5.13756 19.25 7.68756Z" fill="#0071FF"/>
<path opacity="0.4" d="M22.35 15.25C21.725 15.8625 21.425 16.7875 21.675 17.725C21.9875 18.8875 23.1375 19.625 24.3375 19.625H25.5V21.4375C25.5 24.2 23.2625 26.4375 20.5 26.4375H8C5.2375 26.4375 3 24.2 3 21.4375V12.6875C3 9.925 5.2375 7.6875 8 7.6875H20.5C23.25 7.6875 25.5 9.9375 25.5 12.6875V14.4999H24.15C23.45 14.4999 22.8125 14.775 22.35 15.25Z" fill="#0071FF"/>
<path d="M28.0003 15.775V18.35C28.0003 19.05 27.4252 19.625 26.7127 19.625H24.3002C22.9502 19.625 21.7128 18.6376 21.6003 17.2876C21.5253 16.5001 21.8252 15.7625 22.3502 15.25C22.8127 14.775 23.4502 14.5 24.1502 14.5H26.7127C27.4252 14.5 28.0003 15.075 28.0003 15.775Z" fill="#0071FF"/>
<path d="M16.75 14.875H9.25C8.7375 14.875 8.3125 14.45 8.3125 13.9375C8.3125 13.425 8.7375 13 9.25 13H16.75C17.2625 13 17.6875 13.425 17.6875 13.9375C17.6875 14.45 17.2625 14.875 16.75 14.875Z" fill="#0071FF"/>
</svg>
