<svg width="120" height="120" viewBox="0 0 120 120" fill="none" xmlns="http://www.w3.org/2000/svg">
<rect width="120" height="120" rx="18" fill="url(#paint0_linear_629_3067)"/>
<g clip-path="url(#clip0_629_3067)">
<path d="M59.9094 103.103L58.7149 102.399C51.0192 97.8001 44.5194 91.4477 39.7456 83.8596C34.9717 76.2715 32.059 67.6624 31.2449 58.7346V58.6646C31.0874 56.8574 30.6411 44.7808 30.5886 43.4025L30.5273 41.6916L59.7869 31.1421L90.0266 42.383L88.714 56.945C88.1794 66.2019 85.3823 75.1865 80.5679 83.111C75.7535 91.0356 69.0687 97.6583 61.0996 102.399L59.9094 103.103ZM35.9137 58.3276C36.642 66.2784 39.1838 73.9564 43.3436 80.7711C47.5035 87.5859 53.1707 93.3561 59.9094 97.638C66.9017 93.21 72.7378 87.179 76.9337 80.0451C81.1296 72.9111 83.5644 64.8797 84.0364 56.6168V56.5512L85.0253 45.5203L59.7519 36.1259L35.3492 44.9427C35.5155 49.3708 35.8218 57.0981 35.9312 58.262L35.9137 58.3276Z" fill="#001268"/>
<path d="M95.4972 73.6292L94.8278 73.2529L79.1063 64.2829C80.186 60.4865 80.1021 56.4534 78.8656 52.7051L94.4208 43.2363L95.0553 42.8425C95.9438 42.1833 96.5618 41.2229 96.7935 40.141C97.0252 39.0591 96.8548 37.9299 96.3142 36.9645C95.7736 35.9992 94.8998 35.2639 93.8563 34.8961C92.8128 34.5284 91.6711 34.5534 90.6447 34.9665L89.4283 35.7059L74.1137 45.0347C71.5479 42.4865 68.3241 40.7019 64.8025 39.8802V21.1002C64.8433 19.9347 64.4356 18.7979 63.6633 17.924C62.891 17.0502 61.8129 16.5058 60.6512 16.4032C59.4895 16.3005 58.3327 16.6474 57.4191 17.3723C56.5055 18.0972 55.9047 19.1448 55.7406 20.2995V39.9109C52.0728 40.8022 48.7425 42.7386 46.1537 45.4854L30.1215 36.3316L29.4827 35.9685C28.4704 35.4921 27.3182 35.405 26.2458 35.7237C25.1734 36.0424 24.2557 36.7446 23.6679 37.6964C23.08 38.6483 22.863 39.7832 23.0582 40.8848C23.2534 41.9864 23.8472 42.9777 24.7264 43.6695L25.9122 44.3521L41.6643 53.3221C40.5559 57.0482 40.5864 61.0206 41.7518 64.7292L26.3366 74.1193L25.1552 74.8412C24.3273 75.5646 23.7889 76.5629 23.6394 77.6521C23.49 78.7413 23.7394 79.8478 24.3419 80.7674C24.9443 81.6871 25.859 82.3578 26.9173 82.6559C27.9755 82.9539 29.1058 82.8592 30.0996 82.3891L30.7516 81.9866L46.3287 72.5003C48.886 75.135 52.137 76.9919 55.7056 77.856V97.1786C55.91 98.296 56.5246 99.2967 57.4287 99.9843C58.3328 100.672 59.4613 100.997 60.5927 100.896C61.7241 100.794 62.7768 100.274 63.5442 99.4365C64.3117 98.599 64.7386 97.5051 64.7412 96.3691V77.8866C68.5313 77.0016 71.9704 75.004 74.6169 72.1502L90.0321 80.9452L91.2573 81.6409C92.2994 82.0412 93.4522 82.0449 94.4968 81.6513C95.5414 81.2576 96.4051 80.4941 96.9239 79.5057C97.4427 78.5172 97.5804 77.3727 97.311 76.2894C97.0415 75.2061 96.3836 74.2594 95.4622 73.6292H95.4972ZM60.3437 71.8396C57.7549 71.8344 55.2257 71.0623 53.0754 69.6208C50.925 68.1793 49.25 66.133 48.2617 63.7403C47.2734 61.3475 47.0162 58.7156 47.5225 56.1768C48.0288 53.638 49.276 51.3062 51.1065 49.4756C52.9371 47.6451 55.269 46.3979 57.8078 45.8916C60.3466 45.3852 62.9785 45.6425 65.3712 46.6307C67.764 47.619 69.8102 49.2941 71.2517 51.4444C72.6932 53.5948 73.4653 56.124 73.4705 58.7128C73.4705 62.1942 72.0875 65.5331 69.6258 67.9948C67.164 70.4566 63.8252 71.8396 60.3437 71.8396Z" fill="url(#paint1_linear_629_3067)"/>
<path d="M74.4727 102.311C74.4459 102.447 74.3986 102.579 74.3327 102.701C74.2701 102.823 74.1821 102.93 74.0745 103.016C73.9521 103.109 73.8123 103.178 73.6632 103.217C73.4728 103.272 73.2752 103.299 73.0769 103.296C72.8801 103.299 72.6839 103.272 72.495 103.217C72.3522 103.17 72.22 103.095 72.1055 102.998C71.998 102.913 71.91 102.805 71.8474 102.683C71.7808 102.56 71.7335 102.427 71.7073 102.289C71.681 102.145 71.6678 101.998 71.668 101.852C71.668 100.898 72.1449 100.421 73.0988 100.421C73.3373 100.413 73.5751 100.452 73.7989 100.535C73.9707 100.598 74.122 100.707 74.2364 100.85C74.3356 100.982 74.4111 101.13 74.4596 101.287C74.5055 101.47 74.5276 101.659 74.5252 101.847C74.5227 102.003 74.5052 102.159 74.4727 102.311ZM74.1139 101.401C74.0796 101.273 74.0217 101.153 73.9433 101.047C73.8573 100.934 73.7402 100.849 73.6064 100.802C73.2636 100.691 72.8946 100.691 72.5518 100.802C72.4189 100.85 72.3023 100.935 72.2149 101.047C72.1364 101.155 72.0786 101.276 72.0443 101.405C72.0084 101.548 71.9908 101.695 71.9918 101.843C71.9916 101.99 72.0077 102.137 72.0399 102.281C72.0739 102.411 72.1334 102.532 72.2149 102.639C72.3013 102.751 72.4184 102.834 72.5518 102.88C72.8937 102.997 73.2645 102.997 73.6064 102.88C73.7397 102.834 73.8569 102.751 73.9433 102.639C74.0218 102.531 74.0796 102.41 74.1139 102.281C74.1498 102.137 74.1674 101.99 74.1664 101.843C74.1675 101.694 74.1498 101.546 74.1139 101.401ZM73.5845 102.477C73.5181 102.536 73.4405 102.582 73.3563 102.61C73.2721 102.639 73.1831 102.65 73.0944 102.644C72.9908 102.654 72.8863 102.64 72.789 102.603C72.6918 102.565 72.6046 102.506 72.5343 102.429C72.4148 102.268 72.3546 102.07 72.3637 101.869C72.3536 101.667 72.4139 101.467 72.5343 101.305C72.6033 101.229 72.689 101.17 72.7847 101.132C72.8804 101.095 72.9834 101.081 73.0857 101.09C73.1753 101.084 73.2652 101.096 73.3501 101.126C73.435 101.155 73.5132 101.201 73.5801 101.261C73.6393 101.325 73.685 101.4 73.7144 101.482C73.7437 101.564 73.7561 101.651 73.7508 101.738H73.4182C73.4176 101.639 73.3837 101.544 73.3219 101.467C73.2881 101.437 73.2485 101.414 73.2057 101.4C73.1628 101.385 73.1176 101.38 73.0725 101.384C72.81 101.384 72.6831 101.541 72.6831 101.86C72.6831 102.18 72.81 102.346 73.0725 102.346C73.1176 102.35 73.1628 102.344 73.2057 102.33C73.2485 102.316 73.2881 102.293 73.3219 102.263C73.384 102.19 73.4181 102.097 73.4182 102H73.742C73.7486 102.086 73.7381 102.173 73.711 102.255C73.684 102.337 73.641 102.412 73.5845 102.477Z" fill="#001268"/>
</g>
<defs>
<linearGradient id="paint0_linear_629_3067" x1="6.25578e-07" y1="5.83331" x2="124.471" y2="9.25624" gradientUnits="userSpaceOnUse">
<stop stop-color="#F8F8F8"/>
<stop offset="1" stop-color="#F3FDFF"/>
</linearGradient>
<linearGradient id="paint1_linear_629_3067" x1="89.1132" y1="87.6267" x2="31.3336" y2="29.8426" gradientUnits="userSpaceOnUse">
<stop stop-color="#001FF6"/>
<stop offset="1" stop-color="#00A9FF"/>
</linearGradient>
<clipPath id="clip0_629_3067">
<rect width="75" height="89" fill="white" transform="translate(23 16)"/>
</clipPath>
</defs>
</svg>
