<svg width="48" height="28" viewBox="0 0 48 28" fill="none" xmlns="http://www.w3.org/2000/svg">
<rect width="48" height="28" rx="14" fill="#8ABEFE"/>
<rect x="4" y="4" width="20" height="20" rx="10" fill="white"/>
<path d="M13.9997 18.6668C16.577 18.6668 18.6663 16.5775 18.6663 14.0002C18.6663 11.4228 16.577 9.3335 13.9997 9.3335C11.4223 9.3335 9.33301 11.4228 9.33301 14.0002C9.33301 16.5775 11.4223 18.6668 13.9997 18.6668Z" fill="url(#paint0_linear_2601_35237)"/>
<path d="M14.0003 21.3065C13.6337 21.3065 13.3337 21.0332 13.3337 20.6665V20.6132C13.3337 20.2465 13.6337 19.9465 14.0003 19.9465C14.367 19.9465 14.667 20.2465 14.667 20.6132C14.667 20.9798 14.367 21.3065 14.0003 21.3065ZM18.7603 19.4265C18.587 19.4265 18.4203 19.3598 18.287 19.2332L18.2003 19.1465C17.9403 18.8865 17.9403 18.4665 18.2003 18.2065C18.4603 17.9465 18.8803 17.9465 19.1403 18.2065L19.227 18.2932C19.487 18.5532 19.487 18.9732 19.227 19.2332C19.1003 19.3598 18.9337 19.4265 18.7603 19.4265ZM9.24033 19.4265C9.06699 19.4265 8.90033 19.3598 8.76699 19.2332C8.50699 18.9732 8.50699 18.5532 8.76699 18.2932L8.85366 18.2065C9.11366 17.9465 9.53366 17.9465 9.79366 18.2065C10.0537 18.4665 10.0537 18.8865 9.79366 19.1465L9.70699 19.2332C9.58033 19.3598 9.40699 19.4265 9.24033 19.4265ZM20.667 14.6665H20.6137C20.247 14.6665 19.947 14.3665 19.947 13.9998C19.947 13.6332 20.247 13.3332 20.6137 13.3332C20.9803 13.3332 21.307 13.6332 21.307 13.9998C21.307 14.3665 21.0337 14.6665 20.667 14.6665ZM7.38699 14.6665H7.33366C6.96699 14.6665 6.66699 14.3665 6.66699 13.9998C6.66699 13.6332 6.96699 13.3332 7.33366 13.3332C7.70033 13.3332 8.02699 13.6332 8.02699 13.9998C8.02699 14.3665 7.75366 14.6665 7.38699 14.6665ZM18.6737 9.99317C18.5003 9.99317 18.3337 9.9265 18.2003 9.79984C17.9403 9.53984 17.9403 9.11984 18.2003 8.85984L18.287 8.77317C18.547 8.51317 18.967 8.51317 19.227 8.77317C19.487 9.03317 19.487 9.45317 19.227 9.71317L19.1403 9.79984C19.0137 9.9265 18.847 9.99317 18.6737 9.99317ZM9.32699 9.99317C9.15366 9.99317 8.98699 9.9265 8.85366 9.79984L8.76699 9.7065C8.50699 9.4465 8.50699 9.0265 8.76699 8.7665C9.02699 8.5065 9.44699 8.5065 9.70699 8.7665L9.79366 8.85317C10.0537 9.11317 10.0537 9.53317 9.79366 9.79317C9.66699 9.9265 9.49366 9.99317 9.32699 9.99317ZM14.0003 8.0265C13.6337 8.0265 13.3337 7.75317 13.3337 7.3865V7.33317C13.3337 6.9665 13.6337 6.6665 14.0003 6.6665C14.367 6.6665 14.667 6.9665 14.667 7.33317C14.667 7.69984 14.367 8.0265 14.0003 8.0265Z" fill="url(#paint1_linear_2601_35237)"/>
<defs>
<linearGradient id="paint0_linear_2601_35237" x1="8.11562" y1="12.377" x2="13.3792" y2="22.4252" gradientUnits="userSpaceOnUse">
<stop stop-color="#0171FD"/>
<stop offset="1" stop-color="#1AE52D"/>
</linearGradient>
<linearGradient id="paint1_linear_2601_35237" x1="4.75743" y1="11.4404" x2="13.0137" y2="27.2017" gradientUnits="userSpaceOnUse">
<stop stop-color="#0171FD"/>
<stop offset="1" stop-color="#1AE52D"/>
</linearGradient>
</defs>
</svg>
