<svg width="20" height="20" viewBox="0 0 20 20" fill="none" xmlns="http://www.w3.org/2000/svg">
<path d="M3.66634 5.83333C3.66634 6.47767 3.14401 7 2.49967 7C1.85534 7 1.33301 6.47767 1.33301 5.83333C1.33301 5.189 1.85534 4.66667 2.49967 4.66667C3.14401 4.66667 3.66634 5.189 3.66634 5.83333Z" fill="white" stroke="#FEFFFF"/>
<path d="M18.6663 5.83333C18.6663 6.47767 18.144 7 17.4997 7C16.8553 7 16.333 6.47767 16.333 5.83333C16.333 5.189 16.8553 4.66667 17.4997 4.66667C18.144 4.66667 18.6663 5.189 18.6663 5.83333Z" fill="white" stroke="#FEFFFF"/>
<path d="M6.24967 13.75V15.4167C6.24967 15.925 5.94134 16.3667 5.50801 16.55C5.34967 16.625 5.18301 16.6667 4.99967 16.6667H3.33301C2.64134 16.6667 2.08301 16.1083 2.08301 15.4167V13.75C2.08301 13.0583 2.64134 12.5 3.33301 12.5H4.99967C5.69134 12.5 6.24967 13.0583 6.24967 13.75Z" fill="white"/>
<path d="M17.9167 13.75V15.4167C17.9167 16.1083 17.3583 16.6667 16.6667 16.6667H15C14.8167 16.6667 14.65 16.625 14.4917 16.55C14.0583 16.3667 13.75 15.925 13.75 15.4167V13.75C13.75 13.0583 14.3083 12.5 15 12.5H16.6667C17.3583 12.5 17.9167 13.0583 17.9167 13.75Z" fill="white"/>
<path d="M12.5 4.58333V7.08333C12.5 7.76667 11.9333 8.33333 11.25 8.33333H8.75C8.06667 8.33333 7.5 7.76667 7.5 7.08333V4.58333C7.5 3.9 8.06667 3.33333 8.75 3.33333H11.25C11.9333 3.33333 12.5 3.9 12.5 4.58333Z" fill="white"/>
<g opacity="0.4">
<path opacity="0.4" d="M7.50033 5.20833H4.16699C3.82533 5.20833 3.54199 5.49167 3.54199 5.83333C3.54199 6.175 3.82533 6.45833 4.16699 6.45833H6.30866C4.60033 7.725 3.54199 9.825 3.54199 12.0833C3.54199 12.25 3.55033 12.4084 3.57533 12.575C3.60866 12.8917 3.88366 13.125 4.19199 13.125C4.21699 13.125 4.24199 13.125 4.26699 13.125C4.60866 13.0833 4.85866 12.775 4.81699 12.4333C4.80033 12.3167 4.80033 12.2083 4.80033 12.0917C4.80033 9.92501 5.97533 7.92498 7.79199 7.00831C8.10033 6.84998 8.22533 6.47502 8.06699 6.16669C8.05866 6.15835 8.05033 6.15 8.05033 6.14166C8.10033 6.05 8.14199 5.95001 8.14199 5.84168C8.12533 5.49168 7.84199 5.20833 7.50033 5.20833Z" fill="white"/>
<path opacity="0.4" d="M13.6917 6.45833H15.8333C16.175 6.45833 16.4583 6.175 16.4583 5.83333C16.4583 5.49167 16.175 5.20833 15.8333 5.20833H12.5C12.1583 5.20833 11.875 5.49167 11.875 5.83333C11.875 5.94167 11.9083 6.04166 11.9667 6.13332C11.9583 6.14166 11.95 6.15001 11.95 6.15835C11.7917 6.46668 11.9167 6.84169 12.225 7.00002C14.0417 7.91669 15.2167 9.91667 15.2167 12.0833C15.2167 12.2 15.2083 12.3083 15.2 12.425C15.1583 12.7666 15.4083 13.075 15.75 13.1167C15.775 13.1167 15.8 13.1167 15.825 13.1167C16.1417 13.1167 16.4083 12.8833 16.4417 12.5667C16.4583 12.4 16.475 12.2417 16.475 12.075C16.4583 9.82499 15.4 7.725 13.6917 6.45833Z" fill="white"/>
</g>
</svg>
