<svg width="21" height="21" viewBox="0 0 21 21" fill="none" xmlns="http://www.w3.org/2000/svg">
<path d="M0.902225 13.3071C0.34695 11.409 0.367005 9.38888 0.959852 7.50215C1.5527 5.61543 2.69172 3.94685 4.23287 2.70742C5.77403 1.46799 7.64811 0.713362 9.61815 0.538963C11.5882 0.364564 13.5657 0.778226 15.3006 1.72764C17.0356 2.67705 18.45 4.11957 19.3651 5.87281C20.2802 7.62604 20.6549 9.61124 20.4417 11.5774C20.2286 13.5435 19.4372 15.4023 18.1676 16.9187C16.898 18.4351 15.2073 19.541 13.3092 20.0966C12.0487 20.4659 10.7278 20.5833 9.42197 20.4419C8.11613 20.3006 6.85094 19.9033 5.69873 19.2728C4.54651 18.6422 3.52984 17.7908 2.70683 16.7672C1.88382 15.7436 1.27061 14.5679 0.902225 13.3071Z" fill="#3C3C3C"/>
<path fill-rule="evenodd" clip-rule="evenodd" d="M8.0725 9.5025L10.5 7.075L12.9288 9.50375L14.3412 8.09125L10.5 4.25L6.66 8.09L8.0725 9.5025ZM4.25 10.5L5.6625 9.0875L7.075 10.5L5.6625 11.9125L4.25 10.5ZM8.0725 11.4975L10.5 13.925L12.9288 11.4962L14.3412 12.9081L10.5 16.75L6.66 12.91L6.65812 12.9081L8.0725 11.4975ZM13.925 10.5L15.3375 9.0875L16.75 10.5L15.3375 11.9125L13.925 10.5ZM11.9325 10.4988H11.9337V10.5L10.5 11.9337L9.06812 10.5025L9.06563 10.5L9.06812 10.4981L9.31875 10.2469L9.44062 10.125L10.5 9.06625L11.9331 10.4994L11.9325 10.4988Z" fill="#F6C83A"/>
</svg>
