<svg width="12" height="12" viewBox="0 0 12 12" fill="none" xmlns="http://www.w3.org/2000/svg">
<mask id="path-1-inside-1_2183_39310" fill="white">
<path d="M5.99992 10.875C5.26492 10.875 4.59492 10.47 4.25492 9.81999L1.20492 4.025C0.794924 3.25 0.929924 2.34999 1.53992 1.72499C2.14992 1.09999 3.04992 0.949995 3.82992 1.33999L5.44992 2.15C5.78992 2.32 6.19992 2.32 6.54492 2.15L8.16492 1.33999C8.94992 0.949995 9.84992 1.09999 10.4599 1.72499C11.0699 2.34999 11.2049 3.25 10.7949 4.025L7.74492 9.81999C7.40492 10.47 6.73492 10.875 5.99992 10.875ZM2.93992 1.87499C2.58492 1.87499 2.27492 2.045 2.07492 2.24999C1.77492 2.55999 1.55992 3.095 1.86492 3.67499L4.91492 9.47C5.12992 9.88 5.53492 10.125 5.99492 10.125C6.45492 10.125 6.85992 9.88 7.07492 9.47L10.1249 3.67499C10.4299 3.095 10.2199 2.555 9.91492 2.24999C9.61492 1.94499 9.08492 1.71999 8.49492 2.00999L6.87492 2.81999C6.31992 3.09499 5.66492 3.09499 5.10992 2.81999L3.49492 2.00999C3.30492 1.91499 3.11492 1.87499 2.93992 1.87499Z"/>
</mask>
<path d="M5.99992 10.875C5.26492 10.875 4.59492 10.47 4.25492 9.81999L1.20492 4.025C0.794924 3.25 0.929924 2.34999 1.53992 1.72499C2.14992 1.09999 3.04992 0.949995 3.82992 1.33999L5.44992 2.15C5.78992 2.32 6.19992 2.32 6.54492 2.15L8.16492 1.33999C8.94992 0.949995 9.84992 1.09999 10.4599 1.72499C11.0699 2.34999 11.2049 3.25 10.7949 4.025L7.74492 9.81999C7.40492 10.47 6.73492 10.875 5.99992 10.875ZM2.93992 1.87499C2.58492 1.87499 2.27492 2.045 2.07492 2.24999C1.77492 2.55999 1.55992 3.095 1.86492 3.67499L4.91492 9.47C5.12992 9.88 5.53492 10.125 5.99492 10.125C6.45492 10.125 6.85992 9.88 7.07492 9.47L10.1249 3.67499C10.4299 3.095 10.2199 2.555 9.91492 2.24999C9.61492 1.94499 9.08492 1.71999 8.49492 2.00999L6.87492 2.81999C6.31992 3.09499 5.66492 3.09499 5.10992 2.81999L3.49492 2.00999C3.30492 1.91499 3.11492 1.87499 2.93992 1.87499Z" fill="#FF0000"/>
<path d="M4.25492 9.81999L5.14103 9.3565L5.13984 9.35425L4.25492 9.81999ZM1.20492 4.025L2.08984 3.55925L2.08885 3.55737L1.20492 4.025ZM3.82992 1.33999L4.27714 0.445568V0.445568L3.82992 1.33999ZM5.44992 2.15L5.00271 3.04442L5.44992 2.15ZM6.54492 2.15L6.98694 3.04702L6.99214 3.04442L6.54492 2.15ZM8.16492 1.33999L7.71999 0.444427L7.71771 0.445568L8.16492 1.33999ZM10.7949 4.025L9.911 3.55737L9.91001 3.55925L10.7949 4.025ZM7.74492 9.81999L6.86 9.35425L6.85883 9.3565L7.74492 9.81999ZM2.07492 2.24999L1.35914 1.55167L1.35632 1.55457L2.07492 2.24999ZM1.86492 3.67499L0.97984 4.14043L0.980006 4.14074L1.86492 3.67499ZM4.91492 9.47L5.80055 9.00558L5.79984 9.00425L4.91492 9.47ZM7.07492 9.47L6.19 9.00425L6.1893 9.00559L7.07492 9.47ZM10.1249 3.67499L11.0098 4.14074L11.01 4.14043L10.1249 3.67499ZM9.91492 2.24999L9.20197 2.95126L9.20782 2.9571L9.91492 2.24999ZM8.49492 2.00999L8.05379 1.11253L8.04771 1.11557L8.49492 2.00999ZM6.87492 2.81999L7.31891 3.71604L7.32214 3.71442L6.87492 2.81999ZM5.10992 2.81999L4.6616 3.71388L4.66594 3.71603L5.10992 2.81999ZM3.49492 2.00999L3.94324 1.11612L3.94214 1.11557L3.49492 2.00999ZM5.99992 9.875C5.63608 9.875 5.30803 9.67578 5.14102 9.3565L3.36883 10.2835C3.88182 11.2642 4.89377 11.875 5.99992 11.875V9.875ZM5.13984 9.35425L2.08984 3.55925L0.320006 4.49074L3.37001 10.2857L5.13984 9.35425ZM2.08885 3.55737C1.88392 3.17001 1.94609 2.74054 2.25557 2.42346L0.824282 1.02653C-0.0862468 1.95945 -0.294076 3.32998 0.320998 4.49262L2.08885 3.55737ZM2.25557 2.42346C2.5609 2.11062 2.99055 2.03834 3.38271 2.23442L4.27714 0.445568C3.1093 -0.13835 1.73895 0.0893674 0.824282 1.02653L2.25557 2.42346ZM3.38271 2.23442L5.00271 3.04442L5.89714 1.25557L4.27714 0.445568L3.38271 2.23442ZM5.00271 3.04442C5.62627 3.3562 6.36532 3.35331 6.98693 3.04701L6.10292 1.25298C6.03453 1.28668 5.95358 1.28379 5.89714 1.25557L5.00271 3.04442ZM6.99214 3.04442L8.61214 2.23442L7.71771 0.445568L6.09771 1.25557L6.99214 3.04442ZM8.60985 2.23556C9.00963 2.03694 9.44005 2.11175 9.74428 2.42346L11.1756 1.02653C10.2598 0.0882385 8.89021 -0.136954 7.71999 0.44443L8.60985 2.23556ZM9.74428 2.42346C10.0538 2.74054 10.1159 3.17001 9.911 3.55737L11.6789 4.49262C12.2939 3.32998 12.0861 1.95945 11.1756 1.02653L9.74428 2.42346ZM9.91001 3.55925L6.86001 9.35425L8.62984 10.2857L11.6798 4.49074L9.91001 3.55925ZM6.85883 9.3565C6.69182 9.67578 6.36377 9.875 5.99992 9.875V11.875C7.10608 11.875 8.11803 11.2642 8.63102 10.2835L6.85883 9.3565ZM2.93992 0.874995C2.26634 0.874995 1.71005 1.19199 1.35914 1.55167L2.79071 2.94832C2.80947 2.92909 2.83798 2.90767 2.87007 2.89279C2.9002 2.87881 2.92354 2.87499 2.93992 2.87499V0.874995ZM1.35632 1.55457C0.841245 2.08682 0.422062 3.07973 0.97984 4.14043L2.75001 3.20956C2.72668 3.1652 2.72032 3.13585 2.71826 3.12023C2.71612 3.10408 2.71685 3.08923 2.72034 3.07316C2.72851 3.03547 2.75394 2.98632 2.79353 2.94542L1.35632 1.55457ZM0.980006 4.14074L4.03001 9.93574L5.79984 9.00425L2.74984 3.20925L0.980006 4.14074ZM4.0293 9.93441C4.41629 10.6724 5.16162 11.125 5.99492 11.125V9.125C5.90822 9.125 5.84355 9.0876 5.80054 9.00559L4.0293 9.93441ZM5.99492 11.125C6.82822 11.125 7.57355 10.6724 7.96054 9.93441L6.1893 9.00559C6.14629 9.0876 6.08162 9.125 5.99492 9.125V11.125ZM7.95984 9.93574L11.0098 4.14074L9.24001 3.20925L6.19001 9.00425L7.95984 9.93574ZM11.01 4.14043C11.5631 3.08857 11.1637 2.0846 10.622 1.54289L9.20782 2.9571C9.23925 2.98854 9.2629 3.03162 9.27076 3.06839C9.27412 3.08409 9.27497 3.0996 9.27261 3.11712C9.27032 3.13413 9.26348 3.16461 9.23984 3.20956L11.01 4.14043ZM10.6278 1.54876C10.1048 1.01696 9.12303 0.586994 8.05381 1.11255L8.93604 2.90744C8.98273 2.8845 9.01408 2.87831 9.03153 2.87641C9.04947 2.87446 9.0654 2.87571 9.08172 2.8796C9.11963 2.88864 9.16586 2.91449 9.202 2.95123L10.6278 1.54876ZM8.04771 1.11557L6.42771 1.92557L7.32214 3.71442L8.94214 2.90442L8.04771 1.11557ZM6.43094 1.92396C6.1557 2.06034 5.82915 2.06034 5.55391 1.92396L4.66594 3.71603C5.5007 4.12965 6.48415 4.12965 7.31891 3.71603L6.43094 1.92396ZM5.55824 1.92612L3.94324 1.11612L3.0466 2.90387L4.6616 3.71387L5.55824 1.92612ZM3.94214 1.11557C3.61193 0.950463 3.26865 0.874995 2.93992 0.874995V2.87499C2.9612 2.87499 2.99792 2.87953 3.04771 2.90442L3.94214 1.11557Z" fill="#FF0000" mask="url(#path-1-inside-1_2183_39310)"/>
</svg>
