<svg width="12" height="12" viewBox="0 0 12 12" fill="none" xmlns="http://www.w3.org/2000/svg">
<mask id="path-1-inside-1_2183_37334" fill="white">
<path d="M9.05992 10.875C8.75992 10.875 8.45492 10.805 8.16492 10.66L6.54492 9.85C6.20492 9.68 5.79492 9.68 5.44992 9.85L3.82992 10.66C3.04992 11.05 2.14992 10.9 1.53992 10.275C0.929924 9.65 0.794924 8.75 1.20492 7.975L4.25492 2.18C4.59492 1.53 5.26492 1.125 5.99992 1.125C6.73492 1.125 7.40492 1.53 7.74492 2.18L10.7949 7.975C11.1999 8.75 11.0699 9.65 10.4599 10.275C10.0749 10.67 9.57492 10.875 9.05992 10.875ZM5.99992 8.97C6.30492 8.97 6.60492 9.04 6.87992 9.175L8.49992 9.985C9.08492 10.28 9.61992 10.055 9.91992 9.745C10.2199 9.435 10.4349 8.9 10.1299 8.32L7.07992 2.525C6.86492 2.12 6.45992 1.875 5.99992 1.875C5.53992 1.875 5.13492 2.12 4.91992 2.53L1.86992 8.325C1.56492 8.905 1.77492 9.445 2.07992 9.75C2.38492 10.055 2.91492 10.28 3.49992 9.99L5.11992 9.18C5.39492 9.04 5.69492 8.97 5.99992 8.97Z"/>
</mask>
<path d="M9.05992 10.875C8.75992 10.875 8.45492 10.805 8.16492 10.66L6.54492 9.85C6.20492 9.68 5.79492 9.68 5.44992 9.85L3.82992 10.66C3.04992 11.05 2.14992 10.9 1.53992 10.275C0.929924 9.65 0.794924 8.75 1.20492 7.975L4.25492 2.18C4.59492 1.53 5.26492 1.125 5.99992 1.125C6.73492 1.125 7.40492 1.53 7.74492 2.18L10.7949 7.975C11.1999 8.75 11.0699 9.65 10.4599 10.275C10.0749 10.67 9.57492 10.875 9.05992 10.875ZM5.99992 8.97C6.30492 8.97 6.60492 9.04 6.87992 9.175L8.49992 9.985C9.08492 10.28 9.61992 10.055 9.91992 9.745C10.2199 9.435 10.4349 8.9 10.1299 8.32L7.07992 2.525C6.86492 2.12 6.45992 1.875 5.99992 1.875C5.53992 1.875 5.13492 2.12 4.91992 2.53L1.86992 8.325C1.56492 8.905 1.77492 9.445 2.07992 9.75C2.38492 10.055 2.91492 10.28 3.49992 9.99L5.11992 9.18C5.39492 9.04 5.69492 8.97 5.99992 8.97Z" fill="#00AF00"/>
<path d="M8.16492 10.66L8.61214 9.76557H8.61214L8.16492 10.66ZM6.54492 9.85L6.09771 10.7444H6.09771L6.54492 9.85ZM5.44992 9.85L5.00791 8.95297L5.00271 8.95557L5.44992 9.85ZM3.82992 10.66L3.38271 9.76557H3.38271L3.82992 10.66ZM1.20492 7.975L2.08885 8.44263L2.08984 8.44075L1.20492 7.975ZM4.25492 2.18L5.13985 2.64575L5.14102 2.6435L4.25492 2.18ZM7.74492 2.18L6.85882 2.6435L6.86001 2.64575L7.74492 2.18ZM10.7949 7.975L11.6812 7.51185L11.6798 7.50925L10.7949 7.975ZM10.4599 10.275L9.74428 9.57653L9.74381 9.57702L10.4599 10.275ZM6.87992 9.175L7.32715 8.28055L7.3206 8.27733L6.87992 9.175ZM8.49992 9.985L8.95019 9.0921L8.94714 9.09057L8.49992 9.985ZM10.1299 8.32L11.015 7.85457L11.0148 7.85425L10.1299 8.32ZM7.07992 2.525L7.96485 2.05925L7.96318 2.05611L7.07992 2.525ZM4.91992 2.53L5.80484 2.99575L5.80554 2.99441L4.91992 2.53ZM1.86992 8.325L0.985006 7.85925L0.98484 7.85957L1.86992 8.325ZM3.49992 9.99L3.94407 10.886L3.94714 10.8844L3.49992 9.99ZM5.11992 9.18L5.56715 10.0745L5.57361 10.0712L5.11992 9.18ZM9.05992 9.875C8.91702 9.875 8.76495 9.84198 8.61214 9.76557L7.71771 11.5544C8.1449 11.768 8.60283 11.875 9.05992 11.875V9.875ZM8.61214 9.76557L6.99214 8.95557L6.09771 10.7444L7.71771 11.5544L8.61214 9.76557ZM6.99214 8.95557C6.36858 8.64379 5.62953 8.64669 5.00792 8.95299L5.89193 10.747C5.96032 10.7133 6.04127 10.7162 6.09771 10.7444L6.99214 8.95557ZM5.00271 8.95557L3.38271 9.76557L4.27714 11.5544L5.89714 10.7444L5.00271 8.95557ZM3.38271 9.76557C2.99055 9.96166 2.5609 9.88937 2.25557 9.57653L0.824282 10.9735C1.73895 11.9106 3.1093 12.1383 4.27714 11.5544L3.38271 9.76557ZM2.25557 9.57653C1.94609 9.25945 1.88392 8.82999 2.08885 8.44263L0.320998 7.50737C-0.294076 8.67001 -0.0862467 10.0405 0.824282 10.9735L2.25557 9.57653ZM2.08984 8.44075L5.13984 2.64575L3.37001 1.71425L0.320006 7.50925L2.08984 8.44075ZM5.14102 2.6435C5.30803 2.32422 5.63608 2.125 5.99992 2.125V0.125C4.89377 0.125 3.88182 0.735783 3.36883 1.7165L5.14102 2.6435ZM5.99992 2.125C6.36377 2.125 6.69182 2.32422 6.85883 2.6435L8.63102 1.7165C8.11803 0.735783 7.10608 0.125 5.99992 0.125V2.125ZM6.86001 2.64575L9.91001 8.44075L11.6798 7.50925L8.62984 1.71425L6.86001 2.64575ZM9.90864 8.43815C10.1145 8.83206 10.0504 9.26291 9.74428 9.57653L11.1756 10.9735C12.0895 10.0371 12.2854 8.66794 11.6812 7.51185L9.90864 8.43815ZM9.74381 9.57702C9.54536 9.78062 9.30288 9.875 9.05992 9.875V11.875C9.84696 11.875 10.6045 11.5594 11.176 10.973L9.74381 9.57702ZM5.99992 9.97C6.15107 9.97 6.30042 10.0045 6.43925 10.0727L7.3206 8.27733C6.90942 8.07548 6.45878 7.97 5.99992 7.97V9.97ZM6.43271 10.0694L8.05271 10.8794L8.94714 9.09057L7.32714 8.28057L6.43271 10.0694ZM8.04966 10.8779C9.11882 11.417 10.1136 10.9828 10.6385 10.4404L9.20132 9.04958C9.16719 9.08485 9.12212 9.11028 9.0854 9.11902C9.06987 9.12271 9.05522 9.12374 9.03908 9.12191C9.0235 9.12015 8.99434 9.11437 8.95019 9.0921L8.04966 10.8779ZM10.6385 10.4404C11.1536 9.90817 11.5728 8.91526 11.015 7.85457L9.24484 8.78543C9.26817 8.8298 9.27453 8.85914 9.27659 8.87476C9.27872 8.89092 9.278 8.90576 9.27451 8.92184C9.26634 8.95952 9.2409 9.00868 9.20132 9.04958L10.6385 10.4404ZM11.0148 7.85425L7.96484 2.05925L6.19501 2.99075L9.24501 8.78575L11.0148 7.85425ZM7.96318 2.05611C7.57543 1.3257 6.83151 0.875 5.99992 0.875V2.875C6.08834 2.875 6.15442 2.9143 6.19667 2.99389L7.96318 2.05611ZM5.99992 0.875C5.16662 0.875 4.42129 1.32761 4.0343 2.06559L5.80554 2.99441C5.84855 2.91239 5.91323 2.875 5.99992 2.875V0.875ZM4.03501 2.06425L0.985006 7.85925L2.75484 8.79075L5.80484 2.99575L4.03501 2.06425ZM0.98484 7.85957C0.431707 8.91143 0.831107 9.9154 1.37282 10.4571L2.78703 9.04289C2.75559 9.01146 2.73194 8.96837 2.72409 8.93161C2.72073 8.9159 2.71987 8.9004 2.72223 8.88288C2.72452 8.86587 2.73137 8.83538 2.75501 8.79043L0.98484 7.85957ZM1.37282 10.4571C1.89423 10.9785 2.87472 11.4161 3.94407 10.886L3.05578 9.09405C3.01123 9.11613 2.98171 9.12188 2.96564 9.12364C2.94902 9.12545 2.93359 9.12438 2.91688 9.1204C2.87802 9.11113 2.8282 9.08406 2.78703 9.04289L1.37282 10.4571ZM3.94714 10.8844L5.56714 10.0744L4.67271 8.28557L3.05271 9.09557L3.94714 10.8844ZM5.57361 10.0712C5.70508 10.0042 5.84922 9.97 5.99992 9.97V7.97C5.54063 7.97 5.08477 8.07577 4.66624 8.28884L5.57361 10.0712Z" fill="#00AF00" mask="url(#path-1-inside-1_2183_37334)"/>
</svg>
