<svg width="17" height="17" viewBox="0 0 17 17" fill="none" xmlns="http://www.w3.org/2000/svg">
<path opacity="0.4" d="M2.47949 15.5834V3.54169C2.47949 2.12502 3.42866 1.41669 4.60449 1.41669H10.2712C11.447 1.41669 12.3962 2.12502 12.3962 3.54169V15.5834H2.47949Z" fill="url(#paint0_linear_2578_16187)"/>
<path d="M13.4587 16.1146H1.41699C1.12658 16.1146 0.885742 15.8737 0.885742 15.5833C0.885742 15.2929 1.12658 15.0521 1.41699 15.0521H13.4587C13.7491 15.0521 13.9899 15.2929 13.9899 15.5833C13.9899 15.8737 13.7491 16.1146 13.4587 16.1146Z" fill="url(#paint1_linear_2578_16187)"/>
<path d="M5.58875 7.08335H9.29333C10.03 7.08335 10.6321 6.72919 10.6321 5.7446V4.87335C10.625 3.89585 10.0229 3.54169 9.28625 3.54169H5.58167C4.85208 3.54169 4.25 3.89585 4.25 4.88044V5.75169C4.25 6.72919 4.85208 7.08335 5.58875 7.08335Z" fill="url(#paint2_linear_2578_16187)"/>
<path d="M6.72949 9.73956H4.60449C4.31408 9.73956 4.07324 9.49873 4.07324 9.20831C4.07324 8.9179 4.31408 8.67706 4.60449 8.67706H6.72949C7.01991 8.67706 7.26074 8.9179 7.26074 9.20831C7.26074 9.49873 7.01991 9.73956 6.72949 9.73956Z" fill="url(#paint3_linear_2578_16187)"/>
<path d="M16.1143 7.08331V11.3333C16.1143 11.6237 15.8805 11.8646 15.583 11.8646L12.3955 11.8716V10.8091L15.0518 10.8021V7.40914L13.9255 6.84956C13.6634 6.72206 13.5572 6.40331 13.6918 6.13414C13.8193 5.87206 14.1451 5.77289 14.4072 5.90039L15.8238 6.60873C16.0009 6.70081 16.1143 6.88497 16.1143 7.08331Z" fill="url(#paint4_linear_2578_16187)"/>
<defs>
<linearGradient id="paint0_linear_2578_16187" x1="0.779289" y1="-6.90623" x2="-12.3769" y2="11.5529" gradientUnits="userSpaceOnUse">
<stop stop-color="#01A0FF"/>
<stop offset="1" stop-color="#0123F7"/>
</linearGradient>
<linearGradient id="paint1_linear_2578_16187" x1="-1.36095" y1="14.4278" x2="-1.44527" y2="16.5121" gradientUnits="userSpaceOnUse">
<stop stop-color="#01A0FF"/>
<stop offset="1" stop-color="#0123F7"/>
</linearGradient>
<linearGradient id="paint2_linear_2578_16187" x1="3.1558" y1="1.46096" x2="1.3663" y2="7.92448" gradientUnits="userSpaceOnUse">
<stop stop-color="#01A0FF"/>
<stop offset="1" stop-color="#0123F7"/>
</linearGradient>
<linearGradient id="paint3_linear_2578_16187" x1="3.52675" y1="8.05284" x2="3.18891" y2="10.0843" gradientUnits="userSpaceOnUse">
<stop stop-color="#01A0FF"/>
<stop offset="1" stop-color="#0123F7"/>
</linearGradient>
<linearGradient id="paint4_linear_2578_16187" x1="11.7579" y1="2.3045" x2="5.96847" y2="9.46509" gradientUnits="userSpaceOnUse">
<stop stop-color="#01A0FF"/>
<stop offset="1" stop-color="#0123F7"/>
</linearGradient>
</defs>
</svg>
