<svg width="24" height="24" viewBox="0 0 24 24" fill="none" xmlns="http://www.w3.org/2000/svg">
<path opacity="0.4" d="M20.03 6.82018L14.28 2.79018C12.71 1.69018 10.31 1.75018 8.8 2.92018L3.79 6.83018C2.78 7.61018 2 9.21018 2 10.4702V17.3702C2 19.9202 4.07 22.0002 6.61 22.0002H17.38C19.92 22.0002 21.99 19.9302 21.99 17.3802V10.6002C22 9.25018 21.13 7.59018 20.03 6.82018Z" fill="url(#paint0_linear_2568_32638)"/>
<path d="M13.4004 8.51025H10.6004C8.68035 8.51025 7.11035 10.0703 7.11035 12.0003V14.7903C7.11035 16.7103 8.68035 18.2803 10.6004 18.2803H13.3904C15.3104 18.2803 16.8804 16.7203 16.8804 14.7903V12.0003C16.8804 10.0803 15.3204 8.51025 13.4004 8.51025ZM15.4904 12.0003V12.7003H12.7004V9.91025H13.4004C14.5504 9.91025 15.4904 10.8503 15.4904 12.0003ZM10.6004 9.91025H11.3004V12.7003H8.51035V12.0003C8.51035 10.8503 9.45035 9.91025 10.6004 9.91025ZM8.51035 14.7903V14.0903H11.3004V16.8803H10.6004C9.45035 16.8803 8.51035 15.9403 8.51035 14.7903ZM13.4004 16.8803H12.7004V14.0903H15.4904V14.7903C15.4904 15.9403 14.5504 16.8803 13.4004 16.8803Z" fill="url(#paint1_linear_2568_32638)"/>
<defs>
<linearGradient id="paint0_linear_2568_32638" x1="-1.42728" y1="-9.74623" x2="-17.1275" y2="21.7111" gradientUnits="userSpaceOnUse">
<stop stop-color="#01A0FF"/>
<stop offset="1" stop-color="#0123F7"/>
</linearGradient>
<linearGradient id="paint1_linear_2568_32638" x1="5.43529" y1="2.77038" x2="-2.23336" y2="18.1414" gradientUnits="userSpaceOnUse">
<stop stop-color="#01A0FF"/>
<stop offset="1" stop-color="#0123F7"/>
</linearGradient>
</defs>
</svg>
