<svg width="30" height="30" viewBox="0 0 30 30" fill="none" xmlns="http://www.w3.org/2000/svg">
<rect width="30" height="30" rx="5.33333" fill="#E6F1FF"/>
<path d="M18.7989 21.9556V22.2133C17.4834 23.0578 15.91 23.5555 14.2212 23.5555C12.5056 23.5555 10.9056 23.04 9.57227 22.16V21.9556C9.57227 19.8844 11.6434 18.1955 14.1856 18.1955C16.7367 18.1955 18.7989 19.8844 18.7989 21.9556Z" fill="url(#paint0_linear_2186_39533)"/>
<path opacity="0.4" d="M22.6662 15.1111C22.6662 18.0889 21.1285 20.7022 18.7996 22.2133V21.9555C18.7996 19.8844 16.7373 18.1955 14.1862 18.1955C11.644 18.1955 9.5729 19.8844 9.5729 21.9555V22.16C7.28846 20.6489 5.77734 18.0622 5.77734 15.1111C5.77734 10.4444 9.55512 6.66665 14.2218 6.66665C15.3862 6.66665 16.4973 6.89775 17.5107 7.32442C17.3951 7.67997 17.3329 8.05332 17.3329 8.44443C17.3329 9.11109 17.5196 9.7422 17.8485 10.2755C18.0262 10.5778 18.2573 10.8533 18.524 11.0844C19.1462 11.6533 19.9729 12 20.8885 12C21.2796 12 21.6529 11.9377 21.9996 11.8133C22.4262 12.8266 22.6662 13.9466 22.6662 15.1111Z" fill="url(#paint1_linear_2186_39533)"/>
<path d="M23.5276 6.07112C22.8876 5.34223 21.9365 4.88888 20.8876 4.88888C19.892 4.88888 18.9854 5.29779 18.3365 5.96445C17.9631 6.34668 17.6787 6.80887 17.5098 7.32442C17.3943 7.67998 17.332 8.05332 17.332 8.44443C17.332 9.1111 17.5187 9.74221 17.8476 10.2755C18.0254 10.5778 18.2565 10.8533 18.5231 11.0844C19.1454 11.6533 19.972 12 20.8876 12C21.2787 12 21.652 11.9377 21.9987 11.8133C22.8165 11.5555 23.5009 10.9955 23.9276 10.2755C24.1143 9.97332 24.2565 9.62665 24.3365 9.27109C24.4076 9.00443 24.4431 8.72888 24.4431 8.44443C24.4431 7.53777 24.0965 6.70223 23.5276 6.07112ZM22.212 9.09331H21.5543V9.78666C21.5543 10.1511 21.252 10.4533 20.8876 10.4533C20.5231 10.4533 20.2209 10.1511 20.2209 9.78666V9.09331H19.5631C19.1987 9.09331 18.8965 8.79108 18.8965 8.42664C18.8965 8.06219 19.1987 7.75997 19.5631 7.75997H20.2209V7.1289C20.2209 6.76445 20.5231 6.46223 20.8876 6.46223C21.252 6.46223 21.5543 6.76445 21.5543 7.1289V7.75997H22.212C22.5765 7.75997 22.8787 8.06219 22.8787 8.42664C22.8787 8.79108 22.5854 9.09331 22.212 9.09331Z" fill="url(#paint2_linear_2186_39533)"/>
<path d="M14.1863 17.0932C15.5657 17.0932 16.684 15.9749 16.684 14.5954C16.684 13.2159 15.5657 12.0976 14.1863 12.0976C12.8068 12.0976 11.6885 13.2159 11.6885 14.5954C11.6885 15.9749 12.8068 17.0932 14.1863 17.0932Z" fill="url(#paint3_linear_2186_39533)"/>
<defs>
<linearGradient id="paint0_linear_2186_39533" x1="7.99036" y1="15.0465" x2="5.17448" y2="24.7622" gradientUnits="userSpaceOnUse">
<stop stop-color="#01A0FF"/>
<stop offset="1" stop-color="#0123F7"/>
</linearGradient>
<linearGradient id="paint1_linear_2186_39533" x1="2.88176" y1="-2.46701" x2="-8.70371" y2="22.7597" gradientUnits="userSpaceOnUse">
<stop stop-color="#01A0FF"/>
<stop offset="1" stop-color="#0123F7"/>
</linearGradient>
<linearGradient id="paint2_linear_2186_39533" x1="16.1128" y1="0.7111" x2="10.5312" y2="11.8989" gradientUnits="userSpaceOnUse">
<stop stop-color="#01A0FF"/>
<stop offset="1" stop-color="#0123F7"/>
</linearGradient>
<linearGradient id="paint3_linear_2186_39533" x1="10.832" y1="9.16275" x2="6.91089" y2="17.0222" gradientUnits="userSpaceOnUse">
<stop stop-color="#01A0FF"/>
<stop offset="1" stop-color="#0123F7"/>
</linearGradient>
</defs>
</svg>
