<svg width="20" height="21" viewBox="0 0 20 21" fill="none" xmlns="http://www.w3.org/2000/svg">
<path d="M12.5003 19.4583H7.50033C2.97533 19.4583 1.04199 17.525 1.04199 13V7.99999C1.04199 3.47499 2.97533 1.54166 7.50033 1.54166H12.5003C17.0253 1.54166 18.9587 3.47499 18.9587 7.99999V13C18.9587 17.525 17.0253 19.4583 12.5003 19.4583ZM7.50033 2.79166C3.65866 2.79166 2.29199 4.15832 2.29199 7.99999V13C2.29199 16.8417 3.65866 18.2083 7.50033 18.2083H12.5003C16.342 18.2083 17.7087 16.8417 17.7087 13V7.99999C17.7087 4.15832 16.342 2.79166 12.5003 2.79166H7.50033Z" fill="#E6FEE6"/>
<path d="M9.99987 13.2166C9.84154 13.2166 9.6832 13.1583 9.5582 13.0333L7.0582 10.5333C6.81654 10.2916 6.81654 9.89164 7.0582 9.64997C7.29987 9.4083 7.69987 9.4083 7.94153 9.64997L9.99987 11.7083L12.0582 9.64997C12.2999 9.4083 12.6999 9.4083 12.9415 9.64997C13.1832 9.89164 13.1832 10.2916 12.9415 10.5333L10.4415 13.0333C10.3165 13.1583 10.1582 13.2166 9.99987 13.2166Z" fill="#00AF00"/>
<path d="M10 13.2167C9.65833 13.2167 9.375 12.9334 9.375 12.5917V5.92502C9.375 5.58335 9.65833 5.30002 10 5.30002C10.3417 5.30002 10.625 5.58335 10.625 5.92502V12.5917C10.625 12.9417 10.3417 13.2167 10 13.2167Z" fill="#00AF00"/>
<path d="M10.0007 15.6917C8.24235 15.6917 6.47569 15.4084 4.80069 14.85C4.47569 14.7417 4.30069 14.3834 4.40902 14.0584C4.51735 13.7334 4.86735 13.55 5.20068 13.6667C8.30068 14.7 11.709 14.7 14.809 13.6667C15.134 13.5584 15.4924 13.7334 15.6007 14.0584C15.709 14.3834 15.534 14.7417 15.209 14.85C13.5257 15.4167 11.759 15.6917 10.0007 15.6917Z" fill="#00AF00"/>
</svg>
