<svg width="24" height="24" viewBox="0 0 24 24" fill="none" xmlns="http://www.w3.org/2000/svg">
<path opacity="0.4" d="M18 18.8597H17.24C16.44 18.8597 15.68 19.1697 15.12 19.7297L13.41 21.4197C12.63 22.1897 11.36 22.1897 10.58 21.4197L8.87 19.7297C8.31 19.1697 7.54 18.8597 6.75 18.8597H6C4.34 18.8597 3 17.5298 3 15.8898V4.97974C3 3.33974 4.34 2.00977 6 2.00977H18C19.66 2.00977 21 3.33974 21 4.97974V15.8898C21 17.5198 19.66 18.8597 18 18.8597Z" fill="url(#paint0_linear_2578_16157)"/>
<path d="M10.3802 14.51H7.70023C7.26023 14.51 6.85023 14.3 6.59023 13.94C6.34023 13.6 6.28022 13.18 6.40022 12.78C6.75022 11.71 7.61022 11.13 8.37022 10.61C9.17022 10.07 9.62022 9.73002 9.62022 9.15002C9.62022 8.63002 9.20022 8.21002 8.68022 8.21002C8.16022 8.21002 7.74023 8.63002 7.74023 9.15002C7.74023 9.56002 7.40023 9.90002 6.99023 9.90002C6.58023 9.90002 6.24023 9.56002 6.24023 9.15002C6.24023 7.81002 7.33022 6.71002 8.68022 6.71002C10.0302 6.71002 11.1202 7.80002 11.1202 9.15002C11.1202 10.56 10.0602 11.28 9.21024 11.86C8.68024 12.22 8.18022 12.56 7.93022 13.01H10.3702C10.7802 13.01 11.1202 13.35 11.1202 13.76C11.1202 14.17 10.7902 14.51 10.3802 14.51Z" fill="url(#paint1_linear_2578_16157)"/>
<path d="M16.0399 14.51C15.6299 14.51 15.2899 14.17 15.2899 13.76V13.07H13.3299C13.3299 13.07 13.3299 13.07 13.3199 13.07C12.8299 13.07 12.3799 12.81 12.1299 12.39C11.8799 11.96 11.8799 11.43 12.1299 11.01C12.8099 9.84001 13.5999 8.50997 14.3199 7.34997C14.6399 6.83997 15.2499 6.61002 15.8199 6.77002C16.3899 6.94002 16.7899 7.45999 16.7799 8.05999V11.58H16.9999C17.4099 11.58 17.7499 11.92 17.7499 12.33C17.7499 12.74 17.4099 13.08 16.9999 13.08H16.7899V13.77C16.7899 14.18 16.4599 14.51 16.0399 14.51ZM15.2899 8.64001C14.6999 9.60001 14.0899 10.63 13.5399 11.57H15.2899V8.64001Z" fill="url(#paint2_linear_2578_16157)"/>
<defs>
<linearGradient id="paint0_linear_2578_16157" x1="-0.0860831" y1="-9.73287" x2="-16.7337" y2="20.3175" gradientUnits="userSpaceOnUse">
<stop stop-color="#01A0FF"/>
<stop offset="1" stop-color="#0123F7"/>
</linearGradient>
<linearGradient id="paint1_linear_2578_16157" x1="5.40356" y1="2.12753" x2="-2.06725" y2="11.4961" gradientUnits="userSpaceOnUse">
<stop stop-color="#01A0FF"/>
<stop offset="1" stop-color="#0123F7"/>
</linearGradient>
<linearGradient id="paint2_linear_2578_16157" x1="10.9467" y1="2.14303" x2="3.87157" y2="12.715" gradientUnits="userSpaceOnUse">
<stop stop-color="#01A0FF"/>
<stop offset="1" stop-color="#0123F7"/>
</linearGradient>
</defs>
</svg>
