<svg width="20" height="21" viewBox="0 0 20 21" fill="none" xmlns="http://www.w3.org/2000/svg">
<path d="M13.3327 11.2503V14.7503C13.3327 17.667 12.166 18.8337 9.24935 18.8337H5.74935C2.83268 18.8337 1.66602 17.667 1.66602 14.7503V11.2503C1.66602 8.33366 2.83268 7.16699 5.74935 7.16699H9.24935C12.166 7.16699 13.3327 8.33366 13.3327 11.2503Z" stroke="#292D32" stroke-width="1.5" stroke-linecap="round" stroke-linejoin="round"/>
<path d="M18.3327 6.25033V9.75033C18.3327 12.667 17.166 13.8337 14.2494 13.8337H13.3327V11.2503C13.3327 8.33366 12.166 7.16699 9.24935 7.16699H6.66602V6.25033C6.66602 3.33366 7.83268 2.16699 10.7493 2.16699H14.2494C17.166 2.16699 18.3327 3.33366 18.3327 6.25033Z" stroke="#292D32" stroke-width="1.5" stroke-linecap="round" stroke-linejoin="round"/>
</svg>
