<svg width="40" height="40" viewBox="0 0 40 40" fill="none" xmlns="http://www.w3.org/2000/svg">
<rect width="40" height="40" rx="8" fill="#FF8A8A"/>
<path d="M25.4245 29.5669V29.9052C23.6978 31.0135 21.6328 31.6669 19.4161 31.6669C17.1645 31.6669 15.0645 30.9902 13.3145 29.8352V29.5669C13.3145 26.8486 16.0328 24.6318 19.3695 24.6318C22.7178 24.6318 25.4245 26.8486 25.4245 29.5669Z" fill="url(#paint0_linear_3257_55792)"/>
<path opacity="0.4" d="M30.4997 20.5833C30.4997 24.4917 28.4813 27.9217 25.4247 29.905V29.5667C25.4247 26.8483 22.718 24.6316 19.3697 24.6316C16.033 24.6316 13.3147 26.8483 13.3147 29.5667V29.835C10.3163 27.8517 8.33301 24.4567 8.33301 20.5833C8.33301 14.4583 13.2913 9.5 19.4163 9.5C20.9447 9.5 22.403 9.80332 23.733 10.3633C23.5813 10.83 23.4997 11.32 23.4997 11.8333C23.4997 12.7083 23.7447 13.5367 24.1763 14.2367C24.4097 14.6333 24.713 14.995 25.063 15.2983C25.8797 16.045 26.9647 16.5 28.1663 16.5C28.6797 16.5 29.1697 16.4183 29.6247 16.255C30.1847 17.585 30.4997 19.055 30.4997 20.5833Z" fill="url(#paint1_linear_3257_55792)"/>
<path d="M31.6317 8.71868C30.7917 7.76201 29.5433 7.16699 28.1667 7.16699C26.86 7.16699 25.67 7.70368 24.8183 8.57868C24.3283 9.08035 23.955 9.68698 23.7333 10.3636C23.5817 10.8303 23.5 11.3203 23.5 11.8337C23.5 12.7087 23.745 13.537 24.1767 14.237C24.41 14.6337 24.7133 14.9953 25.0633 15.2986C25.88 16.0453 26.965 16.5003 28.1667 16.5003C28.68 16.5003 29.17 16.4186 29.625 16.2553C30.6983 15.917 31.5967 15.182 32.1567 14.237C32.4017 13.8403 32.5883 13.3853 32.6933 12.9187C32.7867 12.5687 32.8333 12.207 32.8333 11.8337C32.8333 10.6437 32.3783 9.54701 31.6317 8.71868ZM29.905 12.6853H29.0417V13.5953C29.0417 14.0737 28.645 14.4703 28.1667 14.4703C27.6883 14.4703 27.2917 14.0737 27.2917 13.5953V12.6853H26.4283C25.95 12.6853 25.5533 12.2886 25.5533 11.8103C25.5533 11.332 25.95 10.9353 26.4283 10.9353H27.2917V10.107C27.2917 9.62868 27.6883 9.23201 28.1667 9.23201C28.645 9.23201 29.0417 9.62868 29.0417 10.107V10.9353H29.905C30.3833 10.9353 30.78 11.332 30.78 11.8103C30.78 12.2886 30.395 12.6853 29.905 12.6853Z" fill="url(#paint2_linear_3257_55792)"/>
<path d="M19.3701 23.1846C21.1807 23.1846 22.6485 21.7168 22.6485 19.9063C22.6485 18.0957 21.1807 16.6279 19.3701 16.6279C17.5596 16.6279 16.0918 18.0957 16.0918 19.9063C16.0918 21.7168 17.5596 23.1846 19.3701 23.1846Z" fill="url(#paint3_linear_3257_55792)"/>
<defs>
<linearGradient id="paint0_linear_3257_55792" x1="13.3145" y1="24.9738" x2="25.857" y2="25.5676" gradientUnits="userSpaceOnUse">
<stop stop-color="#F8F8F8"/>
<stop offset="1" stop-color="#F3FDFF"/>
</linearGradient>
<linearGradient id="paint1_linear_3257_55792" x1="8.33301" y1="10.4919" x2="31.3224" y2="11.1787" gradientUnits="userSpaceOnUse">
<stop stop-color="#F8F8F8"/>
<stop offset="1" stop-color="#F3FDFF"/>
</linearGradient>
<linearGradient id="paint2_linear_3257_55792" x1="23.5" y1="7.62069" x2="33.181" y2="7.88692" gradientUnits="userSpaceOnUse">
<stop stop-color="#F8F8F8"/>
<stop offset="1" stop-color="#F3FDFF"/>
</linearGradient>
<linearGradient id="paint3_linear_3257_55792" x1="16.0918" y1="16.9467" x2="22.8927" y2="17.1337" gradientUnits="userSpaceOnUse">
<stop stop-color="#F8F8F8"/>
<stop offset="1" stop-color="#F3FDFF"/>
</linearGradient>
</defs>
</svg>
