<svg width="20" height="21" viewBox="0 0 20 21" fill="none" xmlns="http://www.w3.org/2000/svg">
<path d="M12.9842 10.4999C12.9842 12.1499 11.6509 13.4833 10.0009 13.4833C8.35091 13.4833 7.01758 12.1499 7.01758 10.4999C7.01758 8.84993 8.35091 7.5166 10.0009 7.5166C11.6509 7.5166 12.9842 8.84993 12.9842 10.4999Z" stroke="#292D32" stroke-width="1.5" stroke-linecap="round" stroke-linejoin="round"/>
<path d="M9.99987 17.3913C12.9415 17.3913 15.6832 15.6579 17.5915 12.6579C18.3415 11.4829 18.3415 9.50794 17.5915 8.33294C15.6832 5.33294 12.9415 3.59961 9.99987 3.59961C7.0582 3.59961 4.31654 5.33294 2.4082 8.33294C1.6582 9.50794 1.6582 11.4829 2.4082 12.6579C4.31654 15.6579 7.0582 17.3913 9.99987 17.3913Z" stroke="#292D32" stroke-width="1.5" stroke-linecap="round" stroke-linejoin="round"/>
</svg>
