<svg width="53" height="53" viewBox="0 0 53 53" fill="none" xmlns="http://www.w3.org/2000/svg">
<rect width="53" height="53" rx="8" fill="#E6F1FF"/>
<path opacity="0.4" d="M26.9993 40.3464C34.3631 40.3464 40.3327 34.3768 40.3327 27.013C40.3327 19.6492 34.3631 13.6797 26.9993 13.6797C19.6356 13.6797 13.666 19.6492 13.666 27.013C13.666 34.3768 19.6356 40.3464 26.9993 40.3464Z" fill="white"/>
<path d="M27 20.2529C24.24 20.2529 22 22.4929 22 25.2529C22 27.9596 24.12 30.1596 26.9333 30.2396C26.9733 30.2396 27.0267 30.2396 27.0533 30.2396C27.08 30.2396 27.12 30.2396 27.1467 30.2396C27.16 30.2396 27.1733 30.2396 27.1733 30.2396C29.8667 30.1463 31.9867 27.9596 32 25.2529C32 22.4929 29.76 20.2529 27 20.2529Z" fill="#0171FD"/>
<path d="M36.039 36.8136C33.6657 39.0003 30.4923 40.347 26.999 40.347C23.5057 40.347 20.3323 39.0003 17.959 36.8136C18.279 35.6003 19.1457 34.4936 20.4123 33.6403C24.0523 31.2136 29.9723 31.2136 33.5857 33.6403C34.8657 34.4936 35.719 35.6003 36.039 36.8136Z" fill="#0171FD"/>
</svg>
