<svg width="46" height="47" viewBox="0 0 46 47" fill="none" xmlns="http://www.w3.org/2000/svg">
<g clip-path="url(#clip0_3887_40055)">
<rect y="0.5" width="46" height="46" rx="23" fill="#001268"/>
<path d="M52.0623 36.2755L51.5109 35.9684L38.5605 28.6462C39.4499 25.5472 39.3808 22.2551 38.3622 19.1953L51.1757 11.466L51.6983 11.1446C52.4302 10.6064 52.9392 9.82245 53.1301 8.93932C53.3209 8.0562 53.1806 7.13441 52.7353 6.34641C52.29 5.5584 51.5702 4.95816 50.7107 4.65796C49.8511 4.35776 48.9106 4.37818 48.0651 4.71538L47.0631 5.31901L34.4479 12.934C32.3344 10.8539 29.6788 9.39718 26.7779 8.72648V-6.60355C26.8116 -7.55496 26.4757 -8.48293 25.8395 -9.19625C25.2033 -9.90958 24.3153 -10.3539 23.3583 -10.4377C22.4014 -10.5215 21.4485 -10.2384 20.6959 -9.64666C19.9434 -9.05494 19.4485 -8.19971 19.3133 -7.25719V8.75148C16.292 9.47902 13.5487 11.0598 11.4162 13.3019L-1.7901 5.82977L-2.31633 5.53332C-3.1502 5.14448 -4.0993 5.07335 -4.98269 5.33349C-5.86609 5.59364 -6.62197 6.16685 -7.10623 6.94385C-7.59049 7.72085 -7.76925 8.64727 -7.60844 9.5465C-7.44762 10.4457 -6.95847 11.2549 -6.23425 11.8196L-5.25748 12.3768L7.71815 19.699C6.8051 22.7406 6.8302 25.9832 7.79024 29.0106L-4.90785 36.6756L-5.88102 37.2649C-6.56302 37.8554 -7.0065 38.6703 -7.12964 39.5594C-7.25277 40.4485 -7.04726 41.3518 -6.55101 42.1025C-6.05476 42.8532 -5.30127 43.4007 -4.42957 43.644C-3.55787 43.8873 -2.62679 43.8099 -1.80812 43.4262L-1.27107 43.0976L11.5604 35.354C13.6669 37.5047 16.3449 39.0205 19.2845 39.7259V55.4988C19.4529 56.4109 19.9591 57.2278 20.7039 57.7891C21.4486 58.3504 22.3782 58.6158 23.3101 58.533C24.2421 58.4503 25.1092 58.0255 25.7415 57.3419C26.3737 56.6583 26.7253 55.7653 26.7274 54.838V39.7509C29.8495 39.0284 32.6824 37.3978 34.8624 35.0683L47.5605 42.2475L48.5697 42.8155C49.4281 43.1422 50.3777 43.1452 51.2382 42.8239C52.0987 42.5026 52.8102 41.8793 53.2375 41.0725C53.6649 40.2656 53.7783 39.3313 53.5564 38.447C53.3344 37.5627 52.7925 36.79 52.0335 36.2755H52.0623ZM23.1051 34.8147C20.9726 34.8104 18.8892 34.1802 17.1179 33.0035C15.3465 31.8268 13.9667 30.1565 13.1526 28.2033C12.3385 26.2501 12.1267 24.1017 12.5437 22.0293C12.9608 19.9569 13.9882 18.0534 15.4961 16.5591C17.004 15.0648 18.9248 14.0468 21.0161 13.6335C23.1074 13.2202 25.2754 13.4301 27.2464 14.2369C29.2174 15.0436 30.903 16.4109 32.0904 18.1663C33.2778 19.9216 33.9138 21.9862 33.9181 24.0994C33.9181 26.9412 32.7789 29.6667 30.751 31.6762C28.7232 33.6858 25.9729 34.8147 23.1051 34.8147Z" fill="url(#paint0_linear_3887_40055)"/>
</g>
<defs>
<linearGradient id="paint0_linear_3887_40055" x1="46.8036" y1="47.7016" x2="-0.359629" y2="0.104709" gradientUnits="userSpaceOnUse">
<stop stop-color="#001FF6"/>
<stop offset="1" stop-color="#00A9FF"/>
</linearGradient>
<clipPath id="clip0_3887_40055">
<rect y="0.5" width="46" height="46" rx="23" fill="white"/>
</clipPath>
</defs>
</svg>
