<svg width="20" height="20" viewBox="0 0 20 20" fill="none" xmlns="http://www.w3.org/2000/svg">
<path d="M17.5 4.98307C14.725 4.70807 11.9333 4.56641 9.15 4.56641C7.5 4.56641 5.85 4.64974 4.2 4.81641L2.5 4.98307" stroke="#292D32" stroke-width="1.5" stroke-linecap="round" stroke-linejoin="round"/>
<path d="M7.08398 4.14199L7.26732 3.05033C7.40065 2.25866 7.50065 1.66699 8.90898 1.66699H11.0923C12.5007 1.66699 12.609 2.29199 12.734 3.05866L12.9173 4.14199" stroke="#292D32" stroke-width="1.5" stroke-linecap="round" stroke-linejoin="round"/>
<path d="M15.7096 7.61621L15.168 16.0079C15.0763 17.3162 15.0013 18.3329 12.6763 18.3329H7.3263C5.0013 18.3329 4.9263 17.3162 4.83464 16.0079L4.29297 7.61621" stroke="#292D32" stroke-width="1.5" stroke-linecap="round" stroke-linejoin="round"/>
<path d="M8.60742 13.75H11.3824" stroke="#292D32" stroke-width="1.5" stroke-linecap="round" stroke-linejoin="round"/>
<path d="M7.91602 10.417H12.0827" stroke="#292D32" stroke-width="1.5" stroke-linecap="round" stroke-linejoin="round"/>
</svg>
