<svg width="12" height="13" viewBox="0 0 12 13" fill="none" xmlns="http://www.w3.org/2000/svg">
<mask id="path-1-inside-1_3887_40081" fill="white">
<path d="M8.24961 8.12473C8.15461 8.12473 8.05961 8.08973 7.98461 8.01473L6.20961 6.23973L5.66461 7.05973C5.60461 7.15473 5.49961 7.21473 5.38961 7.22473C5.27461 7.23473 5.16461 7.19473 5.08961 7.11473L3.48961 5.51473C3.34461 5.36973 3.34461 5.12973 3.48961 4.98473C3.63461 4.83973 3.87461 4.83973 4.01961 4.98473L5.29461 6.25973L5.83961 5.43973C5.89961 5.34973 5.99961 5.28973 6.11461 5.27473C6.22961 5.26473 6.33961 5.30473 6.41461 5.38473L8.51461 7.48473C8.65961 7.62973 8.65961 7.86973 8.51461 8.01473C8.43961 8.08973 8.34461 8.12473 8.24961 8.12473Z"/>
</mask>
<path d="M8.24961 8.12473C8.15461 8.12473 8.05961 8.08973 7.98461 8.01473L6.20961 6.23973L5.66461 7.05973C5.60461 7.15473 5.49961 7.21473 5.38961 7.22473C5.27461 7.23473 5.16461 7.19473 5.08961 7.11473L3.48961 5.51473C3.34461 5.36973 3.34461 5.12973 3.48961 4.98473C3.63461 4.83973 3.87461 4.83973 4.01961 4.98473L5.29461 6.25973L5.83961 5.43973C5.89961 5.34973 5.99961 5.28973 6.11461 5.27473C6.22961 5.26473 6.33961 5.30473 6.41461 5.38473L8.51461 7.48473C8.65961 7.62973 8.65961 7.86973 8.51461 8.01473C8.43961 8.08973 8.34461 8.12473 8.24961 8.12473Z" fill="#FF5454"/>
<path d="M7.98461 8.01473L7.2775 8.72183L7.98461 8.01473ZM6.20961 6.23973L6.91672 5.53262L6.05294 4.66885L5.37678 5.6862L6.20961 6.23973ZM5.66461 7.05973L4.83178 6.5062L4.82534 6.51589L4.81912 6.52573L5.66461 7.05973ZM5.38961 7.22473L5.47624 8.22097L5.48015 8.22062L5.38961 7.22473ZM5.08961 7.11473L5.81915 6.43078L5.80812 6.41902L5.79672 6.40762L5.08961 7.11473ZM3.48961 5.51473L2.7825 6.22183H2.7825L3.48961 5.51473ZM4.01961 4.98473L3.3125 5.69183L4.01961 4.98473ZM5.29461 6.25973L4.5875 6.96683L5.45127 7.8306L6.12744 6.81325L5.29461 6.25973ZM5.83961 5.43973L5.00756 4.88503L5.00678 4.8862L5.83961 5.43973ZM6.11461 5.27473L6.02798 4.27849L6.00658 4.28035L5.98527 4.28313L6.11461 5.27473ZM6.41461 5.38473L5.68507 6.06867L5.6961 6.08043L5.7075 6.09183L6.41461 5.38473ZM8.51461 7.48473L9.22172 6.77762L9.22172 6.77762L8.51461 7.48473ZM8.24961 7.12473C8.40552 7.12473 8.5693 7.1852 8.69172 7.30762L7.2775 8.72183C7.54992 8.99425 7.9037 9.12473 8.24961 9.12473V7.12473ZM8.69172 7.30762L6.91672 5.53262L5.5025 6.94683L7.2775 8.72183L8.69172 7.30762ZM5.37678 5.6862L4.83178 6.5062L6.49744 7.61325L7.04244 6.79325L5.37678 5.6862ZM4.81912 6.52573C4.93656 6.33979 5.12103 6.24502 5.29907 6.22883L5.48015 8.22062C5.87819 8.18443 6.27266 7.96966 6.5101 7.59372L4.81912 6.52573ZM5.30298 6.22849C5.47146 6.21384 5.66968 6.27135 5.81915 6.43078L4.36007 7.79867C4.65954 8.1181 5.07776 8.25562 5.47624 8.22097L5.30298 6.22849ZM5.79672 6.40762L4.19672 4.80762L2.7825 6.22183L4.3825 7.82183L5.79672 6.40762ZM4.19672 4.80762C4.44224 5.05314 4.44224 5.44631 4.19672 5.69183L2.7825 4.27762C2.24698 4.81314 2.24698 5.68631 2.7825 6.22183L4.19672 4.80762ZM4.19672 5.69183C3.95119 5.93736 3.55803 5.93736 3.3125 5.69183L4.72672 4.27762C4.19119 3.7421 3.31803 3.7421 2.7825 4.27762L4.19672 5.69183ZM3.3125 5.69183L4.5875 6.96683L6.00172 5.55262L4.72672 4.27762L3.3125 5.69183ZM6.12744 6.81325L6.67244 5.99325L5.00678 4.8862L4.46178 5.7062L6.12744 6.81325ZM6.67166 5.99443C6.55885 6.16364 6.39189 6.24703 6.24395 6.26633L5.98527 4.28313C5.60733 4.33242 5.24037 4.53582 5.00756 4.88503L6.67166 5.99443ZM6.20124 6.27097C6.03276 6.28562 5.83454 6.2281 5.68507 6.06867L7.14415 4.70079C6.84468 4.38135 6.42646 4.24384 6.02798 4.27849L6.20124 6.27097ZM5.7075 6.09183L7.8075 8.19183L9.22172 6.77762L7.12172 4.67762L5.7075 6.09183ZM7.8075 8.19183C7.56198 7.94631 7.56198 7.55314 7.8075 7.30762L9.22172 8.72183C9.75724 8.18631 9.75724 7.31314 9.22172 6.77762L7.8075 8.19183ZM7.8075 7.30762C7.92992 7.1852 8.0937 7.12473 8.24961 7.12473V9.12473C8.59552 9.12473 8.9493 8.99425 9.22172 8.72183L7.8075 7.30762Z" fill="#FF5454" mask="url(#path-1-inside-1_3887_40081)"/>
<path d="M8.25 8.125H7.25C7.045 8.125 6.875 7.955 6.875 7.75C6.875 7.545 7.045 7.375 7.25 7.375H7.875V6.75C7.875 6.545 8.045 6.375 8.25 6.375C8.455 6.375 8.625 6.545 8.625 6.75V7.75C8.625 7.955 8.455 8.125 8.25 8.125Z" fill="#FF5454"/>
<path d="M7.5 11.875H4.5C1.785 11.875 0.625 10.715 0.625 8V5C0.625 2.285 1.785 1.125 4.5 1.125H7.5C10.215 1.125 11.375 2.285 11.375 5V8C11.375 10.715 10.215 11.875 7.5 11.875ZM4.5 1.875C2.195 1.875 1.375 2.695 1.375 5V8C1.375 10.305 2.195 11.125 4.5 11.125H7.5C9.805 11.125 10.625 10.305 10.625 8V5C10.625 2.695 9.805 1.875 7.5 1.875H4.5Z" fill="#FF5454"/>
</svg>
