<svg width="513" height="212" viewBox="0 0 513 212" fill="none" xmlns="http://www.w3.org/2000/svg">
<path d="M587.572 265.256L587.689 265.325H587.737C595.013 270.502 600.208 278.23 602.342 287.065C604.489 295.952 603.388 305.34 599.25 313.449C595.113 321.557 588.226 327.821 579.899 331.059C571.584 334.291 562.405 334.283 554.096 331.037L544.208 325.268L544.208 325.268L419.226 252.088L418.874 251.882L418.602 252.184C397.254 275.862 369.501 292.432 338.913 299.764L338.53 299.856V300.25V454.183C338.509 463.514 335.096 472.499 328.963 479.374C322.83 486.249 314.421 490.519 305.387 491.351C296.352 492.182 287.34 489.516 280.117 483.872C272.905 478.236 267.997 470.036 266.355 460.876V300.032V299.641L265.975 299.547C237.161 292.381 210.913 276.966 190.279 255.089L189.998 254.79L189.65 255.008L63.4984 333.941L63.4958 333.943L58.234 337.281C50.2564 341.428 41.0739 342.414 32.435 340.053C23.789 337.69 16.2889 332.138 11.3684 324.452C6.44763 316.766 4.45231 307.486 5.76521 298.383C7.07632 289.292 11.5943 281.018 18.4549 275.132L27.9905 269.145L27.9912 269.144L152.689 191.158L153.014 190.955L152.903 190.589C143.541 159.802 143.295 126.851 152.196 95.9198L152.304 95.5463L151.968 95.35L24.4021 20.715L24.3988 20.7131L14.83 15.0174C7.81155 9.32436 3.07581 1.17285 1.53108 -7.88364C-0.0157032 -16.9522 1.74639 -26.2875 6.47835 -34.1028C11.2101 -41.9179 18.578 -47.6627 27.1698 -50.2424C35.7558 -52.8203 44.965 -52.0576 53.0388 -48.0995L58.2307 -45.0876L58.2328 -45.0864L187.997 31.0421L188.345 31.2465L188.618 30.9488C209.516 8.16838 236.403 -7.88164 266.011 -15.2517L266.39 -15.3461V-15.7369V-178.874C268.031 -188.029 272.934 -196.225 280.138 -201.86C287.354 -207.505 296.358 -210.176 305.388 -209.354C314.417 -208.532 322.825 -204.275 328.964 -197.413C335.102 -190.551 338.528 -181.579 338.565 -172.254V-16.101V-15.7067L338.949 -15.6148C367.442 -8.78426 393.521 6.0701 414.257 27.2831L414.538 27.571L414.88 27.3574L538.905 -50.265L538.907 -50.2659L548.685 -56.4317C556.864 -59.7527 565.937 -59.9169 574.226 -56.8933C582.528 -53.8646 589.482 -47.8418 593.794 -39.9396C598.105 -32.0371 599.479 -22.7941 597.66 -13.9276C595.842 -5.06885 590.96 2.80884 583.923 8.24699L578.807 11.5094L578.804 11.5118L452.868 90.2605L452.538 90.467L452.657 90.8377C462.673 121.926 463.362 155.391 454.636 186.887L454.533 187.258L454.865 187.452L582.185 262.089L582.186 262.089L587.572 265.256ZM303.168 250.398H303.169C331.463 250.398 358.599 238.864 378.622 218.333C398.645 197.802 409.92 169.951 409.976 140.892V140.891C409.976 119.245 403.732 98.084 392.03 80.081C380.328 62.0779 363.694 48.0402 344.227 39.7438C324.76 31.4474 303.336 29.2653 282.661 33.474C261.987 37.6826 242.993 48.0926 228.078 63.3863C213.163 78.6799 202.996 98.171 198.86 119.396C194.724 140.621 196.804 162.63 204.837 182.641C212.871 202.653 226.498 219.772 244 231.832C261.501 243.893 282.091 250.354 303.168 250.398Z" stroke="url(#paint0_linear_2264_40907)"/>
<defs>
<linearGradient id="paint0_linear_2264_40907" x1="302.199" y1="6.42688" x2="302.199" y2="443.905" gradientUnits="userSpaceOnUse">
<stop stop-color="#01A6FF" stop-opacity="0"/>
<stop offset="1" stop-color="#0125F7"/>
</linearGradient>
</defs>
</svg>
