<svg width="16" height="16" viewBox="0 0 16 16" fill="none" xmlns="http://www.w3.org/2000/svg">
<path d="M5.93583 13.78C5.80917 13.78 5.6825 13.7333 5.5825 13.6333C5.38917 13.44 5.38917 13.12 5.5825 12.9267L9.92917 8.58001C10.2492 8.26001 10.2492 7.74001 9.92917 7.42001L5.5825 3.07335C5.38917 2.88001 5.38917 2.56001 5.5825 2.36668C5.77583 2.17335 6.09583 2.17335 6.28917 2.36668L10.6358 6.71335C10.9758 7.05335 11.1692 7.51335 11.1692 8.00001C11.1692 8.48668 10.9825 8.94668 10.6358 9.28668L6.28917 13.6333C6.18917 13.7267 6.0625 13.78 5.93583 13.78Z" fill="url(#paint0_linear_2450_4471)"/>
<defs>
<linearGradient id="paint0_linear_2450_4471" x1="5.4375" y1="2.78354" x2="11.3861" y2="2.86466" gradientUnits="userSpaceOnUse">
<stop stop-color="#F8F8F8"/>
<stop offset="1" stop-color="#F3FDFF"/>
</linearGradient>
</defs>
</svg>
