<svg width="24" height="24" viewBox="0 0 24 24" fill="none" xmlns="http://www.w3.org/2000/svg">
<path opacity="0.4" d="M16.19 2H7.81C4.17 2 2 4.17 2 7.81V16.18C2 19.83 4.17 22 7.81 22H16.18C19.82 22 21.99 19.83 21.99 16.19V7.81C22 4.17 19.83 2 16.19 2Z" fill="url(#paint0_linear_2343_4002)"/>
<path d="M13.2619 16.28C13.0719 16.28 12.8819 16.21 12.7319 16.06L9.20188 12.53C8.91188 12.24 8.91188 11.76 9.20188 11.47L12.7319 7.93997C13.0219 7.64997 13.5019 7.64997 13.7919 7.93997C14.0819 8.22997 14.0819 8.70997 13.7919 8.99997L10.7919 12L13.7919 15C14.0819 15.29 14.0819 15.77 13.7919 16.06C13.6519 16.21 13.4619 16.28 13.2619 16.28Z" fill="url(#paint1_linear_2343_4002)"/>
<defs>
<linearGradient id="paint0_linear_2343_4002" x1="-1.42727" y1="-9.75" x2="-17.1304" y2="21.7094" gradientUnits="userSpaceOnUse">
<stop stop-color="#01A0FF"/>
<stop offset="1" stop-color="#0123F7"/>
</linearGradient>
<linearGradient id="paint1_linear_2343_4002" x1="8.12284" y1="2.69494" x2="-0.173997" y2="12.4602" gradientUnits="userSpaceOnUse">
<stop stop-color="#01A0FF"/>
<stop offset="1" stop-color="#0123F7"/>
</linearGradient>
</defs>
</svg>
