<svg width="446" height="389" viewBox="0 0 446 389" fill="none" xmlns="http://www.w3.org/2000/svg">
<rect width="446" height="389" rx="8" fill="white"/>
<path d="M34.85 40V28.48H31.898L28.55 36.328C28.496 36.436 28.424 36.616 28.334 36.868C28.244 37.12 28.172 37.336 28.1 37.534C28.028 37.732 27.992 37.822 28.01 37.822L27.47 36.328L24.122 28.48H21.188V40H23.15V30.874L27.02 40H29L32.87 30.874V40H34.85ZM45.3737 30.784H43.4657V35.896C43.4657 36.796 43.2857 37.462 42.9617 37.876C42.6197 38.308 41.9897 38.506 41.0717 38.506C40.1357 38.506 39.5237 38.326 39.2357 37.93C38.9477 37.534 38.8037 36.886 38.8037 35.986V30.784H36.9137V35.824C36.9137 37.282 37.1657 38.362 37.6697 39.064C38.1737 39.784 39.1277 40.126 40.5317 40.126C41.9717 40.126 42.9617 39.748 43.4657 38.956V40.162C43.4657 40.828 43.3037 41.35 42.9797 41.71C42.6557 42.07 42.0257 42.25 41.0897 42.25C40.5857 42.25 40.1897 42.214 39.8657 42.142C39.5417 42.07 39.3077 41.944 39.1637 41.764C39.0017 41.602 38.8937 41.44 38.8397 41.26C38.7677 41.08 38.7317 40.864 38.7137 40.576H36.8057C36.8057 41.584 37.1117 42.358 37.7417 42.898C38.3717 43.456 39.4877 43.726 41.0717 43.726C41.9357 43.726 42.6737 43.636 43.2677 43.42C43.8617 43.222 44.3117 42.934 44.5997 42.556C44.8877 42.196 45.0857 41.818 45.1937 41.422C45.3017 41.026 45.3737 40.576 45.3737 40.072V30.784ZM61.7694 40L57.4494 28.48H54.7674L50.3394 40H52.4094L53.2374 37.75H58.8894L59.6634 40H61.7694ZM58.3854 36.31H53.7234L56.0634 29.758L58.3854 36.31ZM70.6589 37.336C70.6589 36.706 70.4249 36.184 69.9929 35.788C69.5609 35.392 69.0209 35.104 68.3909 34.942C67.7609 34.78 67.1309 34.636 66.5009 34.528C65.8709 34.42 65.3309 34.258 64.8989 34.078C64.4669 33.898 64.2509 33.646 64.2509 33.322C64.2509 32.998 64.4129 32.71 64.7369 32.494C65.0609 32.278 65.6009 32.152 66.3209 32.152C67.1129 32.152 67.6889 32.314 68.0489 32.638C68.3909 32.962 68.5889 33.448 68.6249 34.096H70.4249C70.4249 31.81 69.0749 30.658 66.3749 30.658C64.9709 30.658 63.9629 30.928 63.3149 31.432C62.6669 31.936 62.3429 32.62 62.3429 33.484C62.3429 34.096 62.5589 34.6 63.0089 34.96C63.4409 35.338 63.9809 35.608 64.6289 35.752C65.2589 35.896 65.8889 36.022 66.5189 36.13C67.1489 36.238 67.6889 36.4 68.1209 36.598C68.5529 36.814 68.7689 37.084 68.7689 37.444C68.7329 37.768 68.5529 38.038 68.2109 38.254C67.8509 38.488 67.3109 38.596 66.5729 38.596C64.8809 38.596 64.0529 37.93 64.0529 36.562H62.1629C62.1629 37.75 62.5049 38.65 63.2249 39.244C63.9449 39.838 65.0609 40.126 66.6089 40.126C67.9589 40.126 68.9669 39.856 69.6509 39.298C70.3169 38.758 70.6589 38.092 70.6589 37.336ZM80.0983 37.336C80.0983 36.706 79.8643 36.184 79.4323 35.788C79.0003 35.392 78.4603 35.104 77.8303 34.942C77.2003 34.78 76.5703 34.636 75.9403 34.528C75.3103 34.42 74.7703 34.258 74.3383 34.078C73.9063 33.898 73.6903 33.646 73.6903 33.322C73.6903 32.998 73.8523 32.71 74.1763 32.494C74.5003 32.278 75.0403 32.152 75.7603 32.152C76.5523 32.152 77.1283 32.314 77.4883 32.638C77.8303 32.962 78.0283 33.448 78.0643 34.096H79.8643C79.8643 31.81 78.5143 30.658 75.8143 30.658C74.4103 30.658 73.4023 30.928 72.7543 31.432C72.1063 31.936 71.7823 32.62 71.7823 33.484C71.7823 34.096 71.9983 34.6 72.4483 34.96C72.8803 35.338 73.4203 35.608 74.0683 35.752C74.6983 35.896 75.3283 36.022 75.9583 36.13C76.5883 36.238 77.1283 36.4 77.5603 36.598C77.9923 36.814 78.2083 37.084 78.2083 37.444C78.1723 37.768 77.9923 38.038 77.6503 38.254C77.2903 38.488 76.7503 38.596 76.0123 38.596C74.3203 38.596 73.4923 37.93 73.4923 36.562H71.6023C71.6023 37.75 71.9443 38.65 72.6643 39.244C73.3843 39.838 74.5003 40.126 76.0483 40.126C77.3983 40.126 78.4063 39.856 79.0903 39.298C79.7563 38.758 80.0983 38.092 80.0983 37.336ZM89.9698 37.174H87.9538C87.7018 38.164 86.9818 38.65 85.7578 38.65C84.1558 38.65 83.3098 37.822 83.2018 36.148H89.9338C89.9698 35.554 89.9698 34.996 89.9158 34.474C89.8618 33.952 89.7358 33.448 89.5558 32.98C89.3758 32.512 89.1238 32.098 88.7998 31.756C88.4758 31.432 88.0618 31.162 87.5578 30.964C87.0538 30.766 86.4598 30.658 85.8118 30.658C82.7338 30.658 81.2038 32.242 81.2038 35.374C81.2038 38.542 82.7338 40.126 85.8298 40.126C87.1798 40.126 88.1878 39.856 88.8358 39.316C89.4838 38.776 89.8618 38.056 89.9698 37.174ZM87.9538 34.582V34.6C87.9538 34.618 87.9538 34.618 87.9538 34.618H83.2198C83.3278 32.98 84.1198 32.152 85.6318 32.152C86.4418 32.152 87.0358 32.386 87.4138 32.854C87.7738 33.322 87.9538 33.898 87.9538 34.582ZM95.8616 32.332V30.784H93.4496V28.48H91.5416V30.784L90.2276 31.18V32.332H91.5416V37.354C91.5416 38.434 91.8656 39.19 92.5496 39.604C93.2156 40.018 94.3136 40.18 95.8616 40.072V38.524C94.9076 38.578 94.2776 38.506 93.9716 38.326C93.6476 38.146 93.5036 37.822 93.5036 37.354V32.332H95.8616ZM104.69 37.336C104.69 36.706 104.456 36.184 104.024 35.788C103.592 35.392 103.052 35.104 102.422 34.942C101.792 34.78 101.162 34.636 100.532 34.528C99.9021 34.42 99.3621 34.258 98.9301 34.078C98.4981 33.898 98.2821 33.646 98.2821 33.322C98.2821 32.998 98.4441 32.71 98.7681 32.494C99.0921 32.278 99.6321 32.152 100.352 32.152C101.144 32.152 101.72 32.314 102.08 32.638C102.422 32.962 102.62 33.448 102.656 34.096H104.456C104.456 31.81 103.106 30.658 100.406 30.658C99.0021 30.658 97.9941 30.928 97.3461 31.432C96.6981 31.936 96.3741 32.62 96.3741 33.484C96.3741 34.096 96.5901 34.6 97.0401 34.96C97.4721 35.338 98.0121 35.608 98.6601 35.752C99.2901 35.896 99.9201 36.022 100.55 36.13C101.18 36.238 101.72 36.4 102.152 36.598C102.584 36.814 102.8 37.084 102.8 37.444C102.764 37.768 102.584 38.038 102.242 38.254C101.882 38.488 101.342 38.596 100.604 38.596C98.9121 38.596 98.0841 37.93 98.0841 36.562H96.1941C96.1941 37.75 96.5361 38.65 97.2561 39.244C97.9761 39.838 99.0921 40.126 100.64 40.126C101.99 40.126 102.998 39.856 103.682 39.298C104.348 38.758 104.69 38.092 104.69 37.336Z" fill="#333D8A"/>
<rect x="343" y="24" width="83" height="26" rx="8" fill="#E6F1FF"/>
<path d="M369.633 31.54H368.443L365.265 39.254L362.115 31.54H360.925L364.705 40.5H365.797L369.633 31.54ZM371.612 40.5V33.332H370.576V40.5H371.612ZM371.878 31.792C371.878 31.54 371.808 31.372 371.682 31.288C371.556 31.204 371.36 31.162 371.108 31.162C370.828 31.162 370.632 31.204 370.506 31.288C370.366 31.372 370.31 31.54 370.31 31.792C370.31 32.226 370.576 32.436 371.108 32.436C371.612 32.436 371.878 32.226 371.878 31.792ZM379.757 38.26H378.665C378.497 39.268 377.769 39.758 376.495 39.758C374.941 39.758 374.129 38.96 374.045 37.35H379.743C379.743 37.224 379.757 37.042 379.757 36.818C379.757 34.438 378.665 33.248 376.509 33.248C374.129 33.248 372.939 34.466 372.939 36.874C372.939 37.406 372.981 37.868 373.093 38.274C373.191 38.694 373.373 39.086 373.625 39.45C373.877 39.814 374.241 40.094 374.731 40.29C375.221 40.486 375.823 40.584 376.523 40.584C377.587 40.584 378.385 40.374 378.889 39.94C379.393 39.52 379.687 38.96 379.757 38.26ZM378.665 36.51H374.045C374.101 34.9 374.885 34.088 376.425 34.088C377.195 34.088 377.755 34.312 378.119 34.746C378.483 35.194 378.665 35.782 378.665 36.51ZM391.131 33.332H389.997L388.177 39.366L386.161 33.332H385.125L383.165 39.324L381.457 33.332H380.295L382.549 40.5H383.697L385.629 34.522L387.617 40.5H388.821L391.131 33.332ZM401.949 40.5V36.384C401.949 35.866 401.907 35.432 401.823 35.082C401.739 34.746 401.599 34.424 401.375 34.116C401.151 33.822 400.815 33.598 400.367 33.458C399.919 33.318 399.345 33.248 398.645 33.248C397.497 33.248 396.685 33.472 396.237 33.92C395.775 34.368 395.551 35.012 395.551 35.824H396.587C396.587 35.25 396.727 34.816 397.035 34.522C397.343 34.242 397.875 34.088 398.659 34.088C399.513 34.088 400.101 34.256 400.409 34.564C400.717 34.872 400.885 35.376 400.899 36.062L398.295 36.37C397.259 36.496 396.503 36.72 396.041 37.028C395.579 37.35 395.355 37.826 395.355 38.456C395.355 39.156 395.607 39.688 396.125 40.052C396.629 40.416 397.301 40.584 398.113 40.584C398.841 40.584 399.471 40.444 400.017 40.164C400.549 39.884 400.927 39.506 401.137 39.044L401.361 40.5H401.949ZM400.899 37.35C400.899 38.12 400.647 38.708 400.171 39.128C399.695 39.548 399.079 39.744 398.337 39.744C397.735 39.744 397.273 39.632 396.937 39.408C396.601 39.184 396.447 38.862 396.447 38.442C396.447 38.078 396.587 37.812 396.895 37.63C397.189 37.448 397.707 37.308 398.449 37.196L400.899 36.86V37.35ZM404.594 40.5V30.602H403.558V40.5H404.594ZM407.307 40.5V30.602H406.271V40.5H407.307Z" fill="url(#paint0_linear_3595_5205)"/>
<path d="M23.332 86V77.166H20.406V76.2H27.434V77.166H24.508V86H23.332ZM30.7062 86.168C30.0528 86.168 29.4648 86.0187 28.9422 85.72C28.4195 85.4213 28.0042 85.0013 27.6962 84.46C27.3975 83.9093 27.2482 83.2653 27.2482 82.528C27.2482 81.7907 27.4022 81.1513 27.7102 80.61C28.0182 80.0593 28.4335 79.6347 28.9562 79.336C29.4882 79.0373 30.0808 78.888 30.7342 78.888C31.3875 78.888 31.9755 79.0373 32.4982 79.336C33.0208 79.6347 33.4315 80.0593 33.7302 80.61C34.0382 81.1513 34.1922 81.7907 34.1922 82.528C34.1922 83.2653 34.0382 83.9093 33.7302 84.46C33.4222 85.0013 33.0022 85.4213 32.4702 85.72C31.9475 86.0187 31.3595 86.168 30.7062 86.168ZM30.7062 85.16C31.1075 85.16 31.4808 85.062 31.8262 84.866C32.1715 84.67 32.4515 84.376 32.6662 83.984C32.8808 83.592 32.9882 83.1067 32.9882 82.528C32.9882 81.9493 32.8808 81.464 32.6662 81.072C32.4608 80.68 32.1855 80.386 31.8402 80.19C31.4948 79.994 31.1262 79.896 30.7342 79.896C30.3328 79.896 29.9595 79.994 29.6142 80.19C29.2688 80.386 28.9888 80.68 28.7742 81.072C28.5595 81.464 28.4522 81.9493 28.4522 82.528C28.4522 83.1067 28.5595 83.592 28.7742 83.984C28.9888 84.376 29.2642 84.67 29.6002 84.866C29.9455 85.062 30.3142 85.16 30.7062 85.16ZM35.8273 86V75.92H37.0033V81.982L39.8453 79.056H41.2873L38.2073 82.192L41.6793 86H40.1813L37.0033 82.402V86H35.8273ZM45.4982 86.168C44.8355 86.168 44.2475 86.0187 43.7342 85.72C43.2208 85.412 42.8148 84.9873 42.5162 84.446C42.2268 83.9047 42.0822 83.2653 42.0822 82.528C42.0822 81.8 42.2268 81.1653 42.5162 80.624C42.8055 80.0733 43.2068 79.6487 43.7202 79.35C44.2428 79.042 44.8448 78.888 45.5262 78.888C46.1982 78.888 46.7768 79.042 47.2622 79.35C47.7568 79.6487 48.1348 80.0453 48.3962 80.54C48.6575 81.0347 48.7882 81.5667 48.7882 82.136C48.7882 82.2387 48.7835 82.3413 48.7742 82.444C48.7742 82.5467 48.7742 82.6633 48.7742 82.794H43.2442C43.2722 83.326 43.3935 83.7693 43.6082 84.124C43.8322 84.4693 44.1075 84.7307 44.4342 84.908C44.7702 85.0853 45.1248 85.174 45.4982 85.174C45.9835 85.174 46.3895 85.062 46.7162 84.838C47.0428 84.614 47.2808 84.3107 47.4302 83.928H48.5922C48.4055 84.572 48.0462 85.1087 47.5142 85.538C46.9915 85.958 46.3195 86.168 45.4982 86.168ZM45.4982 79.882C44.9382 79.882 44.4388 80.0547 44.0002 80.4C43.5708 80.736 43.3235 81.2307 43.2582 81.884H47.6262C47.5982 81.2587 47.3835 80.7687 46.9822 80.414C46.5808 80.0593 46.0862 79.882 45.4982 79.882ZM50.3469 86V79.056H51.4109L51.4809 80.302C51.7049 79.8633 52.0269 79.518 52.4469 79.266C52.8669 79.014 53.3429 78.888 53.8749 78.888C54.6962 78.888 55.3495 79.14 55.8349 79.644C56.3295 80.1387 56.5769 80.904 56.5769 81.94V86H55.4009V82.066C55.4009 80.6193 54.8035 79.896 53.6089 79.896C53.0115 79.896 52.5122 80.1153 52.1109 80.554C51.7189 80.9833 51.5229 81.5993 51.5229 82.402V86H50.3469Z" fill="#545D9D"/>
<path d="M393.99 86L390.308 76.2H391.582L394.676 84.754L397.798 76.2H399.044L395.362 86H393.99ZM401.848 86.168C401.27 86.168 400.789 86.07 400.406 85.874C400.024 85.678 399.739 85.4167 399.552 85.09C399.366 84.7633 399.272 84.4087 399.272 84.026C399.272 83.3167 399.543 82.7707 400.084 82.388C400.626 82.0053 401.363 81.814 402.296 81.814H404.172V81.73C404.172 81.1233 404.014 80.666 403.696 80.358C403.379 80.0407 402.954 79.882 402.422 79.882C401.965 79.882 401.568 79.9987 401.232 80.232C400.906 80.456 400.7 80.7873 400.616 81.226H399.412C399.459 80.722 399.627 80.2973 399.916 79.952C400.215 79.6067 400.584 79.3453 401.022 79.168C401.461 78.9813 401.928 78.888 402.422 78.888C403.393 78.888 404.121 79.1493 404.606 79.672C405.101 80.1853 405.348 80.8713 405.348 81.73V86H404.298L404.228 84.754C404.032 85.146 403.743 85.482 403.36 85.762C402.987 86.0327 402.483 86.168 401.848 86.168ZM402.03 85.174C402.478 85.174 402.861 85.0573 403.178 84.824C403.505 84.5907 403.752 84.2873 403.92 83.914C404.088 83.5407 404.172 83.1487 404.172 82.738V82.724H402.394C401.704 82.724 401.214 82.8453 400.924 83.088C400.644 83.3213 400.504 83.6153 400.504 83.97C400.504 84.334 400.635 84.628 400.896 84.852C401.167 85.0667 401.545 85.174 402.03 85.174ZM407.112 86V75.92H408.288V86H407.112ZM412.75 86.168C411.929 86.168 411.275 85.9207 410.79 85.426C410.305 84.922 410.062 84.152 410.062 83.116V79.056H411.238V82.99C411.238 84.4367 411.831 85.16 413.016 85.16C413.623 85.16 414.122 84.9453 414.514 84.516C414.915 84.0773 415.116 83.4567 415.116 82.654V79.056H416.292V86H415.228L415.144 84.754C414.929 85.1927 414.607 85.538 414.178 85.79C413.758 86.042 413.282 86.168 412.75 86.168ZM421.35 86.168C420.687 86.168 420.099 86.0187 419.586 85.72C419.072 85.412 418.666 84.9873 418.368 84.446C418.078 83.9047 417.934 83.2653 417.934 82.528C417.934 81.8 418.078 81.1653 418.368 80.624C418.657 80.0733 419.058 79.6487 419.572 79.35C420.094 79.042 420.696 78.888 421.378 78.888C422.05 78.888 422.628 79.042 423.114 79.35C423.608 79.6487 423.986 80.0453 424.248 80.54C424.509 81.0347 424.64 81.5667 424.64 82.136C424.64 82.2387 424.635 82.3413 424.626 82.444C424.626 82.5467 424.626 82.6633 424.626 82.794H419.096C419.124 83.326 419.245 83.7693 419.46 84.124C419.684 84.4693 419.959 84.7307 420.286 84.908C420.622 85.0853 420.976 85.174 421.35 85.174C421.835 85.174 422.241 85.062 422.568 84.838C422.894 84.614 423.132 84.3107 423.282 83.928H424.444C424.257 84.572 423.898 85.1087 423.366 85.538C422.843 85.958 422.171 86.168 421.35 86.168ZM421.35 79.882C420.79 79.882 420.29 80.0547 419.852 80.4C419.422 80.736 419.175 81.2307 419.11 81.884H423.478C423.45 81.2587 423.235 80.7687 422.834 80.414C422.432 80.0593 421.938 79.882 421.35 79.882Z" fill="#545D9D"/>
<g clip-path="url(#clip0_3595_5205)">
<path d="M36 140C44.8366 140 52 132.837 52 124C52 115.163 44.8366 108 36 108C27.1634 108 20 115.163 20 124C20 132.837 27.1634 140 36 140Z" fill="#627EEA"/>
<path d="M36.4961 112V120.87L43.9931 124.22L36.4961 112Z" fill="white" fill-opacity="0.602"/>
<path d="M36.498 112L29 124.22L36.498 120.87V112Z" fill="white"/>
<path d="M36.4961 129.968V135.995L43.9981 125.616L36.4961 129.968Z" fill="white" fill-opacity="0.602"/>
<path d="M36.498 135.995V129.967L29 125.616L36.498 135.995Z" fill="white"/>
<path d="M36.4961 128.573L43.9931 124.22L36.4961 120.872V128.573Z" fill="white" fill-opacity="0.2"/>
<path d="M29 124.22L36.498 128.573V120.872L29 124.22Z" fill="white" fill-opacity="0.602"/>
</g>
<path d="M60.994 128.5V118.7H67.224V119.904H62.478V122.956H66.804V124.132H62.478V127.296H67.224V128.5H60.994ZM71.568 128.5C70.8867 128.5 70.3454 128.337 69.944 128.01C69.5427 127.674 69.342 127.081 69.342 126.232V122.802H68.152V121.556H69.342L69.524 119.792H70.826V121.556H72.786V122.802H70.826V126.232C70.826 126.615 70.9054 126.881 71.064 127.03C71.232 127.17 71.5167 127.24 71.918 127.24H72.716V128.5H71.568ZM74.0362 128.5V118.42H75.5202V122.676C75.7535 122.275 76.0755 121.962 76.4862 121.738C76.9062 121.505 77.3682 121.388 77.8722 121.388C78.7029 121.388 79.3562 121.649 79.8322 122.172C80.3082 122.695 80.5462 123.474 80.5462 124.51V128.5H79.0762V124.664C79.0762 123.32 78.5395 122.648 77.4662 122.648C76.9062 122.648 76.4395 122.844 76.0662 123.236C75.7022 123.628 75.5202 124.188 75.5202 124.916V128.5H74.0362ZM85.262 128.668C84.5807 128.668 83.974 128.519 83.442 128.22C82.9193 127.912 82.5087 127.487 82.21 126.946C81.9113 126.405 81.762 125.775 81.762 125.056C81.762 124.328 81.9067 123.689 82.196 123.138C82.4947 122.587 82.9053 122.158 83.428 121.85C83.96 121.542 84.576 121.388 85.276 121.388C85.9573 121.388 86.55 121.542 87.054 121.85C87.558 122.149 87.95 122.55 88.23 123.054C88.51 123.558 88.65 124.113 88.65 124.72C88.65 124.813 88.6453 124.916 88.636 125.028C88.636 125.131 88.6313 125.247 88.622 125.378H83.218C83.2647 126.05 83.484 126.563 83.876 126.918C84.2773 127.263 84.7393 127.436 85.262 127.436C85.682 127.436 86.032 127.343 86.312 127.156C86.6013 126.96 86.816 126.699 86.956 126.372H88.44C88.2533 127.025 87.88 127.571 87.32 128.01C86.7693 128.449 86.0833 128.668 85.262 128.668ZM85.262 122.606C84.7673 122.606 84.3287 122.755 83.946 123.054C83.5633 123.343 83.33 123.782 83.246 124.37H87.166C87.138 123.829 86.9467 123.399 86.592 123.082C86.2373 122.765 85.794 122.606 85.262 122.606ZM89.9098 128.5V121.556H91.2398L91.3658 122.872C91.6085 122.415 91.9445 122.055 92.3738 121.794C92.8125 121.523 93.3398 121.388 93.9558 121.388V122.942H93.5498C93.1391 122.942 92.7705 123.012 92.4438 123.152C92.1265 123.283 91.8698 123.511 91.6738 123.838C91.4871 124.155 91.3938 124.599 91.3938 125.168V128.5H89.9098ZM95.7882 120.24C95.5082 120.24 95.2748 120.156 95.0882 119.988C94.9108 119.811 94.8222 119.591 94.8222 119.33C94.8222 119.069 94.9108 118.854 95.0882 118.686C95.2748 118.509 95.5082 118.42 95.7882 118.42C96.0682 118.42 96.2968 118.509 96.4742 118.686C96.6608 118.854 96.7542 119.069 96.7542 119.33C96.7542 119.591 96.6608 119.811 96.4742 119.988C96.2968 120.156 96.0682 120.24 95.7882 120.24ZM95.0462 128.5V121.556H96.5302V128.5H95.0462ZM100.771 128.668C99.9312 128.668 99.2685 128.407 98.7832 127.884C98.3072 127.361 98.0692 126.582 98.0692 125.546V121.556H99.5532V125.392C99.5532 126.736 100.104 127.408 101.205 127.408C101.756 127.408 102.209 127.212 102.563 126.82C102.918 126.428 103.095 125.868 103.095 125.14V121.556H104.579V128.5H103.263L103.151 127.282C102.937 127.711 102.619 128.052 102.199 128.304C101.789 128.547 101.313 128.668 100.771 128.668ZM106.187 128.5V121.556H107.503L107.629 122.536C107.853 122.181 108.147 121.901 108.511 121.696C108.884 121.491 109.314 121.388 109.799 121.388C110.9 121.388 111.666 121.822 112.095 122.69C112.347 122.289 112.683 121.971 113.103 121.738C113.532 121.505 113.994 121.388 114.489 121.388C115.357 121.388 116.038 121.649 116.533 122.172C117.028 122.695 117.275 123.474 117.275 124.51V128.5H115.791V124.664C115.791 123.32 115.278 122.648 114.251 122.648C113.728 122.648 113.299 122.844 112.963 123.236C112.636 123.628 112.473 124.188 112.473 124.916V128.5H110.989V124.664C110.989 123.32 110.471 122.648 109.435 122.648C108.922 122.648 108.497 122.844 108.161 123.236C107.834 123.628 107.671 124.188 107.671 124.916V128.5H106.187Z" fill="black"/>
<path d="M337.304 123V114.136L335.464 114.568V113L338.168 111.8H339.432V123H337.304ZM346.196 123.192C345.161 123.192 344.276 122.952 343.54 122.472C342.804 121.981 342.233 121.304 341.828 120.44C341.433 119.565 341.236 118.552 341.236 117.4C341.236 116.259 341.433 115.251 341.828 114.376C342.233 113.501 342.804 112.824 343.54 112.344C344.276 111.853 345.161 111.608 346.196 111.608C347.23 111.608 348.116 111.853 348.852 112.344C349.588 112.824 350.153 113.501 350.548 114.376C350.953 115.251 351.156 116.259 351.156 117.4C351.156 118.552 350.953 119.565 350.548 120.44C350.153 121.304 349.588 121.981 348.852 122.472C348.116 122.952 347.23 123.192 346.196 123.192ZM346.196 121.352C347.038 121.352 347.726 121 348.26 120.296C348.793 119.592 349.06 118.627 349.06 117.4C349.06 116.173 348.793 115.208 348.26 114.504C347.726 113.8 347.038 113.448 346.196 113.448C345.342 113.448 344.649 113.8 344.116 114.504C343.593 115.208 343.332 116.173 343.332 117.4C343.332 118.627 343.593 119.592 344.116 120.296C344.649 121 345.342 121.352 346.196 121.352ZM353.154 123.112C352.781 123.112 352.472 122.995 352.226 122.76C351.992 122.525 351.874 122.243 351.874 121.912C351.874 121.571 351.992 121.283 352.226 121.048C352.472 120.813 352.781 120.696 353.154 120.696C353.528 120.696 353.832 120.813 354.066 121.048C354.312 121.283 354.434 121.571 354.434 121.912C354.434 122.243 354.312 122.525 354.066 122.76C353.832 122.995 353.528 123.112 353.154 123.112ZM359.83 123.192C359.094 123.192 358.427 123.064 357.83 122.808C357.233 122.541 356.753 122.136 356.39 121.592C356.027 121.048 355.835 120.365 355.814 119.544H357.83C357.841 120.088 358.017 120.547 358.358 120.92C358.71 121.283 359.201 121.464 359.83 121.464C360.427 121.464 360.886 121.299 361.206 120.968C361.526 120.637 361.686 120.221 361.686 119.72C361.686 119.133 361.473 118.691 361.046 118.392C360.63 118.083 360.091 117.928 359.43 117.928H358.598V116.248H359.446C359.99 116.248 360.443 116.12 360.806 115.864C361.169 115.608 361.35 115.229 361.35 114.728C361.35 114.312 361.211 113.981 360.934 113.736C360.667 113.48 360.294 113.352 359.814 113.352C359.291 113.352 358.881 113.507 358.582 113.816C358.294 114.125 358.134 114.504 358.102 114.952H356.102C356.145 113.917 356.502 113.101 357.174 112.504C357.857 111.907 358.737 111.608 359.814 111.608C360.582 111.608 361.227 111.747 361.75 112.024C362.283 112.291 362.683 112.648 362.95 113.096C363.227 113.544 363.366 114.04 363.366 114.584C363.366 115.213 363.19 115.747 362.838 116.184C362.497 116.611 362.07 116.899 361.558 117.048C362.187 117.176 362.699 117.485 363.094 117.976C363.489 118.456 363.686 119.064 363.686 119.8C363.686 120.419 363.537 120.984 363.238 121.496C362.939 122.008 362.502 122.419 361.926 122.728C361.361 123.037 360.662 123.192 359.83 123.192ZM365.425 123V121.512C366.108 120.947 366.769 120.387 367.409 119.832C368.06 119.277 368.636 118.728 369.137 118.184C369.649 117.64 370.055 117.112 370.353 116.6C370.663 116.077 370.817 115.571 370.817 115.08C370.817 114.621 370.689 114.216 370.433 113.864C370.188 113.512 369.777 113.336 369.201 113.336C368.615 113.336 368.172 113.528 367.873 113.912C367.575 114.296 367.425 114.76 367.425 115.304H365.441C365.463 114.483 365.644 113.8 365.985 113.256C366.327 112.701 366.78 112.291 367.345 112.024C367.911 111.747 368.545 111.608 369.249 111.608C370.391 111.608 371.276 111.923 371.905 112.552C372.545 113.171 372.865 113.976 372.865 114.968C372.865 115.587 372.721 116.189 372.433 116.776C372.156 117.363 371.788 117.928 371.329 118.472C370.871 119.016 370.375 119.528 369.841 120.008C369.308 120.477 368.791 120.915 368.289 121.32H373.137V123H365.425ZM375.337 123L379.561 113.544H374.041V111.8H381.673V113.256L377.465 123H375.337ZM387.505 123V120.92H381.985V119.288L387.233 111.8H389.553V119.144H391.025V120.92H389.553V123H387.505ZM384.177 119.144H387.633V114.056L384.177 119.144ZM396.447 123V111.8H403.759V113.448H398.495V116.52H403.279V118.12H398.495V121.352H403.759V123H396.447ZM408.305 123V113.448H405.041V111.8H413.633V113.448H410.353V123H408.305ZM415.151 123V111.8H417.199V116.456H422.223V111.8H424.271V123H422.223V118.12H417.199V123H415.151Z" fill="black"/>
<path d="M353.816 141.957V141.11C353.097 141.029 352.529 140.773 352.111 140.34C351.693 139.907 351.484 139.357 351.484 138.69H352.452C352.452 139.079 352.566 139.427 352.793 139.735C353.028 140.036 353.369 140.23 353.816 140.318V137.337C353.765 137.322 353.71 137.308 353.651 137.293C353.6 137.271 353.548 137.253 353.497 137.238C352.903 137.033 352.463 136.78 352.177 136.479C351.891 136.171 351.748 135.771 351.748 135.28C351.741 134.708 351.92 134.231 352.287 133.85C352.661 133.469 353.171 133.249 353.816 133.19V132.299H354.575V133.19C355.191 133.263 355.682 133.494 356.049 133.883C356.416 134.272 356.603 134.745 356.61 135.302H355.642C355.642 135.031 355.554 134.77 355.378 134.521C355.202 134.264 354.934 134.092 354.575 134.004V136.666C354.634 136.681 354.692 136.699 354.751 136.721C354.81 136.743 354.872 136.761 354.938 136.776C355.305 136.908 355.635 137.062 355.928 137.238C356.221 137.414 356.449 137.641 356.61 137.92C356.779 138.199 356.863 138.554 356.863 138.987C356.863 139.332 356.779 139.658 356.61 139.966C356.441 140.274 356.185 140.534 355.84 140.747C355.503 140.96 355.081 141.084 354.575 141.121V141.957H353.816ZM352.705 135.192C352.705 135.529 352.804 135.786 353.002 135.962C353.2 136.131 353.471 136.277 353.816 136.402V133.982C353.486 134.033 353.218 134.165 353.013 134.378C352.808 134.583 352.705 134.855 352.705 135.192ZM355.906 139.042C355.906 138.617 355.781 138.301 355.532 138.096C355.283 137.891 354.964 137.722 354.575 137.59V140.34C355 140.289 355.327 140.142 355.554 139.9C355.789 139.658 355.906 139.372 355.906 139.042ZM361.844 141V134.334L360.601 134.609V133.971L362.152 133.3H362.779V141H361.844ZM363.612 142.309L364.25 139.878H365.207L364.25 142.309H363.612ZM366.997 141L370.055 134.092H365.831V133.3H371.001V133.993L367.976 141H366.997ZM374.583 141.132C374.077 141.132 373.622 141.04 373.219 140.857C372.815 140.666 372.496 140.406 372.262 140.076C372.034 139.739 371.921 139.35 371.921 138.91C371.921 138.441 372.056 138.019 372.328 137.645C372.606 137.271 372.973 137.022 373.428 136.897C373.01 136.758 372.687 136.534 372.46 136.226C372.232 135.918 372.119 135.581 372.119 135.214C372.119 134.84 372.218 134.499 372.416 134.191C372.614 133.876 372.896 133.626 373.263 133.443C373.629 133.26 374.069 133.168 374.583 133.168C375.096 133.168 375.536 133.26 375.903 133.443C376.269 133.626 376.552 133.876 376.75 134.191C376.948 134.499 377.047 134.84 377.047 135.214C377.047 135.573 376.933 135.911 376.706 136.226C376.478 136.534 376.156 136.758 375.738 136.897C376.192 137.022 376.555 137.271 376.827 137.645C377.105 138.019 377.245 138.441 377.245 138.91C377.245 139.35 377.127 139.739 376.893 140.076C376.665 140.406 376.35 140.666 375.947 140.857C375.543 141.04 375.089 141.132 374.583 141.132ZM374.583 136.567C375.052 136.567 375.422 136.45 375.694 136.215C375.972 135.973 376.112 135.658 376.112 135.269C376.112 134.836 375.976 134.51 375.705 134.29C375.433 134.07 375.059 133.96 374.583 133.96C374.106 133.96 373.732 134.07 373.461 134.29C373.197 134.51 373.065 134.836 373.065 135.269C373.065 135.658 373.2 135.973 373.472 136.215C373.743 136.45 374.113 136.567 374.583 136.567ZM374.583 140.318C375.162 140.318 375.595 140.186 375.881 139.922C376.174 139.651 376.321 139.295 376.321 138.855C376.321 138.356 376.163 137.979 375.848 137.722C375.532 137.465 375.111 137.337 374.583 137.337C374.055 137.337 373.633 137.465 373.318 137.722C373.002 137.979 372.845 138.356 372.845 138.855C372.845 139.295 372.988 139.651 373.274 139.922C373.567 140.186 374.003 140.318 374.583 140.318ZM381.758 141.132C381.076 141.132 380.486 140.967 379.987 140.637C379.496 140.3 379.118 139.834 378.854 139.24C378.59 138.639 378.458 137.942 378.458 137.15C378.458 136.358 378.59 135.665 378.854 135.071C379.118 134.47 379.496 134.004 379.987 133.674C380.486 133.337 381.076 133.168 381.758 133.168C382.44 133.168 383.027 133.337 383.518 133.674C384.01 134.004 384.387 134.47 384.651 135.071C384.915 135.665 385.047 136.358 385.047 137.15C385.047 137.942 384.915 138.639 384.651 139.24C384.387 139.834 384.01 140.3 383.518 140.637C383.027 140.967 382.44 141.132 381.758 141.132ZM381.758 140.318C382.206 140.318 382.605 140.193 382.957 139.944C383.317 139.687 383.595 139.324 383.793 138.855C383.999 138.378 384.101 137.81 384.101 137.15C384.101 136.49 383.999 135.925 383.793 135.456C383.595 134.987 383.317 134.627 382.957 134.378C382.605 134.121 382.206 133.993 381.758 133.993C381.304 133.993 380.9 134.121 380.548 134.378C380.196 134.627 379.918 134.987 379.712 135.456C379.507 135.925 379.404 136.49 379.404 137.15C379.404 137.81 379.507 138.378 379.712 138.855C379.918 139.324 380.196 139.687 380.548 139.944C380.9 140.193 381.304 140.318 381.758 140.318ZM385.257 142.309L385.895 139.878H386.852L385.895 142.309H385.257ZM387.883 141V140.351C388.404 139.94 388.895 139.526 389.357 139.108C389.827 138.683 390.241 138.265 390.6 137.854C390.967 137.443 391.253 137.04 391.458 136.644C391.671 136.248 391.777 135.867 391.777 135.5C391.777 135.229 391.73 134.976 391.634 134.741C391.546 134.506 391.4 134.319 391.194 134.18C390.989 134.033 390.71 133.96 390.358 133.96C390.021 133.96 389.739 134.037 389.511 134.191C389.284 134.338 389.112 134.536 388.994 134.785C388.884 135.034 388.829 135.302 388.829 135.588H387.938C387.938 135.082 388.045 134.649 388.257 134.29C388.47 133.923 388.76 133.645 389.126 133.454C389.493 133.263 389.907 133.168 390.369 133.168C391.051 133.168 391.609 133.362 392.041 133.751C392.481 134.132 392.701 134.704 392.701 135.467C392.701 135.922 392.588 136.373 392.36 136.82C392.133 137.26 391.843 137.689 391.491 138.107C391.139 138.518 390.762 138.903 390.358 139.262C389.962 139.621 389.592 139.944 389.247 140.23H392.965V141H387.883ZM396.697 141.132C396.206 141.132 395.762 141.044 395.366 140.868C394.97 140.685 394.651 140.413 394.409 140.054C394.175 139.695 394.05 139.247 394.035 138.712H394.97C394.978 139.152 395.132 139.533 395.432 139.856C395.733 140.171 396.155 140.329 396.697 140.329C397.24 140.329 397.647 140.179 397.918 139.878C398.197 139.577 398.336 139.214 398.336 138.789C398.336 138.43 398.248 138.136 398.072 137.909C397.904 137.682 397.673 137.513 397.379 137.403C397.093 137.293 396.778 137.238 396.433 137.238H395.861V136.457H396.433C396.932 136.457 397.321 136.343 397.599 136.116C397.885 135.889 398.028 135.57 398.028 135.159C398.028 134.814 397.915 134.532 397.687 134.312C397.467 134.085 397.137 133.971 396.697 133.971C396.272 133.971 395.931 134.099 395.674 134.356C395.418 134.605 395.275 134.921 395.245 135.302H394.31C394.332 134.884 394.442 134.514 394.64 134.191C394.846 133.868 395.124 133.619 395.476 133.443C395.828 133.26 396.235 133.168 396.697 133.168C397.196 133.168 397.61 133.256 397.94 133.432C398.278 133.608 398.531 133.843 398.699 134.136C398.875 134.429 398.963 134.752 398.963 135.104C398.963 135.493 398.857 135.848 398.644 136.171C398.432 136.486 398.113 136.699 397.687 136.809C398.142 136.904 398.52 137.121 398.82 137.458C399.121 137.795 399.271 138.239 399.271 138.789C399.271 139.214 399.172 139.607 398.974 139.966C398.784 140.318 398.498 140.6 398.116 140.813C397.735 141.026 397.262 141.132 396.697 141.132ZM403.384 141.132C402.856 141.132 402.398 141.037 402.009 140.846C401.62 140.655 401.309 140.395 401.074 140.065C400.847 139.728 400.707 139.346 400.656 138.921H401.558C401.646 139.346 401.851 139.691 402.174 139.955C402.497 140.212 402.904 140.34 403.395 140.34C403.762 140.34 404.077 140.256 404.341 140.087C404.605 139.911 404.807 139.676 404.946 139.383C405.093 139.09 405.166 138.763 405.166 138.404C405.166 137.832 405.005 137.37 404.682 137.018C404.359 136.666 403.941 136.49 403.428 136.49C403.003 136.49 402.64 136.585 402.339 136.776C402.038 136.967 401.818 137.216 401.679 137.524H400.799L401.459 133.3H405.496V134.103H402.174L401.723 136.446C401.899 136.233 402.141 136.057 402.449 135.918C402.764 135.779 403.124 135.709 403.527 135.709C404.033 135.709 404.473 135.826 404.847 136.061C405.228 136.296 405.525 136.615 405.738 137.018C405.951 137.421 406.057 137.88 406.057 138.393C406.057 138.884 405.951 139.339 405.738 139.757C405.533 140.175 405.228 140.509 404.825 140.758C404.429 141.007 403.949 141.132 403.384 141.132ZM407.766 141.055C407.582 141.055 407.428 140.996 407.304 140.879C407.186 140.754 407.128 140.604 407.128 140.428C407.128 140.252 407.186 140.105 407.304 139.988C407.428 139.863 407.582 139.801 407.766 139.801C407.942 139.801 408.088 139.863 408.206 139.988C408.33 140.105 408.393 140.252 408.393 140.428C408.393 140.604 408.33 140.754 408.206 140.879C408.088 140.996 407.942 141.055 407.766 141.055ZM410.151 141V134.334L408.908 134.609V133.971L410.459 133.3H411.086V141H410.151ZM416.198 141V139.35H412.293V138.635L416.033 133.3H417.111V138.536H418.255V139.35H417.111V141H416.198ZM413.316 138.536H416.242V134.323L413.316 138.536ZM421.77 141.132C421.278 141.132 420.835 141.044 420.439 140.868C420.043 140.685 419.724 140.413 419.482 140.054C419.247 139.695 419.122 139.247 419.108 138.712H420.043C420.05 139.152 420.204 139.533 420.505 139.856C420.805 140.171 421.227 140.329 421.77 140.329C422.312 140.329 422.719 140.179 422.991 139.878C423.269 139.577 423.409 139.214 423.409 138.789C423.409 138.43 423.321 138.136 423.145 137.909C422.976 137.682 422.745 137.513 422.452 137.403C422.166 137.293 421.85 137.238 421.506 137.238H420.934V136.457H421.506C422.004 136.457 422.393 136.343 422.672 136.116C422.958 135.889 423.101 135.57 423.101 135.159C423.101 134.814 422.987 134.532 422.76 134.312C422.54 134.085 422.21 133.971 421.77 133.971C421.344 133.971 421.003 134.099 420.747 134.356C420.49 134.605 420.347 134.921 420.318 135.302H419.383C419.405 134.884 419.515 134.514 419.713 134.191C419.918 133.868 420.197 133.619 420.549 133.443C420.901 133.26 421.308 133.168 421.77 133.168C422.268 133.168 422.683 133.256 423.013 133.432C423.35 133.608 423.603 133.843 423.772 134.136C423.948 134.429 424.036 134.752 424.036 135.104C424.036 135.493 423.929 135.848 423.717 136.171C423.504 136.486 423.185 136.699 422.76 136.809C423.214 136.904 423.592 137.121 423.893 137.458C424.193 137.795 424.344 138.239 424.344 138.789C424.344 139.214 424.245 139.607 424.047 139.966C423.856 140.318 423.57 140.6 423.189 140.813C422.807 141.026 422.334 141.132 421.77 141.132Z" fill="#929292"/>
<g clip-path="url(#clip1_3595_5205)">
<path d="M36 217C44.8366 217 52 209.837 52 201C52 192.163 44.8366 185 36 185C27.1634 185 20 192.163 20 201C20 209.837 27.1634 217 36 217Z" fill="#26A17B"/>
<path fill-rule="evenodd" clip-rule="evenodd" d="M37.9228 202.383V202.381C37.8128 202.389 37.2458 202.423 35.9808 202.423C34.9708 202.423 34.2598 202.393 34.0098 202.381V202.384C30.1218 202.213 27.2198 201.536 27.2198 200.726C27.2198 199.917 30.1218 199.24 34.0098 199.066V201.71C34.2638 201.728 34.9918 201.771 35.9978 201.771C37.2048 201.771 37.8098 201.721 37.9228 201.711V199.068C41.8028 199.241 44.6978 199.918 44.6978 200.726C44.6978 201.536 41.8028 202.211 37.9228 202.383ZM37.9228 198.793V196.427H43.3368V192.819H28.5958V196.427H34.0098V198.792C29.6098 198.994 26.3008 199.866 26.3008 200.91C26.3008 201.954 29.6098 202.825 34.0098 203.028V210.61H37.9228V203.026C42.3158 202.824 45.6168 201.953 45.6168 200.91C45.6168 199.867 42.3158 198.996 37.9228 198.793Z" fill="white"/>
</g>
<path d="M63.29 205.5V196.904H60.392V195.7H67.658V196.904H64.774V205.5H63.29ZM70.7009 205.668C70.0196 205.668 69.4129 205.519 68.8809 205.22C68.3583 204.912 67.9476 204.487 67.6489 203.946C67.3503 203.405 67.2009 202.775 67.2009 202.056C67.2009 201.328 67.3456 200.689 67.6349 200.138C67.9336 199.587 68.3443 199.158 68.8669 198.85C69.3989 198.542 70.0149 198.388 70.7149 198.388C71.3963 198.388 71.9889 198.542 72.4929 198.85C72.9969 199.149 73.3889 199.55 73.6689 200.054C73.9489 200.558 74.0889 201.113 74.0889 201.72C74.0889 201.813 74.0843 201.916 74.0749 202.028C74.0749 202.131 74.0703 202.247 74.0609 202.378H68.6569C68.7036 203.05 68.9229 203.563 69.3149 203.918C69.7163 204.263 70.1783 204.436 70.7009 204.436C71.1209 204.436 71.4709 204.343 71.7509 204.156C72.0403 203.96 72.2549 203.699 72.3949 203.372H73.8789C73.6923 204.025 73.3189 204.571 72.7589 205.01C72.2083 205.449 71.5223 205.668 70.7009 205.668ZM70.7009 199.606C70.2063 199.606 69.7676 199.755 69.3849 200.054C69.0023 200.343 68.7689 200.782 68.6849 201.37H72.6049C72.5769 200.829 72.3856 200.399 72.0309 200.082C71.6763 199.765 71.2329 199.606 70.7009 199.606ZM78.083 205.5C77.4016 205.5 76.8603 205.337 76.459 205.01C76.0576 204.674 75.857 204.081 75.857 203.232V199.802H74.667V198.556H75.857L76.039 196.792H77.341V198.556H79.301V199.802H77.341V203.232C77.341 203.615 77.4203 203.881 77.579 204.03C77.747 204.17 78.0316 204.24 78.433 204.24H79.231V205.5H78.083ZM80.5511 205.5V195.42H82.0351V199.676C82.2685 199.275 82.5905 198.962 83.0011 198.738C83.4211 198.505 83.8831 198.388 84.3871 198.388C85.2178 198.388 85.8711 198.649 86.3471 199.172C86.8231 199.695 87.0611 200.474 87.0611 201.51V205.5H85.5911V201.664C85.5911 200.32 85.0545 199.648 83.9811 199.648C83.4211 199.648 82.9545 199.844 82.5811 200.236C82.2171 200.628 82.0351 201.188 82.0351 201.916V205.5H80.5511ZM91.7769 205.668C91.0956 205.668 90.4889 205.519 89.9569 205.22C89.4343 204.912 89.0236 204.487 88.7249 203.946C88.4263 203.405 88.2769 202.775 88.2769 202.056C88.2769 201.328 88.4216 200.689 88.7109 200.138C89.0096 199.587 89.4203 199.158 89.9429 198.85C90.4749 198.542 91.0909 198.388 91.7909 198.388C92.4723 198.388 93.0649 198.542 93.5689 198.85C94.0729 199.149 94.4649 199.55 94.7449 200.054C95.0249 200.558 95.1649 201.113 95.1649 201.72C95.1649 201.813 95.1603 201.916 95.1509 202.028C95.1509 202.131 95.1463 202.247 95.1369 202.378H89.7329C89.7796 203.05 89.9989 203.563 90.3909 203.918C90.7923 204.263 91.2543 204.436 91.7769 204.436C92.1969 204.436 92.5469 204.343 92.8269 204.156C93.1163 203.96 93.3309 203.699 93.4709 203.372H94.9549C94.7683 204.025 94.3949 204.571 93.8349 205.01C93.2843 205.449 92.5983 205.668 91.7769 205.668ZM91.7769 199.606C91.2823 199.606 90.8436 199.755 90.4609 200.054C90.0783 200.343 89.8449 200.782 89.7609 201.37H93.6809C93.6529 200.829 93.4616 200.399 93.1069 200.082C92.7523 199.765 92.3089 199.606 91.7769 199.606ZM96.4247 205.5V198.556H97.7547L97.8807 199.872C98.1234 199.415 98.4594 199.055 98.8887 198.794C99.3274 198.523 99.8547 198.388 100.471 198.388V199.942H100.065C99.6541 199.942 99.2854 200.012 98.9587 200.152C98.6414 200.283 98.3847 200.511 98.1887 200.838C98.0021 201.155 97.9087 201.599 97.9087 202.168V205.5H96.4247Z" fill="black"/>
<path d="M333.912 198V196.784C334.637 196.208 335.331 195.627 335.992 195.04C336.653 194.453 337.24 193.877 337.752 193.312C338.275 192.736 338.685 192.176 338.984 191.632C339.283 191.077 339.432 190.544 339.432 190.032C339.432 189.691 339.373 189.371 339.256 189.072C339.139 188.763 338.947 188.517 338.68 188.336C338.413 188.144 338.056 188.048 337.608 188.048C336.936 188.048 336.429 188.261 336.088 188.688C335.757 189.115 335.597 189.627 335.608 190.224H333.96C333.971 189.435 334.136 188.773 334.456 188.24C334.787 187.707 335.224 187.301 335.768 187.024C336.323 186.747 336.947 186.608 337.64 186.608C338.696 186.608 339.539 186.907 340.168 187.504C340.808 188.091 341.128 188.912 341.128 189.968C341.128 190.597 340.973 191.221 340.664 191.84C340.365 192.459 339.971 193.056 339.48 193.632C339 194.197 338.483 194.731 337.928 195.232C337.373 195.733 336.845 196.187 336.344 196.592H341.464V198H333.912ZM343.9 198.096C343.58 198.096 343.314 197.995 343.1 197.792C342.898 197.579 342.796 197.328 342.796 197.04C342.796 196.741 342.898 196.491 343.1 196.288C343.314 196.075 343.58 195.968 343.9 195.968C344.22 195.968 344.482 196.075 344.684 196.288C344.887 196.491 344.988 196.741 344.988 197.04C344.988 197.328 344.887 197.579 344.684 197.792C344.482 197.995 344.22 198.096 343.9 198.096ZM350.345 198.192C349.62 198.192 348.958 198.064 348.361 197.808C347.774 197.541 347.305 197.141 346.953 196.608C346.601 196.075 346.414 195.408 346.393 194.608H348.073C348.094 195.205 348.297 195.712 348.681 196.128C349.076 196.533 349.63 196.736 350.345 196.736C351.028 196.736 351.55 196.549 351.913 196.176C352.276 195.792 352.457 195.317 352.457 194.752C352.457 194.069 352.212 193.563 351.721 193.232C351.241 192.901 350.649 192.736 349.945 192.736H349.113V191.328H349.961C350.59 191.328 351.097 191.179 351.481 190.88C351.876 190.581 352.073 190.16 352.073 189.616C352.073 189.157 351.918 188.784 351.609 188.496C351.31 188.208 350.884 188.064 350.329 188.064C349.753 188.064 349.3 188.235 348.969 188.576C348.638 188.907 348.457 189.323 348.425 189.824H346.745C346.766 189.173 346.926 188.608 347.225 188.128C347.534 187.648 347.956 187.275 348.489 187.008C349.022 186.741 349.636 186.608 350.329 186.608C351.076 186.608 351.7 186.741 352.201 187.008C352.713 187.264 353.097 187.616 353.353 188.064C353.62 188.501 353.753 188.981 353.753 189.504C353.753 190.101 353.588 190.624 353.257 191.072C352.926 191.52 352.484 191.819 351.929 191.968C352.569 192.107 353.097 192.421 353.513 192.912C353.929 193.392 354.137 194.016 354.137 194.784C354.137 195.403 353.993 195.973 353.705 196.496C353.417 197.008 352.99 197.419 352.425 197.728C351.86 198.037 351.166 198.192 350.345 198.192ZM356.006 198V196.784C356.731 196.208 357.424 195.627 358.086 195.04C358.747 194.453 359.334 193.877 359.846 193.312C360.368 192.736 360.779 192.176 361.078 191.632C361.376 191.077 361.526 190.544 361.526 190.032C361.526 189.691 361.467 189.371 361.35 189.072C361.232 188.763 361.04 188.517 360.774 188.336C360.507 188.144 360.15 188.048 359.702 188.048C359.03 188.048 358.523 188.261 358.182 188.688C357.851 189.115 357.691 189.627 357.702 190.224H356.054C356.064 189.435 356.23 188.773 356.55 188.24C356.88 187.707 357.318 187.301 357.862 187.024C358.416 186.747 359.04 186.608 359.734 186.608C360.79 186.608 361.632 186.907 362.262 187.504C362.902 188.091 363.222 188.912 363.222 189.968C363.222 190.597 363.067 191.221 362.758 191.84C362.459 192.459 362.064 193.056 361.574 193.632C361.094 194.197 360.576 194.731 360.022 195.232C359.467 195.733 358.939 196.187 358.438 196.592H363.558V198H356.006ZM365.967 198L370.303 188.256H364.479V186.8H372.047V188.032L367.743 198H365.967ZM377.943 198V195.76H372.327V194.416L377.671 186.8H379.623V194.288H381.191V195.76H379.623V198H377.943ZM374.167 194.288H378.039V188.672L374.167 194.288ZM391.031 198.192C390.231 198.192 389.506 198.037 388.855 197.728C388.215 197.408 387.703 196.923 387.319 196.272C386.946 195.621 386.759 194.795 386.759 193.792V186.8H388.455V193.808C388.455 194.789 388.69 195.509 389.159 195.968C389.628 196.427 390.263 196.656 391.063 196.656C391.852 196.656 392.482 196.427 392.951 195.968C393.42 195.509 393.655 194.789 393.655 193.808V186.8H395.351V193.792C395.351 194.795 395.154 195.621 394.759 196.272C394.375 196.923 393.852 197.408 393.191 197.728C392.54 198.037 391.82 198.192 391.031 198.192ZM401.223 198.192C400.401 198.192 399.681 198.048 399.063 197.76C398.444 197.472 397.959 197.061 397.607 196.528C397.265 195.995 397.089 195.36 397.079 194.624H398.871C398.881 195.221 399.089 195.728 399.495 196.144C399.9 196.56 400.471 196.768 401.207 196.768C401.857 196.768 402.364 196.613 402.727 196.304C403.1 195.984 403.287 195.579 403.287 195.088C403.287 194.693 403.196 194.373 403.015 194.128C402.844 193.883 402.604 193.68 402.295 193.52C401.996 193.36 401.649 193.216 401.255 193.088C400.86 192.96 400.444 192.821 400.007 192.672C399.143 192.384 398.492 192.011 398.055 191.552C397.628 191.093 397.415 190.491 397.415 189.744C397.404 189.115 397.548 188.565 397.847 188.096C398.156 187.627 398.583 187.264 399.127 187.008C399.681 186.741 400.327 186.608 401.063 186.608C401.788 186.608 402.423 186.741 402.967 187.008C403.521 187.275 403.953 187.648 404.263 188.128C404.572 188.597 404.732 189.147 404.743 189.776H402.951C402.951 189.488 402.876 189.216 402.727 188.96C402.577 188.693 402.359 188.475 402.071 188.304C401.783 188.133 401.431 188.048 401.015 188.048C400.481 188.037 400.039 188.171 399.687 188.448C399.345 188.725 399.175 189.109 399.175 189.6C399.175 190.037 399.303 190.373 399.559 190.608C399.815 190.843 400.167 191.04 400.615 191.2C401.063 191.349 401.575 191.525 402.151 191.728C402.705 191.909 403.201 192.128 403.639 192.384C404.076 192.64 404.423 192.976 404.679 193.392C404.945 193.808 405.079 194.336 405.079 194.976C405.079 195.541 404.935 196.069 404.647 196.56C404.359 197.04 403.927 197.435 403.351 197.744C402.775 198.043 402.065 198.192 401.223 198.192ZM406.933 198V186.8H410.565C411.877 186.8 412.954 187.029 413.797 187.488C414.65 187.947 415.28 188.597 415.685 189.44C416.101 190.272 416.309 191.264 416.309 192.416C416.309 193.557 416.101 194.549 415.685 195.392C415.28 196.224 414.65 196.869 413.797 197.328C412.954 197.776 411.877 198 410.565 198H406.933ZM408.629 196.56H410.501C411.514 196.56 412.314 196.395 412.901 196.064C413.498 195.733 413.925 195.259 414.181 194.64C414.448 194.021 414.581 193.28 414.581 192.416C414.581 191.552 414.448 190.805 414.181 190.176C413.925 189.547 413.498 189.067 412.901 188.736C412.314 188.395 411.514 188.224 410.501 188.224H408.629V196.56ZM420.307 198V188.176H416.995V186.8H425.299V188.176H422.003V198H420.307Z" fill="black"/>
<path d="M353.816 216.957V216.11C353.097 216.029 352.529 215.773 352.111 215.34C351.693 214.907 351.484 214.357 351.484 213.69H352.452C352.452 214.079 352.566 214.427 352.793 214.735C353.028 215.036 353.369 215.23 353.816 215.318V212.337C353.765 212.322 353.71 212.308 353.651 212.293C353.6 212.271 353.548 212.253 353.497 212.238C352.903 212.033 352.463 211.78 352.177 211.479C351.891 211.171 351.748 210.771 351.748 210.28C351.741 209.708 351.92 209.231 352.287 208.85C352.661 208.469 353.171 208.249 353.816 208.19V207.299H354.575V208.19C355.191 208.263 355.682 208.494 356.049 208.883C356.416 209.272 356.603 209.745 356.61 210.302H355.642C355.642 210.031 355.554 209.77 355.378 209.521C355.202 209.264 354.934 209.092 354.575 209.004V211.666C354.634 211.681 354.692 211.699 354.751 211.721C354.81 211.743 354.872 211.761 354.938 211.776C355.305 211.908 355.635 212.062 355.928 212.238C356.221 212.414 356.449 212.641 356.61 212.92C356.779 213.199 356.863 213.554 356.863 213.987C356.863 214.332 356.779 214.658 356.61 214.966C356.441 215.274 356.185 215.534 355.84 215.747C355.503 215.96 355.081 216.084 354.575 216.121V216.957H353.816ZM352.705 210.192C352.705 210.529 352.804 210.786 353.002 210.962C353.2 211.131 353.471 211.277 353.816 211.402V208.982C353.486 209.033 353.218 209.165 353.013 209.378C352.808 209.583 352.705 209.855 352.705 210.192ZM355.906 214.042C355.906 213.617 355.781 213.301 355.532 213.096C355.283 212.891 354.964 212.722 354.575 212.59V215.34C355 215.289 355.327 215.142 355.554 214.9C355.789 214.658 355.906 214.372 355.906 214.042ZM361.844 216V209.334L360.601 209.609V208.971L362.152 208.3H362.779V216H361.844ZM363.612 217.309L364.25 214.878H365.207L364.25 217.309H363.612ZM366.997 216L370.055 209.092H365.831V208.3H371.001V208.993L367.976 216H366.997ZM374.583 216.132C374.077 216.132 373.622 216.04 373.219 215.857C372.815 215.666 372.496 215.406 372.262 215.076C372.034 214.739 371.921 214.35 371.921 213.91C371.921 213.441 372.056 213.019 372.328 212.645C372.606 212.271 372.973 212.022 373.428 211.897C373.01 211.758 372.687 211.534 372.46 211.226C372.232 210.918 372.119 210.581 372.119 210.214C372.119 209.84 372.218 209.499 372.416 209.191C372.614 208.876 372.896 208.626 373.263 208.443C373.629 208.26 374.069 208.168 374.583 208.168C375.096 208.168 375.536 208.26 375.903 208.443C376.269 208.626 376.552 208.876 376.75 209.191C376.948 209.499 377.047 209.84 377.047 210.214C377.047 210.573 376.933 210.911 376.706 211.226C376.478 211.534 376.156 211.758 375.738 211.897C376.192 212.022 376.555 212.271 376.827 212.645C377.105 213.019 377.245 213.441 377.245 213.91C377.245 214.35 377.127 214.739 376.893 215.076C376.665 215.406 376.35 215.666 375.947 215.857C375.543 216.04 375.089 216.132 374.583 216.132ZM374.583 211.567C375.052 211.567 375.422 211.45 375.694 211.215C375.972 210.973 376.112 210.658 376.112 210.269C376.112 209.836 375.976 209.51 375.705 209.29C375.433 209.07 375.059 208.96 374.583 208.96C374.106 208.96 373.732 209.07 373.461 209.29C373.197 209.51 373.065 209.836 373.065 210.269C373.065 210.658 373.2 210.973 373.472 211.215C373.743 211.45 374.113 211.567 374.583 211.567ZM374.583 215.318C375.162 215.318 375.595 215.186 375.881 214.922C376.174 214.651 376.321 214.295 376.321 213.855C376.321 213.356 376.163 212.979 375.848 212.722C375.532 212.465 375.111 212.337 374.583 212.337C374.055 212.337 373.633 212.465 373.318 212.722C373.002 212.979 372.845 213.356 372.845 213.855C372.845 214.295 372.988 214.651 373.274 214.922C373.567 215.186 374.003 215.318 374.583 215.318ZM381.758 216.132C381.076 216.132 380.486 215.967 379.987 215.637C379.496 215.3 379.118 214.834 378.854 214.24C378.59 213.639 378.458 212.942 378.458 212.15C378.458 211.358 378.59 210.665 378.854 210.071C379.118 209.47 379.496 209.004 379.987 208.674C380.486 208.337 381.076 208.168 381.758 208.168C382.44 208.168 383.027 208.337 383.518 208.674C384.01 209.004 384.387 209.47 384.651 210.071C384.915 210.665 385.047 211.358 385.047 212.15C385.047 212.942 384.915 213.639 384.651 214.24C384.387 214.834 384.01 215.3 383.518 215.637C383.027 215.967 382.44 216.132 381.758 216.132ZM381.758 215.318C382.206 215.318 382.605 215.193 382.957 214.944C383.317 214.687 383.595 214.324 383.793 213.855C383.999 213.378 384.101 212.81 384.101 212.15C384.101 211.49 383.999 210.925 383.793 210.456C383.595 209.987 383.317 209.627 382.957 209.378C382.605 209.121 382.206 208.993 381.758 208.993C381.304 208.993 380.9 209.121 380.548 209.378C380.196 209.627 379.918 209.987 379.712 210.456C379.507 210.925 379.404 211.49 379.404 212.15C379.404 212.81 379.507 213.378 379.712 213.855C379.918 214.324 380.196 214.687 380.548 214.944C380.9 215.193 381.304 215.318 381.758 215.318ZM385.257 217.309L385.895 214.878H386.852L385.895 217.309H385.257ZM387.883 216V215.351C388.404 214.94 388.895 214.526 389.357 214.108C389.827 213.683 390.241 213.265 390.6 212.854C390.967 212.443 391.253 212.04 391.458 211.644C391.671 211.248 391.777 210.867 391.777 210.5C391.777 210.229 391.73 209.976 391.634 209.741C391.546 209.506 391.4 209.319 391.194 209.18C390.989 209.033 390.71 208.96 390.358 208.96C390.021 208.96 389.739 209.037 389.511 209.191C389.284 209.338 389.112 209.536 388.994 209.785C388.884 210.034 388.829 210.302 388.829 210.588H387.938C387.938 210.082 388.045 209.649 388.257 209.29C388.47 208.923 388.76 208.645 389.126 208.454C389.493 208.263 389.907 208.168 390.369 208.168C391.051 208.168 391.609 208.362 392.041 208.751C392.481 209.132 392.701 209.704 392.701 210.467C392.701 210.922 392.588 211.373 392.36 211.82C392.133 212.26 391.843 212.689 391.491 213.107C391.139 213.518 390.762 213.903 390.358 214.262C389.962 214.621 389.592 214.944 389.247 215.23H392.965V216H387.883ZM396.697 216.132C396.206 216.132 395.762 216.044 395.366 215.868C394.97 215.685 394.651 215.413 394.409 215.054C394.175 214.695 394.05 214.247 394.035 213.712H394.97C394.978 214.152 395.132 214.533 395.432 214.856C395.733 215.171 396.155 215.329 396.697 215.329C397.24 215.329 397.647 215.179 397.918 214.878C398.197 214.577 398.336 214.214 398.336 213.789C398.336 213.43 398.248 213.136 398.072 212.909C397.904 212.682 397.673 212.513 397.379 212.403C397.093 212.293 396.778 212.238 396.433 212.238H395.861V211.457H396.433C396.932 211.457 397.321 211.343 397.599 211.116C397.885 210.889 398.028 210.57 398.028 210.159C398.028 209.814 397.915 209.532 397.687 209.312C397.467 209.085 397.137 208.971 396.697 208.971C396.272 208.971 395.931 209.099 395.674 209.356C395.418 209.605 395.275 209.921 395.245 210.302H394.31C394.332 209.884 394.442 209.514 394.64 209.191C394.846 208.868 395.124 208.619 395.476 208.443C395.828 208.26 396.235 208.168 396.697 208.168C397.196 208.168 397.61 208.256 397.94 208.432C398.278 208.608 398.531 208.843 398.699 209.136C398.875 209.429 398.963 209.752 398.963 210.104C398.963 210.493 398.857 210.848 398.644 211.171C398.432 211.486 398.113 211.699 397.687 211.809C398.142 211.904 398.52 212.121 398.82 212.458C399.121 212.795 399.271 213.239 399.271 213.789C399.271 214.214 399.172 214.607 398.974 214.966C398.784 215.318 398.498 215.6 398.116 215.813C397.735 216.026 397.262 216.132 396.697 216.132ZM403.384 216.132C402.856 216.132 402.398 216.037 402.009 215.846C401.62 215.655 401.309 215.395 401.074 215.065C400.847 214.728 400.707 214.346 400.656 213.921H401.558C401.646 214.346 401.851 214.691 402.174 214.955C402.497 215.212 402.904 215.34 403.395 215.34C403.762 215.34 404.077 215.256 404.341 215.087C404.605 214.911 404.807 214.676 404.946 214.383C405.093 214.09 405.166 213.763 405.166 213.404C405.166 212.832 405.005 212.37 404.682 212.018C404.359 211.666 403.941 211.49 403.428 211.49C403.003 211.49 402.64 211.585 402.339 211.776C402.038 211.967 401.818 212.216 401.679 212.524H400.799L401.459 208.3H405.496V209.103H402.174L401.723 211.446C401.899 211.233 402.141 211.057 402.449 210.918C402.764 210.779 403.124 210.709 403.527 210.709C404.033 210.709 404.473 210.826 404.847 211.061C405.228 211.296 405.525 211.615 405.738 212.018C405.951 212.421 406.057 212.88 406.057 213.393C406.057 213.884 405.951 214.339 405.738 214.757C405.533 215.175 405.228 215.509 404.825 215.758C404.429 216.007 403.949 216.132 403.384 216.132ZM407.766 216.055C407.582 216.055 407.428 215.996 407.304 215.879C407.186 215.754 407.128 215.604 407.128 215.428C407.128 215.252 407.186 215.105 407.304 214.988C407.428 214.863 407.582 214.801 407.766 214.801C407.942 214.801 408.088 214.863 408.206 214.988C408.33 215.105 408.393 215.252 408.393 215.428C408.393 215.604 408.33 215.754 408.206 215.879C408.088 215.996 407.942 216.055 407.766 216.055ZM410.151 216V209.334L408.908 209.609V208.971L410.459 208.3H411.086V216H410.151ZM416.198 216V214.35H412.293V213.635L416.033 208.3H417.111V213.536H418.255V214.35H417.111V216H416.198ZM413.316 213.536H416.242V209.323L413.316 213.536ZM421.77 216.132C421.278 216.132 420.835 216.044 420.439 215.868C420.043 215.685 419.724 215.413 419.482 215.054C419.247 214.695 419.122 214.247 419.108 213.712H420.043C420.05 214.152 420.204 214.533 420.505 214.856C420.805 215.171 421.227 215.329 421.77 215.329C422.312 215.329 422.719 215.179 422.991 214.878C423.269 214.577 423.409 214.214 423.409 213.789C423.409 213.43 423.321 213.136 423.145 212.909C422.976 212.682 422.745 212.513 422.452 212.403C422.166 212.293 421.85 212.238 421.506 212.238H420.934V211.457H421.506C422.004 211.457 422.393 211.343 422.672 211.116C422.958 210.889 423.101 210.57 423.101 210.159C423.101 209.814 422.987 209.532 422.76 209.312C422.54 209.085 422.21 208.971 421.77 208.971C421.344 208.971 421.003 209.099 420.747 209.356C420.49 209.605 420.347 209.921 420.318 210.302H419.383C419.405 209.884 419.515 209.514 419.713 209.191C419.918 208.868 420.197 208.619 420.549 208.443C420.901 208.26 421.308 208.168 421.77 208.168C422.268 208.168 422.683 208.256 423.013 208.432C423.35 208.608 423.603 208.843 423.772 209.136C423.948 209.429 424.036 209.752 424.036 210.104C424.036 210.493 423.929 210.848 423.717 211.171C423.504 211.486 423.185 211.699 422.76 211.809C423.214 211.904 423.592 212.121 423.893 212.458C424.193 212.795 424.344 213.239 424.344 213.789C424.344 214.214 424.245 214.607 424.047 214.966C423.856 215.318 423.57 215.6 423.189 215.813C422.807 216.026 422.334 216.132 421.77 216.132Z" fill="#929292"/>
<g clip-path="url(#clip2_3595_5205)">
<path d="M36 292C44.8366 292 52 284.837 52 276C52 267.163 44.8366 260 36 260C27.1634 260 20 267.163 20 276C20 284.837 27.1634 292 36 292Z" fill="#964B9C"/>
<path opacity="0.6" d="M40.5072 276.406L36.0352 280.877H44.9772L40.5072 276.406Z" fill="white"/>
<path opacity="0.7" d="M31.5296 276.41L36.0016 271.94H27.0586L31.5306 276.411L31.5296 276.41Z" fill="white"/>
<path opacity="0.4" d="M36.0372 280.878L40.4972 276.418L36.0172 271.936L27.0742 280.878L36.0162 289.821L44.9592 280.878H44.9572H36.0372Z" fill="white"/>
<path opacity="0.8" d="M36.0581 263L27.1211 271.937H36.0021L31.5561 276.383L36.0581 280.884L45.0001 271.942L36.0581 263Z" fill="white"/>
</g>
<path d="M64.832 281.692C64.0107 281.692 63.2907 281.548 62.672 281.26C62.0533 280.972 61.568 280.561 61.216 280.028C60.8747 279.495 60.6987 278.86 60.688 278.124H62.48C62.4907 278.721 62.6987 279.228 63.104 279.644C63.5093 280.06 64.08 280.268 64.816 280.268C65.4667 280.268 65.9733 280.113 66.336 279.804C66.7093 279.484 66.896 279.079 66.896 278.588C66.896 278.193 66.8053 277.873 66.624 277.628C66.4533 277.383 66.2133 277.18 65.904 277.02C65.6053 276.86 65.2587 276.716 64.864 276.588C64.4693 276.46 64.0533 276.321 63.616 276.172C62.752 275.884 62.1013 275.511 61.664 275.052C61.2373 274.593 61.024 273.991 61.024 273.244C61.0133 272.615 61.1573 272.065 61.456 271.596C61.7653 271.127 62.192 270.764 62.736 270.508C63.2907 270.241 63.936 270.108 64.672 270.108C65.3973 270.108 66.032 270.241 66.576 270.508C67.1307 270.775 67.5627 271.148 67.872 271.628C68.1813 272.097 68.3413 272.647 68.352 273.276H66.56C66.56 272.988 66.4853 272.716 66.336 272.46C66.1867 272.193 65.968 271.975 65.68 271.804C65.392 271.633 65.04 271.548 64.624 271.548C64.0907 271.537 63.648 271.671 63.296 271.948C62.9547 272.225 62.784 272.609 62.784 273.1C62.784 273.537 62.912 273.873 63.168 274.108C63.424 274.343 63.776 274.54 64.224 274.7C64.672 274.849 65.184 275.025 65.76 275.228C66.3147 275.409 66.8107 275.628 67.248 275.884C67.6853 276.14 68.032 276.476 68.288 276.892C68.5547 277.308 68.688 277.836 68.688 278.476C68.688 279.041 68.544 279.569 68.256 280.06C67.968 280.54 67.536 280.935 66.96 281.244C66.384 281.543 65.6747 281.692 64.832 281.692ZM70.4783 281.5V269.98H72.1743V274.844C72.4409 274.385 72.8089 274.028 73.2783 273.772C73.7583 273.505 74.2863 273.372 74.8623 273.372C75.8116 273.372 76.5583 273.671 77.1023 274.268C77.6463 274.865 77.9183 275.756 77.9183 276.94V281.5H76.2383V277.116C76.2383 275.58 75.6249 274.812 74.3983 274.812C73.7583 274.812 73.2249 275.036 72.7983 275.484C72.3823 275.932 72.1743 276.572 72.1743 277.404V281.5H70.4783ZM80.8758 272.06C80.5558 272.06 80.2891 271.964 80.0758 271.772C79.8731 271.569 79.7718 271.319 79.7718 271.02C79.7718 270.721 79.8731 270.476 80.0758 270.284C80.2891 270.081 80.5558 269.98 80.8758 269.98C81.1958 269.98 81.4571 270.081 81.6598 270.284C81.8731 270.476 81.9798 270.721 81.9798 271.02C81.9798 271.319 81.8731 271.569 81.6598 271.772C81.4571 271.964 81.1958 272.06 80.8758 272.06ZM80.0278 281.5V273.564H81.7238V281.5H80.0278ZM88.4266 281.692C87.808 281.692 87.2586 281.569 86.7786 281.324C86.3093 281.079 85.936 280.732 85.6586 280.284L85.4826 281.5H83.9626V269.98H85.6586V274.796C85.9146 274.423 86.2666 274.092 86.7146 273.804C87.1626 273.516 87.7386 273.372 88.4426 273.372C89.2106 273.372 89.888 273.553 90.4746 273.916C91.0613 274.279 91.52 274.775 91.8506 275.404C92.192 276.033 92.3626 276.748 92.3626 277.548C92.3626 278.348 92.192 279.063 91.8506 279.692C91.52 280.311 91.0613 280.801 90.4746 281.164C89.888 281.516 89.2053 281.692 88.4266 281.692ZM88.1386 280.22C88.864 280.22 89.4613 279.975 89.9306 279.484C90.4 278.983 90.6346 278.332 90.6346 277.532C90.6346 277.009 90.528 276.545 90.3146 276.14C90.1013 275.735 89.808 275.42 89.4346 275.196C89.0613 274.961 88.6293 274.844 88.1386 274.844C87.4133 274.844 86.816 275.095 86.3466 275.596C85.888 276.097 85.6586 276.743 85.6586 277.532C85.6586 278.332 85.888 278.983 86.3466 279.484C86.816 279.975 87.4133 280.22 88.1386 280.22ZM96.885 281.692C96.213 281.692 95.6583 281.58 95.221 281.356C94.7837 281.132 94.4583 280.839 94.245 280.476C94.0317 280.103 93.925 279.697 93.925 279.26C93.925 278.492 94.2237 277.884 94.821 277.436C95.4183 276.988 96.2717 276.764 97.381 276.764H99.461V276.62C99.461 276.001 99.2903 275.537 98.949 275.228C98.6183 274.919 98.1863 274.764 97.653 274.764C97.1837 274.764 96.773 274.881 96.421 275.116C96.0797 275.34 95.8717 275.676 95.797 276.124H94.101C94.1543 275.548 94.3463 275.057 94.677 274.652C95.0183 274.236 95.445 273.921 95.957 273.708C96.4797 273.484 97.0503 273.372 97.669 273.372C98.7783 273.372 99.637 273.665 100.245 274.252C100.853 274.828 101.157 275.617 101.157 276.62V281.5H99.685L99.541 280.14C99.317 280.577 98.9917 280.945 98.565 281.244C98.1383 281.543 97.5783 281.692 96.885 281.692ZM97.221 280.316C97.6797 280.316 98.0637 280.209 98.373 279.996C98.693 279.772 98.9383 279.479 99.109 279.116C99.2903 278.753 99.4023 278.353 99.445 277.916H97.557C96.885 277.916 96.405 278.033 96.117 278.268C95.8397 278.503 95.701 278.796 95.701 279.148C95.701 279.511 95.8343 279.799 96.101 280.012C96.3783 280.215 96.7517 280.316 97.221 280.316Z" fill="black"/>
<path d="M352.24 273V270.76H346.624V269.416L351.968 261.8H353.92V269.288H355.488V270.76H353.92V273H352.24ZM348.464 269.288H352.336V263.672L348.464 269.288ZM357.713 273.096C357.393 273.096 357.126 272.995 356.913 272.792C356.71 272.579 356.609 272.328 356.609 272.04C356.609 271.741 356.71 271.491 356.913 271.288C357.126 271.075 357.393 270.968 357.713 270.968C358.033 270.968 358.294 271.075 358.497 271.288C358.699 271.491 358.801 271.741 358.801 272.04C358.801 272.328 358.699 272.579 358.497 272.792C358.294 272.995 358.033 273.096 357.713 273.096ZM364.158 273.192C363.432 273.192 362.771 273.064 362.174 272.808C361.587 272.541 361.118 272.141 360.766 271.608C360.414 271.075 360.227 270.408 360.206 269.608H361.886C361.907 270.205 362.11 270.712 362.494 271.128C362.888 271.533 363.443 271.736 364.158 271.736C364.84 271.736 365.363 271.549 365.726 271.176C366.088 270.792 366.27 270.317 366.27 269.752C366.27 269.069 366.024 268.563 365.534 268.232C365.054 267.901 364.462 267.736 363.758 267.736H362.926V266.328H363.774C364.403 266.328 364.91 266.179 365.294 265.88C365.688 265.581 365.886 265.16 365.886 264.616C365.886 264.157 365.731 263.784 365.422 263.496C365.123 263.208 364.696 263.064 364.141 263.064C363.566 263.064 363.112 263.235 362.782 263.576C362.451 263.907 362.27 264.323 362.238 264.824H360.558C360.579 264.173 360.739 263.608 361.038 263.128C361.347 262.648 361.768 262.275 362.302 262.008C362.835 261.741 363.448 261.608 364.141 261.608C364.888 261.608 365.512 261.741 366.014 262.008C366.526 262.264 366.91 262.616 367.166 263.064C367.432 263.501 367.566 263.981 367.566 264.504C367.566 265.101 367.4 265.624 367.07 266.072C366.739 266.52 366.296 266.819 365.742 266.968C366.382 267.107 366.91 267.421 367.326 267.912C367.742 268.392 367.95 269.016 367.95 269.784C367.95 270.403 367.806 270.973 367.517 271.496C367.23 272.008 366.803 272.419 366.238 272.728C365.672 273.037 364.979 273.192 364.158 273.192ZM369.818 273V271.784C370.544 271.208 371.237 270.627 371.898 270.04C372.56 269.453 373.146 268.877 373.658 268.312C374.181 267.736 374.592 267.176 374.89 266.632C375.189 266.077 375.338 265.544 375.338 265.032C375.338 264.691 375.28 264.371 375.162 264.072C375.045 263.763 374.853 263.517 374.586 263.336C374.32 263.144 373.962 263.048 373.514 263.048C372.842 263.048 372.336 263.261 371.994 263.688C371.664 264.115 371.504 264.627 371.514 265.224H369.866C369.877 264.435 370.042 263.773 370.362 263.24C370.693 262.707 371.13 262.301 371.674 262.024C372.229 261.747 372.853 261.608 373.546 261.608C374.602 261.608 375.445 261.907 376.074 262.504C376.714 263.091 377.034 263.912 377.034 264.968C377.034 265.597 376.88 266.221 376.57 266.84C376.272 267.459 375.877 268.056 375.386 268.632C374.906 269.197 374.389 269.731 373.834 270.232C373.28 270.733 372.752 271.187 372.25 271.592H377.37V273H369.818ZM379.779 273L384.115 263.256H378.291V261.8H385.859V263.032L381.555 273H379.779ZM391.756 273V270.76H386.14V269.416L391.484 261.8H393.436V269.288H395.004V270.76H393.436V273H391.756ZM387.98 269.288H391.852V263.672L387.98 269.288ZM400.652 273V261.8H402.348V273H400.652ZM404.62 273V261.8H406.316L411.932 270.232V261.8H413.628V273H411.932L406.316 264.568V273H404.62ZM420.094 273.192C419.294 273.192 418.568 273.037 417.918 272.728C417.278 272.408 416.766 271.923 416.382 271.272C416.008 270.621 415.822 269.795 415.822 268.792V261.8H417.518V268.808C417.518 269.789 417.752 270.509 418.222 270.968C418.691 271.427 419.326 271.656 420.126 271.656C420.915 271.656 421.544 271.427 422.014 270.968C422.483 270.509 422.718 269.789 422.718 268.808V261.8H424.414V268.792C424.414 269.795 424.216 270.621 423.822 271.272C423.438 271.923 422.915 272.408 422.254 272.728C421.603 273.037 420.883 273.192 420.094 273.192Z" fill="black"/>
<path d="M353.816 291.957V291.11C353.097 291.029 352.529 290.773 352.111 290.34C351.693 289.907 351.484 289.357 351.484 288.69H352.452C352.452 289.079 352.566 289.427 352.793 289.735C353.028 290.036 353.369 290.23 353.816 290.318V287.337C353.765 287.322 353.71 287.308 353.651 287.293C353.6 287.271 353.548 287.253 353.497 287.238C352.903 287.033 352.463 286.78 352.177 286.479C351.891 286.171 351.748 285.771 351.748 285.28C351.741 284.708 351.92 284.231 352.287 283.85C352.661 283.469 353.171 283.249 353.816 283.19V282.299H354.575V283.19C355.191 283.263 355.682 283.494 356.049 283.883C356.416 284.272 356.603 284.745 356.61 285.302H355.642C355.642 285.031 355.554 284.77 355.378 284.521C355.202 284.264 354.934 284.092 354.575 284.004V286.666C354.634 286.681 354.692 286.699 354.751 286.721C354.81 286.743 354.872 286.761 354.938 286.776C355.305 286.908 355.635 287.062 355.928 287.238C356.221 287.414 356.449 287.641 356.61 287.92C356.779 288.199 356.863 288.554 356.863 288.987C356.863 289.332 356.779 289.658 356.61 289.966C356.441 290.274 356.185 290.534 355.84 290.747C355.503 290.96 355.081 291.084 354.575 291.121V291.957H353.816ZM352.705 285.192C352.705 285.529 352.804 285.786 353.002 285.962C353.2 286.131 353.471 286.277 353.816 286.402V283.982C353.486 284.033 353.218 284.165 353.013 284.378C352.808 284.583 352.705 284.855 352.705 285.192ZM355.906 289.042C355.906 288.617 355.781 288.301 355.532 288.096C355.283 287.891 354.964 287.722 354.575 287.59V290.34C355 290.289 355.327 290.142 355.554 289.9C355.789 289.658 355.906 289.372 355.906 289.042ZM361.844 291V284.334L360.601 284.609V283.971L362.152 283.3H362.779V291H361.844ZM363.612 292.309L364.25 289.878H365.207L364.25 292.309H363.612ZM366.997 291L370.055 284.092H365.831V283.3H371.001V283.993L367.976 291H366.997ZM374.583 291.132C374.077 291.132 373.622 291.04 373.219 290.857C372.815 290.666 372.496 290.406 372.262 290.076C372.034 289.739 371.921 289.35 371.921 288.91C371.921 288.441 372.056 288.019 372.328 287.645C372.606 287.271 372.973 287.022 373.428 286.897C373.01 286.758 372.687 286.534 372.46 286.226C372.232 285.918 372.119 285.581 372.119 285.214C372.119 284.84 372.218 284.499 372.416 284.191C372.614 283.876 372.896 283.626 373.263 283.443C373.629 283.26 374.069 283.168 374.583 283.168C375.096 283.168 375.536 283.26 375.903 283.443C376.269 283.626 376.552 283.876 376.75 284.191C376.948 284.499 377.047 284.84 377.047 285.214C377.047 285.573 376.933 285.911 376.706 286.226C376.478 286.534 376.156 286.758 375.738 286.897C376.192 287.022 376.555 287.271 376.827 287.645C377.105 288.019 377.245 288.441 377.245 288.91C377.245 289.35 377.127 289.739 376.893 290.076C376.665 290.406 376.35 290.666 375.947 290.857C375.543 291.04 375.089 291.132 374.583 291.132ZM374.583 286.567C375.052 286.567 375.422 286.45 375.694 286.215C375.972 285.973 376.112 285.658 376.112 285.269C376.112 284.836 375.976 284.51 375.705 284.29C375.433 284.07 375.059 283.96 374.583 283.96C374.106 283.96 373.732 284.07 373.461 284.29C373.197 284.51 373.065 284.836 373.065 285.269C373.065 285.658 373.2 285.973 373.472 286.215C373.743 286.45 374.113 286.567 374.583 286.567ZM374.583 290.318C375.162 290.318 375.595 290.186 375.881 289.922C376.174 289.651 376.321 289.295 376.321 288.855C376.321 288.356 376.163 287.979 375.848 287.722C375.532 287.465 375.111 287.337 374.583 287.337C374.055 287.337 373.633 287.465 373.318 287.722C373.002 287.979 372.845 288.356 372.845 288.855C372.845 289.295 372.988 289.651 373.274 289.922C373.567 290.186 374.003 290.318 374.583 290.318ZM381.758 291.132C381.076 291.132 380.486 290.967 379.987 290.637C379.496 290.3 379.118 289.834 378.854 289.24C378.59 288.639 378.458 287.942 378.458 287.15C378.458 286.358 378.59 285.665 378.854 285.071C379.118 284.47 379.496 284.004 379.987 283.674C380.486 283.337 381.076 283.168 381.758 283.168C382.44 283.168 383.027 283.337 383.518 283.674C384.01 284.004 384.387 284.47 384.651 285.071C384.915 285.665 385.047 286.358 385.047 287.15C385.047 287.942 384.915 288.639 384.651 289.24C384.387 289.834 384.01 290.3 383.518 290.637C383.027 290.967 382.44 291.132 381.758 291.132ZM381.758 290.318C382.206 290.318 382.605 290.193 382.957 289.944C383.317 289.687 383.595 289.324 383.793 288.855C383.999 288.378 384.101 287.81 384.101 287.15C384.101 286.49 383.999 285.925 383.793 285.456C383.595 284.987 383.317 284.627 382.957 284.378C382.605 284.121 382.206 283.993 381.758 283.993C381.304 283.993 380.9 284.121 380.548 284.378C380.196 284.627 379.918 284.987 379.712 285.456C379.507 285.925 379.404 286.49 379.404 287.15C379.404 287.81 379.507 288.378 379.712 288.855C379.918 289.324 380.196 289.687 380.548 289.944C380.9 290.193 381.304 290.318 381.758 290.318ZM385.257 292.309L385.895 289.878H386.852L385.895 292.309H385.257ZM387.883 291V290.351C388.404 289.94 388.895 289.526 389.357 289.108C389.827 288.683 390.241 288.265 390.6 287.854C390.967 287.443 391.253 287.04 391.458 286.644C391.671 286.248 391.777 285.867 391.777 285.5C391.777 285.229 391.73 284.976 391.634 284.741C391.546 284.506 391.4 284.319 391.194 284.18C390.989 284.033 390.71 283.96 390.358 283.96C390.021 283.96 389.739 284.037 389.511 284.191C389.284 284.338 389.112 284.536 388.994 284.785C388.884 285.034 388.829 285.302 388.829 285.588H387.938C387.938 285.082 388.045 284.649 388.257 284.29C388.47 283.923 388.76 283.645 389.126 283.454C389.493 283.263 389.907 283.168 390.369 283.168C391.051 283.168 391.609 283.362 392.041 283.751C392.481 284.132 392.701 284.704 392.701 285.467C392.701 285.922 392.588 286.373 392.36 286.82C392.133 287.26 391.843 287.689 391.491 288.107C391.139 288.518 390.762 288.903 390.358 289.262C389.962 289.621 389.592 289.944 389.247 290.23H392.965V291H387.883ZM396.697 291.132C396.206 291.132 395.762 291.044 395.366 290.868C394.97 290.685 394.651 290.413 394.409 290.054C394.175 289.695 394.05 289.247 394.035 288.712H394.97C394.978 289.152 395.132 289.533 395.432 289.856C395.733 290.171 396.155 290.329 396.697 290.329C397.24 290.329 397.647 290.179 397.918 289.878C398.197 289.577 398.336 289.214 398.336 288.789C398.336 288.43 398.248 288.136 398.072 287.909C397.904 287.682 397.673 287.513 397.379 287.403C397.093 287.293 396.778 287.238 396.433 287.238H395.861V286.457H396.433C396.932 286.457 397.321 286.343 397.599 286.116C397.885 285.889 398.028 285.57 398.028 285.159C398.028 284.814 397.915 284.532 397.687 284.312C397.467 284.085 397.137 283.971 396.697 283.971C396.272 283.971 395.931 284.099 395.674 284.356C395.418 284.605 395.275 284.921 395.245 285.302H394.31C394.332 284.884 394.442 284.514 394.64 284.191C394.846 283.868 395.124 283.619 395.476 283.443C395.828 283.26 396.235 283.168 396.697 283.168C397.196 283.168 397.61 283.256 397.94 283.432C398.278 283.608 398.531 283.843 398.699 284.136C398.875 284.429 398.963 284.752 398.963 285.104C398.963 285.493 398.857 285.848 398.644 286.171C398.432 286.486 398.113 286.699 397.687 286.809C398.142 286.904 398.52 287.121 398.82 287.458C399.121 287.795 399.271 288.239 399.271 288.789C399.271 289.214 399.172 289.607 398.974 289.966C398.784 290.318 398.498 290.6 398.116 290.813C397.735 291.026 397.262 291.132 396.697 291.132ZM403.384 291.132C402.856 291.132 402.398 291.037 402.009 290.846C401.62 290.655 401.309 290.395 401.074 290.065C400.847 289.728 400.707 289.346 400.656 288.921H401.558C401.646 289.346 401.851 289.691 402.174 289.955C402.497 290.212 402.904 290.34 403.395 290.34C403.762 290.34 404.077 290.256 404.341 290.087C404.605 289.911 404.807 289.676 404.946 289.383C405.093 289.09 405.166 288.763 405.166 288.404C405.166 287.832 405.005 287.37 404.682 287.018C404.359 286.666 403.941 286.49 403.428 286.49C403.003 286.49 402.64 286.585 402.339 286.776C402.038 286.967 401.818 287.216 401.679 287.524H400.799L401.459 283.3H405.496V284.103H402.174L401.723 286.446C401.899 286.233 402.141 286.057 402.449 285.918C402.764 285.779 403.124 285.709 403.527 285.709C404.033 285.709 404.473 285.826 404.847 286.061C405.228 286.296 405.525 286.615 405.738 287.018C405.951 287.421 406.057 287.88 406.057 288.393C406.057 288.884 405.951 289.339 405.738 289.757C405.533 290.175 405.228 290.509 404.825 290.758C404.429 291.007 403.949 291.132 403.384 291.132ZM407.766 291.055C407.582 291.055 407.428 290.996 407.304 290.879C407.186 290.754 407.128 290.604 407.128 290.428C407.128 290.252 407.186 290.105 407.304 289.988C407.428 289.863 407.582 289.801 407.766 289.801C407.942 289.801 408.088 289.863 408.206 289.988C408.33 290.105 408.393 290.252 408.393 290.428C408.393 290.604 408.33 290.754 408.206 290.879C408.088 290.996 407.942 291.055 407.766 291.055ZM410.151 291V284.334L408.908 284.609V283.971L410.459 283.3H411.086V291H410.151ZM416.198 291V289.35H412.293V288.635L416.033 283.3H417.111V288.536H418.255V289.35H417.111V291H416.198ZM413.316 288.536H416.242V284.323L413.316 288.536ZM421.77 291.132C421.278 291.132 420.835 291.044 420.439 290.868C420.043 290.685 419.724 290.413 419.482 290.054C419.247 289.695 419.122 289.247 419.108 288.712H420.043C420.05 289.152 420.204 289.533 420.505 289.856C420.805 290.171 421.227 290.329 421.77 290.329C422.312 290.329 422.719 290.179 422.991 289.878C423.269 289.577 423.409 289.214 423.409 288.789C423.409 288.43 423.321 288.136 423.145 287.909C422.976 287.682 422.745 287.513 422.452 287.403C422.166 287.293 421.85 287.238 421.506 287.238H420.934V286.457H421.506C422.004 286.457 422.393 286.343 422.672 286.116C422.958 285.889 423.101 285.57 423.101 285.159C423.101 284.814 422.987 284.532 422.76 284.312C422.54 284.085 422.21 283.971 421.77 283.971C421.344 283.971 421.003 284.099 420.747 284.356C420.49 284.605 420.347 284.921 420.318 285.302H419.383C419.405 284.884 419.515 284.514 419.713 284.191C419.918 283.868 420.197 283.619 420.549 283.443C420.901 283.26 421.308 283.168 421.77 283.168C422.268 283.168 422.683 283.256 423.013 283.432C423.35 283.608 423.603 283.843 423.772 284.136C423.948 284.429 424.036 284.752 424.036 285.104C424.036 285.493 423.929 285.848 423.717 286.171C423.504 286.486 423.185 286.699 422.76 286.809C423.214 286.904 423.592 287.121 423.893 287.458C424.193 287.795 424.344 288.239 424.344 288.789C424.344 289.214 424.245 289.607 424.047 289.966C423.856 290.318 423.57 290.6 423.189 290.813C422.807 291.026 422.334 291.132 421.77 291.132Z" fill="#929292"/>
<g clip-path="url(#clip3_3595_5205)">
<path d="M36 367C44.8366 367 52 359.837 52 351C52 342.163 44.8366 335 36 335C27.1634 335 20 342.163 20 351C20 359.837 27.1634 367 36 367Z" fill="#0073DD"/>
<path fill-rule="evenodd" clip-rule="evenodd" d="M30.427 354.214L29 354.768L29.688 352.009L31.132 351.429L33.213 343H38.342L36.823 349.196L38.233 348.625L37.553 351.375L36.126 351.946L35.278 355.429H43L42.127 359H29.252L30.427 354.214Z" fill="white"/>
</g>
<path d="M63.136 356.5V345.3H64.832V355.156H69.92V356.5H63.136ZM72.6414 347.06C72.3214 347.06 72.0547 346.964 71.8414 346.772C71.6387 346.569 71.5374 346.319 71.5374 346.02C71.5374 345.721 71.6387 345.476 71.8414 345.284C72.0547 345.081 72.3214 344.98 72.6414 344.98C72.9614 344.98 73.2227 345.081 73.4254 345.284C73.6387 345.476 73.7454 345.721 73.7454 346.02C73.7454 346.319 73.6387 346.569 73.4254 346.772C73.2227 346.964 72.9614 347.06 72.6414 347.06ZM71.7934 356.5V348.564H73.4894V356.5H71.7934ZM79.0563 356.5C78.2776 356.5 77.6589 356.313 77.2003 355.94C76.7416 355.556 76.5123 354.879 76.5123 353.908V349.988H75.1523V348.564H76.5123L76.7203 346.548H78.2083V348.564H80.4483V349.988H78.2083V353.908C78.2083 354.345 78.2989 354.649 78.4803 354.82C78.6723 354.98 78.9976 355.06 79.4563 355.06H80.3683V356.5H79.0563ZM85.7059 356.692C84.9272 356.692 84.2339 356.521 83.6259 356.18C83.0285 355.828 82.5592 355.343 82.2179 354.724C81.8765 354.105 81.7059 353.385 81.7059 352.564C81.7059 351.732 81.8712 351.001 82.2019 350.372C82.5432 349.743 83.0125 349.252 83.6099 348.9C84.2179 348.548 84.9219 348.372 85.7219 348.372C86.5005 348.372 87.1779 348.548 87.7539 348.9C88.3299 349.241 88.7779 349.7 89.0979 350.276C89.4179 350.852 89.5779 351.487 89.5779 352.18C89.5779 352.287 89.5725 352.404 89.5619 352.532C89.5619 352.649 89.5565 352.783 89.5459 352.932H83.3699C83.4232 353.7 83.6739 354.287 84.1219 354.692C84.5805 355.087 85.1085 355.284 85.7059 355.284C86.1859 355.284 86.5859 355.177 86.9059 354.964C87.2365 354.74 87.4819 354.441 87.6419 354.068H89.3379C89.1245 354.815 88.6979 355.439 88.0579 355.94C87.4285 356.441 86.6445 356.692 85.7059 356.692ZM85.7059 349.764C85.1405 349.764 84.6392 349.935 84.2019 350.276C83.7645 350.607 83.4979 351.108 83.4019 351.78H87.8819C87.8499 351.161 87.6312 350.671 87.2259 350.308C86.8205 349.945 86.3139 349.764 85.7059 349.764ZM95.0976 356.692C94.319 356.692 93.6203 356.516 93.0016 356.164C92.3936 355.812 91.9136 355.327 91.5616 354.708C91.2203 354.079 91.0496 353.353 91.0496 352.532C91.0496 351.711 91.2203 350.991 91.5616 350.372C91.9136 349.743 92.3936 349.252 93.0016 348.9C93.6203 348.548 94.319 348.372 95.0976 348.372C96.079 348.372 96.9003 348.628 97.5616 349.14C98.2336 349.652 98.6656 350.345 98.8576 351.22H97.0816C96.975 350.783 96.7403 350.441 96.3776 350.196C96.015 349.951 95.5883 349.828 95.0976 349.828C94.6816 349.828 94.2976 349.935 93.9456 350.148C93.5936 350.351 93.311 350.655 93.0976 351.06C92.8843 351.455 92.7776 351.945 92.7776 352.532C92.7776 353.119 92.8843 353.615 93.0976 354.02C93.311 354.415 93.5936 354.719 93.9456 354.932C94.2976 355.145 94.6816 355.252 95.0976 355.252C95.5883 355.252 96.015 355.129 96.3776 354.884C96.7403 354.639 96.975 354.292 97.0816 353.844H98.8576C98.6763 354.697 98.2496 355.385 97.5776 355.908C96.9056 356.431 96.079 356.692 95.0976 356.692ZM104.409 356.692C103.652 356.692 102.969 356.521 102.361 356.18C101.764 355.828 101.289 355.343 100.937 354.724C100.585 354.095 100.409 353.364 100.409 352.532C100.409 351.7 100.585 350.975 100.937 350.356C101.3 349.727 101.785 349.241 102.393 348.9C103.001 348.548 103.678 348.372 104.425 348.372C105.182 348.372 105.86 348.548 106.457 348.9C107.065 349.241 107.545 349.727 107.897 350.356C108.26 350.975 108.441 351.7 108.441 352.532C108.441 353.364 108.26 354.095 107.897 354.724C107.545 355.343 107.065 355.828 106.457 356.18C105.849 356.521 105.166 356.692 104.409 356.692ZM104.409 355.236C104.814 355.236 105.188 355.135 105.529 354.932C105.881 354.729 106.164 354.431 106.377 354.036C106.59 353.631 106.697 353.129 106.697 352.532C106.697 351.935 106.59 351.439 106.377 351.044C106.174 350.639 105.897 350.335 105.545 350.132C105.204 349.929 104.83 349.828 104.425 349.828C104.02 349.828 103.641 349.929 103.289 350.132C102.948 350.335 102.67 350.639 102.457 351.044C102.244 351.439 102.137 351.935 102.137 352.532C102.137 353.129 102.244 353.631 102.457 354.036C102.67 354.431 102.948 354.729 103.289 354.932C103.63 355.135 104.004 355.236 104.409 355.236ZM111.235 347.06C110.915 347.06 110.648 346.964 110.435 346.772C110.232 346.569 110.131 346.319 110.131 346.02C110.131 345.721 110.232 345.476 110.435 345.284C110.648 345.081 110.915 344.98 111.235 344.98C111.555 344.98 111.816 345.081 112.019 345.284C112.232 345.476 112.339 345.721 112.339 346.02C112.339 346.319 112.232 346.569 112.019 346.772C111.816 346.964 111.555 347.06 111.235 347.06ZM110.387 356.5V348.564H112.083V356.5H110.387ZM114.322 356.5V348.564H115.826L115.954 349.956C116.199 349.465 116.557 349.081 117.026 348.804C117.506 348.516 118.055 348.372 118.674 348.372C119.634 348.372 120.386 348.671 120.93 349.268C121.485 349.865 121.762 350.756 121.762 351.94V356.5H120.082V352.116C120.082 350.58 119.453 349.812 118.194 349.812C117.565 349.812 117.042 350.036 116.626 350.484C116.221 350.932 116.018 351.572 116.018 352.404V356.5H114.322Z" fill="black"/>
<path d="M346.912 348V346.784C347.637 346.208 348.331 345.627 348.992 345.04C349.653 344.453 350.24 343.877 350.752 343.312C351.275 342.736 351.685 342.176 351.984 341.632C352.283 341.077 352.432 340.544 352.432 340.032C352.432 339.691 352.373 339.371 352.256 339.072C352.139 338.763 351.947 338.517 351.68 338.336C351.413 338.144 351.056 338.048 350.608 338.048C349.936 338.048 349.429 338.261 349.088 338.688C348.757 339.115 348.597 339.627 348.608 340.224H346.96C346.971 339.435 347.136 338.773 347.456 338.24C347.787 337.707 348.224 337.301 348.768 337.024C349.323 336.747 349.947 336.608 350.64 336.608C351.696 336.608 352.539 336.907 353.168 337.504C353.808 338.091 354.128 338.912 354.128 339.968C354.128 340.597 353.973 341.221 353.664 341.84C353.365 342.459 352.971 343.056 352.48 343.632C352 344.197 351.483 344.731 350.928 345.232C350.373 345.733 349.845 346.187 349.344 346.592H354.464V348H346.912ZM356.9 348.096C356.58 348.096 356.314 347.995 356.1 347.792C355.898 347.579 355.796 347.328 355.796 347.04C355.796 346.741 355.898 346.491 356.1 346.288C356.314 346.075 356.58 345.968 356.9 345.968C357.22 345.968 357.482 346.075 357.684 346.288C357.887 346.491 357.988 346.741 357.988 347.04C357.988 347.328 357.887 347.579 357.684 347.792C357.482 347.995 357.22 348.096 356.9 348.096ZM363.345 348.192C362.62 348.192 361.958 348.064 361.361 347.808C360.774 347.541 360.305 347.141 359.953 346.608C359.601 346.075 359.414 345.408 359.393 344.608H361.073C361.094 345.205 361.297 345.712 361.681 346.128C362.076 346.533 362.63 346.736 363.345 346.736C364.028 346.736 364.55 346.549 364.913 346.176C365.276 345.792 365.457 345.317 365.457 344.752C365.457 344.069 365.212 343.563 364.721 343.232C364.241 342.901 363.649 342.736 362.945 342.736H362.113V341.328H362.961C363.59 341.328 364.097 341.179 364.481 340.88C364.876 340.581 365.073 340.16 365.073 339.616C365.073 339.157 364.918 338.784 364.609 338.496C364.31 338.208 363.884 338.064 363.329 338.064C362.753 338.064 362.3 338.235 361.969 338.576C361.638 338.907 361.457 339.323 361.425 339.824H359.745C359.766 339.173 359.926 338.608 360.225 338.128C360.534 337.648 360.956 337.275 361.489 337.008C362.022 336.741 362.636 336.608 363.329 336.608C364.076 336.608 364.7 336.741 365.201 337.008C365.713 337.264 366.097 337.616 366.353 338.064C366.62 338.501 366.753 338.981 366.753 339.504C366.753 340.101 366.588 340.624 366.257 341.072C365.926 341.52 365.484 341.819 364.929 341.968C365.569 342.107 366.097 342.421 366.513 342.912C366.929 343.392 367.137 344.016 367.137 344.784C367.137 345.403 366.993 345.973 366.705 346.496C366.417 347.008 365.99 347.419 365.425 347.728C364.86 348.037 364.166 348.192 363.345 348.192ZM369.006 348V346.784C369.731 346.208 370.424 345.627 371.086 345.04C371.747 344.453 372.334 343.877 372.846 343.312C373.368 342.736 373.779 342.176 374.078 341.632C374.376 341.077 374.526 340.544 374.526 340.032C374.526 339.691 374.467 339.371 374.35 339.072C374.232 338.763 374.04 338.517 373.774 338.336C373.507 338.144 373.15 338.048 372.702 338.048C372.03 338.048 371.523 338.261 371.182 338.688C370.851 339.115 370.691 339.627 370.702 340.224H369.054C369.064 339.435 369.23 338.773 369.55 338.24C369.88 337.707 370.318 337.301 370.862 337.024C371.416 336.747 372.04 336.608 372.734 336.608C373.79 336.608 374.632 336.907 375.262 337.504C375.902 338.091 376.222 338.912 376.222 339.968C376.222 340.597 376.067 341.221 375.758 341.84C375.459 342.459 375.064 343.056 374.574 343.632C374.094 344.197 373.576 344.731 373.022 345.232C372.467 345.733 371.939 346.187 371.438 346.592H376.558V348H369.006ZM378.967 348L383.303 338.256H377.479V336.8H385.047V338.032L380.743 348H378.967ZM390.943 348V345.76H385.327V344.416L390.671 336.8H392.623V344.288H394.191V345.76H392.623V348H390.943ZM387.167 344.288H391.039V338.672L387.167 344.288ZM399.839 348V336.8H401.535V346.656H406.623V348H399.839ZM409.244 348V338.176H405.932V336.8H414.236V338.176H410.94V348H409.244ZM420.316 348.192C419.206 348.192 418.246 347.952 417.436 347.472C416.636 346.981 416.017 346.304 415.58 345.44C415.142 344.565 414.924 343.557 414.924 342.416C414.924 341.264 415.142 340.256 415.58 339.392C416.017 338.517 416.636 337.835 417.436 337.344C418.246 336.853 419.206 336.608 420.316 336.608C421.628 336.608 422.7 336.928 423.532 337.568C424.364 338.208 424.892 339.104 425.116 340.256H423.227C423.078 339.605 422.758 339.088 422.267 338.704C421.777 338.32 421.121 338.128 420.3 338.128C419.18 338.128 418.294 338.512 417.644 339.28C416.993 340.037 416.668 341.083 416.668 342.416C416.668 343.739 416.993 344.779 417.644 345.536C418.294 346.293 419.18 346.672 420.3 346.672C421.121 346.672 421.777 346.491 422.267 346.128C422.758 345.765 423.078 345.269 423.227 344.64H425.116C424.892 345.749 424.364 346.619 423.532 347.248C422.7 347.877 421.628 348.192 420.316 348.192Z" fill="black"/>
<path d="M353.816 366.957V366.11C353.097 366.029 352.529 365.773 352.111 365.34C351.693 364.907 351.484 364.357 351.484 363.69H352.452C352.452 364.079 352.566 364.427 352.793 364.735C353.028 365.036 353.369 365.23 353.816 365.318V362.337C353.765 362.322 353.71 362.308 353.651 362.293C353.6 362.271 353.548 362.253 353.497 362.238C352.903 362.033 352.463 361.78 352.177 361.479C351.891 361.171 351.748 360.771 351.748 360.28C351.741 359.708 351.92 359.231 352.287 358.85C352.661 358.469 353.171 358.249 353.816 358.19V357.299H354.575V358.19C355.191 358.263 355.682 358.494 356.049 358.883C356.416 359.272 356.603 359.745 356.61 360.302H355.642C355.642 360.031 355.554 359.77 355.378 359.521C355.202 359.264 354.934 359.092 354.575 359.004V361.666C354.634 361.681 354.692 361.699 354.751 361.721C354.81 361.743 354.872 361.761 354.938 361.776C355.305 361.908 355.635 362.062 355.928 362.238C356.221 362.414 356.449 362.641 356.61 362.92C356.779 363.199 356.863 363.554 356.863 363.987C356.863 364.332 356.779 364.658 356.61 364.966C356.441 365.274 356.185 365.534 355.84 365.747C355.503 365.96 355.081 366.084 354.575 366.121V366.957H353.816ZM352.705 360.192C352.705 360.529 352.804 360.786 353.002 360.962C353.2 361.131 353.471 361.277 353.816 361.402V358.982C353.486 359.033 353.218 359.165 353.013 359.378C352.808 359.583 352.705 359.855 352.705 360.192ZM355.906 364.042C355.906 363.617 355.781 363.301 355.532 363.096C355.283 362.891 354.964 362.722 354.575 362.59V365.34C355 365.289 355.327 365.142 355.554 364.9C355.789 364.658 355.906 364.372 355.906 364.042ZM361.844 366V359.334L360.601 359.609V358.971L362.152 358.3H362.779V366H361.844ZM363.612 367.309L364.25 364.878H365.207L364.25 367.309H363.612ZM366.997 366L370.055 359.092H365.831V358.3H371.001V358.993L367.976 366H366.997ZM374.583 366.132C374.077 366.132 373.622 366.04 373.219 365.857C372.815 365.666 372.496 365.406 372.262 365.076C372.034 364.739 371.921 364.35 371.921 363.91C371.921 363.441 372.056 363.019 372.328 362.645C372.606 362.271 372.973 362.022 373.428 361.897C373.01 361.758 372.687 361.534 372.46 361.226C372.232 360.918 372.119 360.581 372.119 360.214C372.119 359.84 372.218 359.499 372.416 359.191C372.614 358.876 372.896 358.626 373.263 358.443C373.629 358.26 374.069 358.168 374.583 358.168C375.096 358.168 375.536 358.26 375.903 358.443C376.269 358.626 376.552 358.876 376.75 359.191C376.948 359.499 377.047 359.84 377.047 360.214C377.047 360.573 376.933 360.911 376.706 361.226C376.478 361.534 376.156 361.758 375.738 361.897C376.192 362.022 376.555 362.271 376.827 362.645C377.105 363.019 377.245 363.441 377.245 363.91C377.245 364.35 377.127 364.739 376.893 365.076C376.665 365.406 376.35 365.666 375.947 365.857C375.543 366.04 375.089 366.132 374.583 366.132ZM374.583 361.567C375.052 361.567 375.422 361.45 375.694 361.215C375.972 360.973 376.112 360.658 376.112 360.269C376.112 359.836 375.976 359.51 375.705 359.29C375.433 359.07 375.059 358.96 374.583 358.96C374.106 358.96 373.732 359.07 373.461 359.29C373.197 359.51 373.065 359.836 373.065 360.269C373.065 360.658 373.2 360.973 373.472 361.215C373.743 361.45 374.113 361.567 374.583 361.567ZM374.583 365.318C375.162 365.318 375.595 365.186 375.881 364.922C376.174 364.651 376.321 364.295 376.321 363.855C376.321 363.356 376.163 362.979 375.848 362.722C375.532 362.465 375.111 362.337 374.583 362.337C374.055 362.337 373.633 362.465 373.318 362.722C373.002 362.979 372.845 363.356 372.845 363.855C372.845 364.295 372.988 364.651 373.274 364.922C373.567 365.186 374.003 365.318 374.583 365.318ZM381.758 366.132C381.076 366.132 380.486 365.967 379.987 365.637C379.496 365.3 379.118 364.834 378.854 364.24C378.59 363.639 378.458 362.942 378.458 362.15C378.458 361.358 378.59 360.665 378.854 360.071C379.118 359.47 379.496 359.004 379.987 358.674C380.486 358.337 381.076 358.168 381.758 358.168C382.44 358.168 383.027 358.337 383.518 358.674C384.01 359.004 384.387 359.47 384.651 360.071C384.915 360.665 385.047 361.358 385.047 362.15C385.047 362.942 384.915 363.639 384.651 364.24C384.387 364.834 384.01 365.3 383.518 365.637C383.027 365.967 382.44 366.132 381.758 366.132ZM381.758 365.318C382.206 365.318 382.605 365.193 382.957 364.944C383.317 364.687 383.595 364.324 383.793 363.855C383.999 363.378 384.101 362.81 384.101 362.15C384.101 361.49 383.999 360.925 383.793 360.456C383.595 359.987 383.317 359.627 382.957 359.378C382.605 359.121 382.206 358.993 381.758 358.993C381.304 358.993 380.9 359.121 380.548 359.378C380.196 359.627 379.918 359.987 379.712 360.456C379.507 360.925 379.404 361.49 379.404 362.15C379.404 362.81 379.507 363.378 379.712 363.855C379.918 364.324 380.196 364.687 380.548 364.944C380.9 365.193 381.304 365.318 381.758 365.318ZM385.257 367.309L385.895 364.878H386.852L385.895 367.309H385.257ZM387.883 366V365.351C388.404 364.94 388.895 364.526 389.357 364.108C389.827 363.683 390.241 363.265 390.6 362.854C390.967 362.443 391.253 362.04 391.458 361.644C391.671 361.248 391.777 360.867 391.777 360.5C391.777 360.229 391.73 359.976 391.634 359.741C391.546 359.506 391.4 359.319 391.194 359.18C390.989 359.033 390.71 358.96 390.358 358.96C390.021 358.96 389.739 359.037 389.511 359.191C389.284 359.338 389.112 359.536 388.994 359.785C388.884 360.034 388.829 360.302 388.829 360.588H387.938C387.938 360.082 388.045 359.649 388.257 359.29C388.47 358.923 388.76 358.645 389.126 358.454C389.493 358.263 389.907 358.168 390.369 358.168C391.051 358.168 391.609 358.362 392.041 358.751C392.481 359.132 392.701 359.704 392.701 360.467C392.701 360.922 392.588 361.373 392.36 361.82C392.133 362.26 391.843 362.689 391.491 363.107C391.139 363.518 390.762 363.903 390.358 364.262C389.962 364.621 389.592 364.944 389.247 365.23H392.965V366H387.883ZM396.697 366.132C396.206 366.132 395.762 366.044 395.366 365.868C394.97 365.685 394.651 365.413 394.409 365.054C394.175 364.695 394.05 364.247 394.035 363.712H394.97C394.978 364.152 395.132 364.533 395.432 364.856C395.733 365.171 396.155 365.329 396.697 365.329C397.24 365.329 397.647 365.179 397.918 364.878C398.197 364.577 398.336 364.214 398.336 363.789C398.336 363.43 398.248 363.136 398.072 362.909C397.904 362.682 397.673 362.513 397.379 362.403C397.093 362.293 396.778 362.238 396.433 362.238H395.861V361.457H396.433C396.932 361.457 397.321 361.343 397.599 361.116C397.885 360.889 398.028 360.57 398.028 360.159C398.028 359.814 397.915 359.532 397.687 359.312C397.467 359.085 397.137 358.971 396.697 358.971C396.272 358.971 395.931 359.099 395.674 359.356C395.418 359.605 395.275 359.921 395.245 360.302H394.31C394.332 359.884 394.442 359.514 394.64 359.191C394.846 358.868 395.124 358.619 395.476 358.443C395.828 358.26 396.235 358.168 396.697 358.168C397.196 358.168 397.61 358.256 397.94 358.432C398.278 358.608 398.531 358.843 398.699 359.136C398.875 359.429 398.963 359.752 398.963 360.104C398.963 360.493 398.857 360.848 398.644 361.171C398.432 361.486 398.113 361.699 397.687 361.809C398.142 361.904 398.52 362.121 398.82 362.458C399.121 362.795 399.271 363.239 399.271 363.789C399.271 364.214 399.172 364.607 398.974 364.966C398.784 365.318 398.498 365.6 398.116 365.813C397.735 366.026 397.262 366.132 396.697 366.132ZM403.384 366.132C402.856 366.132 402.398 366.037 402.009 365.846C401.62 365.655 401.309 365.395 401.074 365.065C400.847 364.728 400.707 364.346 400.656 363.921H401.558C401.646 364.346 401.851 364.691 402.174 364.955C402.497 365.212 402.904 365.34 403.395 365.34C403.762 365.34 404.077 365.256 404.341 365.087C404.605 364.911 404.807 364.676 404.946 364.383C405.093 364.09 405.166 363.763 405.166 363.404C405.166 362.832 405.005 362.37 404.682 362.018C404.359 361.666 403.941 361.49 403.428 361.49C403.003 361.49 402.64 361.585 402.339 361.776C402.038 361.967 401.818 362.216 401.679 362.524H400.799L401.459 358.3H405.496V359.103H402.174L401.723 361.446C401.899 361.233 402.141 361.057 402.449 360.918C402.764 360.779 403.124 360.709 403.527 360.709C404.033 360.709 404.473 360.826 404.847 361.061C405.228 361.296 405.525 361.615 405.738 362.018C405.951 362.421 406.057 362.88 406.057 363.393C406.057 363.884 405.951 364.339 405.738 364.757C405.533 365.175 405.228 365.509 404.825 365.758C404.429 366.007 403.949 366.132 403.384 366.132ZM407.766 366.055C407.582 366.055 407.428 365.996 407.304 365.879C407.186 365.754 407.128 365.604 407.128 365.428C407.128 365.252 407.186 365.105 407.304 364.988C407.428 364.863 407.582 364.801 407.766 364.801C407.942 364.801 408.088 364.863 408.206 364.988C408.33 365.105 408.393 365.252 408.393 365.428C408.393 365.604 408.33 365.754 408.206 365.879C408.088 365.996 407.942 366.055 407.766 366.055ZM410.151 366V359.334L408.908 359.609V358.971L410.459 358.3H411.086V366H410.151ZM416.198 366V364.35H412.293V363.635L416.033 358.3H417.111V363.536H418.255V364.35H417.111V366H416.198ZM413.316 363.536H416.242V359.323L413.316 363.536ZM421.77 366.132C421.278 366.132 420.835 366.044 420.439 365.868C420.043 365.685 419.724 365.413 419.482 365.054C419.247 364.695 419.122 364.247 419.108 363.712H420.043C420.05 364.152 420.204 364.533 420.505 364.856C420.805 365.171 421.227 365.329 421.77 365.329C422.312 365.329 422.719 365.179 422.991 364.878C423.269 364.577 423.409 364.214 423.409 363.789C423.409 363.43 423.321 363.136 423.145 362.909C422.976 362.682 422.745 362.513 422.452 362.403C422.166 362.293 421.85 362.238 421.506 362.238H420.934V361.457H421.506C422.004 361.457 422.393 361.343 422.672 361.116C422.958 360.889 423.101 360.57 423.101 360.159C423.101 359.814 422.987 359.532 422.76 359.312C422.54 359.085 422.21 358.971 421.77 358.971C421.344 358.971 421.003 359.099 420.747 359.356C420.49 359.605 420.347 359.921 420.318 360.302H419.383C419.405 359.884 419.515 359.514 419.713 359.191C419.918 358.868 420.197 358.619 420.549 358.443C420.901 358.26 421.308 358.168 421.77 358.168C422.268 358.168 422.683 358.256 423.013 358.432C423.35 358.608 423.603 358.843 423.772 359.136C423.948 359.429 424.036 359.752 424.036 360.104C424.036 360.493 423.929 360.848 423.717 361.171C423.504 361.486 423.185 361.699 422.76 361.809C423.214 361.904 423.592 362.121 423.893 362.458C424.193 362.795 424.344 363.239 424.344 363.789C424.344 364.214 424.245 364.607 424.047 364.966C423.856 365.318 423.57 365.6 423.189 365.813C422.807 366.026 422.334 366.132 421.77 366.132Z" fill="#929292"/>
<defs>
<linearGradient id="paint0_linear_3595_5205" x1="352.942" y1="18.5125" x2="347.104" y2="50.8621" gradientUnits="userSpaceOnUse">
<stop stop-color="#01A0FF"/>
<stop offset="1" stop-color="#0123F7"/>
</linearGradient>
<clipPath id="clip0_3595_5205">
<rect width="32" height="32" fill="white" transform="translate(20 108)"/>
</clipPath>
<clipPath id="clip1_3595_5205">
<rect width="32" height="32" fill="white" transform="translate(20 185)"/>
</clipPath>
<clipPath id="clip2_3595_5205">
<rect width="32" height="32" fill="white" transform="translate(20 260)"/>
</clipPath>
<clipPath id="clip3_3595_5205">
<rect width="32" height="32" fill="white" transform="translate(20 335)"/>
</clipPath>
</defs>
</svg>
