<svg width="228" height="665" viewBox="0 0 228 665" fill="none" xmlns="http://www.w3.org/2000/svg">
<g filter="url(#filter0_bd_3595_5164)">
<rect x="-459" y="83" width="557" height="386" rx="8" fill="white"/>
<mask id="mask0_3595_5164" style="mask-type:alpha" maskUnits="userSpaceOnUse" x="-459" y="251" width="557" height="218">
<rect x="-459" y="251.166" width="557" height="217.015" rx="16" fill="white"/>
</mask>
<g mask="url(#mask0_3595_5164)">
<path d="M-451.398 328.303H-467.578C-468.683 328.303 -469.578 329.199 -469.578 330.303V404.672C-469.578 405.777 -468.683 406.672 -467.578 406.672H108.415C109.519 406.672 110.415 405.777 110.415 404.672V330.303C110.415 329.199 109.519 328.303 108.415 328.303H18.4417C17.8242 328.303 17.2413 328.018 16.8624 327.53L-3.32715 301.545C-4.10019 300.55 -5.58954 300.509 -6.41605 301.46L-20.5274 317.697C-21.3152 318.604 -22.7186 318.616 -23.5226 317.724L-38.4008 301.216C-39.1768 300.355 -40.52 300.332 -41.3252 301.166L-57.8019 318.229C-58.4618 318.912 -59.5114 319.037 -60.3133 318.527L-70.4413 312.091C-71.6375 311.331 -73.223 312.022 -73.4807 313.416L-89.9118 402.307C-90.2927 404.367 -93.1833 404.529 -93.7922 402.524L-106.891 359.39C-107.147 358.548 -107.924 357.971 -108.804 357.971H-120.958C-121.913 357.971 -122.735 357.296 -122.92 356.359L-138.469 277.636C-138.856 275.677 -141.56 275.432 -142.292 277.29L-157.706 316.398C-158.251 317.78 -160.058 318.107 -161.053 317.004L-174.842 301.705C-175.761 300.685 -177.41 300.873 -178.076 302.073L-192.062 327.274C-192.415 327.909 -193.084 328.303 -193.811 328.303H-249.823C-250.655 328.303 -251.4 327.788 -251.694 327.009L-261.948 299.837C-262.002 299.695 -262.071 299.56 -262.155 299.435L-278.989 274.157C-279.888 272.808 -281.935 273.033 -282.519 274.545L-288.568 290.205C-288.699 290.544 -288.92 290.841 -289.207 291.064L-312.422 309.095C-313.38 309.839 -314.775 309.566 -315.381 308.515L-328.129 286.428C-329.052 284.829 -331.464 285.228 -331.823 287.038L-346.905 362.972C-347.345 365.189 -350.549 365.088 -350.849 362.848L-364.797 258.683C-365.07 256.647 -367.868 256.296 -368.635 258.202L-381.525 290.238C-381.653 290.557 -381.86 290.836 -382.127 291.051L-399.989 305.402C-400.118 305.505 -400.233 305.624 -400.332 305.756L-415.988 326.472C-416.72 327.44 -418.138 327.538 -418.997 326.681L-433.673 312.026C-434.496 311.204 -435.845 311.256 -436.604 312.139L-449.88 327.606C-450.26 328.049 -450.814 328.303 -451.398 328.303Z" fill="url(#paint0_linear_3595_5164)"/>
<path d="M-469.578 328.303H-451.398C-450.814 328.303 -450.26 328.049 -449.88 327.606L-436.604 312.139C-435.845 311.256 -434.496 311.204 -433.673 312.026L-418.997 326.681C-418.138 327.538 -416.72 327.44 -415.988 326.472L-400.332 305.756C-400.233 305.624 -400.118 305.505 -399.989 305.402L-382.127 291.051C-381.86 290.836 -381.653 290.557 -381.525 290.238L-368.635 258.202C-367.868 256.296 -365.07 256.647 -364.797 258.683L-350.849 362.848C-350.549 365.088 -347.345 365.189 -346.905 362.972L-331.823 287.038C-331.464 285.228 -329.052 284.829 -328.129 286.428L-315.381 308.515C-314.775 309.566 -313.38 309.839 -312.422 309.095L-289.207 291.064C-288.92 290.841 -288.699 290.544 -288.568 290.205L-282.519 274.545C-281.935 273.033 -279.888 272.808 -278.989 274.157L-262.155 299.435C-262.071 299.56 -262.002 299.695 -261.948 299.837L-251.694 327.009C-251.4 327.788 -250.655 328.303 -249.823 328.303H-193.811C-193.084 328.303 -192.414 327.909 -192.062 327.274L-178.076 302.073C-177.41 300.873 -175.761 300.685 -174.842 301.705L-161.053 317.004C-160.058 318.107 -158.251 317.78 -157.706 316.398L-142.292 277.29C-141.56 275.432 -138.856 275.677 -138.469 277.636L-122.92 356.359C-122.735 357.296 -121.913 357.971 -120.958 357.971H-108.804C-107.924 357.971 -107.146 358.548 -106.891 359.39L-93.7922 402.524C-93.1833 404.529 -90.2926 404.367 -89.9118 402.307L-73.4806 313.416C-73.223 312.022 -71.6375 311.331 -70.4413 312.091L-60.3132 318.527C-59.5114 319.037 -58.4618 318.912 -57.8019 318.229L-41.3251 301.166C-40.5199 300.332 -39.1768 300.355 -38.4008 301.216L-23.5225 317.724C-22.7185 318.616 -21.3151 318.604 -20.5273 317.697L-6.41599 301.46C-5.58949 300.509 -4.10015 300.55 -3.32711 301.545L16.8625 327.53C17.2414 328.018 17.8243 328.303 18.4418 328.303H110.415" stroke="#5586F2" stroke-width="2"/>
<path d="M-426.955 362.337H-463.859C-465.516 362.337 -466.859 363.68 -466.859 365.337V482.693C-466.859 484.35 -465.516 485.693 -463.859 485.693H99.6476C101.304 485.693 102.648 484.35 102.648 482.693V365.337C102.648 363.68 101.304 362.337 99.6476 362.337H88.0074C87.6854 362.337 87.3655 362.285 87.0599 362.184L56.2172 351.917C55.9117 351.816 55.5917 351.764 55.2697 351.764H17.9938C17.4633 351.764 16.9422 351.905 16.4838 352.172L-0.267914 361.929C-0.726349 362.197 -1.24741 362.337 -1.77792 362.337H-24.2761C-24.8594 362.337 -25.43 362.507 -25.9182 362.826L-39.2073 371.518C-39.4282 371.663 -39.6291 371.836 -39.8047 372.033L-52.8931 386.716C-53.0661 386.91 -53.2132 387.126 -53.3306 387.358L-60.9827 402.486C-61.2997 403.112 -61.8264 403.608 -62.4712 403.886L-74.396 409.032C-74.8496 409.227 -75.2479 409.532 -75.5555 409.919L-88.4799 426.171C-89.7247 427.736 -92.1238 427.668 -93.278 426.035L-125.004 381.134L-141.181 362.859C-141.485 362.516 -141.863 362.247 -142.287 362.072L-167.358 351.764L-178.034 345.545C-178.921 345.028 -180.011 345.001 -180.923 345.473L-211.14 361.119C-212.484 361.815 -214.136 361.401 -214.993 360.153L-223.264 348.109C-224.415 346.431 -226.867 346.363 -228.111 347.973L-238.307 361.171C-238.875 361.907 -239.752 362.337 -240.681 362.337H-263.161C-264.249 362.337 -265.251 361.749 -265.781 360.799L-274.621 344.955C-274.71 344.795 -274.813 344.644 -274.93 344.504L-284.697 332.703C-286.244 330.834 -289.255 331.479 -289.9 333.818L-292.738 344.106C-292.849 344.508 -293.042 344.882 -293.305 345.204L-306.376 361.233C-306.946 361.932 -307.8 362.337 -308.701 362.337H-320.929C-321.859 362.337 -322.735 362.768 -323.303 363.503L-350.728 399.002C-352.195 400.902 -355.189 400.394 -355.948 398.117L-374.44 342.65C-375.174 340.447 -378.025 339.878 -379.549 341.629L-411.214 378.027C-412.549 379.562 -414.994 379.35 -416.046 377.608L-424.387 363.787C-424.93 362.887 -425.904 362.337 -426.955 362.337Z" fill="url(#paint1_linear_3595_5164)" stroke="#001268" stroke-linejoin="round"/>
</g>
<g filter="url(#filter1_d_3595_5164)">
<rect x="-63.5" y="120.5" width="47" height="31" rx="7.5" stroke="#AEB6CF" shape-rendering="crispEdges"/>
</g>
<g filter="url(#filter2_bd_3595_5164)">
<path d="M26.9487 140V136.904L24.1647 131.6H25.6047L27.5847 135.656L29.5527 131.6H30.9807L28.2207 136.904V140H26.9487ZM33.7595 140V132.632H31.2755V131.6H37.5035V132.632H35.0315V140H33.7595ZM38.4538 140V131.6H41.1778C42.1618 131.6 42.9698 131.772 43.6018 132.116C44.2418 132.46 44.7138 132.948 45.0178 133.58C45.3298 134.204 45.4858 134.948 45.4858 135.812C45.4858 136.668 45.3298 137.412 45.0178 138.044C44.7138 138.668 44.2418 139.152 43.6018 139.496C42.9698 139.832 42.1618 140 41.1778 140H38.4538ZM39.7258 138.92H41.1298C41.8898 138.92 42.4898 138.796 42.9298 138.548C43.3778 138.3 43.6978 137.944 43.8898 137.48C44.0898 137.016 44.1898 136.46 44.1898 135.812C44.1898 135.164 44.0898 134.604 43.8898 134.132C43.6978 133.66 43.3778 133.3 42.9298 133.052C42.4898 132.796 41.8898 132.668 41.1298 132.668H39.7258V138.92Z" fill="#232927"/>
<rect x="3.5" y="120.5" width="63" height="31" rx="7.5" stroke="#AEB6CF" shape-rendering="crispEdges"/>
</g>
<g clip-path="url(#clip0_3595_5164)">
<g filter="url(#filter3_b_3595_5164)">
<rect x="9.94922" y="422" width="77" height="28" rx="14" fill="black" fill-opacity="0.01"/>
</g>
<path d="M42.2064 438.168C41.4877 438.168 40.853 438.047 40.3024 437.804C39.7517 437.552 39.3177 437.197 39.0004 436.74C38.683 436.273 38.5197 435.709 38.5104 435.046H40.4004C40.419 435.503 40.5824 435.891 40.8904 436.208C41.2077 436.516 41.6417 436.67 42.1924 436.67C42.6684 436.67 43.0464 436.558 43.3264 436.334C43.6064 436.101 43.7464 435.793 43.7464 435.41C43.7464 435.009 43.6204 434.696 43.3684 434.472C43.1257 434.248 42.799 434.066 42.3884 433.926C41.9777 433.786 41.539 433.637 41.0724 433.478C40.3164 433.217 39.7377 432.881 39.3364 432.47C38.9444 432.059 38.7484 431.513 38.7484 430.832C38.739 430.253 38.8744 429.759 39.1544 429.348C39.4437 428.928 39.8357 428.606 40.3304 428.382C40.825 428.149 41.3944 428.032 42.0384 428.032C42.6917 428.032 43.2657 428.149 43.7604 428.382C44.2644 428.615 44.6564 428.942 44.9364 429.362C45.2257 429.782 45.3797 430.281 45.3984 430.86H43.4804C43.471 430.515 43.3357 430.211 43.0744 429.95C42.8224 429.679 42.4677 429.544 42.0104 429.544C41.6184 429.535 41.287 429.633 41.0164 429.838C40.755 430.034 40.6244 430.323 40.6244 430.706C40.6244 431.033 40.727 431.294 40.9324 431.49C41.1377 431.677 41.4177 431.835 41.7724 431.966C42.127 432.097 42.533 432.237 42.9904 432.386C43.4757 432.554 43.919 432.75 44.3204 432.974C44.7217 433.198 45.0437 433.497 45.2864 433.87C45.529 434.234 45.6504 434.705 45.6504 435.284C45.6504 435.797 45.5197 436.273 45.2584 436.712C44.997 437.151 44.6097 437.505 44.0964 437.776C43.583 438.037 42.953 438.168 42.2064 438.168ZM50.2659 438.168C49.5659 438.168 48.9452 438.019 48.4039 437.72C47.8625 437.421 47.4379 437.001 47.1299 436.46C46.8219 435.919 46.6679 435.293 46.6679 434.584C46.6679 433.865 46.8172 433.226 47.1159 432.666C47.4239 432.106 47.8439 431.672 48.3759 431.364C48.9172 431.047 49.5519 430.888 50.2799 430.888C50.9612 430.888 51.5632 431.037 52.0859 431.336C52.6085 431.635 53.0145 432.045 53.3039 432.568C53.6025 433.081 53.7519 433.655 53.7519 434.29C53.7519 434.393 53.7472 434.5 53.7379 434.612C53.7379 434.724 53.7332 434.841 53.7239 434.962H48.4459C48.4832 435.503 48.6699 435.928 49.0059 436.236C49.3512 436.544 49.7665 436.698 50.2519 436.698C50.6159 436.698 50.9192 436.619 51.1619 436.46C51.4139 436.292 51.6005 436.077 51.7219 435.816H53.5419C53.4112 436.255 53.1919 436.656 52.8839 437.02C52.5852 437.375 52.2119 437.655 51.7639 437.86C51.3252 438.065 50.8259 438.168 50.2659 438.168ZM50.2799 432.344C49.8412 432.344 49.4539 432.47 49.1179 432.722C48.7819 432.965 48.5672 433.338 48.4739 433.842H51.9319C51.9039 433.385 51.7359 433.021 51.4279 432.75C51.1199 432.479 50.7372 432.344 50.2799 432.344ZM54.9791 438V427.92H56.7711V438H54.9791ZM58.3221 438V427.92H60.1141V438H58.3221Z" fill="#6F6C99"/>
<circle cx="28.9492" cy="436" r="4" fill="#00DEA3"/>
</g>
<g clip-path="url(#clip1_3595_5164)">
<g filter="url(#filter4_b_3595_5164)">
<rect x="-72" y="422" width="74" height="28" rx="14" fill="black" fill-opacity="0.01"/>
</g>
</g>
</g>
<defs>
<filter id="filter0_bd_3595_5164" x="-609" y="-1" width="837" height="666" filterUnits="userSpaceOnUse" color-interpolation-filters="sRGB">
<feFlood flood-opacity="0" result="BackgroundImageFix"/>
<feGaussianBlur in="BackgroundImageFix" stdDeviation="9.5"/>
<feComposite in2="SourceAlpha" operator="in" result="effect1_backgroundBlur_3595_5164"/>
<feColorMatrix in="SourceAlpha" type="matrix" values="0 0 0 0 0 0 0 0 0 0 0 0 0 0 0 0 0 0 127 0" result="hardAlpha"/>
<feOffset dx="-10" dy="56"/>
<feGaussianBlur stdDeviation="70"/>
<feColorMatrix type="matrix" values="0 0 0 0 0.559028 0 0 0 0 0.607639 0 0 0 0 0.729167 0 0 0 0.2 0"/>
<feBlend mode="multiply" in2="effect1_backgroundBlur_3595_5164" result="effect2_dropShadow_3595_5164"/>
<feBlend mode="normal" in="SourceGraphic" in2="effect2_dropShadow_3595_5164" result="shape"/>
</filter>
<filter id="filter1_d_3595_5164" x="-99" y="100" width="118" height="102" filterUnits="userSpaceOnUse" color-interpolation-filters="sRGB">
<feFlood flood-opacity="0" result="BackgroundImageFix"/>
<feColorMatrix in="SourceAlpha" type="matrix" values="0 0 0 0 0 0 0 0 0 0 0 0 0 0 0 0 0 0 127 0" result="hardAlpha"/>
<feOffset dy="15"/>
<feGaussianBlur stdDeviation="17.5"/>
<feComposite in2="hardAlpha" operator="out"/>
<feColorMatrix type="matrix" values="0 0 0 0 0.94902 0 0 0 0 0.223529 0 0 0 0 0.521569 0 0 0 0.15 0"/>
<feBlend mode="normal" in2="BackgroundImageFix" result="effect1_dropShadow_3595_5164"/>
<feBlend mode="normal" in="SourceGraphic" in2="effect1_dropShadow_3595_5164" result="shape"/>
</filter>
<filter id="filter2_bd_3595_5164" x="-32" y="100" width="134" height="102" filterUnits="userSpaceOnUse" color-interpolation-filters="sRGB">
<feFlood flood-opacity="0" result="BackgroundImageFix"/>
<feGaussianBlur in="BackgroundImageFix" stdDeviation="7.5"/>
<feComposite in2="SourceAlpha" operator="in" result="effect1_backgroundBlur_3595_5164"/>
<feColorMatrix in="SourceAlpha" type="matrix" values="0 0 0 0 0 0 0 0 0 0 0 0 0 0 0 0 0 0 127 0" result="hardAlpha"/>
<feOffset dy="15"/>
<feGaussianBlur stdDeviation="17.5"/>
<feComposite in2="hardAlpha" operator="out"/>
<feColorMatrix type="matrix" values="0 0 0 0 0.94902 0 0 0 0 0.223529 0 0 0 0 0.521569 0 0 0 0.15 0"/>
<feBlend mode="normal" in2="effect1_backgroundBlur_3595_5164" result="effect2_dropShadow_3595_5164"/>
<feBlend mode="normal" in="SourceGraphic" in2="effect2_dropShadow_3595_5164" result="shape"/>
</filter>
<filter id="filter3_b_3595_5164" x="-8.60548" y="403.445" width="114.109" height="65.1094" filterUnits="userSpaceOnUse" color-interpolation-filters="sRGB">
<feFlood flood-opacity="0" result="BackgroundImageFix"/>
<feGaussianBlur in="BackgroundImageFix" stdDeviation="9.27735"/>
<feComposite in2="SourceAlpha" operator="in" result="effect1_backgroundBlur_3595_5164"/>
<feBlend mode="normal" in="SourceGraphic" in2="effect1_backgroundBlur_3595_5164" result="shape"/>
</filter>
<filter id="filter4_b_3595_5164" x="-90.5547" y="403.445" width="111.109" height="65.1094" filterUnits="userSpaceOnUse" color-interpolation-filters="sRGB">
<feFlood flood-opacity="0" result="BackgroundImageFix"/>
<feGaussianBlur in="BackgroundImageFix" stdDeviation="9.27735"/>
<feComposite in2="SourceAlpha" operator="in" result="effect1_backgroundBlur_3595_5164"/>
<feBlend mode="normal" in="SourceGraphic" in2="effect1_backgroundBlur_3595_5164" result="shape"/>
</filter>
<linearGradient id="paint0_linear_3595_5164" x1="-169.323" y1="126.676" x2="-169.323" y2="383.191" gradientUnits="userSpaceOnUse">
<stop offset="0.171875" stop-color="#18BFEF"/>
<stop offset="0.880208" stop-color="#7976FF" stop-opacity="0"/>
</linearGradient>
<linearGradient id="paint1_linear_3595_5164" x1="-173.13" y1="280.5" x2="-170.892" y2="443.483" gradientUnits="userSpaceOnUse">
<stop offset="0.113029" stop-color="#5A55D2" stop-opacity="0.24"/>
<stop offset="1" stop-color="#5A55D2" stop-opacity="0"/>
</linearGradient>
<clipPath id="clip0_3595_5164">
<rect width="77" height="28" fill="white" transform="translate(9.94922 422)"/>
</clipPath>
<clipPath id="clip1_3595_5164">
<rect width="74" height="28" fill="white" transform="translate(-72 422)"/>
</clipPath>
</defs>
</svg>
