<svg width="246" height="665" viewBox="0 0 246 665" fill="none" xmlns="http://www.w3.org/2000/svg">
<g filter="url(#filter0_bd_3595_5268)">
<rect x="150" y="83" width="557" height="386" rx="8" fill="white"/>
<mask id="mask0_3595_5268" style="mask-type:alpha" maskUnits="userSpaceOnUse" x="150" y="251" width="557" height="218">
<rect x="150" y="251.166" width="557" height="217.015" rx="16" fill="white"/>
</mask>
<g mask="url(#mask0_3595_5268)">
<path d="M157.602 328.303H141.422C140.317 328.303 139.422 329.199 139.422 330.303V404.672C139.422 405.777 140.317 406.672 141.422 406.672H717.415C718.519 406.672 719.415 405.777 719.415 404.672V330.303C719.415 329.199 718.519 328.303 717.415 328.303H627.442C626.824 328.303 626.241 328.018 625.862 327.53L605.673 301.545C604.9 300.55 603.41 300.509 602.584 301.46L588.473 317.697C587.685 318.604 586.281 318.616 585.477 317.724L570.599 301.216C569.823 300.355 568.48 300.332 567.675 301.166L551.198 318.229C550.538 318.912 549.489 319.037 548.687 318.527L538.559 312.091C537.362 311.331 535.777 312.022 535.519 313.416L519.088 402.307C518.707 404.367 515.817 404.529 515.208 402.524L502.109 359.39C501.853 358.548 501.076 357.971 500.196 357.971H488.042C487.087 357.971 486.265 357.296 486.08 356.359L470.531 277.636C470.144 275.677 467.44 275.432 466.708 277.29L451.294 316.398C450.749 317.78 448.942 318.107 447.947 317.004L434.158 301.705C433.239 300.685 431.59 300.873 430.924 302.073L416.938 327.274C416.585 327.909 415.916 328.303 415.189 328.303H359.177C358.345 328.303 357.6 327.788 357.306 327.009L347.052 299.837C346.998 299.695 346.929 299.56 346.845 299.435L330.011 274.157C329.112 272.808 327.065 273.033 326.481 274.545L320.432 290.205C320.301 290.544 320.08 290.841 319.793 291.064L296.578 309.095C295.62 309.839 294.225 309.566 293.619 308.515L280.871 286.428C279.948 284.829 277.536 285.228 277.177 287.038L262.095 362.972C261.655 365.189 258.451 365.088 258.151 362.848L244.203 258.683C243.93 256.647 241.132 256.296 240.365 258.202L227.475 290.238C227.347 290.557 227.14 290.836 226.873 291.051L209.011 305.402C208.882 305.505 208.767 305.624 208.668 305.756L193.012 326.472C192.28 327.44 190.862 327.538 190.003 326.681L175.327 312.026C174.504 311.204 173.155 311.256 172.396 312.139L159.12 327.606C158.74 328.049 158.186 328.303 157.602 328.303Z" fill="url(#paint0_linear_3595_5268)"/>
<path d="M139.422 328.303H157.602C158.186 328.303 158.74 328.049 159.12 327.606L172.396 312.139C173.155 311.256 174.504 311.204 175.327 312.026L190.003 326.681C190.862 327.538 192.28 327.44 193.012 326.472L208.668 305.756C208.767 305.624 208.882 305.505 209.011 305.402L226.873 291.051C227.14 290.836 227.347 290.557 227.475 290.238L240.365 258.202C241.132 256.296 243.93 256.647 244.203 258.683L258.151 362.848C258.451 365.088 261.655 365.189 262.095 362.972L277.177 287.038C277.536 285.228 279.948 284.829 280.871 286.428L293.619 308.515C294.225 309.566 295.62 309.839 296.578 309.095L319.793 291.064C320.08 290.841 320.301 290.544 320.432 290.205L326.481 274.545C327.065 273.033 329.112 272.808 330.011 274.157L346.845 299.435C346.929 299.56 346.998 299.695 347.052 299.837L357.306 327.009C357.6 327.788 358.345 328.303 359.177 328.303H415.189C415.916 328.303 416.586 327.909 416.938 327.274L430.924 302.073C431.59 300.873 433.239 300.685 434.158 301.705L447.947 317.004C448.942 318.107 450.749 317.78 451.294 316.398L466.708 277.29C467.44 275.432 470.144 275.677 470.531 277.636L486.08 356.359C486.265 357.296 487.087 357.971 488.042 357.971H500.196C501.076 357.971 501.854 358.548 502.109 359.39L515.208 402.524C515.817 404.529 518.707 404.367 519.088 402.307L535.519 313.416C535.777 312.022 537.362 311.331 538.559 312.091L548.687 318.527C549.489 319.037 550.538 318.912 551.198 318.229L567.675 301.166C568.48 300.332 569.823 300.355 570.599 301.216L585.477 317.724C586.281 318.616 587.685 318.604 588.473 317.697L602.584 301.46C603.411 300.509 604.9 300.55 605.673 301.545L625.862 327.53C626.241 328.018 626.824 328.303 627.442 328.303H719.415" stroke="#5586F2" stroke-width="2"/>
<path d="M182.045 362.337H145.141C143.484 362.337 142.141 363.68 142.141 365.337V482.693C142.141 484.35 143.484 485.693 145.141 485.693H708.648C710.304 485.693 711.648 484.35 711.648 482.693V365.337C711.648 363.68 710.304 362.337 708.648 362.337H697.007C696.685 362.337 696.365 362.285 696.06 362.184L665.217 351.917C664.912 351.816 664.592 351.764 664.27 351.764H626.994C626.463 351.764 625.942 351.905 625.484 352.172L608.732 361.929C608.274 362.197 607.753 362.337 607.222 362.337H584.724C584.141 362.337 583.57 362.507 583.082 362.826L569.793 371.518C569.572 371.663 569.371 371.836 569.195 372.033L556.107 386.716C555.934 386.91 555.787 387.126 555.669 387.358L548.017 402.486C547.7 403.112 547.174 403.608 546.529 403.886L534.604 409.032C534.15 409.227 533.752 409.532 533.445 409.919L520.52 426.171C519.275 427.736 516.876 427.668 515.722 426.035L483.996 381.134L467.819 362.859C467.515 362.516 467.137 362.247 466.713 362.072L441.642 351.764L430.966 345.545C430.079 345.028 428.989 345.001 428.077 345.473L397.86 361.119C396.516 361.815 394.864 361.401 394.007 360.153L385.736 348.109C384.585 346.431 382.133 346.363 380.889 347.973L370.693 361.171C370.125 361.907 369.248 362.337 368.319 362.337H345.839C344.751 362.337 343.749 361.749 343.219 360.799L334.379 344.955C334.29 344.795 334.187 344.644 334.07 344.504L324.303 332.703C322.756 330.834 319.745 331.479 319.1 333.818L316.262 344.106C316.151 344.508 315.958 344.882 315.695 345.204L302.624 361.233C302.054 361.932 301.2 362.337 300.299 362.337H288.071C287.141 362.337 286.265 362.768 285.697 363.503L258.272 399.002C256.805 400.902 253.811 400.394 253.052 398.117L234.56 342.65C233.826 340.447 230.975 339.878 229.451 341.629L197.786 378.027C196.451 379.562 194.006 379.35 192.954 377.608L184.613 363.787C184.07 362.887 183.096 362.337 182.045 362.337Z" fill="url(#paint1_linear_3595_5268)" stroke="#001268" stroke-linejoin="round"/>
</g>
<mask id="path-6-inside-1_3595_5268" fill="white">
<path d="M186.059 157.869C185.759 157.869 185.454 157.799 185.164 157.654L183.544 156.844C183.204 156.674 182.794 156.674 182.449 156.844L180.829 157.654C180.049 158.044 179.149 157.894 178.539 157.269C177.929 156.644 177.794 155.744 178.204 154.969L181.254 149.174C181.594 148.524 182.264 148.119 182.999 148.119C183.734 148.119 184.404 148.524 184.744 149.174L187.794 154.969C188.199 155.744 188.069 156.644 187.459 157.269C187.074 157.664 186.574 157.869 186.059 157.869ZM182.999 155.964C183.304 155.964 183.604 156.034 183.879 156.169L185.499 156.979C186.084 157.274 186.619 157.049 186.919 156.739C187.219 156.429 187.434 155.894 187.129 155.314L184.079 149.519C183.864 149.114 183.459 148.869 182.999 148.869C182.539 148.869 182.134 149.114 181.919 149.524L178.869 155.319C178.564 155.899 178.774 156.439 179.079 156.744C179.384 157.049 179.914 157.274 180.499 156.984L182.119 156.174C182.394 156.034 182.694 155.964 182.999 155.964Z"/>
</mask>
<path d="M186.059 157.869C185.759 157.869 185.454 157.799 185.164 157.654L183.544 156.844C183.204 156.674 182.794 156.674 182.449 156.844L180.829 157.654C180.049 158.044 179.149 157.894 178.539 157.269C177.929 156.644 177.794 155.744 178.204 154.969L181.254 149.174C181.594 148.524 182.264 148.119 182.999 148.119C183.734 148.119 184.404 148.524 184.744 149.174L187.794 154.969C188.199 155.744 188.069 156.644 187.459 157.269C187.074 157.664 186.574 157.869 186.059 157.869ZM182.999 155.964C183.304 155.964 183.604 156.034 183.879 156.169L185.499 156.979C186.084 157.274 186.619 157.049 186.919 156.739C187.219 156.429 187.434 155.894 187.129 155.314L184.079 149.519C183.864 149.114 183.459 148.869 182.999 148.869C182.539 148.869 182.134 149.114 181.919 149.524L178.869 155.319C178.564 155.899 178.774 156.439 179.079 156.744C179.384 157.049 179.914 157.274 180.499 156.984L182.119 156.174C182.394 156.034 182.694 155.964 182.999 155.964Z" fill="#00AF00"/>
<path d="M185.164 157.654L185.611 156.76H185.611L185.164 157.654ZM183.544 156.844L183.097 157.739H183.097L183.544 156.844ZM182.449 156.844L182.007 155.947L182.002 155.95L182.449 156.844ZM180.829 157.654L180.382 156.76H180.382L180.829 157.654ZM178.204 154.969L179.088 155.437L179.089 155.435L178.204 154.969ZM181.254 149.174L182.139 149.64L182.14 149.638L181.254 149.174ZM184.744 149.174L183.858 149.638L183.859 149.64L184.744 149.174ZM187.794 154.969L188.68 154.506L188.679 154.503L187.794 154.969ZM187.459 157.269L186.743 156.571L186.743 156.571L187.459 157.269ZM183.879 156.169L184.326 155.275L184.32 155.271L183.879 156.169ZM185.499 156.979L185.949 156.086L185.946 156.085L185.499 156.979ZM187.129 155.314L188.014 154.849L188.014 154.848L187.129 155.314ZM184.079 149.519L184.964 149.053L184.962 149.05L184.079 149.519ZM181.919 149.524L182.804 149.99L182.805 149.989L181.919 149.524ZM178.869 155.319L177.984 154.853L177.984 154.854L178.869 155.319ZM180.499 156.984L180.943 157.88L180.946 157.879L180.499 156.984ZM182.119 156.174L182.566 157.069L182.573 157.065L182.119 156.174ZM186.059 156.869C185.916 156.869 185.764 156.836 185.611 156.76L184.717 158.549C185.144 158.762 185.602 158.869 186.059 158.869V156.869ZM185.611 156.76L183.991 155.95L183.097 157.739L184.717 158.549L185.611 156.76ZM183.991 155.95C183.368 155.638 182.629 155.641 182.007 155.947L182.891 157.741C182.959 157.707 183.04 157.71 183.097 157.739L183.991 155.95ZM182.002 155.95L180.382 156.76L181.276 158.549L182.896 157.739L182.002 155.95ZM180.382 156.76C179.99 156.956 179.56 156.884 179.255 156.571L177.823 157.968C178.738 158.905 180.108 159.132 181.276 158.549L180.382 156.76ZM179.255 156.571C178.945 156.254 178.883 155.824 179.088 155.437L177.32 154.502C176.705 155.664 176.913 157.035 177.823 157.968L179.255 156.571ZM179.089 155.435L182.139 149.64L180.369 148.708L177.319 154.503L179.089 155.435ZM182.14 149.638C182.307 149.318 182.635 149.119 182.999 149.119V147.119C181.893 147.119 180.881 147.73 180.368 148.711L182.14 149.638ZM182.999 149.119C183.363 149.119 183.691 149.318 183.858 149.638L185.63 148.711C185.117 147.73 184.105 147.119 182.999 147.119V149.119ZM183.859 149.64L186.909 155.435L188.679 154.503L185.629 148.708L183.859 149.64ZM186.908 155.432C187.114 155.826 187.049 156.257 186.743 156.571L188.175 157.968C189.088 157.031 189.284 155.662 188.68 154.506L186.908 155.432ZM186.743 156.571C186.544 156.775 186.302 156.869 186.059 156.869V158.869C186.846 158.869 187.604 158.554 188.175 157.967L186.743 156.571ZM182.999 156.964C183.15 156.964 183.299 156.999 183.438 157.067L184.32 155.271C183.908 155.07 183.458 154.964 182.999 154.964V156.964ZM183.432 157.064L185.052 157.874L185.946 156.085L184.326 155.275L183.432 157.064ZM185.049 157.872C186.118 158.411 187.113 157.977 187.638 157.435L186.2 156.044C186.166 156.079 186.121 156.104 186.084 156.113C186.069 156.117 186.054 156.118 186.038 156.116C186.023 156.114 185.993 156.109 185.949 156.086L185.049 157.872ZM187.638 157.435C188.153 156.902 188.572 155.909 188.014 154.849L186.244 155.78C186.267 155.824 186.274 155.853 186.276 155.869C186.278 155.885 186.277 155.9 186.274 155.916C186.265 155.954 186.24 156.003 186.2 156.044L187.638 157.435ZM188.014 154.848L184.964 149.053L183.194 149.985L186.244 155.78L188.014 154.848ZM184.962 149.05C184.574 148.32 183.831 147.869 182.999 147.869V149.869C183.087 149.869 183.153 149.908 183.196 149.988L184.962 149.05ZM182.999 147.869C182.166 147.869 181.42 148.322 181.033 149.06L182.805 149.989C182.848 149.907 182.912 149.869 182.999 149.869V147.869ZM181.034 149.058L177.984 154.853L179.754 155.785L182.804 149.99L181.034 149.058ZM177.984 154.854C177.431 155.906 177.83 156.91 178.372 157.451L179.786 156.037C179.755 156.006 179.731 155.963 179.723 155.926C179.72 155.91 179.719 155.895 179.721 155.877C179.724 155.86 179.73 155.83 179.754 155.785L177.984 154.854ZM178.372 157.451C178.893 157.973 179.874 158.41 180.943 157.88L180.055 156.088C180.01 156.11 179.981 156.116 179.965 156.118C179.948 156.12 179.933 156.119 179.916 156.115C179.877 156.105 179.827 156.078 179.786 156.037L178.372 157.451ZM180.946 157.879L182.566 157.069L181.672 155.28L180.052 156.09L180.946 157.879ZM182.573 157.065C182.704 156.998 182.848 156.964 182.999 156.964V154.964C182.54 154.964 182.084 155.07 181.665 155.283L182.573 157.065Z" fill="#00AF00" mask="url(#path-6-inside-1_3595_5268)"/>
<path d="M194.21 153.114H196.2V153.824H194.21V155.884H193.49V153.824H191.5V153.114H193.49V151.044H194.21V153.114ZM198.643 149.954C198.473 151.054 198.413 151.274 196.883 151.274V151.994H198.483V156.994H199.443V149.954H198.643ZM201.041 155.714V156.994H202.321V155.714H201.041ZM203.437 156.994H208.557V156.154H205.167C204.827 156.154 204.617 156.164 204.417 156.274C204.357 156.304 204.297 156.344 204.257 156.294C204.217 156.234 204.277 156.194 204.327 156.164C206.147 155.104 208.397 154.214 208.397 152.144C208.397 150.804 207.587 149.874 205.937 149.874C204.257 149.874 203.437 151.024 203.437 152.424H204.397C204.397 151.564 204.767 150.754 205.937 150.754C207.067 150.754 207.437 151.404 207.437 152.064C207.437 153.684 205.707 154.384 203.437 155.714V156.994ZM210.987 149.754C211.48 149.754 211.854 149.951 212.107 150.344C212.36 150.731 212.487 151.277 212.487 151.984C212.487 152.691 212.364 153.244 212.117 153.644C211.877 154.037 211.5 154.234 210.987 154.234C210.674 154.234 210.407 154.144 210.187 153.964C209.967 153.784 209.8 153.527 209.687 153.194C209.58 152.854 209.527 152.451 209.527 151.984C209.527 151.277 209.644 150.731 209.877 150.344C210.11 149.951 210.48 149.754 210.987 149.754ZM210.987 150.374C210.734 150.374 210.547 150.511 210.427 150.784C210.314 151.051 210.257 151.451 210.257 151.984C210.257 152.517 210.314 152.921 210.427 153.194C210.547 153.467 210.734 153.604 210.987 153.604C211.247 153.604 211.44 153.471 211.567 153.204C211.694 152.931 211.757 152.524 211.757 151.984C211.757 151.451 211.694 151.051 211.567 150.784C211.44 150.511 211.247 150.374 210.987 150.374ZM215.557 149.854L211.597 156.994H210.827L214.787 149.854H215.557ZM215.357 152.614C215.684 152.614 215.957 152.704 216.177 152.884C216.397 153.057 216.564 153.311 216.677 153.644C216.797 153.971 216.857 154.371 216.857 154.844C216.857 155.551 216.734 156.104 216.487 156.504C216.247 156.897 215.87 157.094 215.357 157.094C215.044 157.094 214.777 157.004 214.557 156.824C214.337 156.644 214.17 156.387 214.057 156.054C213.95 155.714 213.897 155.311 213.897 154.844C213.897 154.137 214.014 153.591 214.247 153.204C214.48 152.811 214.85 152.614 215.357 152.614ZM215.357 153.244C215.104 153.244 214.917 153.377 214.797 153.644C214.684 153.911 214.627 154.311 214.627 154.844C214.627 155.384 214.684 155.791 214.797 156.064C214.917 156.331 215.104 156.464 215.357 156.464C215.617 156.464 215.81 156.331 215.937 156.064C216.064 155.797 216.127 155.391 216.127 154.844C216.127 154.311 216.064 153.911 215.937 153.644C215.81 153.377 215.617 153.244 215.357 153.244ZM220.951 154.254C220.951 153.707 221.001 153.174 221.101 152.654C221.207 152.134 221.371 151.637 221.591 151.164C221.811 150.691 222.087 150.254 222.421 149.854H223.251C222.944 150.267 222.684 150.714 222.471 151.194C222.264 151.674 222.107 152.171 222.001 152.684C221.894 153.197 221.841 153.717 221.841 154.244C221.841 154.757 221.894 155.267 222.001 155.774C222.107 156.281 222.264 156.767 222.471 157.234C222.677 157.707 222.934 158.154 223.241 158.574H222.421C222.087 158.181 221.811 157.751 221.591 157.284C221.371 156.824 221.207 156.337 221.101 155.824C221.001 155.311 220.951 154.787 220.951 154.254ZM224.149 156.994V156.184H229.189V156.994H224.149ZM224.749 153.664V152.854H228.589V153.664H224.749ZM224.349 150.664V149.854H228.989V150.664H224.349ZM232.989 149.874C231.209 149.874 230.269 151.414 230.269 153.474C230.269 155.534 231.209 157.074 232.989 157.074C234.769 157.074 235.709 155.534 235.709 153.474C235.709 151.414 234.769 149.874 232.989 149.874ZM232.989 156.194C231.819 156.194 231.229 155.074 231.229 153.474C231.229 151.874 231.819 150.754 232.989 150.754C234.159 150.754 234.749 151.874 234.749 153.474C234.749 155.074 234.159 156.194 232.989 156.194ZM236.666 155.714V156.994H237.946V155.714H236.666ZM241.622 149.874C239.842 149.874 238.902 151.414 238.902 153.474C238.902 155.534 239.842 157.074 241.622 157.074C243.402 157.074 244.342 155.534 244.342 153.474C244.342 151.414 243.402 149.874 241.622 149.874ZM241.622 156.194C240.452 156.194 239.862 155.074 239.862 153.474C239.862 151.874 240.452 150.754 241.622 150.754C242.792 150.754 243.382 151.874 243.382 153.474C243.382 155.074 242.792 156.194 241.622 156.194ZM248.018 149.874C246.238 149.874 245.298 151.414 245.298 153.474C245.298 155.534 246.238 157.074 248.018 157.074C249.798 157.074 250.738 155.534 250.738 153.474C250.738 151.414 249.798 149.874 248.018 149.874ZM248.018 156.194C246.848 156.194 246.258 155.074 246.258 153.474C246.258 151.874 246.848 150.754 248.018 150.754C249.188 150.754 249.778 151.874 249.778 153.474C249.778 155.074 249.188 156.194 248.018 156.194ZM254.415 149.874C252.635 149.874 251.695 151.414 251.695 153.474C251.695 155.534 252.635 157.074 254.415 157.074C256.195 157.074 257.135 155.534 257.135 153.474C257.135 151.414 256.195 149.874 254.415 149.874ZM254.415 156.194C253.245 156.194 252.655 155.074 252.655 153.474C252.655 151.874 253.245 150.754 254.415 150.754C255.585 150.754 256.175 151.874 256.175 153.474C256.175 155.074 255.585 156.194 254.415 156.194ZM260.811 149.874C259.031 149.874 258.091 151.414 258.091 153.474C258.091 155.534 259.031 157.074 260.811 157.074C262.591 157.074 263.531 155.534 263.531 153.474C263.531 151.414 262.591 149.874 260.811 149.874ZM260.811 156.194C259.641 156.194 259.051 155.074 259.051 153.474C259.051 151.874 259.641 150.754 260.811 150.754C261.981 150.754 262.571 151.874 262.571 153.474C262.571 155.074 261.981 156.194 260.811 156.194ZM267.208 149.874C265.428 149.874 264.488 151.414 264.488 153.474C264.488 155.534 265.428 157.074 267.208 157.074C268.988 157.074 269.928 155.534 269.928 153.474C269.928 151.414 268.988 149.874 267.208 149.874ZM267.208 156.194C266.038 156.194 265.448 155.074 265.448 153.474C265.448 151.874 266.038 150.754 267.208 150.754C268.378 150.754 268.968 151.874 268.968 153.474C268.968 155.074 268.378 156.194 267.208 156.194ZM272.324 149.954C272.154 151.054 272.094 151.274 270.564 151.274V151.994H272.164V156.994H273.124V149.954H272.324ZM276.842 154.254C276.842 154.787 276.789 155.311 276.682 155.824C276.582 156.337 276.422 156.824 276.202 157.284C275.989 157.751 275.712 158.181 275.372 158.574H274.552C274.859 158.154 275.116 157.707 275.322 157.234C275.529 156.767 275.686 156.281 275.792 155.774C275.899 155.267 275.952 154.757 275.952 154.244C275.952 153.717 275.899 153.197 275.792 152.684C275.686 152.171 275.529 151.674 275.322 151.194C275.116 150.714 274.856 150.267 274.542 149.854H275.372C275.712 150.254 275.989 150.691 276.202 151.164C276.422 151.637 276.582 152.134 276.682 152.654C276.789 153.174 276.842 153.707 276.842 154.254Z" fill="#00AF00"/>
<path d="M188.412 135L184.092 123.48H181.41L176.982 135H179.052L179.88 132.75H185.532L186.306 135H188.412ZM185.028 131.31H180.366L182.706 124.758L185.028 131.31ZM197.589 132.336C197.589 131.706 197.355 131.184 196.923 130.788C196.491 130.392 195.951 130.104 195.321 129.942C194.691 129.78 194.061 129.636 193.431 129.528C192.801 129.42 192.261 129.258 191.829 129.078C191.397 128.898 191.181 128.646 191.181 128.322C191.181 127.998 191.343 127.71 191.667 127.494C191.991 127.278 192.531 127.152 193.251 127.152C194.043 127.152 194.619 127.314 194.979 127.638C195.321 127.962 195.519 128.448 195.555 129.096H197.355C197.355 126.81 196.005 125.658 193.305 125.658C191.901 125.658 190.893 125.928 190.245 126.432C189.597 126.936 189.273 127.62 189.273 128.484C189.273 129.096 189.489 129.6 189.939 129.96C190.371 130.338 190.911 130.608 191.559 130.752C192.189 130.896 192.819 131.022 193.449 131.13C194.079 131.238 194.619 131.4 195.051 131.598C195.483 131.814 195.699 132.084 195.699 132.444C195.663 132.768 195.483 133.038 195.141 133.254C194.781 133.488 194.241 133.596 193.503 133.596C191.811 133.596 190.983 132.93 190.983 131.562H189.093C189.093 132.75 189.435 133.65 190.155 134.244C190.875 134.838 191.991 135.126 193.539 135.126C194.889 135.126 195.897 134.856 196.581 134.298C197.247 133.758 197.589 133.092 197.589 132.336ZM207.317 132.336C207.317 131.706 207.083 131.184 206.651 130.788C206.219 130.392 205.679 130.104 205.049 129.942C204.419 129.78 203.789 129.636 203.159 129.528C202.529 129.42 201.989 129.258 201.557 129.078C201.125 128.898 200.909 128.646 200.909 128.322C200.909 127.998 201.071 127.71 201.395 127.494C201.719 127.278 202.259 127.152 202.979 127.152C203.771 127.152 204.347 127.314 204.707 127.638C205.049 127.962 205.247 128.448 205.283 129.096H207.083C207.083 126.81 205.733 125.658 203.033 125.658C201.629 125.658 200.621 125.928 199.973 126.432C199.325 126.936 199.001 127.62 199.001 128.484C199.001 129.096 199.217 129.6 199.667 129.96C200.099 130.338 200.639 130.608 201.287 130.752C201.917 130.896 202.547 131.022 203.177 131.13C203.807 131.238 204.347 131.4 204.779 131.598C205.211 131.814 205.427 132.084 205.427 132.444C205.391 132.768 205.211 133.038 204.869 133.254C204.509 133.488 203.969 133.596 203.231 133.596C201.539 133.596 200.711 132.93 200.711 131.562H198.821C198.821 132.75 199.163 133.65 199.883 134.244C200.603 134.838 201.719 135.126 203.267 135.126C204.617 135.126 205.625 134.856 206.309 134.298C206.975 133.758 207.317 133.092 207.317 132.336ZM217.476 132.174H215.46C215.208 133.164 214.488 133.65 213.264 133.65C211.662 133.65 210.816 132.822 210.708 131.148H217.44C217.476 130.554 217.476 129.996 217.422 129.474C217.368 128.952 217.242 128.448 217.062 127.98C216.882 127.512 216.63 127.098 216.306 126.756C215.982 126.432 215.568 126.162 215.064 125.964C214.56 125.766 213.966 125.658 213.318 125.658C210.24 125.658 208.71 127.242 208.71 130.374C208.71 133.542 210.24 135.126 213.336 135.126C214.686 135.126 215.694 134.856 216.342 134.316C216.99 133.776 217.368 133.056 217.476 132.174ZM215.46 129.582V129.6C215.46 129.618 215.46 129.618 215.46 129.618H210.726C210.834 127.98 211.626 127.152 213.138 127.152C213.948 127.152 214.542 127.386 214.92 127.854C215.28 128.322 215.46 128.898 215.46 129.582ZM223.656 127.332V125.784H221.244V123.48H219.336V125.784L218.022 126.18V127.332H219.336V132.354C219.336 133.434 219.66 134.19 220.344 134.604C221.01 135.018 222.108 135.18 223.656 135.072V133.524C222.702 133.578 222.072 133.506 221.766 133.326C221.442 133.146 221.298 132.822 221.298 132.354V127.332H223.656ZM232.773 132.336C232.773 131.706 232.539 131.184 232.107 130.788C231.675 130.392 231.135 130.104 230.505 129.942C229.875 129.78 229.245 129.636 228.615 129.528C227.985 129.42 227.445 129.258 227.013 129.078C226.581 128.898 226.365 128.646 226.365 128.322C226.365 127.998 226.527 127.71 226.851 127.494C227.175 127.278 227.715 127.152 228.435 127.152C229.227 127.152 229.803 127.314 230.163 127.638C230.505 127.962 230.703 128.448 230.739 129.096H232.539C232.539 126.81 231.189 125.658 228.489 125.658C227.085 125.658 226.077 125.928 225.429 126.432C224.781 126.936 224.457 127.62 224.457 128.484C224.457 129.096 224.673 129.6 225.123 129.96C225.555 130.338 226.095 130.608 226.743 130.752C227.373 130.896 228.003 131.022 228.633 131.13C229.263 131.238 229.803 131.4 230.235 131.598C230.667 131.814 230.883 132.084 230.883 132.444C230.847 132.768 230.667 133.038 230.325 133.254C229.965 133.488 229.425 133.596 228.687 133.596C226.995 133.596 226.167 132.93 226.167 131.562H224.277C224.277 132.75 224.619 133.65 225.339 134.244C226.059 134.838 227.175 135.126 228.723 135.126C230.073 135.126 231.081 134.856 231.765 134.298C232.431 133.758 232.773 133.092 232.773 132.336ZM249.225 123.48H247.101L243.483 133.542L239.901 123.48H237.795L242.241 135H244.671L249.225 123.48ZM257.9 135V129.762C257.9 129.222 257.864 128.772 257.81 128.376C257.756 127.998 257.648 127.62 257.468 127.26C257.288 126.9 257.036 126.594 256.73 126.378C256.424 126.162 256.01 126 255.488 125.856C254.948 125.73 254.318 125.658 253.598 125.658C252.086 125.658 251.024 125.964 250.448 126.558C249.854 127.152 249.566 127.98 249.566 129.042L251.438 129.024C251.438 128.412 251.582 127.962 251.906 127.656C252.23 127.35 252.788 127.188 253.616 127.188C254.48 127.188 255.092 127.368 255.452 127.71C255.794 128.052 255.974 128.574 256.01 129.294L253.112 129.582C251.78 129.726 250.808 129.996 250.196 130.41C249.584 130.842 249.278 131.472 249.278 132.3C249.278 133.236 249.602 133.938 250.268 134.406C250.934 134.892 251.798 135.126 252.842 135.126C253.724 135.126 254.48 134.982 255.128 134.676C255.776 134.388 256.208 134.028 256.46 133.614L256.856 135H257.9ZM256.01 131.04C256.01 131.85 255.758 132.48 255.29 132.93C254.822 133.398 254.156 133.614 253.328 133.614C252.644 133.614 252.14 133.506 251.78 133.272C251.42 133.038 251.258 132.714 251.258 132.282C251.258 131.922 251.402 131.652 251.726 131.454C252.05 131.274 252.608 131.13 253.4 131.04L256.01 130.752V131.04ZM261.749 135V122.274H259.823V135H261.749ZM272.242 135V125.784H270.298V130.896C270.298 131.796 270.136 132.462 269.812 132.876C269.488 133.308 268.858 133.506 267.94 133.506C267.004 133.506 266.374 133.326 266.086 132.93C265.798 132.534 265.654 131.886 265.654 130.986V125.784H263.764V130.842C263.764 131.562 263.8 132.156 263.908 132.624C263.998 133.11 264.178 133.56 264.43 133.956C264.682 134.352 265.06 134.658 265.546 134.838C266.032 135.036 266.644 135.126 267.4 135.126C268.336 135.126 269.074 134.982 269.632 134.694C270.19 134.406 270.568 134.064 270.784 133.668L271.18 135H272.242ZM282.833 132.174H280.817C280.565 133.164 279.845 133.65 278.621 133.65C277.019 133.65 276.173 132.822 276.065 131.148H282.797C282.833 130.554 282.833 129.996 282.779 129.474C282.725 128.952 282.599 128.448 282.419 127.98C282.239 127.512 281.987 127.098 281.663 126.756C281.339 126.432 280.925 126.162 280.421 125.964C279.917 125.766 279.323 125.658 278.675 125.658C275.597 125.658 274.067 127.242 274.067 130.374C274.067 133.542 275.597 135.126 278.693 135.126C280.043 135.126 281.051 134.856 281.699 134.316C282.347 133.776 282.725 133.056 282.833 132.174ZM280.817 129.582V129.6C280.817 129.618 280.817 129.618 280.817 129.618H276.083C276.191 127.98 276.983 127.152 278.495 127.152C279.305 127.152 279.899 127.386 280.277 127.854C280.637 128.322 280.817 128.898 280.817 129.582Z" fill="#00261C"/>
</g>
<defs>
<filter id="filter0_bd_3595_5268" x="0" y="-1" width="837" height="666" filterUnits="userSpaceOnUse" color-interpolation-filters="sRGB">
<feFlood flood-opacity="0" result="BackgroundImageFix"/>
<feGaussianBlur in="BackgroundImageFix" stdDeviation="9.5"/>
<feComposite in2="SourceAlpha" operator="in" result="effect1_backgroundBlur_3595_5268"/>
<feColorMatrix in="SourceAlpha" type="matrix" values="0 0 0 0 0 0 0 0 0 0 0 0 0 0 0 0 0 0 127 0" result="hardAlpha"/>
<feOffset dx="-10" dy="56"/>
<feGaussianBlur stdDeviation="70"/>
<feColorMatrix type="matrix" values="0 0 0 0 0.559028 0 0 0 0 0.607639 0 0 0 0 0.729167 0 0 0 0.2 0"/>
<feBlend mode="multiply" in2="effect1_backgroundBlur_3595_5268" result="effect2_dropShadow_3595_5268"/>
<feBlend mode="normal" in="SourceGraphic" in2="effect2_dropShadow_3595_5268" result="shape"/>
</filter>
<linearGradient id="paint0_linear_3595_5268" x1="439.677" y1="126.676" x2="439.677" y2="383.191" gradientUnits="userSpaceOnUse">
<stop offset="0.171875" stop-color="#18BFEF"/>
<stop offset="0.880208" stop-color="#7976FF" stop-opacity="0"/>
</linearGradient>
<linearGradient id="paint1_linear_3595_5268" x1="435.87" y1="280.5" x2="438.108" y2="443.483" gradientUnits="userSpaceOnUse">
<stop offset="0.113029" stop-color="#5A55D2" stop-opacity="0.24"/>
<stop offset="1" stop-color="#5A55D2" stop-opacity="0"/>
</linearGradient>
</defs>
</svg>
