<svg width="576" height="590" viewBox="0 0 576 590" fill="none" xmlns="http://www.w3.org/2000/svg">
<g clip-path="url(#clip0_2756_48795)">
<path d="M289.926 121.447C385.87 122.029 463.188 198.133 462.622 291.428C462.055 384.724 383.818 459.883 287.874 459.3C191.931 458.717 114.612 382.614 115.179 289.318C115.745 196.023 193.982 120.864 289.926 121.447Z" fill="url(#paint0_linear_2756_48795)"/>
<path d="M369.75 469.962L376.574 482.187L371.667 484.926C370.398 485.634 369.265 485.877 368.27 485.653C367.27 485.448 366.513 484.886 366 483.966C365.571 483.197 365.436 482.463 365.596 481.764C365.75 481.082 366.078 480.494 366.581 480C365.804 480.25 365.033 480.223 364.267 479.917C363.508 479.623 362.923 479.11 362.514 478.376C361.974 477.41 361.878 476.417 362.226 475.399C362.574 474.38 363.388 473.514 364.668 472.799L369.75 469.962ZM371.473 478.3L369.133 479.606C368.504 479.957 368.102 480.372 367.927 480.852C367.752 481.331 367.813 481.839 368.112 482.375C368.398 482.887 368.791 483.194 369.291 483.297C369.786 483.418 370.366 483.293 371.029 482.922L373.334 481.636L371.473 478.3ZM368.529 473.026L366.032 474.42C365.368 474.79 364.94 475.228 364.748 475.732C364.551 476.254 364.608 476.795 364.92 477.354C365.239 477.924 365.681 478.265 366.247 478.377C366.813 478.488 367.423 478.362 368.074 477.998L370.537 476.624L368.529 473.026Z" fill="#3B3B3B"/>
<path d="M353.343 479.16L353.977 494.053L351.317 495.156L341.224 484.186L343.737 483.144L346.013 485.708L351.056 483.616L350.868 480.186L353.343 479.16ZM351.176 485.732L347.425 487.287L351.539 491.881L351.176 485.732Z" fill="#3B3B3B"/>
<path d="M327.433 488.721C328.795 488.343 330.045 488.307 331.182 488.614C332.322 488.934 333.3 489.542 334.116 490.436C334.935 491.344 335.535 492.485 335.916 493.859C336.298 495.234 336.372 496.521 336.137 497.721C335.903 498.921 335.379 499.951 334.567 500.813C333.754 501.675 332.667 502.295 331.305 502.673C329.687 503.122 328.251 503.085 326.999 502.561C325.737 502.053 324.776 501.109 324.116 499.728L326.833 498.974C327.204 499.66 327.722 500.132 328.389 500.39C329.046 500.664 329.824 500.677 330.724 500.427C331.97 500.081 332.829 499.386 333.3 498.342C333.771 497.298 333.802 496.037 333.392 494.56C332.982 493.082 332.306 492.018 331.364 491.366C330.426 490.727 329.333 490.58 328.087 490.926C327.188 491.176 326.522 491.568 326.089 492.103C325.647 492.655 325.439 493.301 325.464 494.041L322.747 494.795C322.619 493.336 322.967 492.07 323.79 490.998C324.6 489.929 325.815 489.17 327.433 488.721Z" fill="#3B3B3B"/>
<path d="M313.813 492.645L315.948 506.481L313.418 506.871L312.555 501.278L308.299 507.661L305.176 508.143L309.427 501.861L302.902 494.329L306.005 493.85L310.947 499.644L312.048 497.996L311.283 493.035L313.813 492.645Z" fill="#3B3B3B"/>
<path d="M279.464 496.064L279.122 508L283.2 508.116L283.141 510.176L272.406 509.868L272.465 507.809L276.563 507.926L276.905 495.991L279.464 496.064Z" fill="#3B3B3B"/>
<path d="M258.472 494.496C259.857 494.703 261.025 495.187 261.976 495.949C262.914 496.709 263.6 497.668 264.034 498.824C264.453 499.992 264.557 501.282 264.347 502.693C264.136 504.104 263.661 505.3 262.921 506.282C262.167 507.274 261.23 507.997 260.11 508.451C258.978 508.902 257.72 509.024 256.335 508.817C254.963 508.613 253.802 508.129 252.851 507.367C251.9 506.605 251.214 505.64 250.796 504.472C250.375 503.318 250.27 502.035 250.48 500.624C250.691 499.213 251.167 498.01 251.908 497.015C252.648 496.033 253.584 495.317 254.716 494.866C255.849 494.415 257.1 494.291 258.472 494.496ZM258.133 496.771C256.814 496.574 255.7 496.853 254.793 497.607C253.871 498.359 253.298 499.494 253.071 501.01C252.845 502.527 253.063 503.779 253.724 504.768C254.372 505.754 255.356 506.346 256.674 506.543C257.993 506.739 259.113 506.462 260.034 505.709C260.955 504.957 261.529 503.823 261.755 502.306C261.982 500.789 261.764 499.537 261.103 498.549C260.441 497.56 259.451 496.968 258.133 496.771Z" fill="#3B3B3B"/>
<path d="M228.485 488.148L224.49 499.4L228.335 500.765L227.646 502.706L217.525 499.113L218.214 497.171L222.078 498.543L226.073 487.291L228.485 488.148Z" fill="#3B3B3B"/>
<path d="M209.143 480.251C210.396 480.876 211.356 481.699 212.024 482.718C212.681 483.732 213.036 484.855 213.09 486.09C213.126 487.33 212.826 488.588 212.188 489.865C211.551 491.141 210.728 492.131 209.721 492.835C208.696 493.545 207.581 493.942 206.376 494.026C205.16 494.104 203.925 493.83 202.673 493.205C201.432 492.585 200.478 491.765 199.81 490.746C199.142 489.727 198.789 488.597 198.753 487.357C198.711 486.128 199.008 484.876 199.646 483.6C200.283 482.323 201.109 481.327 202.122 480.611C203.13 479.907 204.242 479.516 205.458 479.438C206.674 479.36 207.903 479.631 209.143 480.251ZM208.116 482.308C206.923 481.712 205.778 481.632 204.681 482.068C203.572 482.498 202.675 483.399 201.99 484.77C201.305 486.142 201.123 487.4 201.446 488.545C201.756 489.684 202.508 490.551 203.701 491.147C204.894 491.743 206.044 491.826 207.153 491.396C208.262 490.966 209.159 490.066 209.844 488.694C210.53 487.322 210.711 486.064 210.389 484.919C210.066 483.774 209.308 482.904 208.116 482.308Z" fill="#3B3B3B"/>
<path d="M194.613 472.989L186.765 484.582L182.475 481.679C181.547 481.051 180.885 480.377 180.487 479.657C180.089 478.936 179.924 478.205 179.992 477.462C180.06 476.719 180.322 476.011 180.778 475.337C181.211 474.697 181.755 474.203 182.408 473.857C183.054 473.521 183.793 473.393 184.624 473.473C185.448 473.564 186.335 473.931 187.285 474.574L189.454 476.042L192.493 471.554L194.613 472.989ZM188.288 477.765L186.251 476.386C185.511 475.885 184.873 475.686 184.336 475.79C183.781 475.897 183.312 476.232 182.931 476.795C182.542 477.369 182.405 477.928 182.52 478.473C182.616 479.021 183.034 479.545 183.773 480.046L185.811 481.425L188.288 477.765Z" fill="#3B3B3B"/>
<path d="M468.719 211.867L481.061 205.259L483.714 210.213C484.4 211.495 484.622 212.631 484.382 213.622C484.159 214.618 483.583 215.365 482.655 215.862C481.879 216.278 481.143 216.4 480.446 216.228C479.767 216.062 479.185 215.724 478.699 215.212C478.936 215.993 478.895 216.764 478.576 217.524C478.269 218.278 477.745 218.854 477.005 219.25C476.029 219.773 475.035 219.851 474.023 219.486C473.011 219.12 472.158 218.291 471.466 216.998L468.719 211.867ZM477.086 210.291L478.351 212.654C478.69 213.289 479.099 213.698 479.575 213.881C480.051 214.065 480.56 214.012 481.101 213.722C481.618 213.445 481.932 213.058 482.043 212.56C482.173 212.067 482.058 211.486 481.699 210.816L480.453 208.488L477.086 210.291ZM471.761 213.142L473.111 215.664C473.47 216.334 473.899 216.769 474.4 216.97C474.919 217.176 475.46 217.128 476.024 216.826C476.6 216.518 476.949 216.081 477.071 215.517C477.192 214.953 477.076 214.342 476.724 213.684L475.393 211.198L471.761 213.142Z" fill="#3B3B3B"/>
<path d="M477.631 228.431L492.533 228.058L493.59 230.737L482.444 240.636L481.446 238.106L484.049 235.875L482.046 230.796L478.614 230.924L477.631 228.431ZM484.164 230.713L485.653 234.49L490.319 230.457L484.164 230.713Z" fill="#3B3B3B"/>
<path d="M486.735 254.505C486.381 253.137 486.368 251.887 486.695 250.756C487.035 249.621 487.659 248.654 488.568 247.854C489.489 247.051 490.64 246.471 492.022 246.113C493.403 245.756 494.691 245.705 495.887 245.96C497.082 246.216 498.103 246.757 498.951 247.584C499.799 248.412 500.399 249.51 500.753 250.878C501.174 252.504 501.112 253.939 500.566 255.182C500.036 256.435 499.075 257.379 497.683 258.014L496.977 255.284C497.669 254.926 498.15 254.416 498.42 253.754C498.705 253.102 498.731 252.324 498.497 251.42C498.173 250.168 497.494 249.297 496.458 248.808C495.422 248.318 494.162 248.266 492.678 248.65C491.193 249.034 490.117 249.691 489.449 250.621C488.793 251.548 488.628 252.638 488.952 253.89C489.186 254.794 489.566 255.466 490.094 255.908C490.638 256.36 491.28 256.579 492.02 256.567L492.726 259.297C491.266 259.399 490.006 259.03 488.948 258.188C487.894 257.359 487.156 256.131 486.735 254.505Z" fill="#3B3B3B"/>
<path d="M490.419 268.192L504.291 266.299L504.637 268.836L499.029 269.601L505.337 273.968L505.765 277.099L499.558 272.739L491.912 279.131L491.488 276.02L497.367 271.18L495.74 270.05L490.766 270.729L490.419 268.192Z" fill="#3B3B3B"/>
<path d="M493.24 302.598L505.167 303.149L505.355 299.073L507.413 299.168L506.917 309.897L504.859 309.802L505.049 305.706L493.121 305.155L493.24 302.598Z" fill="#3B3B3B"/>
<path d="M491.301 323.559C491.532 322.178 492.037 321.019 492.816 320.081C493.592 319.156 494.562 318.487 495.726 318.074C496.902 317.675 498.193 317.594 499.6 317.829C501.007 318.064 502.195 318.56 503.163 319.317C504.143 320.089 504.849 321.038 505.283 322.165C505.714 323.305 505.814 324.566 505.583 325.947C505.355 327.314 504.851 328.467 504.072 329.405C503.294 330.343 502.317 331.011 501.142 331.409C499.98 331.81 498.695 331.892 497.288 331.657C495.881 331.422 494.687 330.925 493.705 330.166C492.737 329.409 492.037 328.461 491.605 327.321C491.174 326.181 491.073 324.927 491.301 323.559ZM493.57 323.938C493.35 325.253 493.609 326.371 494.348 327.292C495.084 328.227 496.208 328.82 497.72 329.073C499.233 329.326 500.489 329.13 501.488 328.486C502.486 327.855 503.095 326.882 503.315 325.567C503.535 324.252 503.276 323.128 502.54 322.193C501.804 321.259 500.68 320.666 499.168 320.413C497.655 320.16 496.399 320.356 495.4 321C494.4 321.644 493.79 322.623 493.57 323.938Z" fill="#3B3B3B"/>
<path d="M484.43 353.429L495.61 357.621L497.042 353.8L498.971 354.523L495.201 364.58L493.272 363.857L494.711 360.018L483.531 355.826L484.43 353.429Z" fill="#3B3B3B"/>
<path d="M476.196 372.629C476.844 371.388 477.683 370.442 478.714 369.792C479.739 369.153 480.868 368.818 482.103 368.785C483.344 368.771 484.597 369.093 485.862 369.753C487.127 370.413 488.102 371.252 488.789 372.272C489.481 373.31 489.858 374.431 489.921 375.637C489.978 376.855 489.682 378.084 489.035 379.325C488.394 380.555 487.558 381.495 486.527 382.145C485.496 382.795 484.36 383.128 483.119 383.142C481.89 383.163 480.643 382.844 479.378 382.184C478.113 381.524 477.132 380.681 476.434 379.656C475.748 378.636 475.376 377.517 475.319 376.3C475.263 375.082 475.555 373.859 476.196 372.629ZM478.236 373.693C477.619 374.875 477.519 376.018 477.935 377.123C478.346 378.239 479.23 379.152 480.59 379.861C481.95 380.57 483.204 380.773 484.355 380.471C485.499 380.18 486.379 379.444 486.996 378.262C487.612 377.08 487.715 375.93 487.305 374.814C486.895 373.698 486.01 372.785 484.65 372.076C483.291 371.367 482.036 371.164 480.886 371.466C479.736 371.768 478.852 372.511 478.236 373.693Z" fill="#3B3B3B"/>
<path d="M468.679 387.03L480.133 395.079L477.154 399.317C476.51 400.234 475.825 400.885 475.098 401.27C474.371 401.655 473.636 401.807 472.895 401.726C472.153 401.645 471.45 401.371 470.784 400.903C470.152 400.458 469.668 399.906 469.333 399.247C469.008 398.596 468.893 397.855 468.988 397.025C469.093 396.202 469.475 395.322 470.135 394.384L471.641 392.24L467.207 389.124L468.679 387.03ZM473.343 393.436L471.928 395.449C471.415 396.18 471.205 396.815 471.299 397.353C471.396 397.911 471.723 398.385 472.279 398.776C472.847 399.175 473.403 399.321 473.95 399.216C474.499 399.13 475.031 398.721 475.545 397.991L476.959 395.978L473.343 393.436Z" fill="#3B3B3B"/>
<path d="M205.597 120.444L198.774 108.22L203.681 105.48C204.95 104.772 206.082 104.53 207.077 104.753C208.077 104.958 208.834 105.521 209.348 106.44C209.776 107.209 209.911 107.943 209.752 108.642C209.598 109.324 209.27 109.912 208.767 110.406C209.543 110.156 210.315 110.184 211.081 110.489C211.84 110.783 212.425 111.297 212.834 112.03C213.373 112.996 213.469 113.989 213.122 115.007C212.774 116.026 211.96 116.893 210.679 117.608L205.597 120.444ZM203.875 112.106L206.215 110.8C206.844 110.449 207.246 110.034 207.421 109.554C207.596 109.075 207.534 108.567 207.235 108.032C206.949 107.519 206.556 107.212 206.056 107.109C205.561 106.989 204.982 107.113 204.318 107.484L202.013 108.771L203.875 112.106ZM206.819 117.38L209.316 115.986C209.98 115.616 210.408 115.179 210.599 114.674C210.797 114.152 210.739 113.612 210.427 113.053C210.109 112.482 209.667 112.141 209.1 112.03C208.534 111.918 207.925 112.044 207.273 112.408L204.811 113.783L206.819 117.38Z" fill="#3B3B3B"/>
<path d="M222.004 111.246L221.37 96.3531L224.031 95.2498L234.123 106.22L231.611 107.262L229.335 104.699L224.292 106.79L224.48 110.22L222.004 111.246ZM224.172 104.675L227.922 103.119L223.808 98.5248L224.172 104.675Z" fill="#3B3B3B"/>
<path d="M247.914 101.686C246.552 102.064 245.303 102.099 244.166 101.792C243.026 101.472 242.048 100.865 241.232 99.9701C240.413 99.0627 239.813 97.9217 239.431 96.547C239.05 95.1723 238.976 93.8851 239.211 92.6854C239.445 91.4857 239.968 90.4548 240.781 89.5929C241.593 88.7309 242.68 88.111 244.042 87.733C245.661 87.2838 247.097 87.3213 248.349 87.8454C249.611 88.3532 250.572 89.2973 251.231 90.6778L248.514 91.4319C248.144 90.7459 247.626 90.274 246.959 90.0162C246.302 89.742 245.523 89.7297 244.624 89.9792C243.378 90.3251 242.519 91.02 242.048 92.0641C241.576 93.1081 241.546 94.3689 241.956 95.8464C242.366 97.3239 243.042 98.3886 243.984 99.0404C244.922 99.6794 246.014 99.826 247.261 99.4802C248.16 99.2306 248.826 98.8382 249.259 98.3031C249.701 97.7515 249.909 97.1056 249.883 96.3655L252.601 95.6114C252.729 97.0703 252.381 98.336 251.558 99.4085C250.748 100.477 249.533 101.236 247.914 101.686Z" fill="#3B3B3B"/>
<path d="M261.535 97.7616L259.4 83.9254L261.93 83.5349L262.793 89.1287L267.049 82.7448L270.172 82.2628L265.92 88.5448L272.446 96.0776L269.343 96.5566L264.401 90.7626L263.299 92.4099L264.065 97.3711L261.535 97.7616Z" fill="#3B3B3B"/>
<path d="M295.883 94.3418L296.226 82.4067L292.147 82.2898L292.206 80.2306L302.942 80.5384L302.883 82.5976L298.785 82.4801L298.442 94.4152L295.883 94.3418Z" fill="#3B3B3B"/>
<path d="M316.876 95.9103C315.491 95.7037 314.323 95.2193 313.372 94.4573C312.434 93.6972 311.748 92.7387 311.314 91.582C310.895 90.4141 310.791 89.1246 311.001 87.7135C311.212 86.3025 311.687 85.1062 312.426 84.1246C313.181 83.1318 314.118 82.4088 315.237 81.9557C316.37 81.5045 317.628 81.3823 319.013 81.5889C320.384 81.7935 321.546 82.2769 322.497 83.039C323.448 83.801 324.133 84.766 324.552 85.934C324.973 87.0887 325.078 88.3716 324.868 89.7827C324.657 91.1937 324.181 92.3966 323.439 93.3914C322.7 94.373 321.764 95.0894 320.631 95.5405C319.499 95.9917 318.247 96.115 316.876 95.9103ZM317.215 93.6355C318.534 93.8323 319.647 93.5535 320.555 92.7993C321.476 92.047 322.05 90.9126 322.276 89.396C322.503 87.8795 322.285 86.627 321.624 85.6385C320.975 84.6521 319.992 84.0605 318.673 83.8637C317.355 83.6669 316.235 83.9447 315.314 84.697C314.392 85.4493 313.819 86.5837 313.592 88.1002C313.366 89.6168 313.584 90.8692 314.245 91.8577C314.906 92.8461 315.896 93.4387 317.215 93.6355Z" fill="#3B3B3B"/>
<path d="M346.862 102.258L350.857 91.0065L347.013 89.6414L347.702 87.7001L357.823 91.2936L357.134 93.2349L353.27 91.8631L349.275 103.115L346.862 102.258Z" fill="#3B3B3B"/>
<path d="M366.204 110.156C364.952 109.53 363.991 108.707 363.323 107.688C362.667 106.675 362.312 105.551 362.257 104.317C362.221 103.076 362.522 101.818 363.159 100.542C363.797 99.2654 364.619 98.2752 365.627 97.5712C366.652 96.8612 367.767 96.4642 368.971 96.3802C370.188 96.3022 371.422 96.576 372.675 97.2016C373.915 97.8213 374.87 98.6408 375.538 99.6602C376.206 100.68 376.558 101.809 376.595 103.05C376.637 104.278 376.339 105.53 375.702 106.807C375.064 108.083 374.239 109.079 373.225 109.795C372.218 110.499 371.106 110.89 369.89 110.968C368.673 111.046 367.445 110.775 366.204 110.156ZM367.232 108.098C368.425 108.694 369.57 108.774 370.667 108.338C371.776 107.908 372.673 107.008 373.358 105.636C374.043 104.264 374.224 103.006 373.902 101.861C373.591 100.722 372.84 99.855 371.647 99.2592C370.454 98.6634 369.303 98.5804 368.194 99.0102C367.085 99.4399 366.188 100.341 365.503 101.712C364.818 103.084 364.637 104.342 364.959 105.487C365.282 106.632 366.039 107.502 367.232 108.098Z" fill="#3B3B3B"/>
<path d="M380.735 117.417L388.583 105.824L392.873 108.728C393.8 109.355 394.463 110.029 394.861 110.75C395.259 111.47 395.424 112.202 395.356 112.944C395.288 113.687 395.026 114.395 394.57 115.069C394.136 115.709 393.593 116.203 392.939 116.55C392.294 116.885 391.555 117.013 390.723 116.933C389.899 116.842 389.013 116.476 388.063 115.833L385.893 114.364L382.855 118.852L380.735 117.417ZM387.059 112.642L389.097 114.021C389.836 114.521 390.475 114.72 391.012 114.617C391.567 114.51 392.035 114.175 392.417 113.611C392.805 113.037 392.942 112.478 392.828 111.934C392.732 111.386 392.314 110.861 391.574 110.36L389.537 108.981L387.059 112.642Z" fill="#3B3B3B"/>
<path d="M106.629 378.539L94.2867 385.147L91.634 380.193C90.9479 378.912 90.7253 377.775 90.966 376.784C91.1887 375.788 91.7644 375.041 92.693 374.544C93.4688 374.129 94.2051 374.007 94.9018 374.178C95.5805 374.344 96.1626 374.683 96.6482 375.194C96.4116 374.413 96.4527 373.643 96.7715 372.882C97.0785 372.128 97.6022 371.552 98.3428 371.156C99.3184 370.634 100.312 370.555 101.325 370.921C102.337 371.286 103.189 372.115 103.882 373.408L106.629 378.539ZM98.2621 380.115L96.997 377.752C96.6572 377.118 96.2491 376.708 95.7727 376.525C95.2963 376.341 94.7878 376.394 94.2471 376.684C93.7299 376.961 93.4156 377.348 93.3043 377.847C93.1749 378.339 93.2895 378.921 93.6483 379.591L94.8944 381.918L98.2621 380.115ZM103.587 377.264L102.237 374.743C101.878 374.073 101.448 373.637 100.948 373.436C100.429 373.23 99.8874 373.278 99.3232 373.58C98.7472 373.889 98.3985 374.325 98.2771 374.889C98.1557 375.453 98.2712 376.064 98.6236 376.723L99.9547 379.209L103.587 377.264Z" fill="#3B3B3B"/>
<path d="M97.7168 361.975L82.8146 362.348L81.7581 359.669L92.9036 349.77L93.9015 352.301L91.2982 354.531L93.3013 359.61L96.7336 359.482L97.7168 361.975ZM91.184 359.693L89.6945 355.916L85.0287 359.949L91.184 359.693Z" fill="#3B3B3B"/>
<path d="M88.6125 335.901C88.9666 337.27 88.9801 338.519 88.653 339.651C88.3131 340.785 87.6888 341.753 86.7801 342.552C85.8586 343.355 84.7072 343.936 83.326 344.293C81.9449 344.65 80.6566 344.701 79.4612 344.446C78.2657 344.191 77.2442 343.649 76.3966 342.822C75.549 341.995 74.9482 340.897 74.5942 339.528C74.1733 337.902 74.2359 336.467 74.782 335.224C75.3118 333.972 76.2726 333.027 77.6644 332.392L78.3708 335.122C77.6784 335.48 77.1975 335.99 76.9281 336.652C76.6424 337.304 76.6164 338.082 76.8502 338.986C77.1742 340.238 77.854 341.109 78.8896 341.598C79.9253 342.088 81.1853 342.141 82.6698 341.757C84.1542 341.373 85.2306 340.715 85.8988 339.785C86.5542 338.858 86.7198 337.768 86.3959 336.516C86.1621 335.613 85.7814 334.94 85.2539 334.498C84.7101 334.046 84.068 333.827 83.3276 333.839L82.6212 331.109C84.0821 331.007 85.3415 331.376 86.3994 332.218C87.454 333.047 88.1917 334.275 88.6125 335.901Z" fill="#3B3B3B"/>
<path d="M84.9282 322.214L71.0567 324.107L70.7106 321.57L76.3186 320.805L70.0102 316.438L69.583 313.307L75.7896 317.668L83.4355 311.275L83.86 314.386L77.9804 319.226L79.6081 320.356L84.582 319.677L84.9282 322.214Z" fill="#3B3B3B"/>
<path d="M82.1081 287.809L70.1809 287.257L69.9925 291.333L67.9347 291.238L68.4305 280.509L70.4883 280.605L70.299 284.7L82.2263 285.251L82.1081 287.809Z" fill="#3B3B3B"/>
<path d="M84.0462 266.847C83.8154 268.228 83.3107 269.387 82.532 270.325C81.7556 271.25 80.7854 271.919 79.6212 272.333C78.4461 272.731 77.155 272.813 75.7478 272.577C74.3407 272.342 73.1529 271.846 72.1844 271.089C71.205 270.317 70.4985 269.368 70.065 268.241C69.6338 267.101 69.5336 265.841 69.7644 264.46C69.993 263.092 70.4966 261.939 71.2753 261.001C72.0539 260.064 73.0307 259.396 74.2058 258.997C75.3678 258.597 76.6523 258.514 78.0595 258.749C79.4666 258.984 80.661 259.482 81.6426 260.24C82.6111 260.997 83.311 261.946 83.7423 263.086C84.1735 264.226 84.2748 265.479 84.0462 266.847ZM81.7777 266.468C81.9975 265.153 81.7383 264.035 81.0001 263.114C80.264 262.18 79.1398 261.586 77.6275 261.333C76.1151 261.081 74.859 261.276 73.8592 261.92C72.8615 262.551 72.2527 263.524 72.0329 264.839C71.8131 266.154 72.0712 267.279 72.8072 268.213C73.5433 269.147 74.6675 269.74 76.1798 269.993C77.6922 270.246 78.9483 270.05 79.9481 269.407C80.948 268.763 81.5578 267.783 81.7777 266.468Z" fill="#3B3B3B"/>
<path d="M90.9177 236.977L79.7375 232.786L78.3053 236.606L76.3764 235.883L80.1465 225.826L82.0754 226.549L80.6362 230.389L91.8164 234.58L90.9177 236.977Z" fill="#3B3B3B"/>
<path d="M99.1514 217.777C98.504 219.018 97.6648 219.964 96.6339 220.614C95.6091 221.253 94.4792 221.588 93.2442 221.621C92.0035 221.636 90.7507 221.313 89.4857 220.653C88.2208 219.993 87.2452 219.154 86.5589 218.134C85.867 217.097 85.4896 215.975 85.4267 214.769C85.37 213.552 85.6654 212.322 86.3128 211.081C86.9541 209.851 87.7901 208.911 88.8211 208.261C89.852 207.611 90.9878 207.278 92.2285 207.264C93.4574 207.243 94.7043 207.563 95.9692 208.222C97.2342 208.882 98.2157 209.725 98.9138 210.751C99.6001 211.77 99.9716 212.889 100.028 214.107C100.085 215.324 99.7927 216.548 99.1514 217.777ZM97.1121 216.713C97.7287 215.531 97.8288 214.388 97.4124 213.283C97.0021 212.167 96.1172 211.255 94.7576 210.545C93.3981 209.836 92.1432 209.633 90.993 209.935C89.849 210.226 88.9687 210.962 88.3521 212.144C87.7355 213.327 87.6323 214.476 88.0426 215.592C88.4529 216.708 89.3378 217.621 90.6973 218.33C92.0569 219.039 93.3117 219.243 94.4619 218.94C95.6121 218.638 96.4955 217.896 97.1121 216.713Z" fill="#3B3B3B"/>
<path d="M106.669 203.377L95.2148 195.327L98.1932 191.089C98.8372 190.172 99.5227 189.522 100.25 189.136C100.977 188.751 101.711 188.599 102.453 188.68C103.194 188.761 103.898 189.035 104.563 189.503C105.196 189.948 105.68 190.5 106.015 191.159C106.339 191.811 106.454 192.551 106.36 193.381C106.255 194.204 105.872 195.084 105.213 196.022L103.707 198.166L108.141 201.282L106.669 203.377ZM102.005 196.97L103.419 194.957C103.933 194.226 104.143 193.591 104.049 193.053C103.951 192.495 103.625 192.021 103.068 191.63C102.501 191.232 101.944 191.085 101.398 191.19C100.848 191.276 100.317 191.685 99.803 192.416L98.3885 194.428L102.005 196.97Z" fill="#3B3B3B"/>
</g>
<defs>
<linearGradient id="paint0_linear_2756_48795" x1="55.606" y1="-77.0495" x2="-205.096" y2="460.33" gradientUnits="userSpaceOnUse">
<stop stop-color="#01A0FF"/>
<stop offset="1" stop-color="#0123F7"/>
</linearGradient>
<clipPath id="clip0_2756_48795">
<rect width="576" height="590" fill="white"/>
</clipPath>
</defs>
</svg>