<svg width="16" height="22" viewBox="0 0 16 22" fill="none" xmlns="http://www.w3.org/2000/svg">
<path d="M13.325 10.34C13.82 9.60669 14.095 8.745 14.095 7.79167C14.095 5.35333 11.95 3.20833 9.51167 3.20833H8.00834V1.375C8.00834 0.623333 7.38501 0 6.63334 0C5.88167 0 5.25834 0.623333 5.25834 1.375V3.20833H1.5C0.748333 3.20833 0.125 3.83167 0.125 4.58333V11V17.4167C0.125 18.1683 0.748333 18.7917 1.5 18.7917H5.25834V20.625C5.25834 21.3767 5.88167 22 6.63334 22C7.38501 22 8.00834 21.3767 8.00834 20.625V18.7917H10.6667C13.4533 18.7917 15.7083 16.7383 15.7083 14.2083C15.7083 12.5767 14.755 11.1467 13.325 10.34ZM2.875 5.95833H9.51167C10.52 5.95833 11.345 6.96667 11.345 7.79167C11.345 8.8 10.52 9.625 9.51167 9.625H2.875V5.95833ZM10.6667 16.0417H2.875V12.375H9.51167H10.6667C11.9317 12.375 12.9583 13.2 12.9583 14.2083C12.9583 15.2167 11.9317 16.0417 10.6667 16.0417Z" fill="#292D32"/>
</svg>