<svg width="45" height="45" viewBox="0 0 45 45" fill="none" xmlns="http://www.w3.org/2000/svg">
<path opacity="0.4" d="M22.5 41.25C32.8553 41.25 41.25 32.8553 41.25 22.5C41.25 12.1447 32.8553 3.75 22.5 3.75C12.1447 3.75 3.75 12.1447 3.75 22.5C3.75 32.8553 12.1447 41.25 22.5 41.25Z" fill="#8ABEFE"/>
<path d="M30.9187 21.7687C31.6312 20.85 32.0812 19.6875 32.0812 18.4312C32.0812 15.525 29.5312 12.9562 26.6062 12.9562H24.9562V10.3125C24.9562 9.54375 24.3187 8.90625 23.55 8.90625C22.7812 8.90625 22.1438 9.54375 22.1438 10.3125V12.975H20.3062H19.875V10.3125C19.875 9.54375 19.2375 8.90625 18.4688 8.90625C17.7 8.90625 17.1 9.54375 17.1 10.3125V12.975H16.4625H13.2187C12.45 12.975 11.8125 13.6125 11.8125 14.3813C11.8125 15.15 12.45 15.7875 13.2187 15.7875H15.0562V22.5V29.2125H13.2187C12.45 29.2125 11.8125 29.85 11.8125 30.6187C11.8125 31.3875 12.45 32.025 13.2187 32.025H16.4625H17.0812V34.6875C17.0812 35.4562 17.7187 36.0938 18.4875 36.0938C19.2562 36.0938 19.8937 35.4562 19.8937 34.6875V32.025H20.325H22.1625V34.6875C22.1625 35.4562 22.8 36.0938 23.5687 36.0938C24.3375 36.0938 24.975 35.4562 24.975 34.6875V32.025H28.0687C31.4062 32.025 34.125 29.5688 34.125 26.55C34.125 24.4875 32.8125 22.6875 30.9187 21.7687ZM20.325 15.7875H26.625C28.125 15.7875 29.2875 17.2125 29.2875 18.45C29.2875 19.9125 28.0875 21.1125 26.625 21.1125H17.8687V15.7875H20.325ZM28.0687 29.2125H20.325H17.8687V23.9062H26.625H28.0687C29.85 23.9062 31.3125 25.1063 31.3125 26.5688C31.3125 28.0312 29.85 29.2125 28.0687 29.2125Z" fill="url(#paint0_linear_3595_1066)"/>
<defs>
<linearGradient id="paint0_linear_3595_1066" x1="7.98704" y1="-7.06641" x2="-15.7248" y2="31.9392" gradientUnits="userSpaceOnUse">
<stop stop-color="#01A0FF"/>
<stop offset="1" stop-color="#0123F7"/>
</linearGradient>
</defs>
</svg>
