<svg width="167" height="52" viewBox="0 0 167 52" fill="none" xmlns="http://www.w3.org/2000/svg">
<g clip-path="url(#clip0_2882_54171)">
<path d="M127.266 46.1563L131.731 44.7547V7.79458L127.266 9.19616V46.1563ZM75.7701 23.7311C78.5733 23.7311 81.1689 24.9769 82.83 27.0533L84.6469 22.8486C82.259 20.5645 79.0924 19.4744 75.7701 19.4744C68.0872 19.4744 62.7922 25.5479 62.8441 32.2443C62.896 39.5118 68.6063 45.4296 75.7701 45.4296C79.4039 45.4296 82.1552 44.3395 84.2316 42.8341V37.6949C82.0514 39.8752 78.8848 41.1729 76.1335 41.1729C71.9805 41.1729 67.3085 37.7988 67.3085 32.2443C67.3085 27.1052 71.3576 23.7311 75.7701 23.7311ZM105.463 19.4744C97.7805 19.4744 93.3161 25.5479 93.3161 32.2443C93.3161 39.5118 99.0783 45.4296 106.242 45.4296C109.876 45.4296 112.627 44.3395 114.704 42.8341V37.6949C112.523 39.8752 109.357 41.1729 106.605 41.1729C102.92 41.1729 98.8707 38.8889 98.0401 34.0612H117.611V32.3482C117.611 25.1845 112.887 19.4744 105.463 19.4744ZM153.689 19.4744C146.525 19.4744 140.711 25.2884 140.711 32.452C140.711 39.6156 146.525 45.4296 153.689 45.4296C160.853 45.4296 166.667 39.6156 166.667 32.452C166.667 25.2884 160.853 19.4744 153.689 19.4744ZM105.515 23.7311C108.993 23.7311 112.679 25.9113 112.991 30.116H98.0401C98.3515 25.9113 102.037 23.7311 105.515 23.7311ZM153.689 41.1729C151.964 41.1729 150.278 40.6614 148.844 39.7032C147.41 38.7449 146.292 37.3829 145.632 35.7893C144.972 34.1958 144.799 32.4423 145.136 30.7506C145.472 29.0589 146.303 27.505 147.522 26.2854C148.742 25.0657 150.296 24.2351 151.988 23.8986C153.679 23.5621 155.433 23.7348 157.027 24.3949C158.62 25.055 159.982 26.1727 160.94 27.6069C161.899 29.041 162.41 30.7271 162.41 32.452C162.412 33.5978 162.188 34.7327 161.75 35.7916C161.313 36.8505 160.67 37.8127 159.86 38.6229C159.05 39.4331 158.088 40.0754 157.029 40.513C155.97 40.9506 154.835 41.1748 153.689 41.1729Z" fill="#111111"/>
<path d="M20.0137 46.7272C27.898 46.7272 34.2893 40.336 34.2893 32.4519C34.2893 24.5677 27.898 18.1765 20.0137 18.1765C12.1294 18.1765 5.73802 24.5677 5.73802 32.4519C5.73802 40.336 12.1294 46.7272 20.0137 46.7272ZM20.0137 51.9182C9.2628 51.9182 0.546875 43.2025 0.546875 32.4519C0.546875 21.7012 9.2628 12.9855 20.0137 12.9855C30.7645 12.9855 39.4804 21.7012 39.4804 32.4519C39.4804 43.2025 30.7645 51.9182 20.0137 51.9182Z" fill="#FBCC5C"/>
<path d="M30.3965 36.3455C38.2808 36.3455 44.6721 29.9543 44.6721 22.0701C44.6721 14.186 38.2808 7.79479 30.3965 7.79479C22.5122 7.79479 16.1208 14.186 16.1208 22.0701C16.1208 29.9543 22.5122 36.3455 30.3965 36.3455ZM30.3965 41.5365C19.6456 41.5365 10.9297 32.8208 10.9297 22.0701C10.9297 11.3195 19.6456 2.60375 30.3965 2.60375C41.1473 2.60375 49.8633 11.3195 49.8633 22.0701C49.8633 32.8208 41.1473 41.5365 30.3965 41.5365Z" fill="#35D07F"/>
<path d="M31.0368 41.5261C32.386 39.8914 33.3529 37.976 33.867 35.9198C35.9232 35.4058 37.8387 34.439 39.4735 33.0901C39.3989 35.4709 38.8861 37.8175 37.9608 40.0124C35.7656 40.9382 33.4186 41.4514 31.0374 41.5261H31.0368ZM16.5478 18.6015C14.4917 19.1155 12.5762 20.0822 10.9414 21.4311C11.0159 19.0503 11.5287 16.7037 12.4541 14.5088C14.6493 13.5834 16.9964 13.0706 19.3775 12.9962C18.0288 14.6307 17.062 16.5457 16.5478 18.6015Z" fill="#5EA33B"/>
</g>
<defs>
<clipPath id="clip0_2882_54171">
<rect width="165.789" height="51.4777" fill="white" transform="translate(0.714844 0.22439)"/>
</clipPath>
</defs>
</svg>
