<svg width="20" height="21" viewBox="0 0 20 21" fill="none" xmlns="http://www.w3.org/2000/svg">
<path d="M13.3327 11.2493V14.7494C13.3327 17.666 12.166 18.8327 9.24935 18.8327H5.74935C2.83268 18.8327 1.66602 17.666 1.66602 14.7494V11.2493C1.66602 8.33268 2.83268 7.16602 5.74935 7.16602H9.24935C12.166 7.16602 13.3327 8.33268 13.3327 11.2493Z" stroke="#292D32" stroke-width="1.5" stroke-linecap="round" stroke-linejoin="round"/>
<path d="M18.3327 6.24935V9.74935C18.3327 12.666 17.166 13.8327 14.2494 13.8327H13.3327V11.2493C13.3327 8.33268 12.166 7.16602 9.24935 7.16602H6.66602V6.24935C6.66602 3.33268 7.83268 2.16602 10.7493 2.16602H14.2494C17.166 2.16602 18.3327 3.33268 18.3327 6.24935Z" stroke="#292D32" stroke-width="1.5" stroke-linecap="round" stroke-linejoin="round"/>
</svg>
