<svg width="21" height="16" viewBox="0 0 21 16" fill="none" xmlns="http://www.w3.org/2000/svg">
<path d="M17.7323 1.50947C16.4096 0.912934 14.9917 0.472018 13.509 0.221301C13.4958 0.218766 13.4821 0.220399 13.4699 0.225975C13.4577 0.231552 13.4475 0.240795 13.4407 0.252424C13.2592 0.57144 13.0569 0.987285 12.9151 1.31581C11.3426 1.08086 9.74386 1.08086 8.17134 1.31581C8.01341 0.951718 7.83533 0.596706 7.63791 0.252424C7.63122 0.240651 7.6211 0.231199 7.6089 0.225329C7.59669 0.219459 7.58299 0.217451 7.56962 0.219571C6.08779 0.470289 4.66994 0.911205 3.34633 1.5086C3.33494 1.51338 3.32529 1.52153 3.31866 1.53195C0.628209 5.48723 -0.109246 9.34481 0.252997 13.154C0.254005 13.1633 0.256901 13.1723 0.261509 13.1805C0.266116 13.1887 0.272339 13.1958 0.279798 13.2015C1.85015 14.3448 3.60166 15.2158 5.461 15.7779C5.47396 15.7819 5.48782 15.7818 5.50078 15.7778C5.51373 15.7738 5.52518 15.766 5.53362 15.7554C5.93372 15.2203 6.28828 14.6526 6.59355 14.0583C6.59778 14.0502 6.60023 14.0412 6.60071 14.0321C6.60119 14.0229 6.5997 14.0138 6.59634 14.0053C6.59298 13.9967 6.58782 13.989 6.58123 13.9827C6.57463 13.9763 6.56674 13.9714 6.5581 13.9684C5.99961 13.7581 5.45848 13.5043 4.93968 13.2093C4.93036 13.204 4.9225 13.1964 4.91682 13.1873C4.91113 13.1782 4.9078 13.1679 4.90711 13.1571C4.90643 13.1464 4.90841 13.1357 4.91289 13.126C4.91737 13.1162 4.92419 13.1077 4.93276 13.1012C5.04169 13.0208 5.15063 12.937 5.25437 12.8531C5.26371 12.8456 5.27496 12.8408 5.28687 12.8393C5.29877 12.8377 5.31087 12.8395 5.32181 12.8445C8.71686 14.3695 12.3938 14.3695 15.749 12.8445C15.76 12.8392 15.7722 12.8372 15.7843 12.8386C15.7964 12.8399 15.8078 12.8447 15.8173 12.8523C15.9211 12.937 16.0292 13.0208 16.139 13.1012C16.1476 13.1076 16.1545 13.116 16.1592 13.1256C16.1638 13.1353 16.1659 13.146 16.1654 13.1567C16.1649 13.1674 16.1617 13.1778 16.1562 13.187C16.1507 13.1962 16.143 13.2038 16.1338 13.2093C15.6168 13.5067 15.079 13.7583 14.5145 13.9675C14.5058 13.9707 14.4979 13.9756 14.4913 13.9821C14.4847 13.9885 14.4796 13.9963 14.4762 14.0049C14.4729 14.0135 14.4714 14.0227 14.4719 14.0319C14.4723 14.0411 14.4748 14.0501 14.479 14.0583C14.7903 14.6522 15.1465 15.2176 15.5381 15.7545C15.5462 15.7655 15.5576 15.7738 15.5706 15.7781C15.5836 15.7824 15.5976 15.7827 15.6107 15.7787C17.4732 15.2182 19.2276 14.3469 20.7997 13.2015C20.8074 13.1962 20.8138 13.1892 20.8186 13.1812C20.8233 13.1731 20.8263 13.1642 20.8274 13.1548C21.2596 8.75087 20.1029 4.92441 17.7591 1.53368C17.7534 1.52266 17.7438 1.51407 17.7323 1.50947ZM7.10103 10.8344C6.07915 10.8344 5.23622 9.91022 5.23622 8.77681C5.23622 7.64253 6.06272 6.7192 7.10103 6.7192C8.14713 6.7192 8.98228 7.65031 8.96585 8.77681C8.96585 9.91109 8.13935 10.8344 7.10103 10.8344V10.8344ZM13.9958 10.8344C12.973 10.8344 12.1309 9.91022 12.1309 8.77681C12.1309 7.64253 12.9566 6.7192 13.9958 6.7192C15.0419 6.7192 15.877 7.65031 15.8606 8.77681C15.8606 9.91109 15.0427 10.8344 13.9958 10.8344V10.8344Z" fill="#0171FD"/>
</svg>
