<svg width="28" height="29" viewBox="0 0 28 29" fill="none" xmlns="http://www.w3.org/2000/svg">
<path d="M0.563115 18.7327C-0.21427 16.0754 -0.186193 13.2472 0.643793 10.6057C1.47378 7.96433 3.0684 5.62832 5.22602 3.89312C7.38364 2.15792 10.0074 1.10144 12.7654 0.857283C15.5235 0.613124 18.292 1.19225 20.7209 2.52143C23.1498 3.8506 25.1301 5.87014 26.4112 8.32467C27.6923 10.7792 28.2169 13.5585 27.9184 16.3111C27.62 19.0637 26.512 21.666 24.7346 23.789C22.9572 25.9119 20.5902 27.4602 17.9328 28.238C16.1682 28.7551 14.3189 28.9193 12.4908 28.7214C10.6626 28.5235 8.89132 27.9673 7.27822 27.0846C5.66511 26.2019 4.24178 25.0099 3.08957 23.5768C1.93735 22.1438 1.07885 20.4977 0.563115 18.7327Z" fill="#3C3C3C"/>
<path d="M13.7296 18.2069L19.1491 15.7961L14.0769 6.23655L8.46271 15.4861L13.7296 18.2069Z" fill="white"/>
<path d="M14.0769 6.23655L13.9466 18.2133L8.4627 15.4861L14.0769 6.23655Z" fill="#E7E9EE"/>
<path d="M13.9155 24.2345L19.5524 16.6629L13.9155 19.1812L8.44443 16.344L13.9155 24.2345Z" fill="white"/>
<path d="M13.8773 13.0765L19.1497 15.7945L13.7303 18.2052L8.46334 15.4844L13.8773 13.0765Z" fill="#AEAEAE" fill-opacity="0.7"/>
<path d="M8.46334 15.4844L13.8773 13.0765L13.7302 18.2052L8.46334 15.4844Z" fill="#939393"/>
<path d="M8.43066 16.3613L13.9018 19.1985L13.9018 24.2347L8.43066 16.3613Z" fill="#E7E9EE"/>
</svg>
