<svg width="20" height="20" viewBox="0 0 20 20" fill="none" xmlns="http://www.w3.org/2000/svg">
<path fill-rule="evenodd" clip-rule="evenodd" d="M10.0679 0.236816C4.67321 0.236816 0.303711 4.6058 0.303711 9.99991C0.303711 14.3201 3.09872 17.969 6.98001 19.2626C7.46822 19.3481 7.6513 19.0552 7.6513 18.7989C7.6513 18.567 7.6391 17.7982 7.6391 16.9805C5.18583 17.4321 4.55115 16.3825 4.35587 15.8334C4.24602 15.5527 3.77002 14.6862 3.35504 14.4543C3.01329 14.2713 2.52508 13.8197 3.34283 13.8075C4.11176 13.7953 4.661 14.5153 4.84408 14.8082C5.72286 16.2849 7.12647 15.87 7.68792 15.6137C7.77335 14.9791 8.02966 14.5519 8.31039 14.3079C6.13784 14.0638 3.86766 13.2217 3.86766 9.48735C3.86766 8.42561 4.24602 7.54693 4.86849 6.86351C4.77085 6.61944 4.4291 5.61872 4.96614 4.2763C4.96614 4.2763 5.78389 4.02001 7.6513 5.27701C8.43244 5.05734 9.2624 4.94751 10.0924 4.94751C10.9223 4.94751 11.7523 5.05734 12.5334 5.27701C14.4008 4.00781 15.2186 4.2763 15.2186 4.2763C15.7556 5.61872 15.4139 6.61944 15.3162 6.86351C15.9387 7.54693 16.3171 8.41341 16.3171 9.48735C16.3171 13.2339 14.0347 14.0638 11.8621 14.3079C12.2161 14.613 12.5212 15.1988 12.5212 16.114C12.5212 17.4199 12.509 18.4694 12.509 18.7989C12.509 19.0552 12.6921 19.3603 13.1803 19.2626C15.1186 18.6083 16.803 17.3626 17.9962 15.701C19.1895 14.0394 19.8316 12.0455 19.8322 9.99991C19.8322 4.6058 15.4627 0.236816 10.0679 0.236816Z" fill="#8ABEFE"/>
</svg>
