<svg width="60" height="60" viewBox="0 0 60 60" fill="none" xmlns="http://www.w3.org/2000/svg">
<path d="M39.5976 55.0001H20.3976C9.92256 55.0001 7.84756 48.6751 11.2476 40.9751L14.8476 32.8001C14.8476 32.8001 22.4976 32.5001 29.9976 35.0001C37.4976 37.5001 44.5726 32.7751 44.5726 32.7751L45.0476 32.4751L48.7726 41.0001C52.1226 48.7001 49.9226 55.0001 39.5976 55.0001Z" fill="#8ABEFE"/>
<path d="M38.6008 16.85H38.2008L43.5258 29L42.5008 29.65C42.4508 29.675 36.8008 33.3 31.1758 31.45C25.3008 29.475 19.4008 29.125 16.5008 29.075L21.8508 16.85H21.1008C19.4758 16.85 17.9758 16.2 16.9008 15.125C15.8258 14.05 15.1758 12.55 15.1758 10.925C15.1758 7.675 17.8258 5 21.1008 5H38.8758C40.5258 5 42.0008 5.675 43.0758 6.75C44.4758 8.15 45.2008 10.2 44.6508 12.375C44.0008 15.075 41.4008 16.85 38.6008 16.85Z" fill="url(#paint0_linear_3449_2220)"/>
<defs>
<linearGradient id="paint0_linear_3449_2220" x1="10.0907" y1="-10.8482" x2="-9.85393" y2="33.1058" gradientUnits="userSpaceOnUse">
<stop stop-color="#01A0FF"/>
<stop offset="1" stop-color="#0123F7"/>
</linearGradient>
</defs>
</svg>
