<svg width="60" height="60" viewBox="0 0 60 60" fill="none" xmlns="http://www.w3.org/2000/svg">
<path opacity="0.4" d="M50.075 17.0502L35.7 6.97521C31.775 4.22521 25.775 4.37521 22 7.30021L9.475 17.0752C6.95 19.0252 5 23.0252 5 26.1752V43.4252C5 49.8002 10.175 55.0002 16.525 55.0002H43.45C49.8 55.0002 54.975 49.8252 54.975 43.4502V26.5002C55 23.1252 52.825 18.9752 50.075 17.0502Z" fill="#8ABEFE"/>
<path d="M33.5023 21.2754H26.5023C21.7023 21.2754 17.7773 25.1754 17.7773 30.0004V36.9754C17.7773 41.7754 21.7023 45.7004 26.5023 45.7004H33.4773C38.2773 45.7004 42.2023 41.8004 42.2023 36.9754V30.0004C42.2023 25.2004 38.3023 21.2754 33.5023 21.2754ZM38.7273 30.0004V31.7504H31.7523V24.7754H33.5023C36.3773 24.7754 38.7273 27.1254 38.7273 30.0004ZM26.5023 24.7754H28.2523V31.7504H21.2773V30.0004C21.2773 27.1254 23.6273 24.7754 26.5023 24.7754ZM21.2773 36.9754V35.2254H28.2523V42.2004H26.5023C23.6273 42.2004 21.2773 39.8504 21.2773 36.9754ZM33.5023 42.2004H31.7523V35.2254H38.7273V36.9754C38.7273 39.8504 36.3773 42.2004 33.5023 42.2004Z" fill="url(#paint0_linear_3449_846)"/>
<defs>
<linearGradient id="paint0_linear_3449_846" x1="13.5897" y1="6.9257" x2="-5.58194" y2="45.3532" gradientUnits="userSpaceOnUse">
<stop stop-color="#01A0FF"/>
<stop offset="1" stop-color="#0123F7"/>
</linearGradient>
</defs>
</svg>
