<svg width="228" height="44" viewBox="0 0 228 44" fill="none" xmlns="http://www.w3.org/2000/svg">
<path d="M200.222 22.1481C199.055 21.3782 197.769 20.8307 196.552 20.1464C195.762 19.7015 194.921 19.3079 194.236 18.7433C193.068 17.7853 193.309 15.9033 194.527 15.082C196.277 13.9186 199.175 14.5687 199.484 16.9469C199.484 16.9982 199.536 17.0325 199.587 17.0325H202.229C202.298 17.0325 202.349 16.9811 202.332 16.9127C202.195 15.2702 201.56 13.9015 200.394 13.0289C199.278 12.1905 198.009 11.7457 196.653 11.7457C189.672 11.7457 189.037 19.1198 192.794 21.4467C193.223 21.7204 196.911 23.5682 198.215 24.3723C199.518 25.1764 199.93 26.6479 199.364 27.8113C198.849 28.8721 197.512 29.6078 196.174 29.5222C194.715 29.4367 193.583 28.6497 193.189 27.4178C193.12 27.1954 193.086 26.7676 193.086 26.5795C193.086 26.5281 193.034 26.4768 192.983 26.4768H190.119C190.067 26.4768 190.016 26.5281 190.016 26.5795C190.016 28.6497 190.531 29.796 191.937 30.8397C193.257 31.832 194.698 32.2426 196.191 32.2426C200.102 32.2426 202.126 30.0355 202.537 27.7429C202.897 25.5015 202.229 23.4826 200.222 22.1481Z" fill="#070707"/>
<path d="M75.8452 12.1222H74.5759H73.1865C73.135 12.1222 73.1007 12.1564 73.0835 12.1907L70.7336 19.9241C70.6993 20.0268 70.5621 20.0268 70.5277 19.9241L68.1777 12.1907C68.1605 12.1393 68.1262 12.1222 68.0747 12.1222H66.6854H65.416H63.7006C63.6492 12.1222 63.5977 12.1736 63.5977 12.2249V31.9691C63.5977 32.0203 63.6492 32.0717 63.7006 32.0717H66.5652C66.6167 32.0717 66.6682 32.0203 66.6682 31.9691V16.9641C66.6682 16.8444 66.8398 16.8273 66.8741 16.9299L69.2412 24.7147L69.4127 25.2622C69.4298 25.3135 69.4642 25.3307 69.5157 25.3307H71.7113C71.7627 25.3307 71.797 25.2964 71.8142 25.2622L71.9857 24.7147L74.3529 16.9299C74.3873 16.8102 74.5588 16.8444 74.5588 16.9641V31.9691C74.5588 32.0203 74.6103 32.0717 74.6616 32.0717H77.5264C77.5777 32.0717 77.6292 32.0203 77.6292 31.9691V12.2249C77.6292 12.1736 77.5777 12.1222 77.5264 12.1222H75.8452Z" fill="#070707"/>
<path d="M156.361 12.1222C156.309 12.1222 156.275 12.1564 156.258 12.1906L153.909 19.924C153.874 20.0268 153.737 20.0268 153.703 19.924L151.352 12.1906C151.335 12.1393 151.301 12.1222 151.249 12.1222H146.892C146.841 12.1222 146.789 12.1735 146.789 12.2249V31.9691C146.789 32.0203 146.841 32.0717 146.892 32.0717H149.757C149.809 32.0717 149.86 32.0203 149.86 31.9691V16.9641C149.86 16.8444 150.032 16.8273 150.066 16.9299L152.432 24.7147L152.604 25.2621C152.621 25.3135 152.656 25.3307 152.707 25.3307H154.903C154.954 25.3307 154.989 25.2963 155.006 25.2621L155.178 24.7147L157.545 16.9299C157.579 16.8102 157.751 16.8444 157.751 16.9641V31.9691C157.751 32.0203 157.802 32.0717 157.854 32.0717H160.718C160.769 32.0717 160.821 32.0203 160.821 31.9691V12.2249C160.821 12.1735 160.769 12.1222 160.718 12.1222H156.361Z" fill="#070707"/>
<path d="M119.414 12.1222H114.08H111.215H105.88C105.829 12.1222 105.777 12.1736 105.777 12.2249V14.6886C105.777 14.7399 105.829 14.7913 105.88 14.7913H111.112V31.9691C111.112 32.0203 111.163 32.0717 111.215 32.0717H114.08C114.131 32.0717 114.183 32.0203 114.183 31.9691V14.7913H119.414C119.466 14.7913 119.517 14.7399 119.517 14.6886V12.2249C119.517 12.1736 119.483 12.1222 119.414 12.1222Z" fill="#070707"/>
<path d="M136.312 32.0714H138.918C138.987 32.0714 139.039 32.003 139.021 31.9346L133.635 12.1219C133.618 12.0706 133.584 12.0535 133.532 12.0535H132.538H130.788H129.793C129.742 12.0535 129.707 12.0877 129.69 12.1219L124.304 31.9346C124.287 32.003 124.338 32.0714 124.407 32.0714H127.014C127.066 32.0714 127.1 32.0372 127.117 32.003L128.678 26.2371C128.695 26.1858 128.73 26.1687 128.781 26.1687H134.545C134.597 26.1687 134.631 26.2029 134.648 26.2371L136.209 32.003C136.226 32.0372 136.278 32.0714 136.312 32.0714ZM129.467 23.3457L131.56 15.6293C131.594 15.5267 131.732 15.5267 131.766 15.6293L133.859 23.3457C133.876 23.4141 133.824 23.4825 133.756 23.4825H129.57C129.502 23.4825 129.45 23.4141 129.467 23.3457Z" fill="#070707"/>
<path d="M180.773 32.0714H183.379C183.448 32.0714 183.499 32.003 183.482 31.9346L178.096 12.1219C178.079 12.0706 178.045 12.0535 177.993 12.0535H176.999H175.25H174.254C174.202 12.0535 174.168 12.0877 174.151 12.1219L168.765 31.9346C168.748 32.003 168.799 32.0714 168.868 32.0714H171.476C171.527 32.0714 171.562 32.0372 171.579 32.003L173.14 26.2371C173.157 26.1858 173.191 26.1687 173.242 26.1687H179.006C179.058 26.1687 179.092 26.2029 179.109 26.2371L180.67 32.003C180.687 32.0372 180.721 32.0714 180.773 32.0714ZM173.928 23.3457L176.021 15.6293C176.055 15.5267 176.192 15.5267 176.227 15.6293L178.319 23.3457C178.337 23.4141 178.285 23.4825 178.216 23.4825H174.031C173.962 23.4825 173.911 23.4141 173.928 23.3457Z" fill="#070707"/>
<path d="M89.2579 29.1459V23.0208C89.2579 22.9695 89.3094 22.9182 89.3609 22.9182H96.9941C97.0456 22.9182 97.0971 22.8668 97.0971 22.8155V20.3517C97.0971 20.3005 97.0456 20.2491 96.9941 20.2491H89.3609C89.3094 20.2491 89.2579 20.1978 89.2579 20.1464V14.911C89.2579 14.8597 89.3094 14.8083 89.3609 14.8083H98.0405C98.092 14.8083 98.1435 14.757 98.1435 14.7057V12.242C98.1435 12.1906 98.092 12.1393 98.0405 12.1393H89.2579H86.2905C86.239 12.1393 86.1875 12.1906 86.1875 12.242V14.8083V20.2662V22.9353V29.2657V31.9689C86.1875 32.0203 86.239 32.0717 86.2905 32.0717H89.2579H98.4007C98.4522 32.0717 98.5037 32.0203 98.5037 31.9689V29.3684C98.5037 29.3171 98.4522 29.2657 98.4007 29.2657H89.3438C89.2923 29.2487 89.2579 29.2143 89.2579 29.1459Z" fill="#070707"/>
<path d="M226.397 31.9006L216.482 21.6863C216.448 21.6521 216.448 21.5837 216.482 21.5495L225.403 12.3104C225.472 12.242 225.42 12.1393 225.334 12.1393H221.681C221.646 12.1393 221.629 12.1564 221.612 12.1735L214.048 20.0096C213.979 20.078 213.876 20.0266 213.876 19.9411V12.242C213.876 12.1906 213.824 12.1393 213.773 12.1393H210.908C210.856 12.1393 210.805 12.1906 210.805 12.242V31.9861C210.805 32.0375 210.856 32.0888 210.908 32.0888H213.773C213.824 32.0888 213.876 32.0375 213.876 31.9861V23.2946C213.876 23.2091 213.996 23.1577 214.048 23.2261L222.624 32.0545C222.641 32.0717 222.675 32.0888 222.692 32.0888H226.346C226.414 32.0717 226.466 31.9519 226.397 31.9006Z" fill="#070707"/>
<path d="M44.0258 1.49717L26.6836 14.3292L29.9085 6.76685L44.0258 1.49717Z" fill="#E17726" stroke="#E17726" stroke-width="0.189256" stroke-linecap="round" stroke-linejoin="round"/>
<path d="M4.02344 1.49717L21.2112 14.4489L18.1408 6.76684L4.02344 1.49717Z" fill="#E27625" stroke="#E27625" stroke-width="0.189256" stroke-linecap="round" stroke-linejoin="round"/>
<path d="M37.7783 31.2501L33.1641 38.2992L43.0444 41.0196L45.8748 31.4042L37.7783 31.2501Z" fill="#E27625" stroke="#E27625" stroke-width="0.189256" stroke-linecap="round" stroke-linejoin="round"/>
<path d="M2.18359 31.4042L4.99674 41.0196L14.86 38.2992L10.2629 31.2501L2.18359 31.4042Z" fill="#E27625" stroke="#E27625" stroke-width="0.189256" stroke-linecap="round" stroke-linejoin="round"/>
<path d="M14.3304 19.3421L11.5859 23.4826L21.3634 23.9275L21.0375 13.4053L14.3304 19.3421Z" fill="#E27625" stroke="#E27625" stroke-width="0.189256" stroke-linecap="round" stroke-linejoin="round"/>
<path d="M33.7164 19.3423L26.9066 13.2856L26.6836 23.9276L36.461 23.4828L33.7164 19.3423Z" fill="#E27625" stroke="#E27625" stroke-width="0.189256" stroke-linecap="round" stroke-linejoin="round"/>
<path d="M14.8633 38.2992L20.7812 35.442L15.6867 31.4726L14.8633 38.2992Z" fill="#E27625" stroke="#E27625" stroke-width="0.189256" stroke-linecap="round" stroke-linejoin="round"/>
<path d="M27.2656 35.442L33.1663 38.2992L32.3601 31.4726L27.2656 35.442Z" fill="#E27625" stroke="#E27625" stroke-width="0.189256" stroke-linecap="round" stroke-linejoin="round"/>
<path d="M33.1663 38.2994L27.2656 35.4422L27.7459 39.2746L27.6944 40.9L33.1663 38.2994Z" fill="#D5BFB2" stroke="#D5BFB2" stroke-width="0.189256" stroke-linecap="round" stroke-linejoin="round"/>
<path d="M14.8633 38.2994L20.3524 40.9L20.3181 39.2746L20.7812 35.4422L14.8633 38.2994Z" fill="#D5BFB2" stroke="#D5BFB2" stroke-width="0.189256" stroke-linecap="round" stroke-linejoin="round"/>
<path d="M20.4567 28.9405L15.5508 27.5034L19.0158 25.9122L20.4567 28.9405Z" fill="#233447" stroke="#233447" stroke-width="0.189256" stroke-linecap="round" stroke-linejoin="round"/>
<path d="M27.5898 28.9405L29.0308 25.9122L32.5129 27.5034L27.5898 28.9405Z" fill="#233447" stroke="#233447" stroke-width="0.189256" stroke-linecap="round" stroke-linejoin="round"/>
<path d="M14.8627 38.2992L15.7204 31.2501L10.2656 31.4042L14.8627 38.2992Z" fill="#CC6228" stroke="#CC6228" stroke-width="0.189256" stroke-linecap="round" stroke-linejoin="round"/>
<path d="M32.3242 31.2501L33.1648 38.2992L37.779 31.4042L32.3242 31.2501Z" fill="#CC6228" stroke="#CC6228" stroke-width="0.189256" stroke-linecap="round" stroke-linejoin="round"/>
<path d="M36.461 23.4825L26.6836 23.9273L27.5927 28.9404L29.0336 25.912L32.5158 27.5032L36.461 23.4825Z" fill="#CC6228" stroke="#CC6228" stroke-width="0.189256" stroke-linecap="round" stroke-linejoin="round"/>
<path d="M15.5484 27.5032L19.0133 25.912L20.4543 28.9404L21.3634 23.9273L11.5859 23.4825L15.5484 27.5032Z" fill="#CC6228" stroke="#CC6228" stroke-width="0.189256" stroke-linecap="round" stroke-linejoin="round"/>
<path d="M11.5859 23.4825L15.6856 31.4726L15.5483 27.5032L11.5859 23.4825Z" fill="#E27525" stroke="#E27525" stroke-width="0.189256" stroke-linecap="round" stroke-linejoin="round"/>
<path d="M32.5176 27.5032L32.3633 31.4726L36.463 23.4825L32.5176 27.5032Z" fill="#E27525" stroke="#E27525" stroke-width="0.189256" stroke-linecap="round" stroke-linejoin="round"/>
<path d="M21.3623 23.9273L20.4531 28.9405L21.6024 34.8602L21.8597 27.0584L21.3623 23.9273Z" fill="#E27525" stroke="#E27525" stroke-width="0.189256" stroke-linecap="round" stroke-linejoin="round"/>
<path d="M26.6835 23.9273L26.2031 27.0414L26.4433 34.8602L27.5926 28.9405L26.6835 23.9273Z" fill="#E27525" stroke="#E27525" stroke-width="0.189256" stroke-linecap="round" stroke-linejoin="round"/>
<path d="M27.5907 28.9406L26.4414 34.8603L27.2648 35.4421L32.3594 31.4727L32.5138 27.5034L27.5907 28.9406Z" fill="#F5841F" stroke="#F5841F" stroke-width="0.189256" stroke-linecap="round" stroke-linejoin="round"/>
<path d="M15.5508 27.5034L15.6881 31.4727L20.7826 35.4421L21.606 34.8603L20.4567 28.9406L15.5508 27.5034Z" fill="#F5841F" stroke="#F5841F" stroke-width="0.189256" stroke-linecap="round" stroke-linejoin="round"/>
<path d="M27.6941 40.8999L27.7454 39.2745L27.2995 38.8981H20.747L20.3181 39.2745L20.3524 40.8999L14.8633 38.2993L16.7845 39.8733L20.6783 42.5595H27.3509L31.2619 39.8733L33.1659 38.2993L27.6941 40.8999Z" fill="#C0AC9D" stroke="#C0AC9D" stroke-width="0.189256" stroke-linecap="round" stroke-linejoin="round"/>
<path d="M27.2635 35.442L26.4401 34.8603H21.6029L20.7796 35.442L20.3164 39.2745L20.7453 38.8981H27.2979L27.7439 39.2745L27.2635 35.442Z" fill="#070707" stroke="#070707" stroke-width="0.189256" stroke-linecap="round" stroke-linejoin="round"/>
<path d="M44.762 15.1675L46.2201 8.08425L44.0245 1.49716L27.2656 13.9015L33.7152 19.3422L42.8237 21.9942L44.8307 19.6502L43.9559 19.0171L45.3452 17.7511L44.2818 16.9298L45.6712 15.869L44.762 15.1675Z" fill="#763E1A" stroke="#763E1A" stroke-width="0.189256" stroke-linecap="round" stroke-linejoin="round"/>
<path d="M1.82812 8.08426L3.30332 15.1675L2.35989 15.869L3.76646 16.9298L2.70295 17.7511L4.09238 19.0171L3.21755 19.6502L5.22451 21.9942L14.333 19.3422L20.7826 13.9015L4.02377 1.49717L1.82812 8.08426Z" fill="#763E1A" stroke="#763E1A" stroke-width="0.189256" stroke-linecap="round" stroke-linejoin="round"/>
<path d="M42.8269 21.994L33.7184 19.3421L36.463 23.4826L32.3633 31.4726L37.7838 31.4042H45.8802L42.8269 21.994Z" fill="#F5841F" stroke="#F5841F" stroke-width="0.189256" stroke-linecap="round" stroke-linejoin="round"/>
<path d="M14.3282 19.3421L5.21975 21.994L2.18359 31.4042H10.2629L15.6833 31.4726L11.5837 23.4826L14.3282 19.3421Z" fill="#F5841F" stroke="#F5841F" stroke-width="0.189256" stroke-linecap="round" stroke-linejoin="round"/>
<path d="M26.683 23.9275L27.2663 13.9013L29.9078 6.76679H18.1406L20.7822 13.9013L21.3654 23.9275L21.5884 27.0755L21.6056 34.8603H26.4429L26.46 27.0755L26.683 23.9275Z" fill="#F5841F" stroke="#F5841F" stroke-width="0.189256" stroke-linecap="round" stroke-linejoin="round"/>
</svg>
