<svg width="48" height="28" viewBox="0 0 48 28" fill="none" xmlns="http://www.w3.org/2000/svg">
<rect width="48" height="28" rx="14" fill="#8ABEFE"/>
<rect x="4" y="4" width="20" height="20" rx="10" fill="white"/>
<path d="M13.9987 18.6667C16.576 18.6667 18.6654 16.5774 18.6654 14C18.6654 11.4227 16.576 9.33337 13.9987 9.33337C11.4214 9.33337 9.33203 11.4227 9.33203 14C9.33203 16.5774 11.4214 18.6667 13.9987 18.6667Z" fill="url(#paint0_linear_4278_2715)"/>
<path d="M14.0013 21.3066C13.6346 21.3066 13.3346 21.0333 13.3346 20.6666V20.6133C13.3346 20.2466 13.6346 19.9466 14.0013 19.9466C14.368 19.9466 14.668 20.2466 14.668 20.6133C14.668 20.98 14.368 21.3066 14.0013 21.3066ZM18.7613 19.4266C18.588 19.4266 18.4213 19.36 18.288 19.2333L18.2013 19.1466C17.9413 18.8866 17.9413 18.4666 18.2013 18.2066C18.4613 17.9466 18.8813 17.9466 19.1413 18.2066L19.228 18.2933C19.488 18.5533 19.488 18.9733 19.228 19.2333C19.1013 19.36 18.9346 19.4266 18.7613 19.4266ZM9.2413 19.4266C9.06797 19.4266 8.9013 19.36 8.76797 19.2333C8.50797 18.9733 8.50797 18.5533 8.76797 18.2933L8.85464 18.2066C9.11464 17.9466 9.53464 17.9466 9.79464 18.2066C10.0546 18.4666 10.0546 18.8866 9.79464 19.1466L9.70797 19.2333C9.5813 19.36 9.40797 19.4266 9.2413 19.4266ZM20.668 14.6666H20.6146C20.248 14.6666 19.948 14.3666 19.948 14C19.948 13.6333 20.248 13.3333 20.6146 13.3333C20.9813 13.3333 21.308 13.6333 21.308 14C21.308 14.3666 21.0346 14.6666 20.668 14.6666ZM7.38797 14.6666H7.33464C6.96797 14.6666 6.66797 14.3666 6.66797 14C6.66797 13.6333 6.96797 13.3333 7.33464 13.3333C7.7013 13.3333 8.02797 13.6333 8.02797 14C8.02797 14.3666 7.75464 14.6666 7.38797 14.6666ZM18.6746 9.99329C18.5013 9.99329 18.3346 9.92663 18.2013 9.79996C17.9413 9.53996 17.9413 9.11996 18.2013 8.85996L18.288 8.77329C18.548 8.51329 18.968 8.51329 19.228 8.77329C19.488 9.03329 19.488 9.45329 19.228 9.71329L19.1413 9.79996C19.0146 9.92663 18.848 9.99329 18.6746 9.99329ZM9.32797 9.99329C9.15464 9.99329 8.98797 9.92663 8.85464 9.79996L8.76797 9.70663C8.50797 9.44663 8.50797 9.02663 8.76797 8.76663C9.02797 8.50663 9.44797 8.50663 9.70797 8.76663L9.79464 8.85329C10.0546 9.11329 10.0546 9.53329 9.79464 9.79329C9.66797 9.92663 9.49464 9.99329 9.32797 9.99329ZM14.0013 8.02663C13.6346 8.02663 13.3346 7.75329 13.3346 7.38663V7.33329C13.3346 6.96663 13.6346 6.66663 14.0013 6.66663C14.368 6.66663 14.668 6.96663 14.668 7.33329C14.668 7.69996 14.368 8.02663 14.0013 8.02663Z" fill="url(#paint1_linear_4278_2715)"/>
<defs>
<linearGradient id="paint0_linear_4278_2715" x1="8.11464" y1="12.3769" x2="13.3782" y2="22.425" gradientUnits="userSpaceOnUse">
<stop stop-color="#0171FD"/>
<stop offset="1" stop-color="#1AE52D"/>
</linearGradient>
<linearGradient id="paint1_linear_4278_2715" x1="4.7584" y1="11.4405" x2="13.0147" y2="27.2018" gradientUnits="userSpaceOnUse">
<stop stop-color="#0171FD"/>
<stop offset="1" stop-color="#1AE52D"/>
</linearGradient>
</defs>
</svg>