<svg width="158" height="33" viewBox="0 0 158 33" fill="none" xmlns="http://www.w3.org/2000/svg">
<path d="M27.8325 10.2061C27.4885 10.0138 27.101 9.91282 26.7069 9.91282C26.3128 9.91282 25.9253 10.0138 25.5813 10.2061L20.4162 13.2026L16.9069 15.1569L11.7421 18.1534C11.3981 18.3455 11.0105 18.4464 10.6165 18.4464C10.2224 18.4464 9.83492 18.3455 9.49086 18.1534L5.3853 15.8083C5.05126 15.6167 4.77225 15.3422 4.57521 15.0113C4.37816 14.6804 4.26974 14.3042 4.2604 13.9192V9.29412C4.25578 8.90616 4.35838 8.52445 4.55687 8.19111C4.75536 7.85776 5.04205 7.58573 5.3853 7.40501L9.42455 5.12505C9.76861 4.9329 10.1561 4.83202 10.5502 4.83202C10.9442 4.83202 11.3317 4.9329 11.6758 5.12505L15.7151 7.40501C16.0491 7.59661 16.3281 7.87112 16.5252 8.20203C16.7222 8.53294 16.8306 8.90908 16.84 9.29412V12.2906L20.3493 10.2712V7.27473C20.3539 6.88677 20.2513 6.50506 20.0529 6.17171C19.8544 5.83837 19.5677 5.56634 19.2244 5.38562L11.7421 1.08656C11.3981 0.894411 11.0105 0.793533 10.6165 0.793533C10.2224 0.793533 9.83492 0.894411 9.49086 1.08656L1.87504 5.38592C1.53184 5.56661 1.24518 5.8386 1.04669 6.17188C0.848201 6.50517 0.745582 6.88682 0.75015 7.27473V15.9386C0.745527 16.3265 0.84812 16.7082 1.04661 17.0416C1.24511 17.3749 1.53179 17.647 1.87504 17.8277L9.48997 22.127C9.83403 22.3192 10.2215 22.4201 10.6156 22.4201C11.0097 22.4201 11.3972 22.3192 11.7412 22.127L16.906 19.1957L20.4153 17.1763L25.5804 14.2449C25.9244 14.0526 26.3119 13.9516 26.706 13.9516C27.1001 13.9516 27.4876 14.0526 27.8316 14.2449L31.8709 16.5249C32.2049 16.7165 32.4839 16.991 32.6809 17.3219C32.878 17.6528 32.9864 18.0289 32.9958 18.414V23.039C33.0004 23.427 32.8978 23.8087 32.6993 24.142C32.5008 24.4754 32.2141 24.7474 31.8709 24.9281L27.8316 27.2732C27.4876 27.4654 27.1001 27.5663 26.706 27.5663C26.3119 27.5663 25.9244 27.4654 25.5804 27.2732L21.5411 24.9933C21.2071 24.8017 20.9281 24.5271 20.7311 24.1962C20.534 23.8653 20.4256 23.4892 20.4162 23.1042V20.1074L16.9069 22.1267V25.1233C16.9022 25.5112 17.0048 25.8929 17.2033 26.2263C17.4018 26.5596 17.6885 26.8317 18.0317 27.0124L25.6467 31.3117C25.9907 31.5039 26.3782 31.6048 26.7723 31.6048C27.1664 31.6048 27.5539 31.5039 27.8979 31.3117L35.5129 27.0124C35.8469 26.8207 36.1259 26.5462 36.3229 26.2153C36.52 25.8844 36.6284 25.5083 36.6378 25.1233V16.4597C36.6424 16.0717 36.5398 15.69 36.3413 15.3567C36.1428 15.0233 35.8561 14.7513 35.5129 14.5706L27.8325 10.2061Z" fill="#8247E5"/>
<path d="M54.0746 9.27693C55.2752 9.25856 56.4554 9.58838 57.4727 10.2265C58.5022 10.8934 59.3224 11.8377 59.8388 12.9506C60.4447 14.2652 60.7412 15.7013 60.7055 17.1484C60.7382 18.5905 60.4418 20.0211 59.8388 21.3314C59.3254 22.45 58.5048 23.3996 57.4727 24.0697C56.4554 24.7079 55.2752 25.0377 54.0746 25.0193C53.01 25.0484 51.9595 24.7709 51.0481 24.2198C50.2205 23.7068 49.5755 22.9461 49.2047 22.0456V32.1455H44.5V9.47028H49.2047V12.2498C49.5758 11.3496 50.2208 10.5891 51.0484 10.0764C51.9597 9.52542 53.0101 9.24793 54.0746 9.27693ZM52.5613 13.4054C52.1075 13.3906 51.6557 13.4725 51.2359 13.6456C50.8161 13.8188 50.438 14.0793 50.1265 14.4098C49.4936 15.0794 49.1772 15.9922 49.1772 17.1481C49.1271 18.1451 49.4677 19.1224 50.1265 19.8722C50.4358 20.2065 50.8132 20.4704 51.2333 20.6462C51.6533 20.822 52.1062 20.9055 52.5613 20.8911C53.0144 20.9098 53.4662 20.831 53.8863 20.6601C54.3063 20.4892 54.6848 20.2301 54.9961 19.9004C55.6109 19.2399 55.9182 18.3225 55.9182 17.1484C55.9182 15.9743 55.611 15.057 54.9964 14.3965C54.6851 14.0666 54.3066 13.8075 53.8865 13.6365C53.4664 13.4655 53.0145 13.3867 52.5613 13.4054ZM70.3352 9.27693C71.7543 9.25278 73.1574 9.57893 74.4203 10.2265C75.609 10.8472 76.593 11.7981 77.2542 12.9648C77.9636 14.2427 78.3197 15.6866 78.2858 17.1478C78.3203 18.6091 77.9647 20.0532 77.2557 21.3314C76.5945 22.4982 75.6105 23.4491 74.4218 24.0697C73.1589 24.7173 71.7557 25.0435 70.3367 25.0193C68.9131 25.0425 67.5055 24.7164 66.2371 24.0697C65.0426 23.4523 64.0532 22.5009 63.3893 21.3314C62.6794 20.0537 62.3227 18.6098 62.3562 17.1484C62.3223 15.6872 62.6784 14.2433 63.3878 12.9654C64.0517 11.7959 65.0411 10.8445 66.2356 10.2271C67.504 9.58019 68.9116 9.25395 70.3352 9.27693ZM70.3352 13.3501C69.9092 13.3422 69.4863 13.4253 69.0949 13.5938C68.7035 13.7623 68.3525 14.0123 68.0653 14.3272C67.4508 14.9786 67.1435 15.9189 67.1435 17.1481C67.1435 18.3773 67.4508 19.313 68.0653 19.9551C68.3546 20.2664 68.7063 20.5131 69.0975 20.6791C69.4886 20.845 69.9104 20.9266 70.3352 20.9183C70.7581 20.9275 71.1781 20.8463 71.5671 20.6802C71.9561 20.5141 72.3053 20.2669 72.5912 19.9551C73.1965 19.313 73.4991 18.3773 73.4991 17.1481C73.4991 15.9189 73.1965 14.9786 72.5912 14.3272C72.3073 14.012 71.9588 13.7616 71.5696 13.5931C71.1803 13.4246 70.7593 13.3413 70.3352 13.3501ZM85.4401 0.496719V24.8266H80.7351V0.497311L85.4401 0.496719ZM92.236 9.46851L95.9227 18.8821L99.3619 9.46999H104.562L94.9875 32.147H89.8148L93.4186 24.2486L86.981 9.47028L92.236 9.46851ZM111.963 9.27693C113.028 9.24787 114.078 9.52537 114.99 10.0764C115.82 10.5933 116.473 11.352 116.86 12.2507V9.47117H121.538V24.7439C121.558 26.0787 121.276 27.4008 120.712 28.6107C120.162 29.7569 119.28 30.7111 118.181 31.349C117.043 32.0279 115.631 32.3673 113.944 32.3673C111.633 32.3673 109.785 31.8215 108.4 30.7299C107.014 29.6368 106.118 28.0384 105.91 26.2854H110.56C110.689 26.8848 111.05 27.4088 111.564 27.744C112.18 28.1178 112.893 28.2998 113.613 28.2669C114.477 28.3064 115.322 28.0049 115.966 27.4275C116.562 26.8679 116.86 25.9734 116.86 24.7442V22.0471C116.473 22.9457 115.82 23.7044 114.989 24.2213C114.078 24.7724 113.027 25.0499 111.963 25.0208C110.762 25.0392 109.582 24.7093 108.565 24.0712C107.533 23.4011 106.712 22.4514 106.199 21.3329C105.596 20.0226 105.299 18.592 105.332 17.1499C105.296 15.7031 105.593 14.2673 106.199 12.953C106.715 11.8401 107.535 10.8958 108.565 10.2289C109.582 9.58986 110.762 9.25921 111.963 9.27693ZM113.476 13.4051C113.023 13.3864 112.571 13.4652 112.151 13.6361C111.731 13.807 111.353 14.0661 111.041 14.3959C110.427 15.0564 110.12 15.9737 110.12 17.1478C110.12 18.322 110.427 19.2393 111.041 19.8998C111.353 20.2295 111.731 20.4886 112.151 20.6595C112.571 20.8305 113.023 20.9092 113.476 20.8905C113.931 20.905 114.384 20.8215 114.804 20.6459C115.224 20.4702 115.602 20.2064 115.911 19.8722C116.57 19.1224 116.911 18.1451 116.86 17.1481C116.86 15.9924 116.544 15.0796 115.911 14.4098C115.6 14.0793 115.221 13.8188 114.802 13.6456C114.382 13.4725 113.93 13.3903 113.476 13.4051ZM131.965 9.27693C133.384 9.25278 134.788 9.57893 136.051 10.2265C137.239 10.8472 138.223 11.7981 138.884 12.9648C139.594 14.2427 139.95 15.6866 139.916 17.1478C139.95 18.6092 139.594 20.0533 138.885 21.3314C138.224 22.4982 137.24 23.4491 136.051 24.0697C134.788 24.7173 133.385 25.0435 131.966 25.0193C130.542 25.0425 129.135 24.7165 127.866 24.0697C126.672 23.4523 125.682 22.5009 125.019 21.3314C124.309 20.0536 123.953 18.6097 123.987 17.1484C123.953 15.6872 124.309 14.2433 125.019 12.9654C125.682 11.7959 126.672 10.8445 127.866 10.2271C129.135 9.58028 130.542 9.25405 131.965 9.27693ZM131.965 13.3501C131.539 13.3422 131.117 13.4253 130.725 13.5938C130.334 13.7623 129.983 14.0123 129.695 14.3272C129.081 14.9786 128.774 15.9189 128.774 17.1481C128.774 18.3773 129.081 19.313 129.695 19.9551C129.985 20.2664 130.337 20.5131 130.728 20.6791C131.119 20.845 131.541 20.9266 131.965 20.9183C132.388 20.9275 132.808 20.8463 133.197 20.6802C133.586 20.5141 133.935 20.2669 134.221 19.9551C134.827 19.313 135.129 18.3773 135.129 17.1481C135.129 15.9189 134.827 14.9786 134.221 14.3272C133.937 14.012 133.589 13.7616 133.2 13.5931C132.81 13.4246 132.389 13.3413 131.965 13.3501ZM152.105 9.30506C153.866 9.30506 155.265 9.89213 156.301 11.0663C157.338 12.2404 157.856 13.8548 157.856 15.9095V24.8266H153.151V16.4603C153.151 15.4338 152.88 14.6311 152.339 14.0521C152.062 13.762 151.725 13.5345 151.352 13.385C150.98 13.2355 150.579 13.1673 150.178 13.1851C149.757 13.1648 149.336 13.2353 148.944 13.392C148.553 13.5487 148.199 13.7879 147.908 14.0933C147.35 14.6989 147.07 15.5609 147.07 16.6794V24.8266H142.366V9.47028H147.07V12.2773C147.497 11.3744 148.182 10.618 149.037 10.103C149.966 9.55578 151.028 9.27936 152.105 9.30506Z" fill="black"/>
</svg>
