<svg width="12" height="10" viewBox="0 0 12 10" fill="none" xmlns="http://www.w3.org/2000/svg">
<path d="M11.5617 6.62422L8.93672 9.24922C8.8531 9.33008 8.74132 9.37528 8.625 9.37528C8.50868 9.37528 8.39691 9.33008 8.31328 9.24922C8.23113 9.16627 8.18504 9.05425 8.18504 8.9375C8.18504 8.82076 8.23113 8.70873 8.31328 8.62578L10.1945 6.75H6C4.49247 6.74711 3.04751 6.14696 1.98152 5.08098C0.915536 4.01499 0.315391 2.57003 0.3125 1.0625C0.3125 0.946468 0.358594 0.835188 0.440641 0.753141C0.522688 0.671094 0.633968 0.625 0.75 0.625C0.866032 0.625 0.977312 0.671094 1.05936 0.753141C1.14141 0.835188 1.1875 0.946468 1.1875 1.0625C1.18895 2.33841 1.69644 3.56165 2.59865 4.46385C3.50085 5.36606 4.72409 5.87355 6 5.875H10.1945L8.31328 3.99922C8.24352 3.91421 8.20786 3.8063 8.21326 3.69646C8.21865 3.58663 8.26471 3.48273 8.34247 3.40497C8.42023 3.32721 8.52413 3.28115 8.63396 3.27576C8.7438 3.27036 8.85172 3.30602 8.93672 3.37578L11.5617 6.00078C11.6439 6.08373 11.69 6.19575 11.69 6.3125C11.69 6.42925 11.6439 6.54127 11.5617 6.62422Z" fill="#848B8C"/>
</svg>
