<svg width="292" height="72" viewBox="0 0 292 72" fill="none" xmlns="http://www.w3.org/2000/svg">
<path d="M29.8784 70.621L28.9237 70.047C22.7434 66.2945 17.5234 61.1103 13.6894 54.9171C9.85539 48.724 7.51609 41.6974 6.86229 34.4104V34.3545C6.73734 32.8813 6.36248 23.026 6.36248 21.8983L6.3125 20.5063L29.8034 11.8702L54.054 21.0702L53.0044 32.9575C52.5728 40.5101 50.326 47.8399 46.4607 54.3051C42.5954 60.7702 37.2296 66.1736 30.833 70.0419L29.8784 70.621ZM10.6108 34.0802C11.1962 40.5687 13.2374 46.8344 16.5776 52.3958C19.9177 57.9571 24.4679 62.6661 29.8784 66.1608C35.4932 62.5496 40.1799 57.6297 43.5499 51.8093C46.9199 45.989 48.8759 39.4358 49.2559 32.6934V32.6375L50.0556 23.6407L29.7634 15.9698L10.146 23.1581C10.281 26.7751 10.5259 33.0795 10.6158 34.0294L10.6108 34.0802Z" fill="#434343"/>
<path d="M58.4554 46.572L57.9206 46.2621L45.2955 38.9418C46.1636 35.8435 46.0957 32.5515 45.1006 29.4929L57.5957 21.7712L58.0955 21.4511C58.8169 20.9157 59.3207 20.1304 59.5117 19.2435C59.7028 18.3566 59.568 17.4292 59.1328 16.6363C58.6976 15.8434 57.992 15.2398 57.149 14.9392C56.3061 14.6386 55.3841 14.6619 54.5569 15.0046L53.5573 15.6091L41.247 23.2292C39.1808 21.1467 36.5848 19.6902 33.7499 19.0229V3.70145C33.7034 2.80668 33.3406 1.95906 32.7283 1.31451C32.1159 0.669951 31.2952 0.2718 30.417 0.193299C29.5388 0.114797 28.6623 0.361223 27.9486 0.88724C27.235 1.41326 26.7322 2.18349 26.5327 3.05628V19.0635C23.5881 19.7897 20.9142 21.3692 18.8357 23.6102L5.96071 16.1425L5.46091 15.8478C4.6486 15.4634 3.7257 15.3952 2.86726 15.6564C2.00881 15.9176 1.27452 16.4899 0.803655 17.2648C0.332786 18.0397 0.158086 18.9633 0.312684 19.8604C0.467282 20.7575 0.940426 21.5658 1.64238 22.1319L2.59701 22.6907L15.2121 29.9806C14.3225 33.0223 14.3469 36.2647 15.2821 39.2923L2.92189 46.9378L1.97226 47.5271C1.28163 48.1122 0.827189 48.9354 0.695668 49.8394C0.564148 50.7435 0.764762 51.6651 1.25922 52.4283C1.75367 53.1916 2.50734 53.7431 3.37637 53.9775C4.24541 54.212 5.16894 54.1129 5.97071 53.6993L6.4955 53.3691L18.9907 45.6271C21.043 47.7783 23.6527 49.2948 26.5177 50.001V65.7797C26.6822 66.6916 27.1759 67.5081 27.9019 68.0693C28.628 68.6304 29.5341 68.8956 30.4426 68.813C31.3511 68.7303 32.1965 68.3057 32.8129 67.6224C33.4294 66.9391 33.7725 66.0464 33.7749 65.1193V50.0468C36.8179 49.3244 39.5785 47.6931 41.7019 45.3629L54.0821 52.5411L55.0817 53.11C55.9175 53.4316 56.8403 53.4312 57.6758 53.1087C58.5114 52.7861 59.2019 52.1639 59.617 51.3595C60.0321 50.555 60.1431 49.6239 59.9291 48.7419C59.7151 47.8599 59.1909 47.0881 58.4554 46.572ZM30.2313 45.1089C28.1569 45.1019 26.1311 44.4703 24.4096 43.2938C22.6882 42.1173 21.3484 40.4487 20.5593 38.4988C19.7703 36.5488 19.5674 34.4049 19.9763 32.3379C20.3853 30.2708 21.3876 28.3733 22.8569 26.8849C24.3262 25.3965 26.1964 24.3839 28.2315 23.9752C30.2665 23.5664 32.3751 23.7798 34.291 24.5882C36.2068 25.3967 37.844 26.7641 38.9957 28.5177C40.1475 30.2712 40.7622 32.3324 40.7622 34.4408C40.753 37.2735 39.6394 39.9869 37.6655 41.9865C35.6915 43.9861 33.0182 45.109 30.2313 45.1089Z" fill="url(#paint0_linear_794_7621)"/>
<path d="M291.729 52.5208C291.697 52.6984 291.638 52.8698 291.554 53.0288C291.474 53.1797 291.365 53.3128 291.234 53.42C291.086 53.5388 290.916 53.6253 290.734 53.674C290.5 53.7404 290.257 53.7728 290.014 53.7705C289.771 53.7732 289.529 53.7407 289.295 53.674C289.113 53.6232 288.944 53.5369 288.795 53.42C288.662 53.3141 288.553 53.1808 288.475 53.0288C288.392 52.8694 288.333 52.6981 288.3 52.5208C288.267 52.333 288.25 52.1426 288.25 51.9519C288.25 50.753 288.84 50.1535 290.019 50.1535C290.314 50.1452 290.607 50.1934 290.884 50.2958C291.099 50.3715 291.289 50.5092 291.429 50.692C291.556 50.8576 291.65 51.0476 291.704 51.2508C291.76 51.48 291.787 51.7156 291.784 51.9519C291.782 52.1428 291.763 52.3332 291.729 52.5208ZM291.284 51.3829C291.244 51.2222 291.174 51.0706 291.079 50.9358C290.969 50.7968 290.824 50.6913 290.659 50.631C290.451 50.5549 290.231 50.5188 290.009 50.5244C289.788 50.5178 289.567 50.5558 289.36 50.6361C289.195 50.695 289.051 50.8009 288.945 50.9409C288.844 51.0731 288.773 51.2255 288.735 51.388C288.688 51.5721 288.666 51.7618 288.67 51.9519C288.667 52.1433 288.687 52.3344 288.73 52.5208C288.772 52.6828 288.845 52.8348 288.945 52.9679C289.05 53.1109 289.194 53.2188 289.36 53.2777C289.569 53.3499 289.789 53.3843 290.009 53.3793C290.23 53.3839 290.45 53.3495 290.659 53.2777C290.825 53.2175 290.971 53.11 291.079 52.9679C291.176 52.8342 291.246 52.6822 291.284 52.5208C291.331 52.3351 291.353 52.1436 291.349 51.9519C291.352 51.7601 291.331 51.5687 291.284 51.3829ZM290.634 52.7291C290.553 52.8042 290.457 52.8614 290.353 52.8973C290.249 52.9331 290.139 52.9468 290.029 52.9374C289.902 52.9503 289.774 52.9332 289.654 52.8874C289.534 52.8416 289.427 52.7683 289.34 52.6732C289.192 52.4713 289.118 52.2235 289.13 51.9722C289.117 51.7176 289.191 51.4664 289.34 51.261C289.424 51.1648 289.53 51.0903 289.648 51.0436C289.766 50.9968 289.893 50.979 290.019 50.9917C290.13 50.9841 290.241 50.9991 290.345 51.0357C290.45 51.0724 290.547 51.13 290.629 51.2051C290.7 51.2864 290.755 51.3812 290.79 51.4841C290.825 51.5869 290.84 51.6958 290.834 51.8045H290.464C290.467 51.68 290.424 51.5588 290.344 51.4642C290.303 51.4264 290.255 51.3974 290.202 51.3791C290.15 51.3607 290.095 51.3534 290.039 51.3575C289.714 51.3575 289.54 51.5607 289.54 51.9569C289.54 52.3532 289.699 52.5665 290.039 52.5665C290.15 52.5739 290.259 52.5375 290.344 52.4649C290.422 52.3729 290.464 52.2558 290.464 52.1347H290.859C290.863 52.2442 290.846 52.3533 290.807 52.4556C290.768 52.5578 290.709 52.6509 290.634 52.7291Z" fill="#434343"/>
<path d="M103.388 46.5772C102.816 48.0247 101.919 49.3167 100.769 50.3503C99.6198 51.3838 98.2488 52.1305 96.7654 52.531C94.5665 53.2015 92.2782 53.5186 89.983 53.4708C84.4951 53.4708 80.5267 52.3447 78.0776 50.0925C75.6286 47.8404 74.3657 44.6095 74.2891 40.3998H80.2867C80.4733 45.6086 83.6521 48.2129 89.8231 48.2129C95.4209 48.2129 98.2181 46.4773 98.2148 43.0059C98.2221 42.3806 98.0704 41.764 97.7744 41.2158C97.4785 40.6675 97.0483 40.2062 96.5255 39.8766C95.25 39.0238 93.8101 38.4574 92.3021 38.2154C90.6127 37.9004 88.7884 37.5211 86.8292 37.0775C84.87 36.6338 83.0373 36.1546 81.3313 35.6398C79.6801 35.1616 78.1943 34.2217 77.043 32.9271C75.8839 31.5993 75.2515 29.8811 75.2687 28.1061C75.2687 24.7465 76.3949 22.0981 78.6474 20.1609C80.8998 18.2237 84.4235 17.2534 89.2183 17.25C94.0864 17.25 97.6917 18.3388 100.034 20.5165C102.377 22.6941 103.568 25.7591 103.608 29.7114H97.665C97.5217 27.2018 96.7687 25.3476 95.4059 24.1487C94.0431 22.9498 91.9089 22.3538 89.0034 22.3605C83.8054 22.3605 81.2081 24.0776 81.2114 27.5117C81.2148 28.1013 81.3732 28.6792 81.6702 29.1857C81.9673 29.6921 82.3921 30.1086 82.9007 30.3921C84.1994 31.1948 85.6446 31.7219 87.1491 31.9415C88.8584 32.2396 90.691 32.6189 92.647 33.0795C94.505 33.5101 96.34 34.0374 98.1448 34.6594C99.8037 35.2143 101.277 36.2295 102.398 37.5905C103.553 39.0447 104.153 40.8739 104.088 42.7417C104.096 44.0538 103.859 45.3555 103.388 46.5772Z" fill="#434343"/>
<path d="M129.417 52.3329L128.527 48.8225C127.801 50.079 126.468 51.1678 124.529 52.089C122.341 53.0628 119.969 53.5346 117.581 53.4708C114.423 53.4708 111.835 52.7325 109.819 51.2559C107.803 49.7793 106.804 47.6203 106.821 44.7788C106.821 42.1948 107.747 40.2559 109.599 38.9622C111.452 37.6684 114.394 36.8218 118.426 36.4221L127.198 35.5382C127.128 33.3233 126.565 31.6892 125.508 30.6359C124.452 29.5827 122.599 29.0561 119.95 29.0561C117.481 29.0561 115.765 29.5268 114.802 30.4683C113.839 31.4098 113.358 32.8221 113.358 34.7051L107.69 34.761C107.69 31.4792 108.58 28.9223 110.359 27.0901C112.138 25.2579 115.317 24.3452 119.895 24.3519C121.82 24.3194 123.742 24.5241 125.618 24.9615C126.967 25.2578 128.251 25.8019 129.407 26.5668C130.354 27.2584 131.112 28.1831 131.611 29.2542C132.145 30.3423 132.504 31.5102 132.675 32.7137C132.854 34.1287 132.936 35.5545 132.92 36.9809V53.4809H130.921C130.579 53.4928 130.243 53.3854 129.97 53.1765C129.696 52.9677 129.501 52.67 129.417 52.3329ZM127.148 40.0239L119.246 40.9129C116.85 41.1669 115.171 41.5902 114.208 42.1829C113.761 42.4308 113.39 42.7989 113.135 43.2469C112.88 43.6949 112.751 44.2056 112.763 44.7229C112.746 45.3255 112.886 45.9219 113.168 46.4519C113.451 46.9818 113.866 47.4264 114.373 47.7405C115.442 48.4618 116.995 48.8225 119.031 48.8225C121.573 48.8225 123.562 48.1198 124.998 46.7143C126.435 45.3088 127.151 43.3716 127.148 40.9027V40.0239Z" fill="#434343"/>
<path d="M145.168 29.6555V53.1965H139.67V29.6555H135.672V26.0995L139.67 24.8802V22.1675C139.67 19.1804 140.503 17.0299 142.169 15.7158C143.835 14.4018 146.514 13.7465 150.206 13.7499C151.296 13.7499 152.15 13.7499 152.765 13.8057V18.6216C152.51 18.6216 152.185 18.6216 151.766 18.6216C151.346 18.6216 151.076 18.5962 150.896 18.5962C148.712 18.5962 147.217 18.8909 146.398 19.4802C145.982 19.8007 145.652 20.2221 145.438 20.7058C145.224 21.1895 145.133 21.72 145.173 22.2488V24.8548H152.745V29.6707L145.168 29.6555Z" fill="#434343"/>
<path d="M175.34 50.6768C173.361 52.3701 170.318 53.2168 166.213 53.2168C156.884 53.2168 152.219 48.3416 152.219 38.5913C152.219 28.9189 156.869 24.0827 166.168 24.0827C167.98 24.0501 169.781 24.3602 171.481 24.9971C172.9 25.5226 174.184 26.3645 175.24 27.4609C176.234 28.5446 177.012 29.8145 177.529 31.1998C178.094 32.6668 178.46 34.2048 178.619 35.7719C178.783 37.493 178.791 39.2258 178.644 40.9485H158.256C158.59 46.0793 161.169 48.6464 165.993 48.6498C169.695 48.6498 171.911 47.136 172.641 44.1082H178.743C178.634 45.3781 178.277 46.613 177.692 47.7408C177.108 48.8686 176.308 49.8667 175.34 50.6768ZM171.006 30.7934C169.884 29.371 168.086 28.6598 165.614 28.6598C161.072 28.6598 158.638 31.1897 158.311 36.2494H172.641C172.676 36.2494 172.676 36.2494 172.641 36.1935C172.606 36.1376 172.676 36.1376 172.641 36.1376C172.745 34.2146 172.165 32.3176 171.006 30.7934Z" fill="#434343"/>
<path d="M199.002 53.4708L187.231 40.7351V53.4708H181.398V14.3137H187.226V36.2494L197.747 25.1139H205.864L191.639 38.5202L206.954 53.4708H199.002Z" fill="#434343"/>
<path d="M226.939 50.9511C224.939 52.6444 221.895 53.4911 217.807 53.4911C208.477 53.4911 203.812 48.6176 203.812 38.8707C203.812 29.1983 208.464 24.3621 217.767 24.3621C219.579 24.3295 221.38 24.6396 223.08 25.2765C224.498 25.8032 225.782 26.645 226.839 27.7403C227.831 28.8254 228.608 30.0949 229.128 31.4792C229.693 32.9549 230.059 34.5013 230.217 36.0767C230.37 37.7987 230.37 39.5313 230.217 41.2533H209.855C210.188 46.3841 212.767 48.9495 217.592 48.9495C221.297 48.9495 223.513 47.4357 224.24 44.408H230.342C230.231 45.6737 229.872 46.9041 229.288 48.0275C228.703 49.1509 227.905 50.1447 226.939 50.9511ZM222.605 31.0678C221.482 29.6657 219.685 28.9646 217.212 28.9646C212.671 28.9646 210.237 31.4928 209.91 36.5491H224.24C224.275 36.5491 224.275 36.5491 224.24 36.4933C224.205 36.4374 224.275 36.4374 224.24 36.4374C224.348 34.5059 223.768 32.5993 222.605 31.0678Z" fill="#434343"/>
<path d="M254.809 50.9511C252.829 52.6444 249.787 53.4911 245.682 53.4911C236.352 53.4911 231.688 48.6176 231.688 38.8707C231.688 29.1983 236.337 24.3621 245.637 24.3621C247.449 24.3291 249.25 24.6391 250.95 25.2765C252.369 25.8008 253.653 26.6428 254.709 27.7403C255.704 28.8228 256.482 30.093 256.998 31.4792C257.564 32.9539 257.927 34.501 258.077 36.0767C258.243 37.7976 258.253 39.5304 258.107 41.2533H237.725C238.058 46.3841 240.637 48.9495 245.462 48.9495C249.171 48.9495 251.388 47.4357 252.115 44.408H258.217C258.105 45.674 257.745 46.9045 257.16 48.0279C256.575 49.1513 255.776 50.145 254.809 50.9511ZM250.48 31.0677C249.351 29.6657 247.551 28.9646 245.082 28.9646C240.544 28.9646 238.11 31.4928 237.78 36.5491H252.115C252.15 36.5491 252.15 36.5491 252.115 36.4932C252.08 36.4374 252.15 36.4374 252.115 36.4374C252.223 34.5059 251.643 32.5993 250.48 31.0677Z" fill="#434343"/>
<path d="M276.087 53.4098C271.399 53.4098 268.233 52.1161 266.591 49.5287V64.0983H260.883V24.6618H264.042L265.241 28.7259C265.931 27.5405 267.139 26.5059 268.865 25.6219C270.591 24.738 272.958 24.2893 275.967 24.2757C277.927 24.221 279.873 24.6188 281.66 25.4391C283.168 26.1481 284.445 27.2817 285.338 28.7055C286.215 30.1139 286.86 31.6582 287.248 33.2776C287.666 35.1093 287.867 36.9853 287.847 38.8656C287.854 48.5584 283.934 53.4064 276.087 53.4098ZM280.415 31.6113C279.346 29.9688 277.346 29.1475 274.418 29.1475C271.399 29.1475 269.336 29.9603 268.23 31.5859C267.124 33.2115 266.571 35.6483 266.571 38.8961C266.571 42.0728 267.087 44.4639 268.12 46.0692C269.16 47.6745 271.199 48.4771 274.253 48.4771C277.306 48.4771 279.321 47.6745 280.41 46.0692C281.5 44.4639 282.045 42.0711 282.045 38.8961C282.045 35.7211 281.49 33.2573 280.415 31.6113Z" fill="#434343"/>
<defs>
<linearGradient id="paint0_linear_794_7621" x1="53.3324" y1="57.997" x2="6.18548" y2="11.6061" gradientUnits="userSpaceOnUse">
<stop stop-color="#DDDDDD"/>
<stop offset="1" stop-color="#DDDDDD"/>
</linearGradient>
</defs>
</svg>
