<svg width="56" height="64" viewBox="0 0 56 64" fill="none" xmlns="http://www.w3.org/2000/svg">
<g clip-path="url(#clip0_2731_48223)">
<path d="M27.5597 62.6359L26.6678 62.1293C20.9217 58.8225 16.0685 54.2545 12.5041 48.7979C8.93957 43.3413 6.76473 37.1505 6.1569 30.7305V30.6801C6.03928 29.3806 5.70604 20.6963 5.66683 19.7051L5.62109 18.4749L27.4683 10.8887L50.0472 18.972L49.0671 29.4435C48.6679 36.1002 46.5794 42.561 42.9847 48.2596C39.3899 53.9582 34.3987 58.7206 28.4484 62.1293L27.5597 62.6359ZM9.6429 30.4378C10.1867 36.1553 12.0846 41.6765 15.1906 46.577C18.2966 51.4775 22.5281 55.6268 27.5597 58.7059C32.7806 55.5218 37.1382 51.1849 40.2711 46.0548C43.4041 40.9248 45.2221 35.1494 45.5746 29.2076V29.1604L46.3129 21.228L27.4421 14.4725L9.22145 20.8127C9.3456 23.997 9.5743 29.5537 9.65597 30.3906L9.6429 30.4378Z" fill="#8ABEFE"/>
<path d="M54.1283 41.4413L53.6284 41.1707L41.8897 34.7204C42.6959 31.9904 42.6333 29.0902 41.71 26.3948L53.3246 19.5858L53.7983 19.3026C54.4618 18.8285 54.9231 18.1379 55.0961 17.3599C55.2691 16.582 55.1419 15.7699 54.7383 15.0758C54.3347 14.3816 53.6822 13.8528 52.9031 13.5884C52.1239 13.3239 51.2715 13.3419 50.5051 13.6389L49.5968 14.1707L38.1619 20.879C36.2461 19.0466 33.839 17.7633 31.2095 17.1724V3.6677C31.2401 2.82957 30.9356 2.01209 30.359 1.3837C29.7823 0.755311 28.9773 0.363882 28.1099 0.290065C27.2425 0.216247 26.3788 0.465664 25.6966 0.98693C25.0145 1.5082 24.5659 2.2616 24.4434 3.09189V17.1945C21.7048 17.8354 19.2181 19.2279 17.2851 21.2031L5.31443 14.6206L4.83743 14.3595C4.08159 14.0169 3.22128 13.9543 2.42054 14.1834C1.6198 14.4126 0.934645 14.9176 0.495694 15.6021C0.0567422 16.2865 -0.105297 17.1027 0.0404741 17.8948C0.186245 18.687 0.62963 19.3998 1.28609 19.8973L2.17147 20.3882L13.9331 26.8385C13.1054 29.5179 13.1282 32.3745 13.9984 35.0414L2.48838 41.7938L1.60626 42.3129C0.98808 42.8331 0.586092 43.551 0.474477 44.3342C0.362861 45.1175 0.549148 45.9132 0.998966 46.5745C1.44878 47.2358 2.13178 47.7181 2.92192 47.9324C3.71206 48.1468 4.55603 48.0786 5.2981 47.7406L5.7849 47.4511L17.4158 40.6295C19.3252 42.5242 21.7527 43.8595 24.4172 44.4809V58.3758C24.5699 59.1793 25.0287 59.8989 25.7038 60.3934C26.3789 60.8879 27.2215 61.1216 28.0662 61.0487C28.911 60.9758 29.697 60.6016 30.2701 59.9994C30.8431 59.3972 31.1619 58.6105 31.1638 57.7937V44.5029C33.9937 43.8664 36.5616 42.43 38.5377 40.3778L50.0477 46.7023L50.9625 47.2026C51.7406 47.4904 52.6013 47.4931 53.3813 47.21C54.1613 46.927 54.8062 46.3779 55.1935 45.6671C55.5809 44.9563 55.6837 44.1333 55.4825 43.3543C55.2814 42.5753 54.7901 41.8945 54.1022 41.4413H54.1283ZM27.8803 40.1544C25.9474 40.1507 24.0589 39.5955 22.4533 38.5589C20.8477 37.5223 19.597 36.0508 18.8591 34.3302C18.1212 32.6096 17.9291 30.717 18.3072 28.8913C18.6852 27.0657 19.6164 25.3888 20.9832 24.0725C22.3501 22.7561 24.0912 21.8593 25.9868 21.4952C27.8825 21.1311 29.8476 21.3161 31.6342 22.0267C33.4208 22.7374 34.9487 23.9419 36.025 25.4883C37.1013 27.0346 37.6778 28.8533 37.6817 30.7149C37.6817 33.2185 36.649 35.6194 34.8109 37.3897C32.9728 39.1599 30.4798 40.1544 27.8803 40.1544Z" fill="url(#paint0_linear_2731_48223)"/>
<path d="M38.4302 62.0665C38.4101 62.1644 38.3748 62.2588 38.3256 62.3466C38.2789 62.4345 38.2131 62.5117 38.1328 62.5731C38.0414 62.6405 37.9371 62.6897 37.8257 62.7178C37.6836 62.7577 37.536 62.7768 37.3879 62.7745C37.241 62.7768 37.0945 62.7577 36.9534 62.7178C36.8469 62.684 36.7481 62.6305 36.6626 62.5605C36.5824 62.4991 36.5166 62.4219 36.4699 62.334C36.4202 62.2453 36.3849 62.1498 36.3653 62.0508C36.3456 61.947 36.3358 61.8417 36.3359 61.7361C36.3359 61.0502 36.6921 60.7072 37.4043 60.7072C37.5824 60.7017 37.7599 60.7295 37.927 60.789C38.0553 60.8345 38.1682 60.9129 38.2537 61.0156C38.3277 61.1104 38.3841 61.2169 38.4204 61.3302C38.4547 61.4619 38.4711 61.5973 38.4694 61.733C38.4675 61.8451 38.4544 61.9568 38.4302 62.0665ZM38.1623 61.4121C38.1366 61.3202 38.0934 61.2338 38.0348 61.1572C37.9706 61.0761 37.8832 61.0148 37.7833 60.981C37.5273 60.9014 37.2518 60.9014 36.9959 60.981C36.8967 61.0161 36.8095 61.0771 36.7443 61.1572C36.6857 61.2349 36.6425 61.3224 36.6169 61.4152C36.5901 61.5181 36.577 61.6238 36.5777 61.7298C36.5776 61.8357 36.5896 61.9412 36.6136 62.0445C36.639 62.138 36.6835 62.2257 36.7443 62.3025C36.8088 62.3826 36.8963 62.4428 36.9959 62.4756C37.2511 62.5595 37.528 62.5595 37.7833 62.4756C37.8829 62.4428 37.9703 62.3826 38.0348 62.3025C38.0934 62.2248 38.1366 62.1373 38.1623 62.0445C38.189 61.9416 38.2022 61.8359 38.2015 61.7298C38.2022 61.6227 38.1891 61.516 38.1623 61.4121ZM37.7669 62.1861C37.7173 62.2286 37.6594 62.261 37.5965 62.2816C37.5337 62.3021 37.4672 62.3103 37.401 62.3057C37.3237 62.313 37.2456 62.3029 37.173 62.2762C37.1004 62.2494 37.0353 62.2067 36.9828 62.1515C36.8936 62.0353 36.8486 61.8931 36.8554 61.7487C36.8478 61.6033 36.8929 61.4599 36.9828 61.3428C37.0343 61.2881 37.0983 61.2457 37.1697 61.2189C37.2412 61.1921 37.3181 61.1818 37.3945 61.1887C37.4614 61.1844 37.5285 61.193 37.5919 61.2141C37.6553 61.2352 37.7137 61.2682 37.7637 61.3114C37.8079 61.3572 37.842 61.4113 37.8639 61.4703C37.8858 61.5292 37.8951 61.5918 37.8911 61.6543H37.6428C37.6424 61.5834 37.617 61.5146 37.5709 61.4592C37.5456 61.4378 37.5161 61.4214 37.4841 61.4111C37.4521 61.4009 37.4183 61.3969 37.3847 61.3995C37.1887 61.3995 37.0939 61.5127 37.0939 61.7424C37.0939 61.9721 37.1887 62.0917 37.3847 62.0917C37.4183 62.0943 37.4521 62.0903 37.4841 62.08C37.5161 62.0697 37.5456 62.0534 37.5709 62.0319C37.6173 61.9791 37.6427 61.9122 37.6428 61.8431H37.8845C37.8895 61.9049 37.8816 61.9671 37.8614 62.0259C37.8412 62.0848 37.8091 62.1392 37.7669 62.1861Z" fill="url(#paint1_linear_2731_48223)"/>
</g>
<defs>
<linearGradient id="paint0_linear_2731_48223" x1="-9.5434" y1="-35.4335" x2="-59.7525" y2="56.613" gradientUnits="userSpaceOnUse">
<stop stop-color="#01A0FF"/>
<stop offset="1" stop-color="#0123F7"/>
</linearGradient>
<linearGradient id="paint1_linear_2731_48223" x1="35.9701" y1="59.4915" x2="34.3774" y2="62.7849" gradientUnits="userSpaceOnUse">
<stop stop-color="#01A0FF"/>
<stop offset="1" stop-color="#0123F7"/>
</linearGradient>
<clipPath id="clip0_2731_48223">
<rect width="56" height="64" fill="white"/>
</clipPath>
</defs>
</svg>
