<svg width="60" height="60" viewBox="0 0 60 60" fill="none" xmlns="http://www.w3.org/2000/svg">
<path opacity="0.4" d="M55 12.875V22.125C55 27.75 52.75 30 47.125 30H40.375C34.75 30 32.5 27.75 32.5 22.125V12.875C32.5 7.25 34.75 5 40.375 5H47.125C52.75 5 55 7.25 55 12.875Z" fill="#8ABEFE"/>
<path opacity="0.4" d="M27.5 37.875V47.125C27.5 52.75 25.25 55 19.625 55H12.875C7.25 55 5 52.75 5 47.125V37.875C5 32.25 7.25 30 12.875 30H19.625C25.25 30 27.5 32.25 27.5 37.875Z" fill="url(#paint0_linear_3449_2281)"/>
<path d="M36.9477 54.9998C36.2727 54.9998 35.6477 54.6248 35.3227 54.0498C34.9977 53.4498 34.9977 52.7498 35.3477 52.1498L37.7727 48.0998C38.2977 47.1998 39.4477 46.9248 40.3477 47.4498C41.2477 47.9748 41.5227 49.1248 40.9977 50.0248L40.5477 50.7748C46.7227 49.1748 51.2727 43.5748 51.2727 36.9248C51.2727 35.8998 52.1227 35.0498 53.1477 35.0498C54.1727 35.0498 54.9977 35.8998 54.9977 36.9498C54.9977 46.8998 46.8977 54.9998 36.9477 54.9998Z" fill="url(#paint1_linear_3449_2281)"/>
<path d="M6.875 24.925C5.85 24.925 5 24.1 5 23.05C5 13.1 13.1 5 23.05 5C23.75 5 24.35 5.375 24.7 5.95C25.025 6.55 25.025 7.25 24.675 7.85L22.25 11.875C21.7 12.775 20.55 13.075 19.675 12.525C18.775 12 18.5 10.85 19.025 9.95L19.475 9.2C13.325 10.8 8.75 16.4 8.75 23.05C8.75 24.1 7.9 24.925 6.875 24.925Z" fill="url(#paint2_linear_3449_2281)"/>
<defs>
<linearGradient id="paint0_linear_3449_2281" x1="1.1424" y1="15.3125" x2="-19.6871" y2="52.888" gradientUnits="userSpaceOnUse">
<stop stop-color="#01A0FF"/>
<stop offset="1" stop-color="#0123F7"/>
</linearGradient>
<linearGradient id="paint1_linear_3449_2281" x1="31.6675" y1="23.3292" x2="15.9922" y2="54.6947" gradientUnits="userSpaceOnUse">
<stop stop-color="#01A0FF"/>
<stop offset="1" stop-color="#0123F7"/>
</linearGradient>
<linearGradient id="paint2_linear_3449_2281" x1="1.58118" y1="-6.70594" x2="-14.0509" y2="24.6516" gradientUnits="userSpaceOnUse">
<stop stop-color="#01A0FF"/>
<stop offset="1" stop-color="#0123F7"/>
</linearGradient>
</defs>
</svg>
