<svg width="20" height="21" viewBox="0 0 20 21" fill="none" xmlns="http://www.w3.org/2000/svg">
<path d="M17.5 5.48307C14.725 5.20807 11.9333 5.06641 9.15 5.06641C7.5 5.06641 5.85 5.14974 4.2 5.31641L2.5 5.48307" stroke="#292D32" stroke-width="1.5" stroke-linecap="round" stroke-linejoin="round"/>
<path d="M7.08398 4.64102L7.26732 3.54935C7.40065 2.75768 7.50065 2.16602 8.90898 2.16602H11.0923C12.5007 2.16602 12.609 2.79102 12.734 3.55768L12.9173 4.64102" stroke="#292D32" stroke-width="1.5" stroke-linecap="round" stroke-linejoin="round"/>
<path d="M15.7096 8.11719L15.168 16.5089C15.0763 17.8172 15.0013 18.8339 12.6763 18.8339H7.3263C5.0013 18.8339 4.9263 17.8172 4.83464 16.5089L4.29297 8.11719" stroke="#292D32" stroke-width="1.5" stroke-linecap="round" stroke-linejoin="round"/>
<path d="M8.60742 14.25H11.3824" stroke="#292D32" stroke-width="1.5" stroke-linecap="round" stroke-linejoin="round"/>
<path d="M7.91602 10.916H12.0827" stroke="#292D32" stroke-width="1.5" stroke-linecap="round" stroke-linejoin="round"/>
</svg>
