<svg width="20" height="16" viewBox="0 0 20 16" fill="none" xmlns="http://www.w3.org/2000/svg">
<path d="M19.8239 1.89391C19.1183 2.21379 18.3604 2.42992 17.5635 2.52762C18.3857 2.02427 19.0008 1.23207 19.2941 0.298827C18.5216 0.768264 17.6762 1.0987 16.7946 1.27576C16.2017 0.628101 15.4165 0.198822 14.5607 0.0545716C13.705 -0.0896791 12.8266 0.0591688 12.0621 0.478006C11.2975 0.896843 10.6894 1.56224 10.3323 2.37088C9.9752 3.17952 9.88901 4.08617 10.0871 4.95006C8.52196 4.86966 6.9908 4.45343 5.59303 3.72838C4.19526 3.00334 2.96211 1.98569 1.97361 0.741473C1.63562 1.33801 1.44127 2.02964 1.44127 2.76623C1.4409 3.42933 1.6005 4.08227 1.90591 4.66713C2.21133 5.25198 2.65311 5.75066 3.19208 6.11892C2.56702 6.09857 1.95576 5.92577 1.40916 5.6149V5.66677C1.4091 6.59679 1.72353 7.49819 2.29908 8.21803C2.87464 8.93786 3.67589 9.43179 4.56686 9.616C3.98702 9.77656 3.3791 9.8002 2.78902 9.68516C3.0404 10.4854 3.53007 11.1852 4.18947 11.6865C4.84887 12.1879 5.64499 12.4657 6.46638 12.4811C5.07202 13.601 3.34999 14.2085 1.57732 14.2058C1.2633 14.2059 0.949558 14.1872 0.637695 14.1497C2.43706 15.3334 4.53166 15.9616 6.67087 15.9591C13.9124 15.9591 17.8711 9.82262 17.8711 4.5005C17.8711 4.32759 17.8669 4.15296 17.8593 3.98005C18.6293 3.41029 19.294 2.70476 19.8222 1.8965L19.8239 1.89391Z" fill="#0171FD"/>
</svg>
