<svg width="236" height="52" viewBox="0 0 236 52" fill="none" xmlns="http://www.w3.org/2000/svg">
<path d="M57.2101 1.76674V21.1329L0.324219 44.016L57.2101 1.76674Z" fill="#00C9FF"/>
<path d="M46.5481 0.926483V34.3343C46.5481 39.0029 44.6751 43.4803 41.3411 46.7815C38.007 50.0828 33.4851 51.9374 28.7701 51.9374C24.0552 51.9374 19.5332 50.0828 16.1992 46.7815C12.8652 43.4803 10.9922 39.0029 10.9922 34.3343V20.2571L21.6571 14.4456V34.3343C21.5573 35.2023 21.6438 36.0814 21.9109 36.914C22.1781 37.7467 22.6198 38.5139 23.2073 39.1657C23.7949 39.8175 24.5148 40.3389 25.32 40.696C26.1253 41.0531 26.9976 41.2378 27.8799 41.2378C28.7622 41.2378 29.6346 41.0531 30.4398 40.696C31.245 40.3389 31.965 39.8175 32.5524 39.1657C33.1399 38.5139 33.5818 37.7467 33.8489 36.914C34.1161 36.0814 34.2025 35.2023 34.1026 34.3343V7.66828L46.5481 0.926483Z" fill="#0D67FE"/>
<path d="M83.1671 9.4668V18.1045C83.1671 21.0014 81.503 22.534 79.4273 22.534C77.7363 22.534 76.4121 21.5595 76.4121 18.9106V9.4668H73.3164V19.1321C73.3164 22.8441 75.3206 25.2361 78.613 25.2361C79.5446 25.2454 80.4609 25.0029 81.2635 24.5345C82.0661 24.0661 82.7243 23.3898 83.1671 22.5783H83.2209V24.7842H86.263V9.4668H83.1671Z" fill="#0D67FE"/>
<path d="M96.6769 9.02281C95.7239 9.00725 94.7842 9.24569 93.9561 9.71329C93.1281 10.1809 92.4424 10.8604 91.9707 11.6806H91.9171V9.46582H88.875V24.7921H91.9707V16.1544C91.9707 13.2575 93.6886 11.7248 95.8538 11.7248C97.6432 11.7248 99.039 12.6994 99.039 15.3483V24.7921H102.135V15.1002C102.135 11.4148 100.086 9.02281 96.6769 9.02281Z" fill="#0D67FE"/>
<path d="M111.327 15.5098H110.736C108.052 15.5098 107.524 15.0403 107.524 13.8443C107.524 12.6482 108.598 11.6649 110.593 11.6649C110.975 11.6352 111.359 11.6849 111.721 11.8111C112.082 11.9372 112.413 12.1368 112.692 12.3972C112.971 12.6575 113.192 12.9729 113.34 13.3228C113.489 13.6727 113.562 14.0495 113.554 14.4291H116.784C116.561 11.3371 114.252 9.0249 110.593 9.0249C106.406 9.0249 104.33 11.47 104.33 13.8443C104.33 16.5995 106.638 18.1853 109.537 18.1853H110.378C113.062 18.1853 113.868 18.8054 113.868 20.2761C113.868 21.5872 112.517 22.5883 110.495 22.5883C109.679 22.6319 108.879 22.3547 108.269 21.8171C107.659 21.2794 107.288 20.525 107.238 19.7178H104.008C104.205 22.8983 106.844 25.2371 110.45 25.2371C114.78 25.2371 117.035 22.7565 117.035 20.2761C117.08 17.4323 114.816 15.5098 111.327 15.5098Z" fill="#0D67FE"/>
<path d="M126.811 12.1428V9.48504H122.615V7.35889H119.528V9.46738H116.996V12.125H119.528V20.6742C119.528 23.5446 121.049 24.7759 123.921 24.7759H126.82V22.1182H124.199C123.983 22.1308 123.767 22.0969 123.566 22.0189C123.365 21.941 123.184 21.8209 123.034 21.6668C122.884 21.5128 122.77 21.3283 122.699 21.1264C122.629 20.9244 122.603 20.7098 122.624 20.497V12.1428H126.811Z" fill="#0D67FE"/>
<path d="M135.536 9.0249C131.196 9.0249 127.77 11.9218 127.77 17.1311C127.77 22.3402 131.196 25.2371 135.536 25.2371C139.875 25.2371 143.302 22.3136 143.302 17.1311C143.302 11.9485 139.866 9.0249 135.536 9.0249ZM135.536 22.5883C133.003 22.5883 130.973 20.8164 130.973 17.1311C130.973 13.4456 133.003 11.6384 135.536 11.6649C138.068 11.6915 140.09 13.3925 140.09 17.1311C140.09 20.8696 138.068 22.5616 135.536 22.5883Z" fill="#0D67FE"/>
<path d="M153.77 9.02371C152.717 8.99964 151.676 9.24554 150.748 9.7376C149.82 10.2298 149.036 10.9513 148.472 11.8321H148.402C148.455 11.2207 148.455 10.7778 148.455 10.2197V9.46659H145.359V27.5039H148.455V24.1197C148.455 23.535 148.455 23.0654 148.402 22.4186H148.455C149.007 23.3143 149.791 24.0479 150.725 24.5431C151.66 25.0384 152.71 25.2776 153.77 25.2359C157.563 25.2359 160.927 22.3655 160.927 17.0412C160.927 11.7168 157.572 9.02371 153.77 9.02371ZM152.982 22.587C150.11 22.587 148.446 20.1419 148.446 17.0146C148.446 14.0645 150.11 11.6992 152.982 11.6992C155.855 11.6992 157.653 13.852 157.653 17.0766C157.653 20.3014 155.801 22.6137 152.991 22.587H152.982Z" fill="#0D67FE"/>
<path d="M171.44 9.02371C170.387 8.99964 169.346 9.24554 168.417 9.7376C167.49 10.2298 166.707 10.9513 166.143 11.8321H166.089C166.143 11.2207 166.143 10.7778 166.143 10.2197V9.46659H163.047V27.5039H166.143V24.1197C166.143 23.535 166.143 23.0654 166.089 22.4186H166.143C166.694 23.3117 167.474 24.0434 168.406 24.5385C169.337 25.0337 170.383 25.2743 171.44 25.2359C175.233 25.2359 178.553 22.3655 178.553 17.0412C178.553 11.7168 175.242 9.02371 171.44 9.02371ZM170.653 22.587C167.78 22.587 166.115 20.1419 166.115 17.0146C166.115 14.0645 167.78 11.6992 170.653 11.6992C173.524 11.6992 175.322 13.852 175.322 17.0766C175.322 20.3014 173.453 22.6137 170.653 22.587Z" fill="#0D67FE"/>
<path d="M194.474 22.1187C194.053 22.1187 193.857 21.8617 193.857 21.3657V14.6239C193.857 11.3902 192.282 9.0249 187.639 9.0249C183.164 9.0249 181.08 11.2486 180.857 14.4291H183.951C184.149 12.6571 185.526 11.6649 187.639 11.6649C189.428 11.6649 190.68 12.4534 190.68 13.6759C190.68 14.677 189.973 15.2883 187.665 15.2883H186.43C182.744 15.2883 180.266 16.7678 180.266 20.1432C180.266 23.6867 182.879 25.2903 185.947 25.2903C188.229 25.2903 190.171 24.2892 190.931 22.1453C191.012 23.7045 192.058 24.803 194.027 24.803H195.816V22.1453L194.474 22.1187ZM190.761 17.6892C190.761 21.1442 188.873 22.6414 186.458 22.6414C184.345 22.6414 183.504 21.4189 183.504 20.1697C183.504 18.9206 184.23 17.9904 186.484 17.9904H186.931C189.097 17.9904 190.448 17.2373 190.735 15.9262L190.761 17.6892Z" fill="#0D67FE"/>
<path d="M206.103 9.02437C205.051 9.00004 204.011 9.24594 203.084 9.73813C202.158 10.2303 201.376 10.9519 200.815 11.8327H200.752C200.803 11.2967 200.824 10.7585 200.815 10.2202V4.57703H197.719V24.7935H200.815V24.1203C200.824 23.5527 200.803 22.9849 200.752 22.4193H200.815C201.364 23.3116 202.144 24.0429 203.072 24.5381C204.002 25.0333 205.047 25.2744 206.103 25.2365C209.905 25.2365 213.26 22.3662 213.26 17.0418C213.26 11.7175 209.905 9.02437 206.103 9.02437ZM205.315 22.5876C202.443 22.5876 200.787 20.1425 200.787 17.0153C200.787 14.0652 202.443 11.6998 205.315 11.6998C208.186 11.6998 209.985 13.8525 209.985 17.0773C209.985 20.302 208.125 22.6142 205.315 22.5876Z" fill="#0D67FE"/>
<path d="M215.191 4.57703V24.7935H218.287V4.57703H215.191Z" fill="#0D67FE"/>
<path d="M235.759 15.7402C235.759 11.8952 232.663 9.0249 228.439 9.0249C223.966 9.0249 220.816 12.0547 220.816 17.1311C220.816 22.0035 223.877 25.2371 228.439 25.2371C232.18 25.2371 234.971 23.0666 235.598 20.0811H232.225C231.937 20.8418 231.415 21.4934 230.732 21.9435C230.049 22.3936 229.241 22.6192 228.422 22.5883C226.114 22.5883 224.422 20.9493 224.055 18.2207H235.74L235.759 15.7402ZM224.127 15.4833C224.254 14.4331 224.764 13.4651 225.562 12.7618C226.36 12.0584 227.389 11.6683 228.458 11.6649C229.514 11.6594 230.535 12.05 231.313 12.7581C232.091 13.4664 232.57 14.4399 232.654 15.4833H224.127Z" fill="#0D67FE"/>
<path d="M85.5471 27.5048V33.0595C85.5471 33.6441 85.5471 34.1226 85.6007 34.7603H85.5471C84.9953 33.8711 84.2151 33.1425 83.2862 32.6491C82.3573 32.1558 81.3128 31.9152 80.2593 31.9521C76.43 31.9521 73.1016 34.7605 73.1016 39.9253C73.1016 45.2407 76.3941 48.1732 80.2593 48.1732C81.3111 48.1939 82.3504 47.9455 83.2767 47.452C84.2031 46.9584 84.9851 46.2365 85.5471 45.356H85.6007C85.5471 45.9761 85.5471 46.4191 85.5471 46.9772V47.7302H88.6428V27.5048H85.5471ZM81.0735 45.5154C78.2283 45.5154 76.3673 43.2563 76.3673 39.9164C76.3673 36.5766 78.2283 34.6009 81.0735 34.6009C83.9186 34.6009 85.5471 36.9486 85.5471 39.9164C85.5471 43.0437 83.8829 45.5243 81.0467 45.5508L81.0735 45.5154Z" fill="#0D67FE"/>
<path d="M98.938 31.9857C94.5986 31.9857 91.1719 34.8826 91.1719 40.0918C91.1719 45.3009 94.5986 48.1978 98.938 48.1978C103.277 48.1978 106.704 45.2744 106.704 40.0918C106.704 34.9091 103.268 31.9857 98.938 31.9857ZM98.938 45.5489C96.406 45.5489 94.375 43.7772 94.375 40.0918C94.375 36.4063 96.406 34.5991 98.938 34.6257C101.47 34.6522 103.492 36.3974 103.492 40.0918C103.492 43.7861 101.47 45.5224 98.938 45.5489Z" fill="#0D67FE"/>
<path d="M126.372 31.9878C125.391 31.9602 124.421 32.2032 123.571 32.6898C122.721 33.1762 122.024 33.8871 121.559 34.743H121.478L121.559 35.4782C121.277 34.4506 120.651 33.5484 119.782 32.9205C118.914 32.2925 117.855 31.976 116.781 32.0232C115.863 32.0341 114.965 32.2944 114.186 32.7754C113.407 33.2565 112.775 33.9402 112.361 34.7518H112.308V32.4308H109.266V47.7571H112.361V39.1194C112.361 36.2225 114.016 34.6898 115.994 34.6898C117.649 34.6898 118.83 35.7707 118.83 38.3133V47.7571H121.926V39.0928C121.926 36.1959 123.644 34.7165 125.612 34.7165C127.276 34.7165 128.43 35.7972 128.43 38.3398V47.7571H131.526V38.0829C131.526 34.3798 129.522 31.9878 126.372 31.9878Z" fill="#0D67FE"/>
<path d="M148.263 45.0795C147.842 45.0795 147.646 44.8225 147.646 44.3264V37.5846C147.646 34.351 146.062 31.9857 141.383 31.9857C136.909 31.9857 134.833 34.2093 134.609 37.3897H137.705C137.903 35.6622 139.28 34.6257 141.383 34.6257C143.173 34.6257 144.424 35.4052 144.424 36.6367C144.424 37.6378 143.727 38.249 141.419 38.249H140.175C136.489 38.249 134.02 39.7286 134.02 43.095C134.02 46.6386 136.632 48.2511 139.7 48.2511C141.982 48.2511 143.923 47.25 144.676 45.1061C144.765 46.6653 145.803 47.7637 147.772 47.7637H149.515V45.1061L148.263 45.0795ZM144.55 40.6499C144.55 44.1049 142.663 45.6022 140.238 45.6022C138.134 45.6022 137.286 44.3796 137.286 43.1216C137.286 41.8636 138.018 40.9512 140.273 40.9512H140.72C142.886 40.9512 144.237 40.198 144.515 38.8869L144.55 40.6499Z" fill="#0D67FE"/>
<path d="M151.441 32.4304V47.7567H154.537V32.4304H151.441Z" fill="#0D67FE"/>
<path d="M165.793 31.9864C164.841 31.9705 163.902 32.2089 163.075 32.6766C162.25 33.1444 161.566 33.824 161.096 34.6441H161.033V32.4293H158V47.7556H161.096V39.118C161.096 36.221 162.813 34.6884 164.978 34.6884C166.767 34.6884 168.155 35.6629 168.155 38.3118V47.7556H171.251V38.0814C171.251 34.3783 169.166 31.9864 165.793 31.9864Z" fill="#0D67FE"/>
<path d="M181.011 38.473H180.421C177.737 38.473 177.217 38.0034 177.217 36.8074C177.217 35.6114 178.282 34.5926 180.286 34.5926C180.668 34.5628 181.052 34.6126 181.413 34.7387C181.774 34.8649 182.104 35.0648 182.383 35.3252C182.661 35.5858 182.881 35.9011 183.029 36.251C183.175 36.601 183.247 36.9776 183.239 37.3566H186.469C186.245 34.2648 183.937 31.9526 180.286 31.9526C176.09 31.9526 174.023 34.3977 174.023 36.772C174.023 39.5272 176.332 41.113 179.23 41.113H180.071C182.755 41.113 183.561 41.7242 183.561 43.2037C183.561 44.5149 182.21 45.516 180.188 45.516C179.38 45.5477 178.592 45.265 177.992 44.7286C177.391 44.1922 177.026 43.4446 176.975 42.6455H173.746C173.942 45.826 176.582 48.1648 180.188 48.1648C184.519 48.1648 186.774 45.6842 186.774 43.2037C186.755 40.3953 184.5 38.473 181.011 38.473Z" fill="#0D67FE"/>
</svg>
