<svg width="60" height="60" viewBox="0 0 60 60" fill="none" xmlns="http://www.w3.org/2000/svg">
<path opacity="0.4" d="M55 19.525V40.475C55 47.5 51.775 52.3249 46.1 54.1499C44.45 54.7249 42.55 55 40.475 55H19.525C17.45 55 15.55 54.7249 13.9 54.1499C8.22499 52.3249 5 47.5 5 40.475V19.525C5 10.425 10.425 5 19.525 5H40.475C49.575 5 55 10.425 55 19.525Z" fill="url(#paint0_linear_3449_739)"/>
<path d="M46.0984 54.1498C44.4485 54.7248 42.5485 54.9999 40.4734 54.9999H19.5234C17.4484 54.9999 15.5484 54.7248 13.8984 54.1498C14.7734 47.5498 21.6734 42.4248 29.9984 42.4248C38.3234 42.4248 45.2234 47.5498 46.0984 54.1498Z" fill="url(#paint1_linear_3449_739)"/>
<path d="M38.9508 28.95C38.9508 33.9 34.9508 37.925 30.0008 37.925C25.0508 37.925 21.0508 33.9 21.0508 28.95C21.0508 24 25.0508 20 30.0008 20C34.9508 20 38.9508 24 38.9508 28.95Z" fill="url(#paint2_linear_3449_739)"/>
<defs>
<linearGradient id="paint0_linear_3449_739" x1="-3.57245" y1="-24.375" x2="-42.8184" y2="54.2892" gradientUnits="userSpaceOnUse">
<stop stop-color="#01A0FF"/>
<stop offset="1" stop-color="#0123F7"/>
</linearGradient>
<linearGradient id="paint1_linear_3449_739" x1="8.37778" y1="35.0369" x2="3.7397" y2="58.8418" gradientUnits="userSpaceOnUse">
<stop stop-color="#01A0FF"/>
<stop offset="1" stop-color="#0123F7"/>
</linearGradient>
<linearGradient id="paint2_linear_3449_739" x1="17.9818" y1="9.46909" x2="3.90043" y2="37.6545" gradientUnits="userSpaceOnUse">
<stop stop-color="#01A0FF"/>
<stop offset="1" stop-color="#0123F7"/>
</linearGradient>
</defs>
</svg>
