<svg width="45" height="45" viewBox="0 0 45 45" fill="none" xmlns="http://www.w3.org/2000/svg">
<path d="M41.2499 20.5687V24.4313C41.2499 25.4625 40.4249 26.3062 39.3749 26.3437H35.6999C33.6749 26.3437 31.8187 24.8625 31.6499 22.8375C31.5374 21.6562 31.9874 20.55 32.7749 19.7812C33.4686 19.0687 34.4249 18.6562 35.4749 18.6562H39.3749C40.4249 18.6937 41.2499 19.5374 41.2499 20.5687Z" fill="#F8F8F8"/>
<path opacity="0.4" d="M32.775 19.7812C31.9875 20.55 31.5375 21.6562 31.65 22.8375C31.8188 24.8625 33.675 26.3437 35.7 26.3437H39.375V29.0625C39.375 34.6875 35.625 38.4375 30 38.4375H13.125C7.5 38.4375 3.75 34.6875 3.75 29.0625V15.9375C3.75 10.8375 6.825 7.275 11.6063 6.675C12.0938 6.6 12.6 6.5625 13.125 6.5625H30C30.4875 6.5625 30.9562 6.58123 31.4062 6.65623C36.2438 7.21873 39.375 10.8 39.375 15.9375V18.6563H35.475C34.425 18.6563 33.4687 19.0687 32.775 19.7812Z" fill="#F8F8F8"/>
<path d="M24.375 18.2812H13.125C12.3562 18.2812 11.7188 17.6437 11.7188 16.875C11.7188 16.1062 12.3562 15.4688 13.125 15.4688H24.375C25.1438 15.4688 25.7812 16.1062 25.7812 16.875C25.7812 17.6437 25.1438 18.2812 24.375 18.2812Z" fill="#F8F8F8"/>
</svg>
