<svg width="256" height="56" viewBox="0 0 256 56" fill="none" xmlns="http://www.w3.org/2000/svg">
<path fill-rule="evenodd" clip-rule="evenodd" d="M66.7511 32.2899C66.406 28.0981 63.36 24.2712 59.1653 24.2712C54.9707 24.2712 51.9831 28.0981 51.5813 32.2899H66.7493H66.7511ZM68.4732 33.1227C68.4713 33.3543 68.3828 33.5757 68.2269 33.7384C68.071 33.9012 67.8604 33.992 67.6414 33.991H51.5813C51.9831 38.1847 54.9707 42.0116 59.1653 42.0116C62.0379 42.0116 64.1653 40.857 65.7741 38.4261C66.0077 38.0948 66.3493 37.8778 66.7971 38.078C66.8996 38.1264 66.9912 38.1973 67.0658 38.2859C67.1404 38.3746 67.1963 38.4791 67.2298 38.5923C67.2633 38.7056 67.2736 38.8251 67.26 38.943C67.2464 39.0608 67.2093 39.1742 67.1511 39.2757C65.544 42.2549 62.3263 43.7108 59.1653 43.7108C53.7654 43.7108 49.9141 38.6095 49.9141 33.1414C49.9141 27.6733 53.7654 22.5701 59.1653 22.5701C64.5617 22.5701 68.4644 27.6602 68.475 33.1227H68.4732ZM87.9527 22.9949C88.4129 22.9949 88.758 23.4216 88.758 23.8464C88.758 24.3329 88.4129 24.696 87.9527 24.696H83.643V42.558C83.6385 42.7818 83.5524 42.9952 83.4027 43.1535C83.2529 43.3118 83.0512 43.4028 82.8395 43.4076C82.6275 43.4033 82.4252 43.3125 82.2751 43.1541C82.125 42.9958 82.0387 42.7822 82.0342 42.558V24.696H77.8979C77.7916 24.6988 77.6858 24.6787 77.587 24.6371C77.4882 24.5954 77.3985 24.5329 77.3232 24.4535C77.2479 24.3741 77.1886 24.2793 77.149 24.1749C77.1094 24.0706 77.0902 23.9588 77.0926 23.8464C77.0926 23.4216 77.4377 22.9949 77.8979 22.9949H82.0342V16.4564C82.0342 16.0447 82.2996 15.663 82.6837 15.5975C83.2182 15.5039 83.643 15.895 83.643 16.434V22.9949H87.9527ZM114.211 31.6218V42.4382C114.211 42.9229 113.809 43.286 113.406 43.286C113.299 43.2885 113.194 43.2683 113.095 43.2265C112.997 43.1847 112.907 43.1222 112.832 43.0428C112.757 42.9634 112.698 42.8687 112.658 42.7645C112.619 42.6603 112.6 42.5486 112.602 42.4364V31.6218C112.602 27.9764 110.648 24.3311 106.799 24.3311C101.857 24.3311 99.7314 28.8878 100.02 33.5662C100.02 33.6878 100.076 34.2342 100.076 34.296V42.4139C100.076 42.8256 99.811 43.2074 99.4287 43.2747C98.8924 43.3664 98.4677 42.9753 98.4677 42.4364V6.89567C98.4677 6.47088 98.8128 6.04608 99.2712 6.04608C99.7314 6.04608 100.076 6.47088 100.076 6.89567V27.0052C101.457 24.3928 103.926 22.63 106.799 22.63C111.51 22.63 114.211 27.0052 114.211 31.6218ZM141.274 32.2899C140.929 28.0981 137.883 24.2712 133.689 24.2712C129.494 24.2712 126.506 28.0981 126.105 32.2899H141.273H141.274ZM142.997 33.1227C142.995 33.3543 142.906 33.5757 142.75 33.7384C142.594 33.9012 142.384 33.992 142.165 33.991H126.105C126.506 38.1847 129.494 42.0116 133.689 42.0116C136.563 42.0116 138.689 40.857 140.297 38.4261C140.531 38.0948 140.873 37.8778 141.32 38.078C141.423 38.1264 141.515 38.1973 141.589 38.2859C141.664 38.3746 141.72 38.4791 141.753 38.5923C141.787 38.7056 141.797 38.8251 141.783 38.943C141.77 39.0608 141.733 39.1742 141.674 39.2757C140.067 42.2549 136.85 43.7108 133.689 43.7108C128.289 43.7108 124.439 38.6095 124.439 33.1414C124.439 27.6733 128.289 22.5701 133.689 22.5701C139.085 22.5701 142.988 27.6602 142.998 33.1227H142.997ZM162.706 23.7846C162.706 24.3329 162.419 24.6361 161.959 24.696C157.248 25.4258 155.122 29.496 155.122 34.2342V42.354C155.122 42.7657 154.857 43.1456 154.473 43.213C153.938 43.3047 153.511 42.9136 153.511 42.3746V23.867C153.511 23.4553 153.777 23.0754 154.161 23.008C154.697 22.9163 155.122 23.3074 155.122 23.8464V27.6134C156.442 25.2424 159.087 22.9968 161.844 22.9968C162.246 22.9968 162.706 23.2999 162.706 23.7846ZM187.355 32.2899C187.01 28.0981 183.966 24.2712 179.771 24.2712C175.577 24.2712 172.589 28.0981 172.187 32.2899H187.355ZM189.079 33.1227C189.077 33.3541 188.988 33.5753 188.832 33.7379C188.677 33.9005 188.466 33.9915 188.247 33.991H172.187C172.589 38.1847 175.577 42.0116 179.771 42.0116C182.644 42.0116 184.77 40.857 186.378 38.4261C186.614 38.0948 186.955 37.8778 187.403 38.078C187.521 38.132 187.625 38.2162 187.704 38.3231C187.783 38.4299 187.836 38.556 187.858 38.6899C187.895 38.8922 187.859 39.1017 187.757 39.2775C186.148 42.253 182.931 43.7126 179.771 43.7126C174.37 43.7126 170.522 38.6095 170.522 33.1395C170.522 27.6733 174.37 22.5701 179.771 22.5701C185.166 22.5701 189.07 27.6602 189.081 33.1227H189.079ZM214.992 23.9998V42.558C214.992 43.0446 214.591 43.4076 214.189 43.4076C214.083 43.4104 213.977 43.3904 213.878 43.3487C213.779 43.307 213.689 43.2446 213.614 43.1651C213.539 43.0857 213.48 42.9909 213.44 42.8866C213.4 42.7822 213.381 42.6704 213.384 42.558V39.0343C212.063 41.8282 209.707 43.8343 206.718 43.8343C201.95 43.8343 199.308 39.4591 199.308 34.8424V23.9699C199.308 23.5432 199.651 23.1165 200.111 23.1165C200.571 23.1165 200.916 23.5432 200.916 23.968V34.8424C200.916 38.4878 202.869 42.1332 206.718 42.1332C212.12 42.1332 213.384 36.7868 213.384 30.892V23.968C213.385 23.8358 213.416 23.7059 213.473 23.5882C213.53 23.4705 213.611 23.3682 213.712 23.2893C213.812 23.2104 213.928 23.157 214.051 23.1332C214.174 23.1094 214.3 23.1159 214.421 23.1521C214.59 23.2094 214.737 23.3228 214.84 23.4756C214.943 23.6284 214.996 23.8122 214.992 23.9998ZM255.615 31.562V42.4345C255.615 42.9229 255.213 43.286 254.812 43.286C254.705 43.2888 254.599 43.2687 254.501 43.2271C254.402 43.1854 254.312 43.1229 254.237 43.0435C254.162 42.9641 254.102 42.8693 254.063 42.7649C254.023 42.6606 254.004 42.5488 254.006 42.4364V31.562C254.006 27.9166 252.054 24.3329 248.203 24.3329C243.378 24.3329 241.539 29.7991 241.539 34.0527V42.4364C241.539 42.9229 241.137 43.286 240.734 43.286C240.628 43.2888 240.522 43.2687 240.423 43.2271C240.324 43.1854 240.235 43.1229 240.16 43.0434C240.084 42.964 240.025 42.8692 239.986 42.7648C239.947 42.6605 239.928 42.5487 239.93 42.4364V31.562C239.93 27.9166 237.976 24.3329 234.127 24.3329C229.242 24.3329 227.231 28.4031 227.403 33.8094C227.403 33.9311 227.461 34.1744 227.403 34.2342V42.4158C227.403 42.8275 227.139 43.2055 226.755 43.2729C226.219 43.3664 225.794 42.9734 225.794 42.4364V23.8688C225.794 23.4571 226.06 23.0754 226.444 23.008C226.978 22.9163 227.403 23.3074 227.403 23.8464V26.9435C228.783 24.3329 231.254 22.6319 234.129 22.6319C237.401 22.6319 239.93 24.8176 240.964 28.0382C242.284 24.8794 244.87 22.63 248.203 22.63C252.914 22.63 255.615 26.9435 255.615 31.562Z" fill="#3C3C3B"/>
<path fill-rule="evenodd" clip-rule="evenodd" d="M0.363281 28.5714L17.0637 38.5874V0.45813L0.363281 28.5714Z" fill="#8C8C8C"/>
<path fill-rule="evenodd" clip-rule="evenodd" d="M17.0664 0.45813V38.5874L33.7669 28.5714L17.0664 0.45813Z" fill="#343434"/>
<path fill-rule="evenodd" clip-rule="evenodd" d="M17.0648 20.8711L0.363281 28.5714L17.0637 38.5874L33.7653 28.5725L17.0648 20.8711Z" fill="#151515"/>
<path fill-rule="evenodd" clip-rule="evenodd" d="M17.0648 20.8711L0.363281 28.5714L17.0637 38.5874L17.0648 20.8711Z" fill="#393939"/>
<path fill-rule="evenodd" clip-rule="evenodd" d="M0.363281 31.7845L17.0637 55.661V41.7949L0.363281 31.7845Z" fill="#8C8C8C"/>
<path fill-rule="evenodd" clip-rule="evenodd" d="M17.0664 41.7949V55.6621L33.7779 31.7845L17.0664 41.7949Z" fill="#343434"/>
</svg>
