<svg width="1143" height="46" viewBox="0 0 1143 46" fill="none" xmlns="http://www.w3.org/2000/svg">
<circle cx="7" cy="20" r="7" fill="white"/>
<circle cx="29" cy="20" r="7" fill="white"/>
<circle cx="51" cy="20" r="7" fill="white"/>
<rect x="83" width="1060" height="46" rx="10" fill="white"/>
<path d="M101.704 28L99.384 20.064H100.728L102.408 26.288L104.264 20.064H105.784L107.656 26.288L109.32 20.064H110.68L108.36 28H106.984L105.032 21.456L103.08 28H101.704ZM113.767 28L111.447 20.064H112.791L114.471 26.288L116.327 20.064H117.847L119.719 26.288L121.383 20.064H122.743L120.423 28H119.047L117.095 21.456L115.143 28H113.767ZM125.829 28L123.509 20.064H124.853L126.533 26.288L128.389 20.064H129.909L131.781 26.288L133.445 20.064H134.805L132.485 28H131.109L129.157 21.456L127.205 28H125.829ZM136.209 28.08C135.942 28.08 135.718 27.9947 135.537 27.824C135.366 27.6427 135.281 27.424 135.281 27.168C135.281 26.912 135.366 26.6987 135.537 26.528C135.718 26.3467 135.942 26.256 136.209 26.256C136.465 26.256 136.678 26.3467 136.849 26.528C137.03 26.6987 137.121 26.912 137.121 27.168C137.121 27.424 137.03 27.6427 136.849 27.824C136.678 27.9947 136.465 28.08 136.209 28.08ZM141.91 28.192C140.96 28.192 140.171 27.952 139.542 27.472C138.912 26.992 138.544 26.3413 138.438 25.52H139.814C139.899 25.936 140.118 26.2987 140.47 26.608C140.832 26.9067 141.318 27.056 141.926 27.056C142.491 27.056 142.907 26.9387 143.174 26.704C143.44 26.4587 143.574 26.1707 143.574 25.84C143.574 25.36 143.398 25.04 143.046 24.88C142.704 24.72 142.219 24.576 141.59 24.448C141.163 24.3627 140.736 24.24 140.31 24.08C139.883 23.92 139.526 23.696 139.238 23.408C138.95 23.1093 138.806 22.72 138.806 22.24C138.806 21.5467 139.062 20.9813 139.574 20.544C140.096 20.096 140.8 19.872 141.686 19.872C142.528 19.872 143.216 20.0853 143.75 20.512C144.294 20.928 144.608 21.5253 144.694 22.304H143.366C143.312 21.8987 143.136 21.584 142.838 21.36C142.55 21.1253 142.16 21.008 141.67 21.008C141.19 21.008 140.816 21.1093 140.55 21.312C140.294 21.5147 140.166 21.7813 140.166 22.112C140.166 22.432 140.331 22.6827 140.662 22.864C141.003 23.0453 141.462 23.2 142.038 23.328C142.528 23.4347 142.992 23.568 143.43 23.728C143.878 23.8773 144.24 24.1067 144.518 24.416C144.806 24.7147 144.95 25.152 144.95 25.728C144.96 26.4427 144.688 27.0347 144.134 27.504C143.59 27.9627 142.848 28.192 141.91 28.192ZM149.51 28.192C148.848 28.192 148.299 28.08 147.862 27.856C147.424 27.632 147.099 27.3333 146.886 26.96C146.672 26.5867 146.566 26.1813 146.566 25.744C146.566 24.9333 146.875 24.3093 147.494 23.872C148.112 23.4347 148.955 23.216 150.022 23.216H152.166V23.12C152.166 22.4267 151.984 21.904 151.622 21.552C151.259 21.1893 150.774 21.008 150.166 21.008C149.643 21.008 149.19 21.1413 148.806 21.408C148.432 21.664 148.198 22.0427 148.102 22.544H146.726C146.779 21.968 146.971 21.4827 147.302 21.088C147.643 20.6933 148.064 20.3947 148.566 20.192C149.067 19.9787 149.6 19.872 150.166 19.872C151.275 19.872 152.107 20.1707 152.662 20.768C153.227 21.3547 153.51 22.1387 153.51 23.12V28H152.31L152.23 26.576C152.006 27.024 151.675 27.408 151.238 27.728C150.811 28.0373 150.235 28.192 149.51 28.192ZM149.718 27.056C150.23 27.056 150.667 26.9227 151.03 26.656C151.403 26.3893 151.686 26.0427 151.878 25.616C152.07 25.1893 152.166 24.7413 152.166 24.272V24.256H150.134C149.344 24.256 148.784 24.3947 148.454 24.672C148.134 24.9387 147.974 25.2747 147.974 25.68C147.974 26.096 148.123 26.432 148.422 26.688C148.731 26.9333 149.163 27.056 149.718 27.056ZM155.958 28V21.2H154.758V20.064H155.958V18.688C155.958 17.92 156.15 17.36 156.534 17.008C156.918 16.656 157.478 16.48 158.214 16.48H159.014V17.632H158.422C158.017 17.632 157.729 17.7173 157.558 17.888C157.387 18.048 157.302 18.3253 157.302 18.72V20.064H159.254V21.2H157.302V28H155.958ZM164.11 28.192C163.352 28.192 162.68 28.0213 162.094 27.68C161.507 27.328 161.043 26.8427 160.702 26.224C160.371 25.6053 160.206 24.8747 160.206 24.032C160.206 23.2 160.371 22.4747 160.702 21.856C161.032 21.2267 161.491 20.7413 162.078 20.4C162.675 20.048 163.363 19.872 164.141 19.872C164.91 19.872 165.571 20.048 166.126 20.4C166.691 20.7413 167.123 21.1947 167.422 21.76C167.72 22.3253 167.87 22.9333 167.87 23.584C167.87 23.7013 167.864 23.8187 167.854 23.936C167.854 24.0533 167.854 24.1867 167.854 24.336H161.534C161.566 24.944 161.704 25.4507 161.95 25.856C162.206 26.2507 162.52 26.5493 162.894 26.752C163.278 26.9547 163.683 27.056 164.11 27.056C164.664 27.056 165.128 26.928 165.502 26.672C165.875 26.416 166.147 26.0693 166.318 25.632H167.646C167.432 26.368 167.022 26.9813 166.414 27.472C165.816 27.952 165.048 28.192 164.11 28.192ZM164.11 21.008C163.47 21.008 162.899 21.2053 162.398 21.6C161.907 21.984 161.624 22.5493 161.549 23.296H166.542C166.51 22.5813 166.264 22.0213 165.806 21.616C165.347 21.2107 164.782 21.008 164.11 21.008ZM169.651 28V16.48H170.995V23.408L174.243 20.064H175.891L172.371 23.648L176.339 28H174.627L170.995 23.888V28H169.651ZM180.703 28.192C179.946 28.192 179.274 28.0213 178.687 27.68C178.101 27.328 177.637 26.8427 177.295 26.224C176.965 25.6053 176.799 24.8747 176.799 24.032C176.799 23.2 176.965 22.4747 177.295 21.856C177.626 21.2267 178.085 20.7413 178.671 20.4C179.269 20.048 179.957 19.872 180.735 19.872C181.503 19.872 182.165 20.048 182.719 20.4C183.285 20.7413 183.717 21.1947 184.015 21.76C184.314 22.3253 184.463 22.9333 184.463 23.584C184.463 23.7013 184.458 23.8187 184.447 23.936C184.447 24.0533 184.447 24.1867 184.447 24.336H178.127C178.159 24.944 178.298 25.4507 178.543 25.856C178.799 26.2507 179.114 26.5493 179.487 26.752C179.871 26.9547 180.277 27.056 180.703 27.056C181.258 27.056 181.722 26.928 182.095 26.672C182.469 26.416 182.741 26.0693 182.911 25.632H184.239C184.026 26.368 183.615 26.9813 183.007 27.472C182.41 27.952 181.642 28.192 180.703 28.192ZM180.703 21.008C180.063 21.008 179.493 21.2053 178.991 21.6C178.501 21.984 178.218 22.5493 178.143 23.296H183.135C183.103 22.5813 182.858 22.0213 182.399 21.616C181.941 21.2107 181.375 21.008 180.703 21.008ZM189.813 28.192C189.055 28.192 188.383 28.0213 187.797 27.68C187.21 27.328 186.746 26.8427 186.405 26.224C186.074 25.6053 185.909 24.8747 185.909 24.032C185.909 23.2 186.074 22.4747 186.405 21.856C186.735 21.2267 187.194 20.7413 187.781 20.4C188.378 20.048 189.066 19.872 189.845 19.872C190.613 19.872 191.274 20.048 191.829 20.4C192.394 20.7413 192.826 21.1947 193.125 21.76C193.423 22.3253 193.573 22.9333 193.573 23.584C193.573 23.7013 193.567 23.8187 193.557 23.936C193.557 24.0533 193.557 24.1867 193.557 24.336H187.237C187.269 24.944 187.407 25.4507 187.653 25.856C187.909 26.2507 188.223 26.5493 188.597 26.752C188.981 26.9547 189.386 27.056 189.813 27.056C190.367 27.056 190.831 26.928 191.205 26.672C191.578 26.416 191.85 26.0693 192.021 25.632H193.349C193.135 26.368 192.725 26.9813 192.117 27.472C191.519 27.952 190.751 28.192 189.813 28.192ZM189.813 21.008C189.173 21.008 188.602 21.2053 188.101 21.6C187.61 21.984 187.327 22.5493 187.253 23.296H192.245C192.213 22.5813 191.967 22.0213 191.509 21.616C191.05 21.2107 190.485 21.008 189.813 21.008ZM195.354 31.52V20.064H196.57L196.698 21.376C196.954 20.992 197.317 20.6453 197.786 20.336C198.266 20.0267 198.874 19.872 199.61 19.872C200.399 19.872 201.087 20.0533 201.674 20.416C202.261 20.7787 202.714 21.2747 203.034 21.904C203.365 22.5333 203.53 23.248 203.53 24.048C203.53 24.848 203.365 25.5627 203.034 26.192C202.714 26.8107 202.255 27.3013 201.658 27.664C201.071 28.016 200.383 28.192 199.594 28.192C198.943 28.192 198.362 28.0587 197.85 27.792C197.349 27.5253 196.965 27.152 196.698 26.672V31.52H195.354ZM199.45 27.024C199.983 27.024 200.453 26.9013 200.858 26.656C201.263 26.4 201.583 26.048 201.818 25.6C202.053 25.152 202.17 24.6293 202.17 24.032C202.17 23.4347 202.053 22.912 201.818 22.464C201.583 22.016 201.263 21.6693 200.858 21.424C200.453 21.168 199.983 21.04 199.45 21.04C198.917 21.04 198.447 21.168 198.042 21.424C197.637 21.6693 197.317 22.016 197.082 22.464C196.847 22.912 196.73 23.4347 196.73 24.032C196.73 24.6293 196.847 25.152 197.082 25.6C197.317 26.048 197.637 26.4 198.042 26.656C198.447 26.9013 198.917 27.024 199.45 27.024ZM205.865 28.08C205.598 28.08 205.374 27.9947 205.193 27.824C205.022 27.6427 204.937 27.424 204.937 27.168C204.937 26.912 205.022 26.6987 205.193 26.528C205.374 26.3467 205.598 26.256 205.865 26.256C206.121 26.256 206.334 26.3467 206.505 26.528C206.686 26.6987 206.777 26.912 206.777 27.168C206.777 27.424 206.686 27.6427 206.505 27.824C206.334 27.9947 206.121 28.08 205.865 28.08ZM208.958 28V21.2H207.758V20.064H208.958V18.688C208.958 17.92 209.15 17.36 209.534 17.008C209.918 16.656 210.478 16.48 211.214 16.48H212.014V17.632H211.422C211.017 17.632 210.729 17.7173 210.558 17.888C210.387 18.048 210.302 18.3253 210.302 18.72V20.064H215.23V28H213.886V21.2H210.302V28H208.958ZM214.574 18.544C214.318 18.544 214.099 18.4587 213.918 18.288C213.737 18.1067 213.646 17.8827 213.646 17.616C213.646 17.36 213.737 17.1467 213.918 16.976C214.099 16.8053 214.318 16.72 214.574 16.72C214.841 16.72 215.059 16.8053 215.23 16.976C215.411 17.1467 215.502 17.36 215.502 17.616C215.502 17.8827 215.411 18.1067 215.23 18.288C215.059 18.4587 214.841 18.544 214.574 18.544ZM217.604 28V20.064H218.82L218.9 21.488C219.156 20.9867 219.524 20.592 220.004 20.304C220.484 20.016 221.028 19.872 221.636 19.872C222.575 19.872 223.321 20.16 223.876 20.736C224.441 21.3013 224.724 22.176 224.724 23.36V28H223.38V23.504C223.38 21.8507 222.697 21.024 221.332 21.024C220.649 21.024 220.079 21.2747 219.62 21.776C219.172 22.2667 218.948 22.9707 218.948 23.888V28H217.604ZM229.4 28.192C228.739 28.192 228.19 28.08 227.752 27.856C227.315 27.632 226.99 27.3333 226.776 26.96C226.563 26.5867 226.456 26.1813 226.456 25.744C226.456 24.9333 226.766 24.3093 227.384 23.872C228.003 23.4347 228.846 23.216 229.912 23.216H232.056V23.12C232.056 22.4267 231.875 21.904 231.512 21.552C231.15 21.1893 230.664 21.008 230.056 21.008C229.534 21.008 229.08 21.1413 228.696 21.408C228.323 21.664 228.088 22.0427 227.992 22.544H226.616C226.67 21.968 226.862 21.4827 227.192 21.088C227.534 20.6933 227.955 20.3947 228.456 20.192C228.958 19.9787 229.491 19.872 230.056 19.872C231.166 19.872 231.998 20.1707 232.552 20.768C233.118 21.3547 233.4 22.1387 233.4 23.12V28H232.2L232.12 26.576C231.896 27.024 231.566 27.408 231.128 27.728C230.702 28.0373 230.126 28.192 229.4 28.192ZM229.608 27.056C230.12 27.056 230.558 26.9227 230.92 26.656C231.294 26.3893 231.576 26.0427 231.768 25.616C231.96 25.1893 232.056 24.7413 232.056 24.272V24.256H230.024C229.235 24.256 228.675 24.3947 228.344 24.672C228.024 24.9387 227.864 25.2747 227.864 25.68C227.864 26.096 228.014 26.432 228.312 26.688C228.622 26.9333 229.054 27.056 229.608 27.056ZM235.417 28V20.064H236.633L236.713 21.488C236.969 20.9867 237.337 20.592 237.817 20.304C238.297 20.016 238.841 19.872 239.449 19.872C240.387 19.872 241.134 20.16 241.689 20.736C242.254 21.3013 242.536 22.176 242.536 23.36V28H241.193V23.504C241.193 21.8507 240.51 21.024 239.145 21.024C238.462 21.024 237.891 21.2747 237.433 21.776C236.985 22.2667 236.761 22.9707 236.761 23.888V28H235.417ZM248.221 28.192C247.463 28.192 246.781 28.0213 246.173 27.68C245.575 27.328 245.101 26.8427 244.749 26.224C244.407 25.5947 244.237 24.864 244.237 24.032C244.237 23.2 244.407 22.4747 244.749 21.856C245.101 21.2267 245.575 20.7413 246.173 20.4C246.781 20.048 247.463 19.872 248.221 19.872C249.159 19.872 249.949 20.1173 250.589 20.608C251.239 21.0987 251.65 21.7547 251.821 22.576H250.445C250.338 22.0853 250.077 21.7067 249.661 21.44C249.245 21.1627 248.759 21.024 248.205 21.024C247.757 21.024 247.335 21.136 246.941 21.36C246.546 21.584 246.226 21.92 245.981 22.368C245.735 22.816 245.613 23.3707 245.613 24.032C245.613 24.6933 245.735 25.248 245.981 25.696C246.226 26.144 246.546 26.4853 246.941 26.72C247.335 26.944 247.757 27.056 248.205 27.056C248.759 27.056 249.245 26.9227 249.661 26.656C250.077 26.3787 250.338 25.9893 250.445 25.488H251.821C251.661 26.288 251.255 26.9387 250.605 27.44C249.954 27.9413 249.159 28.192 248.221 28.192ZM257.266 28.192C256.508 28.192 255.836 28.0213 255.25 27.68C254.663 27.328 254.199 26.8427 253.858 26.224C253.527 25.6053 253.362 24.8747 253.362 24.032C253.362 23.2 253.527 22.4747 253.858 21.856C254.188 21.2267 254.647 20.7413 255.234 20.4C255.831 20.048 256.519 19.872 257.298 19.872C258.066 19.872 258.727 20.048 259.282 20.4C259.847 20.7413 260.279 21.1947 260.578 21.76C260.876 22.3253 261.026 22.9333 261.026 23.584C261.026 23.7013 261.02 23.8187 261.01 23.936C261.01 24.0533 261.01 24.1867 261.01 24.336H254.69C254.722 24.944 254.86 25.4507 255.106 25.856C255.362 26.2507 255.676 26.5493 256.05 26.752C256.434 26.9547 256.839 27.056 257.266 27.056C257.82 27.056 258.284 26.928 258.658 26.672C259.031 26.416 259.303 26.0693 259.474 25.632H260.802C260.588 26.368 260.178 26.9813 259.57 27.472C258.972 27.952 258.204 28.192 257.266 28.192ZM257.266 21.008C256.626 21.008 256.055 21.2053 255.554 21.6C255.063 21.984 254.78 22.5493 254.706 23.296H259.698C259.666 22.5813 259.42 22.0213 258.962 21.616C258.503 21.2107 257.938 21.008 257.266 21.008ZM262.151 29.52L266.167 15.776H267.495L263.479 29.52H262.151ZM270.657 28L268.337 20.064H269.681L271.361 26.288L273.217 20.064H274.737L276.609 26.288L278.273 20.064H279.633L277.313 28H275.937L273.985 21.456L272.033 28H270.657ZM281.12 28V16.48H282.464V21.424C282.73 20.9333 283.109 20.5547 283.6 20.288C284.09 20.0107 284.624 19.872 285.2 19.872C286.117 19.872 286.853 20.16 287.408 20.736C287.962 21.3013 288.24 22.176 288.24 23.36V28H286.912V23.504C286.912 21.8507 286.245 21.024 284.912 21.024C284.218 21.024 283.637 21.2747 283.168 21.776C282.698 22.2667 282.464 22.9707 282.464 23.888V28H281.12ZM292.916 28.192C292.255 28.192 291.705 28.08 291.268 27.856C290.831 27.632 290.505 27.3333 290.292 26.96C290.079 26.5867 289.972 26.1813 289.972 25.744C289.972 24.9333 290.281 24.3093 290.9 23.872C291.519 23.4347 292.361 23.216 293.428 23.216H295.572V23.12C295.572 22.4267 295.391 21.904 295.028 21.552C294.665 21.1893 294.18 21.008 293.572 21.008C293.049 21.008 292.596 21.1413 292.212 21.408C291.839 21.664 291.604 22.0427 291.508 22.544H290.132C290.185 21.968 290.377 21.4827 290.708 21.088C291.049 20.6933 291.471 20.3947 291.972 20.192C292.473 19.9787 293.007 19.872 293.572 19.872C294.681 19.872 295.513 20.1707 296.068 20.768C296.633 21.3547 296.916 22.1387 296.916 23.12V28H295.716L295.636 26.576C295.412 27.024 295.081 27.408 294.644 27.728C294.217 28.0373 293.641 28.192 292.916 28.192ZM293.124 27.056C293.636 27.056 294.073 26.9227 294.436 26.656C294.809 26.3893 295.092 26.0427 295.284 25.616C295.476 25.1893 295.572 24.7413 295.572 24.272V24.256H293.54C292.751 24.256 292.191 24.3947 291.86 24.672C291.54 24.9387 291.38 25.2747 291.38 25.68C291.38 26.096 291.529 26.432 291.828 26.688C292.137 26.9333 292.569 27.056 293.124 27.056ZM301.849 28C301.124 28 300.553 27.824 300.137 27.472C299.721 27.12 299.513 26.4853 299.513 25.568V21.2H298.137V20.064H299.513L299.689 18.16H300.857V20.064H303.193V21.2H300.857V25.568C300.857 26.0693 300.959 26.4107 301.161 26.592C301.364 26.7627 301.721 26.848 302.233 26.848H303.065V28H301.849ZM304.805 23.92V22.784H307.861V19.872H309.061V22.784H312.117V23.92H309.061V26.848H307.861V23.92H304.805ZM315.829 28L313.509 20.064H314.853L316.533 26.288L318.389 20.064H319.909L321.781 26.288L323.445 20.064H324.805L322.485 28H321.109L319.157 21.456L317.205 28H315.829ZM329.563 28.192C328.805 28.192 328.133 28.0213 327.547 27.68C326.96 27.328 326.496 26.8427 326.155 26.224C325.824 25.6053 325.659 24.8747 325.659 24.032C325.659 23.2 325.824 22.4747 326.155 21.856C326.485 21.2267 326.944 20.7413 327.531 20.4C328.128 20.048 328.816 19.872 329.595 19.872C330.363 19.872 331.024 20.048 331.579 20.4C332.144 20.7413 332.576 21.1947 332.875 21.76C333.173 22.3253 333.323 22.9333 333.323 23.584C333.323 23.7013 333.317 23.8187 333.307 23.936C333.307 24.0533 333.307 24.1867 333.307 24.336H326.987C327.019 24.944 327.157 25.4507 327.403 25.856C327.659 26.2507 327.973 26.5493 328.347 26.752C328.731 26.9547 329.136 27.056 329.563 27.056C330.117 27.056 330.581 26.928 330.955 26.672C331.328 26.416 331.6 26.0693 331.771 25.632H333.099C332.885 26.368 332.475 26.9813 331.867 27.472C331.269 27.952 330.501 28.192 329.563 28.192ZM329.563 21.008C328.923 21.008 328.352 21.2053 327.851 21.6C327.36 21.984 327.077 22.5493 327.003 23.296H331.995C331.963 22.5813 331.717 22.0213 331.259 21.616C330.8 21.2107 330.235 21.008 329.563 21.008ZM335.008 23.92V22.784H338.064V19.872H339.264V22.784H342.32V23.92H339.264V26.848H338.064V23.92H335.008ZM347.072 28.192C346.411 28.192 345.861 28.08 345.424 27.856C344.987 27.632 344.661 27.3333 344.448 26.96C344.235 26.5867 344.128 26.1813 344.128 25.744C344.128 24.9333 344.437 24.3093 345.056 23.872C345.675 23.4347 346.517 23.216 347.584 23.216H349.728V23.12C349.728 22.4267 349.547 21.904 349.184 21.552C348.821 21.1893 348.336 21.008 347.728 21.008C347.205 21.008 346.752 21.1413 346.368 21.408C345.995 21.664 345.76 22.0427 345.664 22.544H344.288C344.341 21.968 344.533 21.4827 344.864 21.088C345.205 20.6933 345.627 20.3947 346.128 20.192C346.629 19.9787 347.163 19.872 347.728 19.872C348.837 19.872 349.669 20.1707 350.224 20.768C350.789 21.3547 351.072 22.1387 351.072 23.12V28H349.872L349.792 26.576C349.568 27.024 349.237 27.408 348.8 27.728C348.373 28.0373 347.797 28.192 347.072 28.192ZM347.28 27.056C347.792 27.056 348.229 26.9227 348.592 26.656C348.965 26.3893 349.248 26.0427 349.44 25.616C349.632 25.1893 349.728 24.7413 349.728 24.272V24.256H347.696C346.907 24.256 346.347 24.3947 346.016 24.672C345.696 24.9387 345.536 25.2747 345.536 25.68C345.536 26.096 345.685 26.432 345.984 26.688C346.293 26.9333 346.725 27.056 347.28 27.056ZM353.088 28V20.064H354.304L354.416 21.584C354.662 21.0613 355.035 20.6453 355.536 20.336C356.038 20.0267 356.656 19.872 357.392 19.872V21.28H357.024C356.555 21.28 356.123 21.3653 355.728 21.536C355.334 21.696 355.019 21.9733 354.784 22.368C354.55 22.7627 354.432 23.3067 354.432 24V28H353.088ZM362.172 28.192C361.415 28.192 360.743 28.0213 360.156 27.68C359.569 27.328 359.105 26.8427 358.764 26.224C358.433 25.6053 358.268 24.8747 358.268 24.032C358.268 23.2 358.433 22.4747 358.764 21.856C359.095 21.2267 359.553 20.7413 360.14 20.4C360.737 20.048 361.425 19.872 362.204 19.872C362.972 19.872 363.633 20.048 364.188 20.4C364.753 20.7413 365.185 21.1947 365.484 21.76C365.783 22.3253 365.932 22.9333 365.932 23.584C365.932 23.7013 365.927 23.8187 365.916 23.936C365.916 24.0533 365.916 24.1867 365.916 24.336H359.596C359.628 24.944 359.767 25.4507 360.012 25.856C360.268 26.2507 360.583 26.5493 360.956 26.752C361.34 26.9547 361.745 27.056 362.172 27.056C362.727 27.056 363.191 26.928 363.564 26.672C363.937 26.416 364.209 26.0693 364.38 25.632H365.708C365.495 26.368 365.084 26.9813 364.476 27.472C363.879 27.952 363.111 28.192 362.172 28.192ZM362.172 21.008C361.532 21.008 360.961 21.2053 360.46 21.6C359.969 21.984 359.687 22.5493 359.612 23.296H364.604C364.572 22.5813 364.327 22.0213 363.868 21.616C363.409 21.2107 362.844 21.008 362.172 21.008ZM367.617 23.92V22.784H370.673V19.872H371.873V22.784H374.929V23.92H371.873V26.848H370.673V23.92H367.617ZM381.282 28.192C380.631 28.192 380.05 28.0587 379.538 27.792C379.036 27.5253 378.652 27.152 378.386 26.672L378.258 28H377.042V16.48H378.386V21.376C378.642 20.992 379.004 20.6453 379.474 20.336C379.954 20.0267 380.562 19.872 381.298 19.872C382.087 19.872 382.775 20.0533 383.362 20.416C383.948 20.7787 384.402 21.2747 384.722 21.904C385.052 22.5333 385.218 23.248 385.218 24.048C385.218 24.848 385.052 25.5627 384.722 26.192C384.402 26.8107 383.943 27.3013 383.346 27.664C382.759 28.016 382.071 28.192 381.282 28.192ZM381.138 27.024C381.671 27.024 382.14 26.9013 382.546 26.656C382.951 26.4 383.271 26.048 383.506 25.6C383.74 25.152 383.858 24.6293 383.858 24.032C383.858 23.4347 383.74 22.912 383.506 22.464C383.271 22.016 382.951 21.6693 382.546 21.424C382.14 21.168 381.671 21.04 381.138 21.04C380.604 21.04 380.135 21.168 379.73 21.424C379.324 21.6693 379.004 22.016 378.77 22.464C378.535 22.912 378.418 23.4347 378.418 24.032C378.418 24.6293 378.535 25.152 378.77 25.6C379.004 26.048 379.324 26.4 379.73 26.656C380.135 26.9013 380.604 27.024 381.138 27.024ZM389.984 28.192C389.046 28.192 388.299 27.9093 387.744 27.344C387.19 26.768 386.912 25.888 386.912 24.704V20.064H388.256V24.56C388.256 26.2133 388.934 27.04 390.288 27.04C390.982 27.04 391.552 26.7947 392 26.304C392.459 25.8027 392.688 25.0933 392.688 24.176V20.064H394.032V28H392.816L392.72 26.576C392.475 27.0773 392.107 27.472 391.616 27.76C391.136 28.048 390.592 28.192 389.984 28.192ZM397.061 18.304C396.794 18.304 396.57 18.2187 396.389 18.048C396.218 17.8667 396.133 17.6427 396.133 17.376C396.133 17.12 396.218 16.9067 396.389 16.736C396.57 16.5653 396.794 16.48 397.061 16.48C397.317 16.48 397.535 16.5653 397.717 16.736C397.898 16.9067 397.989 17.12 397.989 17.376C397.989 17.6427 397.898 17.8667 397.717 18.048C397.535 18.2187 397.317 18.304 397.061 18.304ZM396.389 28V20.064H397.733V28H396.389ZM400.073 28V16.48H401.417V28H400.073ZM407.22 28.192C406.43 28.192 405.737 28.0107 405.14 27.648C404.553 27.2853 404.094 26.7893 403.764 26.16C403.444 25.5307 403.284 24.816 403.284 24.016C403.284 23.216 403.449 22.5067 403.78 21.888C404.11 21.2587 404.569 20.768 405.156 20.416C405.742 20.0533 406.436 19.872 407.236 19.872C407.886 19.872 408.462 20.0053 408.964 20.272C409.465 20.5387 409.854 20.912 410.132 21.392V16.48H411.476V28H410.26L410.132 26.688C409.876 27.072 409.508 27.4187 409.028 27.728C408.548 28.0373 407.945 28.192 407.22 28.192ZM407.364 27.024C407.897 27.024 408.366 26.9013 408.772 26.656C409.188 26.4 409.508 26.048 409.732 25.6C409.966 25.152 410.084 24.6293 410.084 24.032C410.084 23.4347 409.966 22.912 409.732 22.464C409.508 22.016 409.188 21.6693 408.772 21.424C408.366 21.168 407.897 21.04 407.364 21.04C406.841 21.04 406.372 21.168 405.956 21.424C405.55 21.6693 405.23 22.016 404.996 22.464C404.772 22.912 404.66 23.4347 404.66 24.032C404.66 24.6293 404.772 25.152 404.996 25.6C405.23 26.048 405.55 26.4 405.956 26.656C406.372 26.9013 406.841 27.024 407.364 27.024ZM414.483 18.304C414.216 18.304 413.992 18.2187 413.811 18.048C413.64 17.8667 413.555 17.6427 413.555 17.376C413.555 17.12 413.64 16.9067 413.811 16.736C413.992 16.5653 414.216 16.48 414.483 16.48C414.739 16.48 414.957 16.5653 415.139 16.736C415.32 16.9067 415.411 17.12 415.411 17.376C415.411 17.6427 415.32 17.8667 415.139 18.048C414.957 18.2187 414.739 18.304 414.483 18.304ZM413.811 28V20.064H415.155V28H413.811ZM417.495 28V20.064H418.711L418.791 21.488C419.047 20.9867 419.415 20.592 419.895 20.304C420.375 20.016 420.919 19.872 421.527 19.872C422.465 19.872 423.212 20.16 423.767 20.736C424.332 21.3013 424.615 22.176 424.615 23.36V28H423.271V23.504C423.271 21.8507 422.588 21.024 421.223 21.024C420.54 21.024 419.969 21.2747 419.511 21.776C419.063 22.2667 418.839 22.9707 418.839 23.888V28H417.495ZM429.787 25.504C429.339 25.504 428.928 25.4453 428.555 25.328L427.755 26.08C427.872 26.1653 428.016 26.24 428.187 26.304C428.368 26.3573 428.624 26.4107 428.955 26.464C429.286 26.5067 429.75 26.5547 430.347 26.608C431.414 26.6827 432.176 26.928 432.635 27.344C433.094 27.76 433.323 28.304 433.323 28.976C433.323 29.4347 433.195 29.872 432.939 30.288C432.694 30.704 432.31 31.0453 431.787 31.312C431.275 31.5787 430.614 31.712 429.803 31.712C429.088 31.712 428.454 31.616 427.899 31.424C427.344 31.2427 426.912 30.96 426.603 30.576C426.294 30.2027 426.139 29.728 426.139 29.152C426.139 28.8533 426.219 28.528 426.379 28.176C426.539 27.8347 426.838 27.5093 427.275 27.2C427.04 27.104 426.838 27.0027 426.667 26.896C426.507 26.7787 426.358 26.6507 426.219 26.512V26.144L427.579 24.8C426.95 24.2667 426.635 23.5627 426.635 22.688C426.635 22.1653 426.758 21.6907 427.003 21.264C427.248 20.8373 427.606 20.5013 428.075 20.256C428.544 20 429.115 19.872 429.787 19.872C430.246 19.872 430.662 19.936 431.035 20.064H433.963V21.072L432.475 21.136C432.784 21.584 432.939 22.1013 432.939 22.688C432.939 23.2107 432.811 23.6853 432.555 24.112C432.31 24.5387 431.952 24.88 431.483 25.136C431.024 25.3813 430.459 25.504 429.787 25.504ZM429.787 24.4C430.352 24.4 430.8 24.256 431.131 23.968C431.472 23.6693 431.643 23.2427 431.643 22.688C431.643 22.144 431.472 21.728 431.131 21.44C430.8 21.1413 430.352 20.992 429.787 20.992C429.211 20.992 428.752 21.1413 428.411 21.44C428.08 21.728 427.915 22.144 427.915 22.688C427.915 23.2427 428.08 23.6693 428.411 23.968C428.752 24.256 429.211 24.4 429.787 24.4ZM427.451 29.024C427.451 29.5573 427.675 29.952 428.123 30.208C428.571 30.4747 429.131 30.608 429.803 30.608C430.464 30.608 430.992 30.464 431.387 30.176C431.792 29.888 431.995 29.504 431.995 29.024C431.995 28.6827 431.856 28.384 431.579 28.128C431.302 27.8827 430.79 27.7387 430.043 27.696C429.456 27.6533 428.95 27.6 428.523 27.536C428.086 27.7707 427.798 28.0213 427.659 28.288C427.52 28.5653 427.451 28.8107 427.451 29.024ZM436.791 24.864L436.727 22.288H437.223C437.82 22.288 438.375 22.2293 438.887 22.112C439.41 21.9947 439.831 21.7653 440.151 21.424C440.471 21.0827 440.631 20.5707 440.631 19.888C440.631 19.2267 440.423 18.704 440.007 18.32C439.602 17.936 439.063 17.744 438.391 17.744C437.708 17.744 437.17 17.9307 436.775 18.304C436.38 18.6773 436.183 19.1787 436.183 19.808H434.903C434.903 19.168 435.047 18.608 435.335 18.128C435.634 17.648 436.044 17.2747 436.567 17.008C437.09 16.7413 437.698 16.608 438.391 16.608C439.084 16.608 439.698 16.7413 440.231 17.008C440.764 17.2747 441.18 17.6533 441.479 18.144C441.778 18.6347 441.927 19.216 441.927 19.888C441.927 20.6773 441.756 21.3173 441.415 21.808C441.084 22.2987 440.62 22.656 440.023 22.88C439.436 23.104 438.764 23.216 438.007 23.216L437.959 24.864H436.791ZM437.367 28.08C437.1 28.08 436.876 27.9947 436.695 27.824C436.524 27.6427 436.439 27.424 436.439 27.168C436.439 26.912 436.524 26.6987 436.695 26.528C436.876 26.3467 437.1 26.256 437.367 26.256C437.634 26.256 437.852 26.3467 438.023 26.528C438.194 26.6987 438.279 26.912 438.279 27.168C438.279 27.424 438.194 27.6427 438.023 27.824C437.852 27.9947 437.634 28.08 437.367 28.08ZM441.932 29.52L445.948 15.776H447.276L443.26 29.52H441.932Z" fill="#CDD0D8"/>
</svg>
