<svg width="53" height="53" viewBox="0 0 53 53" fill="none" xmlns="http://www.w3.org/2000/svg">
<rect width="53" height="53" rx="8" fill="#E6F1FF"/>
<path opacity="0.4" d="M25.1253 12.6755C26.1753 11.7905 27.8703 11.7905 28.8903 12.6755L31.2603 14.7005C31.7103 15.0755 32.5653 15.3905 33.1653 15.3905H35.7153C37.3053 15.3905 38.6103 16.6955 38.6103 18.2855V20.8355C38.6103 21.4355 38.9253 22.2755 39.3003 22.7255L41.3253 25.0955C42.2103 26.1455 42.2103 27.8405 41.3253 28.8605L39.3003 31.2305C38.9253 31.6805 38.6103 32.5205 38.6103 33.1205V35.6705C38.6103 37.2605 37.3053 38.5655 35.7153 38.5655H33.1653C32.5653 38.5655 31.7253 38.8805 31.2753 39.2555L28.9053 41.2805C27.8553 42.1655 26.1603 42.1655 25.1403 41.2805L22.7703 39.2555C22.3203 38.8805 21.4653 38.5655 20.8803 38.5655H18.2553C16.6653 38.5655 15.3603 37.2605 15.3603 35.6705V33.1055C15.3603 32.5205 15.0603 31.6655 14.6853 31.2305L12.6603 28.8455C11.7903 27.8105 11.7903 26.1305 12.6603 25.0955L14.6853 22.7105C15.0603 22.2605 15.3603 21.4205 15.3603 20.8355V18.3005C15.3603 16.7105 16.6653 15.4055 18.2553 15.4055H20.8503C21.4503 15.4055 22.2903 15.0905 22.7403 14.7155L25.1253 12.6755Z" fill="#2083FF"/>
<path d="M29.394 24.434H27.84V24.952C27.392 24.532 26.818 24.308 26.132 24.308C25.348 24.308 24.69 24.574 24.158 25.106C23.626 25.638 23.36 26.338 23.36 27.206C23.36 28.074 23.612 28.774 24.144 29.292C24.676 29.824 25.334 30.076 26.132 30.076C26.944 30.076 27.588 29.81 28.036 29.25C28.33 29.824 28.89 30.104 29.73 30.104C30.22 30.104 30.654 30.006 31.018 29.796C31.382 29.586 31.676 29.306 31.872 28.956C32.068 28.606 32.208 28.242 32.306 27.864C32.39 27.486 32.446 27.094 32.446 26.674C32.446 25.162 31.886 23.902 30.766 22.908C29.646 21.914 28.274 21.41 26.664 21.41C24.956 21.41 23.528 21.97 22.38 23.062C21.232 24.168 20.658 25.554 20.658 27.22C20.658 28.872 21.218 30.244 22.352 31.322C23.486 32.4 24.9 32.932 26.608 32.932C28.162 32.932 29.478 32.498 30.57 31.616L29.94 30.622C28.932 31.406 27.812 31.784 26.58 31.784C25.236 31.784 24.116 31.35 23.22 30.482C22.324 29.614 21.876 28.522 21.876 27.192C21.876 25.848 22.324 24.742 23.234 23.86C24.144 22.978 25.292 22.53 26.664 22.53C27.952 22.53 29.03 22.922 29.912 23.706C30.78 24.49 31.228 25.498 31.228 26.73C31.228 27.318 31.13 27.85 30.934 28.298C30.738 28.746 30.458 28.97 30.094 28.97C29.898 28.97 29.73 28.914 29.59 28.802C29.45 28.69 29.394 28.536 29.394 28.326V24.434ZM26.496 28.62C26.132 28.62 25.81 28.494 25.558 28.228C25.292 27.976 25.166 27.626 25.166 27.192C25.166 26.772 25.292 26.422 25.558 26.17C25.81 25.918 26.132 25.778 26.496 25.778C26.86 25.778 27.168 25.918 27.434 26.17C27.7 26.436 27.84 26.772 27.84 27.192C27.84 27.626 27.7 27.976 27.434 28.228C27.168 28.494 26.86 28.62 26.496 28.62Z" fill="#0171FD"/>
</svg>
