<svg width="53" height="53" viewBox="0 0 53 53" fill="none" xmlns="http://www.w3.org/2000/svg">
<rect width="53" height="53" rx="8" fill="#E6F1FF"/>
<path d="M36 21.666V24.466C35.4133 24.386 34.7467 24.346 34 24.3327V21.666C34 17.466 32.8133 14.666 27 14.666C21.1867 14.666 20 17.466 20 21.666V24.3327C19.2533 24.346 18.5867 24.386 18 24.466V21.666C18 17.7993 18.9333 12.666 27 12.666C35.0667 12.666 36 17.7993 36 21.666Z" fill="#0171FD"/>
<path opacity="0.4" d="M40.3337 31.0007V33.6673C40.3337 39.0007 39.0003 40.334 33.667 40.334H20.3337C15.0003 40.334 13.667 39.0007 13.667 33.6673V31.0007C13.667 26.5473 14.6003 24.8807 18.0003 24.4673C18.587 24.3873 19.2537 24.3473 20.0003 24.334H34.0003C34.747 24.3473 35.4137 24.3873 36.0003 24.4673C39.4003 24.8807 40.3337 26.5473 40.3337 31.0007Z" fill="#0171FD"/>
<path d="M21.6663 33.6671C21.493 33.6671 21.3197 33.6271 21.1597 33.5605C20.9863 33.4938 20.853 33.4005 20.7197 33.2805C20.4797 33.0271 20.333 32.6805 20.333 32.3338C20.333 32.1605 20.373 31.9871 20.4397 31.8271C20.5063 31.6671 20.5997 31.5205 20.7197 31.3871C20.853 31.2671 20.9863 31.1738 21.1597 31.1071C21.653 30.8938 22.2397 31.0138 22.613 31.3871C22.733 31.5205 22.8264 31.6671 22.893 31.8271C22.9597 31.9871 22.9997 32.1605 22.9997 32.3338C22.9997 32.6805 22.853 33.0271 22.613 33.2805C22.3597 33.5205 22.013 33.6671 21.6663 33.6671Z" fill="#0171FD"/>
<path d="M27.0003 33.6676C26.6403 33.6676 26.307 33.5209 26.0537 33.2809C25.9337 33.1476 25.8403 33.0009 25.7736 32.8409C25.707 32.6809 25.667 32.5076 25.667 32.3343C25.667 31.9743 25.8137 31.6409 26.0537 31.3876C26.547 30.8942 27.4403 30.8942 27.947 31.3876C28.187 31.6409 28.3337 31.9743 28.3337 32.3343C28.3337 32.5076 28.2937 32.6809 28.227 32.8409C28.1603 33.0009 28.067 33.1476 27.947 33.2809C27.6936 33.5209 27.347 33.6676 27.0003 33.6676Z" fill="#0171FD"/>
<path d="M32.3333 33.6676C31.9867 33.6676 31.64 33.5209 31.3867 33.2809C31.1467 33.0276 31 32.6943 31 32.3343C31 31.9743 31.1467 31.6409 31.3867 31.3876C31.8933 30.8942 32.7867 30.8942 33.28 31.3876C33.3333 31.4542 33.3866 31.5209 33.44 31.6009C33.4933 31.6676 33.5334 31.7476 33.56 31.8276C33.6 31.9076 33.6267 31.9876 33.64 32.0676C33.6533 32.1609 33.6667 32.2543 33.6667 32.3343C33.6667 32.6809 33.52 33.0276 33.28 33.2809C33.0267 33.5209 32.68 33.6676 32.3333 33.6676Z" fill="#0171FD"/>
</svg>
