<svg width="32" height="32" viewBox="0 0 32 32" fill="none" xmlns="http://www.w3.org/2000/svg">
<path opacity="0.4" d="M21.3337 2.66602H10.667C5.33366 2.66602 2.66699 5.33268 2.66699 10.666V27.9993C2.66699 28.7327 3.26699 29.3327 4.00033 29.3327H21.3337C26.667 29.3327 29.3337 26.666 29.3337 21.3327V10.666C29.3337 5.33268 26.667 2.66602 21.3337 2.66602Z" fill="#0171FD"/>
<path d="M22.0679 9.94692C20.3879 8.26692 18.7612 8.22692 17.0412 9.94692L15.9879 11.0003C15.8945 11.0936 15.8679 11.2269 15.8946 11.3469C16.5479 13.6403 18.3746 15.4669 20.6679 16.1203C20.6946 16.1336 20.7345 16.1336 20.7745 16.1336C20.8679 16.1336 20.9612 16.0936 21.0279 16.0269L22.0679 14.9869C22.9212 14.1336 23.3346 13.3203 23.3346 12.4936C23.3346 11.6269 22.9212 10.8003 22.0679 9.94692Z" fill="#0171FD"/>
<path d="M19.1209 16.8935C18.8676 16.7735 18.6276 16.6535 18.4009 16.5068C18.2142 16.4002 18.0276 16.2802 17.8543 16.1468C17.7076 16.0535 17.5342 15.9202 17.3609 15.7735C17.3342 15.7602 17.2809 15.7202 17.2142 15.6402C16.9342 15.4002 16.6142 15.0802 16.3209 14.7468C16.2942 14.7335 16.2542 14.6668 16.2009 14.5868C16.1076 14.4802 15.9742 14.3068 15.8409 14.1202C15.7342 13.9868 15.6142 13.8002 15.5076 13.6135C15.3742 13.3868 15.2409 13.1468 15.1342 12.9068C15.0142 12.6402 14.9209 12.4002 14.8276 12.1602L9.80091 17.1868C9.46758 17.5202 9.16091 18.1335 9.09424 18.5868L8.70757 21.3602C8.61423 21.9468 8.78755 22.4935 9.14755 22.8668C9.45421 23.1735 9.88091 23.3335 10.3476 23.3335C10.4542 23.3335 10.5476 23.3202 10.6542 23.3068L13.4276 22.9202C13.8809 22.8535 14.4942 22.5468 14.8276 22.2135L19.8543 17.1868C19.6143 17.0935 19.3742 17.0002 19.1209 16.8935Z" fill="#0171FD"/>
</svg>
