<svg width="24" height="25" viewBox="0 0 24 25" fill="none" xmlns="http://www.w3.org/2000/svg">
<path opacity="0.4" d="M16.1898 2.5H7.81978C4.17978 2.5 2.00977 4.67 2.00977 8.31V16.68C2.00977 20.32 4.17978 22.49 7.81978 22.49H16.1898C19.8298 22.49 21.9998 20.32 21.9998 16.68V8.31C21.9998 4.67 19.8298 2.5 16.1898 2.5Z" fill="#0171FD"/>
<path d="M16.8598 8.96008C16.0198 8.88008 15.2498 8.83008 14.4998 8.78008L14.4198 8.30008C14.3498 7.82008 14.1998 6.83008 12.6898 6.83008H11.2998C9.80979 6.83008 9.6498 7.78008 9.5698 8.29008L9.4898 8.76007C9.0598 8.79007 8.6398 8.81007 8.2098 8.85007L7.11979 8.96008C6.73979 9.00008 6.46979 9.33008 6.50979 9.71008C6.54979 10.0601 6.83979 10.3301 7.18979 10.3301C7.20979 10.3301 7.23979 10.3301 7.25979 10.3301L8.33979 10.2201C8.93979 10.1701 9.54979 10.1201 10.1498 10.0901C11.3698 10.0401 12.5898 10.0601 13.8198 10.1201C14.7298 10.1601 15.6798 10.2301 16.7198 10.3301C16.7398 10.3301 16.7598 10.3301 16.7798 10.3301C17.1298 10.3301 17.4298 10.0601 17.4598 9.71008C17.5098 9.33008 17.2398 8.99008 16.8598 8.96008Z" fill="#0171FD"/>
<path d="M15.8305 11.6005C15.6605 11.4105 15.4105 11.3105 15.1605 11.3105H8.84049C8.59049 11.3105 8.34049 11.4205 8.17049 11.6005C8.00049 11.7905 7.91048 12.0405 7.93048 12.2905L8.2405 16.2505C8.3005 17.1005 8.37049 18.1605 10.2905 18.1605H13.7105C15.6305 18.1605 15.7005 17.1005 15.7605 16.2505L16.0705 12.2905C16.0905 12.0405 16.0005 11.7905 15.8305 11.6005Z" fill="#0171FD"/>
</svg>
