<svg width="24" height="24" viewBox="0 0 24 24" fill="none" xmlns="http://www.w3.org/2000/svg">
<path opacity="0.4" d="M16.19 2H7.81C4.17 2 2 4.17 2 7.81V16.18C2 19.83 4.17 22 7.81 22H16.18C19.82 22 21.99 19.83 21.99 16.19V7.81C22 4.17 19.83 2 16.19 2Z" fill="url(#paint0_linear_903_8274)"/>
<path d="M10.7397 16.2802C10.5497 16.2802 10.3597 16.2102 10.2097 16.0602C9.91969 15.7702 9.91969 15.2902 10.2097 15.0002L13.2097 12.0002L10.2097 9.00016C9.91969 8.71016 9.91969 8.23016 10.2097 7.94016C10.4997 7.65016 10.9797 7.65016 11.2697 7.94016L14.7997 11.4702C15.0897 11.7602 15.0897 12.2402 14.7997 12.5302L11.2697 16.0602C11.1197 16.2102 10.9297 16.2802 10.7397 16.2802Z" fill="url(#paint1_linear_903_8274)"/>
<defs>
<linearGradient id="paint0_linear_903_8274" x1="-1.42727" y1="-9.75" x2="-17.1304" y2="21.7094" gradientUnits="userSpaceOnUse">
<stop stop-color="#01A0FF"/>
<stop offset="1" stop-color="#0123F7"/>
</linearGradient>
<linearGradient id="paint1_linear_903_8274" x1="9.13066" y1="2.69512" x2="0.833815" y2="12.4604" gradientUnits="userSpaceOnUse">
<stop stop-color="#01A0FF"/>
<stop offset="1" stop-color="#0123F7"/>
</linearGradient>
</defs>
</svg>
