<svg width="163" height="46" viewBox="0 0 163 46" fill="none" xmlns="http://www.w3.org/2000/svg">
<path fill-rule="evenodd" clip-rule="evenodd" d="M49.8222 24.9735C49.6209 22.4221 47.844 20.0928 45.3969 20.0928C42.9499 20.0928 41.207 22.4221 40.9726 24.9735H49.8212H49.8222ZM50.8269 25.4803C50.8258 25.6213 50.7741 25.7561 50.6832 25.8551C50.5922 25.9542 50.4694 26.0094 50.3416 26.0088H40.9726C41.207 28.5613 42.9499 30.8906 45.3969 30.8906C47.0727 30.8906 48.3137 30.1878 49.2523 28.7083C49.3886 28.5067 49.5879 28.3745 49.8491 28.4964C49.9089 28.5259 49.9623 28.569 50.0058 28.623C50.0493 28.677 50.082 28.7405 50.1015 28.8095C50.121 28.8784 50.127 28.9512 50.1191 29.0229C50.1112 29.0946 50.0895 29.1636 50.0556 29.2254C49.1181 31.0387 47.241 31.9248 45.3969 31.9248C42.2467 31.9248 40 28.8199 40 25.4917C40 22.1635 42.2467 19.0574 45.3969 19.0574C48.545 19.0574 50.8217 22.1556 50.8279 25.4803H50.8269ZM62.1906 19.316C62.4591 19.316 62.6604 19.5757 62.6604 19.8342C62.6604 20.1304 62.4591 20.3514 62.1906 20.3514H59.6765V31.2232C59.6738 31.3594 59.6236 31.4893 59.5363 31.5856C59.4489 31.682 59.3312 31.7374 59.2077 31.7403C59.084 31.7377 58.9661 31.6824 58.8785 31.586C58.791 31.4896 58.7406 31.3596 58.7379 31.2232V20.3514H56.325C56.2629 20.3531 56.2012 20.3409 56.1436 20.3155C56.086 20.2901 56.0336 20.2521 55.9897 20.2038C55.9458 20.1554 55.9112 20.0978 55.8881 20.0342C55.8649 19.9707 55.8538 19.9027 55.8552 19.8342C55.8552 19.5757 56.0565 19.316 56.325 19.316H58.7379V15.3363C58.7379 15.0857 58.8928 14.8534 59.1169 14.8135C59.4287 14.7565 59.6765 14.9946 59.6765 15.3226V19.316H62.1906ZM77.5089 24.5668V31.1503C77.5089 31.4453 77.2745 31.6663 77.0391 31.6663C76.9772 31.6678 76.9156 31.6555 76.8581 31.6301C76.8006 31.6046 76.7483 31.5666 76.7045 31.5183C76.6607 31.4699 76.6262 31.4123 76.6032 31.3489C76.5801 31.2854 76.5689 31.2175 76.5704 31.1492V24.5668C76.5704 22.348 75.4305 20.1293 73.1848 20.1293C70.302 20.1293 69.062 22.9027 69.2303 25.7503C69.2303 25.8243 69.2633 26.1569 69.2633 26.1945V31.1355C69.2633 31.3861 69.1084 31.6184 68.8854 31.6594C68.5726 31.7152 68.3248 31.4772 68.3248 31.1492V9.51711C68.3248 9.25855 68.5261 9 68.7935 9C69.062 9 69.2633 9.25855 69.2633 9.51711V21.7569C70.0687 20.1668 71.509 19.0939 73.1848 19.0939C75.9333 19.0939 77.5089 21.7569 77.5089 24.5668ZM93.297 24.9735C93.0956 22.4221 91.3187 20.0928 88.8716 20.0928C86.4246 20.0928 84.6817 22.4221 84.4473 24.9735H93.2959H93.297ZM94.3016 25.4803C94.3005 25.6213 94.2488 25.7561 94.1579 25.8551C94.0669 25.9542 93.9441 26.0094 93.8163 26.0088H84.4473C84.6817 28.5613 86.4246 30.8906 88.8716 30.8906C90.5484 30.8906 91.7885 30.1878 92.727 28.7083C92.8633 28.5067 93.0626 28.3745 93.3238 28.4964C93.3836 28.5259 93.437 28.569 93.4806 28.623C93.5241 28.677 93.5567 28.7405 93.5762 28.8095C93.5957 28.8784 93.6018 28.9512 93.5938 29.0229C93.5859 29.0946 93.5643 29.1636 93.5303 29.2254C92.5928 31.0387 90.7157 31.9248 88.8716 31.9248C85.7215 31.9248 83.4758 28.8199 83.4758 25.4917C83.4758 22.1635 85.7215 19.0574 88.8716 19.0574C92.0197 19.0574 94.2964 22.1556 94.3026 25.4803H94.3016ZM105.8 19.7967C105.8 20.1304 105.632 20.3149 105.364 20.3514C102.615 20.7956 101.375 23.2729 101.375 26.1569V31.099C101.375 31.3496 101.22 31.5808 100.996 31.6219C100.685 31.6777 100.436 31.4396 100.436 31.1116V19.8468C100.436 19.5962 100.591 19.365 100.815 19.324C101.127 19.2682 101.375 19.5062 101.375 19.8342V22.1271C102.146 20.684 103.688 19.3171 105.297 19.3171C105.531 19.3171 105.8 19.5017 105.8 19.7967ZM120.179 24.9735C119.978 22.4221 118.202 20.0928 115.755 20.0928C113.308 20.0928 111.565 22.4221 111.331 24.9735H120.179ZM121.185 25.4803C121.184 25.6212 121.132 25.7558 121.041 25.8548C120.95 25.9538 120.827 26.0091 120.7 26.0088H111.331C111.565 28.5613 113.308 30.8906 115.755 30.8906C117.431 30.8906 118.671 30.1878 119.609 28.7083C119.747 28.5067 119.946 28.3745 120.207 28.4964C120.276 28.5293 120.336 28.5806 120.383 28.6456C120.429 28.7106 120.46 28.7874 120.473 28.8689C120.494 28.992 120.473 29.1195 120.414 29.2265C119.475 31.0375 117.598 31.926 115.755 31.926C112.604 31.926 110.359 28.8199 110.359 25.4906C110.359 22.1635 112.604 19.0574 115.755 19.0574C118.902 19.0574 121.18 22.1556 121.186 25.4803H121.185ZM136.302 19.9276V31.2232C136.302 31.5193 136.068 31.7403 135.833 31.7403C135.771 31.742 135.709 31.7298 135.652 31.7045C135.594 31.6791 135.542 31.6411 135.498 31.5927C135.454 31.5444 135.419 31.4867 135.396 31.4232C135.373 31.3597 135.362 31.2916 135.363 31.2232V29.0784C134.593 30.779 133.219 32 131.475 32C128.693 32 127.152 29.337 127.152 26.5271V19.9094C127.152 19.6497 127.352 19.39 127.621 19.39C127.889 19.39 128.09 19.6497 128.09 19.9083V26.5271C128.09 28.7459 129.229 30.9646 131.475 30.9646C134.626 30.9646 135.363 27.7105 135.363 24.1226V19.9083C135.364 19.8278 135.382 19.7487 135.415 19.6771C135.449 19.6055 135.496 19.5432 135.555 19.4952C135.613 19.4472 135.681 19.4147 135.753 19.4002C135.824 19.3857 135.898 19.3896 135.968 19.4117C136.067 19.4465 136.153 19.5156 136.213 19.6086C136.273 19.7016 136.304 19.8135 136.302 19.9276ZM160 24.5304V31.148C160 31.4453 159.766 31.6663 159.531 31.6663C159.469 31.668 159.408 31.6558 159.35 31.6304C159.292 31.6051 159.24 31.567 159.196 31.5187C159.152 31.4704 159.117 31.4127 159.094 31.3492C159.071 31.2856 159.06 31.2176 159.061 31.1492V24.5304C159.061 22.3116 157.923 20.1304 155.676 20.1304C152.861 20.1304 151.788 23.4574 151.788 26.0464V31.1492C151.788 31.4453 151.554 31.6663 151.319 31.6663C151.257 31.668 151.195 31.6558 151.137 31.6304C151.08 31.605 151.028 31.567 150.984 31.5186C150.94 31.4703 150.905 31.4126 150.882 31.3491C150.859 31.2856 150.848 31.2175 150.85 31.1492V24.5304C150.85 22.3116 149.71 20.1304 147.464 20.1304C144.615 20.1304 143.442 22.6077 143.542 25.8983C143.542 25.9724 143.576 26.1204 143.542 26.1569V31.1366C143.542 31.3872 143.388 31.6173 143.164 31.6583C142.851 31.7152 142.603 31.4761 142.603 31.1492V19.8479C142.603 19.5973 142.758 19.365 142.982 19.324C143.294 19.2682 143.542 19.5062 143.542 19.8342V21.7193C144.347 20.1304 145.789 19.095 147.465 19.095C149.374 19.095 150.85 20.4254 151.453 22.3856C152.223 20.463 153.732 19.0939 155.676 19.0939C158.424 19.0939 160 21.7193 160 24.5304Z" fill="#3C3C3B"/>
<path fill-rule="evenodd" clip-rule="evenodd" d="M0.296875 23.5198L14.0356 31.7648V0.377197L0.296875 23.5198Z" fill="#8C8C8C"/>
<path fill-rule="evenodd" clip-rule="evenodd" d="M14.0352 0.377197V31.7648L27.7739 23.5198L14.0352 0.377197Z" fill="#343434"/>
<path fill-rule="evenodd" clip-rule="evenodd" d="M14.0365 17.181L0.296875 23.5198L14.0356 31.7648L27.7753 23.5207L14.0365 17.181Z" fill="#151515"/>
<path fill-rule="evenodd" clip-rule="evenodd" d="M14.0365 17.181L0.296875 23.5198L14.0356 31.7648L14.0365 17.181Z" fill="#393939"/>
<path fill-rule="evenodd" clip-rule="evenodd" d="M0.296875 26.1648L14.0356 45.8197V34.4052L0.296875 26.1648Z" fill="#8C8C8C"/>
<path fill-rule="evenodd" clip-rule="evenodd" d="M14.0352 34.4052V45.8206L27.783 26.1648L14.0352 34.4052Z" fill="#343434"/>
</svg>
