<svg width="20" height="20" viewBox="0 0 20 20" fill="none" xmlns="http://www.w3.org/2000/svg">
<path d="M10.832 9.29169H5.83203" stroke="#FEFFFF" stroke-width="1.5" stroke-linecap="round" stroke-linejoin="round"/>
<path d="M1.66797 9.2917V5.4417C1.66797 3.7417 3.04297 2.3667 4.74297 2.3667H9.4263C11.1263 2.3667 12.5013 3.42503 12.5013 5.12503" stroke="#FEFFFF" stroke-width="1.5" stroke-linecap="round" stroke-linejoin="round"/>
<path d="M14.568 10.1667C14.1513 10.5667 13.9513 11.1833 14.118 11.8166C14.3263 12.5916 15.093 13.0833 15.893 13.0833H16.668V14.2917C16.668 16.1333 15.1763 17.625 13.3346 17.625H5.0013C3.15964 17.625 1.66797 16.1333 1.66797 14.2917V8.45833C1.66797 6.61667 3.15964 5.125 5.0013 5.125H13.3346C15.168 5.125 16.668 6.625 16.668 8.45833V9.66663H15.768C15.3013 9.66663 14.8763 9.84999 14.568 10.1667Z" stroke="#FEFFFF" stroke-width="1.5" stroke-linecap="round" stroke-linejoin="round"/>
<path d="M18.3329 10.5166V12.2333C18.3329 12.7 17.9495 13.0833 17.4745 13.0833H15.8662C14.9662 13.0833 14.1412 12.425 14.0662 11.525C14.0162 11 14.2162 10.5083 14.5662 10.1667C14.8745 9.84999 15.2995 9.66663 15.7662 9.66663H17.4745C17.9495 9.66663 18.3329 10.05 18.3329 10.5166Z" stroke="#FEFFFF" stroke-width="1.5" stroke-linecap="round" stroke-linejoin="round"/>
</svg>
