<svg width="20" height="20" viewBox="0 0 20 20" fill="none" xmlns="http://www.w3.org/2000/svg">
<path d="M0.402225 12.8071C-0.15305 10.909 -0.132995 8.88888 0.459852 7.00215C1.0527 5.11543 2.19172 3.44685 3.73287 2.20742C5.27403 0.967988 7.14811 0.213362 9.11815 0.038963C11.0882 -0.135436 13.0657 0.278226 14.8006 1.22764C16.5356 2.17705 17.95 3.61957 18.8651 5.37281C19.7802 7.12604 20.1549 9.11124 19.9417 11.0774C19.7286 13.0435 18.9372 14.9023 17.6676 16.4187C16.398 17.9351 14.7073 19.041 12.8092 19.5966C11.5487 19.9659 10.2278 20.0833 8.92197 19.9419C7.61613 19.8006 6.35094 19.4033 5.19873 18.7728C4.04651 18.1422 3.02984 17.2908 2.20683 16.2672C1.38382 15.2436 0.770605 14.0679 0.402225 12.8071Z" fill="#3C3C3C"/>
<path d="M9.80785 12.4316L13.6789 10.7097L10.0559 3.88143L6.04577 10.4882L9.80785 12.4316Z" fill="white"/>
<path d="M10.0559 3.88143L9.96285 12.4363L6.04576 10.4882L10.0559 3.88143Z" fill="#E7E9EE"/>
<path d="M9.94093 16.737L13.9673 11.3287L9.94093 13.1275L6.03299 11.1009L9.94093 16.737Z" fill="white"/>
<path d="M9.91279 8.7671L13.6788 10.7085L9.80774 12.4305L6.04566 10.487L9.91279 8.7671Z" fill="#AEAEAE" fill-opacity="0.7"/>
<path d="M6.04566 10.487L9.91279 8.76709L9.80773 12.4305L6.04566 10.487Z" fill="#939393"/>
<path d="M6.02148 11.1133L9.92942 13.1399L9.92942 16.7371L6.02148 11.1133Z" fill="#E7E9EE"/>
</svg>
