<svg width="28" height="29" viewBox="0 0 28 29" fill="none" xmlns="http://www.w3.org/2000/svg">
<path d="M11.375 5.75H6.125C5.64175 5.75 5.25 6.14175 5.25 6.625V11.875C5.25 12.3582 5.64175 12.75 6.125 12.75H11.375C11.8582 12.75 12.25 12.3582 12.25 11.875V6.625C12.25 6.14175 11.8582 5.75 11.375 5.75Z" stroke="#49536E" stroke-width="2" stroke-linecap="round" stroke-linejoin="round"/>
<path d="M11.375 16.25H6.125C5.64175 16.25 5.25 16.6418 5.25 17.125V22.375C5.25 22.8582 5.64175 23.25 6.125 23.25H11.375C11.8582 23.25 12.25 22.8582 12.25 22.375V17.125C12.25 16.6418 11.8582 16.25 11.375 16.25Z" stroke="#49536E" stroke-width="2" stroke-linecap="round" stroke-linejoin="round"/>
<path d="M21.875 5.75H16.625C16.1418 5.75 15.75 6.14175 15.75 6.625V11.875C15.75 12.3582 16.1418 12.75 16.625 12.75H21.875C22.3582 12.75 22.75 12.3582 22.75 11.875V6.625C22.75 6.14175 22.3582 5.75 21.875 5.75Z" stroke="#49536E" stroke-width="2" stroke-linecap="round" stroke-linejoin="round"/>
<path d="M15.75 16.25V19.75" stroke="#49536E" stroke-width="2" stroke-linecap="round" stroke-linejoin="round"/>
<path d="M15.75 23.25H19.25V16.25" stroke="#49536E" stroke-width="2" stroke-linecap="round" stroke-linejoin="round"/>
<path d="M19.25 18H22.75" stroke="#49536E" stroke-width="2" stroke-linecap="round" stroke-linejoin="round"/>
<path d="M22.75 21.5V23.25" stroke="#49536E" stroke-width="2" stroke-linecap="round" stroke-linejoin="round"/>
</svg>
