<svg width="194" height="194" viewBox="0 0 194 194" fill="none" xmlns="http://www.w3.org/2000/svg">
<path fill-rule="evenodd" clip-rule="evenodd" d="M7.63663 29.6334L7.82794 51.1111L29.3057 51.3024L50.7834 51.4937V29.8247V8.15565H29.1143H7.44531L7.63663 29.6334ZM56.6982 11.2239L56.9199 14.2921L66.1246 14.4943L75.3293 14.6964V20.4503V26.2042H72.4416H69.5538V23.3164V20.4286H66.3051H63.0564V23.6774V26.9261H65.9441H68.8319V32.6583V38.3898L66.1246 38.6143C63.5032 38.8309 63.4101 38.9341 63.1971 41.8666C62.9791 44.867 62.9488 44.8974 59.9484 45.1154L56.9199 45.3356L56.7105 51.2916L56.5004 57.2476H59.7788H63.0564V60.4963V63.745H65.9441H68.8319V66.6328V69.5206H63.0975H57.3639L57.1415 66.4523C56.9206 63.3992 56.9047 63.3834 53.8516 63.1624C50.7985 62.9408 50.7834 62.9264 50.7834 60.0942V57.2476H47.4935H44.2029L44.4253 60.3158C44.6462 63.3689 44.662 63.3848 47.7151 63.6057C50.7682 63.8273 50.7834 63.8418 50.7834 66.674V69.5206H44.6469H38.5104V72.7693V76.018H44.6469H50.7834V72.7693V69.5206H53.63C56.4622 69.5206 56.4766 69.5357 56.6982 72.5888L56.9199 75.6571H63.0564H69.1929L69.4145 72.5888C69.6361 69.5278 69.6433 69.5206 72.5246 69.5206H75.4124L75.19 66.4523C74.9749 63.4743 74.889 63.3776 72.2611 63.1603L69.5538 62.9357V57.2043V51.4721H72.4416H75.3293V48.1822V44.8916L78.3976 45.1139L81.4658 45.3356L81.668 54.5403L81.8701 63.745H84.6944C87.502 63.745 87.5208 63.7256 87.7417 60.6768C87.9626 57.6158 87.9698 57.6086 90.8511 57.6086H93.7388L93.9482 63.5646L94.1583 69.5206H97.0164C99.863 69.5206 99.8753 69.5328 99.8753 72.365C99.8753 75.13 99.8002 75.2152 97.168 75.4333L94.4608 75.6571L94.2521 81.974L94.0435 88.291H96.9594H99.8753V91.1788V94.0665H93.78H87.6853L87.463 90.9983C87.2479 88.0152 87.1713 87.93 84.7146 87.93C82.2578 87.93 82.1813 88.0152 81.9661 90.9983L81.7438 94.0665H84.6734H87.6023V97.3153V100.564H84.7579C81.9929 100.564 81.9077 100.639 81.6896 103.271C81.4723 105.899 81.3756 105.985 78.3976 106.2L75.3293 106.423V94.0867V81.7502L66.1246 81.9524L56.9199 82.1545L56.7105 88.1105L56.5004 94.0665H50.7545H45.0079V91.1788V88.291H47.8956H50.7834V85.0011V81.7105L47.7151 81.9329C44.7371 82.148 44.6404 82.2339 44.4231 84.8618L44.1986 87.5691H38.5104H32.8222L32.5977 84.8618C32.3804 82.2339 32.2837 82.148 29.3057 81.9329L26.2374 81.7105V85.0011V88.291H29.1252H32.0129V91.1788V94.0665H38.1494H44.2859V97.3376V100.609L35.4422 100.406L26.5984 100.203L26.3767 97.1348L26.1544 94.0665H20.0598H13.9644V91.1788V88.291H16.8522H19.74V85.0423V81.7935H16.8522H13.9644V78.9058V76.018H16.8522H19.74V72.7974V69.5769L26.0569 69.3682L32.3739 69.1596L32.5977 66.4523C32.8157 63.8201 32.9009 63.745 35.666 63.745H38.5104V60.4963V57.2476H32.3739H26.2374V60.1353V63.0231H22.9887H19.74V60.1353V57.2476H13.6035H7.46697V60.4963V63.745H13.6035H19.74V66.6328V69.5206H13.6035H7.46697V81.7524V93.9835L10.5352 94.2059C13.5962 94.4268 13.6035 94.434 13.6035 97.3153C13.6035 100.197 13.5962 100.204 10.5352 100.425L7.46697 100.647V119.015V137.383H13.5623H19.6569L19.8793 134.315C20.1002 131.254 20.1074 131.246 22.9887 131.246C25.8699 131.246 25.8772 131.254 26.0981 134.315L26.3204 137.383H32.4151H38.5104V134.134V130.885H41.357C44.1892 130.885 44.2036 130.901 44.4253 133.954L44.6469 137.022L50.6029 137.231L56.5589 137.441V140.258C56.5589 143.057 56.5798 143.077 59.6271 143.298C62.6875 143.519 62.6961 143.527 62.9192 146.627L63.143 149.735L66.1679 149.515C69.1705 149.296 69.1943 149.273 69.4145 146.227C69.6361 143.174 69.6506 143.158 72.4827 143.158H75.3293V152.544V161.929H72.4827C69.6506 161.929 69.6361 161.914 69.4145 158.861L69.1929 155.792H63.0564H56.9199L56.7105 161.748L56.5004 167.704H65.9152H75.3293V170.912V174.119L72.2611 174.341C69.2831 174.556 69.1864 174.642 68.9691 177.27C68.751 179.902 68.6658 179.977 65.9008 179.977C63.0636 179.977 63.0564 179.97 63.0564 177.09V174.202H59.7788H56.5004L56.7105 180.158L56.9199 186.114H63.0564H69.1929L69.4152 183.435L69.6376 180.756L75.5517 180.548L81.4658 180.338L81.6875 177.27L81.9098 174.202H87.9633H94.0168L94.2391 171.134C94.4543 168.151 94.5308 168.065 96.9875 168.065H99.5143L99.7237 174.021L99.9338 179.977H97.0164H94.0998V183.248V186.518L103.305 186.316L112.509 186.114L112.719 180.158L112.929 174.202H109.629H106.329L106.532 164.997L106.734 155.792L112.69 155.583L118.646 155.373V158.651V161.929H143.192H167.738V158.68V155.431H164.85H161.962V152.544V149.656H164.85H167.738V143.548V137.439L174.055 137.231L180.372 137.022V134.134C180.372 131.253 180.364 131.246 177.303 131.025C174.258 130.804 174.235 130.782 174.235 127.998C174.235 125.214 174.212 125.192 171.167 124.971C168.106 124.75 168.099 124.742 168.099 121.861V118.973L174.012 118.765L179.925 118.555L180.149 121.653C180.371 124.739 180.382 124.75 183.44 124.971L186.508 125.193V121.902V118.612H183.62C180.738 118.612 180.733 118.608 180.733 115.753V112.893L174.416 112.685L168.099 112.476V109.588C168.099 106.707 168.106 106.7 171.167 106.479L174.235 106.256V100.162V94.0665H177.123H180.011V100.203V106.34H183.274H186.537L186.342 90.9983L186.147 75.6571H183.259H180.372L180.162 81.6131L179.952 87.5691H164.821H149.689V84.6813V81.7935H146.462H143.235L143.033 90.9983L142.831 100.203L140.123 100.427L137.416 100.651V88.3343V76.018H140.304H143.192V69.8815V63.745H146.44H149.689V69.8815V76.018H152.577H155.465V78.9058V81.7935H161.601H167.738V78.9058V76.018H170.986H174.235V72.8104V69.6036L177.303 69.3812C180.281 69.1661 180.378 69.0802 180.595 66.4523C180.813 63.8201 180.899 63.745 183.664 63.745H186.508V60.4963V57.2476H183.259H180.011V60.1065V62.9646L174.055 63.1747L168.099 63.3841L167.889 69.3401L167.679 75.2961H164.85H162.021L161.811 69.3401L161.601 63.3841L155.645 63.1747L149.689 62.9646V60.1065V57.2476H146.44H143.192V60.1353V63.0231H140.304H137.416V60.1072V57.1913L131.099 57.3999L124.782 57.6086L124.573 63.5646L124.363 69.5206H121.505H118.646V63.3841V57.2476H115.758H112.87V51.1111V44.9746H115.758H118.646V48.2645V51.5551L121.714 51.3327L124.782 51.1111L124.992 45.1551L125.202 39.1991H128.06H130.919V45.3767V51.5551L133.987 51.3327L137.055 51.1111V44.9746V38.8381L133.987 38.6165C130.934 38.3948 130.919 38.3804 130.919 35.5482V32.7016H134.209H137.499L137.277 29.6334C137.056 26.5803 137.04 26.5644 133.987 26.3435C130.934 26.1219 130.919 26.1074 130.919 23.2752V20.4286H134.209H137.499L137.277 17.3604L137.055 14.2921H130.919H124.782L124.58 23.4969L124.378 32.7016H121.554C118.746 32.7016 118.727 32.6821 118.506 29.6334C118.286 26.5723 118.278 26.5651 115.397 26.5651C112.516 26.5651 112.509 26.5723 112.288 29.6334C112.066 32.6865 112.052 32.7016 109.219 32.7016H106.373V35.9503V39.1991H109.261H112.148V42.0868V44.9746H109.261H106.373V47.8624V50.7501H103.124H99.8753V47.8624V44.9746H96.9875H94.0998V47.8624V50.7501H90.8511H87.6023V47.8624V44.9746H84.7146H81.8268V42.0868V39.1991H84.7146H87.6023V35.9503V32.7016H90.8511H94.0998V29.8139V26.9261H100.236H106.373V23.7185V20.5117L103.305 20.2893C100.251 20.0684 100.236 20.0525 100.015 16.9994L99.7923 13.9312H90.8099H81.8268V11.0434V8.15565H69.1517H56.4759L56.6982 11.2239ZM112.148 14.2921V20.4286H115.397H118.646V14.2921V8.15565H115.397H112.148V14.2921ZM143.192 29.8139V51.4721H164.85H186.508V29.8139V8.15565H164.85H143.192V29.8139ZM44.2859 29.8139V44.9746H29.1252H13.9644V29.8139V14.6531H29.1252H44.2859V29.8139ZM180.011 29.8139V44.9746H164.85H149.689V29.8139V14.6531H164.85H180.011V29.8139ZM19.8988 29.6334L20.1009 38.8381L29.3057 39.0403L38.5104 39.2424V29.8355V20.4286H29.1035H19.6966L19.8988 29.6334ZM87.6023 26.5651V32.7016H84.7146H81.8268V26.5651V20.4286H84.7146H87.6023V26.5651ZM155.624 29.6334L155.826 38.8381L165.03 39.0403L174.235 39.2424V29.8355V20.4286H164.828H155.421L155.624 29.6334ZM75.3293 42.0868V44.9746H72.4416H69.5538V42.0868V39.1991H72.4416H75.3293V42.0868ZM68.8319 47.8624V50.7501H65.9441H63.0564V47.8624V44.9746H65.9441H68.8319V47.8624ZM112.148 60.1353V63.0231H106.012H99.8753V60.6169C99.8753 59.2928 100.092 57.9933 100.357 57.7291C100.621 57.4642 103.382 57.2476 106.493 57.2476H112.148V60.1353ZM136.694 69.5206V75.2961H130.919H125.143V72.4083V69.5206H128.031H130.919V66.6328V63.745H133.806H136.694V69.5206ZM81.8268 72.7693V76.018H84.7146H87.6023V72.7693V69.5206H84.7146H81.8268V72.7693ZM112.148 85.0423V100.564H109.289H106.431L106.221 106.52L106.012 112.476H103.124C100.243 112.476 100.236 112.469 100.015 109.408L99.7923 106.34H93.6977H87.6023V103.452V100.564H96.9875H106.373V85.0423V69.5206H109.261H112.148V85.0423ZM124.421 78.9058V81.7935H127.67H130.919V87.8889V93.9835L127.85 94.2059C124.789 94.4268 124.782 94.434 124.782 97.3153V100.203L130.738 100.412L136.694 100.622V103.481V106.34H127.711H118.729L118.506 109.408C118.291 112.386 118.205 112.482 115.578 112.7L112.87 112.924V106.744V100.564H115.758H118.646V88.291V76.018H121.534H124.421V78.9058ZM68.6803 94.247L68.4709 100.203L65.7636 100.427C63.1314 100.645 63.0564 100.73 63.0564 103.495C63.0564 106.332 63.0491 106.34 60.1686 106.34H57.2808V103.452V100.564H60.1686H63.0564V94.4275V88.291H65.973H68.8904L68.6803 94.247ZM167.738 100.203V106.34H164.85C161.969 106.34 161.962 106.332 161.962 103.493C161.962 100.661 161.947 100.646 158.894 100.425C156.124 100.225 155.803 100.004 155.591 98.157C155.159 94.3835 155.651 94.0665 161.94 94.0665H167.738V100.203ZM50.7834 103.452V106.34H53.6711H56.5589V109.588V112.837H53.6711H50.7834V115.725V118.612H47.8956H45.0079V115.725V112.837H47.8956H50.7834V109.588V106.34H47.8956H45.0079V103.452V100.564H47.8956H50.7834V103.452ZM19.74 112.476V118.612H16.8522H13.9644V112.476V106.34H16.8522H19.74V112.476ZM32.0129 109.632V112.924L29.3057 112.7C26.6778 112.482 26.5919 112.386 26.3767 109.408L26.1544 106.34H29.084H32.0129V109.632ZM44.2859 109.632V112.924L41.5786 112.7C38.9508 112.482 38.8649 112.386 38.6497 109.408L38.4274 106.34H41.357H44.2859V109.632ZM149.55 109.769C149.771 112.814 149.793 112.837 152.577 112.837C155.361 112.837 155.383 112.814 155.604 109.769C155.825 106.708 155.832 106.7 158.713 106.7H161.601V109.588C161.601 112.47 161.594 112.477 158.533 112.698C155.488 112.919 155.465 112.941 155.465 115.725C155.465 118.509 155.488 118.531 158.533 118.752L161.601 118.973L161.811 124.929L162.021 130.885H158.742H155.465V124.749V118.612H149.328H143.192V121.82V125.027L146.26 125.249C149.243 125.464 149.328 125.541 149.328 127.998C149.328 130.454 149.243 130.531 146.26 130.746L143.192 130.968V128.039V125.11H139.943H136.694V127.998V130.885H133.806H130.919V137.022V143.158H124.782H118.646V140.312C118.646 137.48 118.661 137.465 121.714 137.244C124.775 137.023 124.782 137.015 124.782 134.134V131.246H118.646H112.509L112.288 134.315L112.065 137.383H103.083H94.0998V131.246V125.11H100.236H106.373V121.861V118.612H109.219C112.052 118.612 112.066 118.628 112.288 121.681L112.509 124.749L121.671 124.95L130.834 125.153L131.057 122.063C131.279 118.985 131.291 118.973 134.348 118.752L137.416 118.529V112.405V106.281L143.372 106.491L149.328 106.7L149.55 109.769ZM68.8319 115.725V118.612H65.9441H63.0564V121.861V125.11H65.9441H68.8319V127.998V130.885H65.9441H63.0564V134.134V137.383H60.1686H57.2808V127.998V118.612H60.1686H63.0564V115.725V112.837H65.9441H68.8319V115.725ZM94.0998 115.725V118.612H87.9633H81.8268V115.725V112.837H87.9633H94.0998V115.725ZM124.421 115.725V118.612H121.534H118.646V115.725V112.837H121.534H124.421V115.725ZM167.738 115.725V118.612H164.85H161.962V115.725V112.837H164.85H167.738V115.725ZM38.3588 124.929L38.5689 130.885H35.6515H32.7349V124.706V118.525L35.4422 118.75L38.1494 118.973L38.3588 124.929ZM81.4658 121.861V124.749H78.5781C75.943 124.749 75.6701 124.57 75.4557 122.703C75.0673 119.306 75.7394 118.5 78.7528 118.749C81.3994 118.968 81.4658 119.044 81.4658 121.861ZM50.7834 127.998V130.885H47.8956H45.0079V127.998V125.11H47.8956H50.7834V127.998ZM87.6023 131.246V137.383H84.7146H81.8268V140.271V143.158H84.7146H87.6023V146.407V149.656H84.7146H81.8268V146.407V143.158H78.5781H75.3293V140.271V137.383H72.4416H69.5538V134.134V130.885H72.4416H75.3293V134.134V137.383H78.5781H81.8268V131.246V125.11H84.7146H87.6023V131.246ZM155.465 146.407V155.431H146.44H137.416V146.407V137.383H146.44H155.465V146.407ZM7.46697 164.817V186.475H29.1252H50.7834V164.817V143.158H29.1252H7.46697V164.817ZM99.8753 152.544V161.929H96.9875H94.0998V152.544V143.158H96.9875H99.8753V152.544ZM112.148 146.407V149.656H109.261H106.373V146.407V143.158H109.261H112.148V146.407ZM143.192 146.407V149.656H146.44H149.689V146.407V143.158H146.44H143.192V146.407ZM44.2859 164.817V179.977H29.1252H13.9644V164.817V149.656H29.1252H44.2859V164.817ZM124.421 152.544V155.431H121.534H118.646V152.544V149.656H121.534H124.421V152.544ZM174.235 155.792V161.929H177.123H180.011V164.817V167.704H173.874H167.738V170.953V174.202H164.85H161.962V170.953V167.704H155.826H149.689V170.953V174.202H152.577H155.465V177.09V179.977H149.328H143.192V173.8V167.621L140.123 167.844L137.055 168.065L136.846 174.021L136.636 179.977H130.89H125.143V177.09V174.202H128.031H130.919V170.953V167.704H124.782H118.646V177.09V186.475H143.192H167.738V183.628C167.738 180.796 167.753 180.782 170.806 180.56C173.859 180.339 173.875 180.323 174.096 177.27C174.317 174.225 174.339 174.202 177.123 174.202C179.907 174.202 179.929 174.225 180.15 177.27C180.371 180.331 180.378 180.338 183.259 180.338H186.147L186.349 171.134L186.551 161.929H183.642H180.733V158.68V155.431H183.62H186.508V152.544V149.656H180.372H174.235V155.792ZM19.74 164.817V174.202H29.1252H38.5104V164.817V155.431H29.1252H19.74V164.817ZM87.6023 164.817V167.704H81.4658H75.3293V164.817V161.929H81.4658H87.6023V164.817Z" fill="#0C0C0C"/>
<rect x="0.587533" y="1.29723" width="192.823" height="192.079" rx="11.1901" stroke="black" stroke-width="0.72194"/>
</svg>
