<svg width="32" height="32" viewBox="0 0 32 32" fill="none" xmlns="http://www.w3.org/2000/svg">
<g clip-path="url(#clip0_2201_38289)">
<path d="M16 32C24.8366 32 32 24.8366 32 16C32 7.16344 24.8366 0 16 0C7.16344 0 0 7.16344 0 16C0 24.8366 7.16344 32 16 32Z" fill="#26A17B"/>
<path fill-rule="evenodd" clip-rule="evenodd" d="M17.9228 17.383V17.381C17.8128 17.389 17.2458 17.423 15.9808 17.423C14.9708 17.423 14.2598 17.393 14.0098 17.381V17.384C10.1218 17.213 7.21978 16.536 7.21978 15.726C7.21978 14.917 10.1218 14.24 14.0098 14.066V16.71C14.2638 16.728 14.9918 16.771 15.9978 16.771C17.2048 16.771 17.8098 16.721 17.9228 16.711V14.068C21.8028 14.241 24.6978 14.918 24.6978 15.726C24.6978 16.536 21.8028 17.211 17.9228 17.383ZM17.9228 13.793V11.427H23.3368V7.819H8.59578V11.427H14.0098V13.792C9.60978 13.994 6.30078 14.866 6.30078 15.91C6.30078 16.954 9.60978 17.825 14.0098 18.028V25.61H17.9228V18.026C22.3158 17.824 25.6168 16.953 25.6168 15.91C25.6168 14.867 22.3158 13.996 17.9228 13.793Z" fill="white"/>
</g>
<defs>
<clipPath id="clip0_2201_38289">
<rect width="32" height="32" fill="white"/>
</clipPath>
</defs>
</svg>
