<svg width="26" height="26" viewBox="0 0 26 26" fill="none" xmlns="http://www.w3.org/2000/svg">
<circle cx="13" cy="13" r="13" fill="white"/>
<path d="M13 23.75C7.07 23.75 2.25 18.93 2.25 13C2.25 7.07 7.07 2.25 13 2.25C18.93 2.25 23.75 7.07 23.75 13C23.75 18.93 18.93 23.75 13 23.75ZM13 3.75C7.9 3.75 3.75 7.9 3.75 13C3.75 18.1 7.9 22.25 13 22.25C18.1 22.25 22.25 18.1 22.25 13C22.25 7.9 18.1 3.75 13 3.75Z" fill="#0171FD"/>
<path d="M15.5 13.75H9.5C9.09 13.75 8.75 13.41 8.75 13C8.75 12.59 9.09 12.25 9.5 12.25H15.5C15.91 12.25 16.25 12.59 16.25 13C16.25 13.41 15.91 13.75 15.5 13.75Z" fill="#0171FD"/>
<path d="M13.4995 16.7499C13.3095 16.7499 13.1195 16.6799 12.9695 16.5299C12.6795 16.2399 12.6795 15.7599 12.9695 15.4699L15.4395 12.9999L12.9695 10.5299C12.6795 10.2399 12.6795 9.75994 12.9695 9.46994C13.2595 9.17994 13.7395 9.17994 14.0295 9.46994L17.0295 12.4699C17.3195 12.7599 17.3195 13.2399 17.0295 13.5299L14.0295 16.5299C13.8795 16.6799 13.6895 16.7499 13.4995 16.7499Z" fill="#0171FD"/>
</svg>
