<svg width="20" height="20" viewBox="0 0 20 20" fill="none" xmlns="http://www.w3.org/2000/svg">
<path d="M10.834 9.29169H5.83398" stroke="#FEFFFF" stroke-width="1.5" stroke-linecap="round" stroke-linejoin="round"/>
<path d="M1.66602 9.29169V5.44169C1.66602 3.74169 3.04102 2.36669 4.74102 2.36669H9.42435C11.1243 2.36669 12.4993 3.42502 12.4993 5.12502" stroke="#FEFFFF" stroke-width="1.5" stroke-linecap="round" stroke-linejoin="round"/>
<path d="M14.566 10.1667C14.1493 10.5667 13.9493 11.1833 14.116 11.8167C14.3243 12.5917 15.091 13.0833 15.891 13.0833H16.666V14.2917C16.666 16.1334 15.1743 17.625 13.3327 17.625H4.99935C3.15768 17.625 1.66602 16.1334 1.66602 14.2917V8.45836C1.66602 6.61669 3.15768 5.12502 4.99935 5.12502H13.3327C15.166 5.12502 16.666 6.62502 16.666 8.45836V9.66665H15.766C15.2993 9.66665 14.8743 9.85001 14.566 10.1667Z" stroke="#FEFFFF" stroke-width="1.5" stroke-linecap="round" stroke-linejoin="round"/>
<path d="M18.3329 10.5167V12.2333C18.3329 12.7 17.9495 13.0833 17.4745 13.0833H15.8662C14.9662 13.0833 14.1412 12.425 14.0662 11.525C14.0162 11 14.2162 10.5083 14.5662 10.1667C14.8745 9.85001 15.2995 9.66665 15.7662 9.66665H17.4745C17.9495 9.66665 18.3329 10.05 18.3329 10.5167Z" stroke="#FEFFFF" stroke-width="1.5" stroke-linecap="round" stroke-linejoin="round"/>
</svg>
