<svg width="17" height="17" viewBox="0 0 17 17" fill="none" xmlns="http://www.w3.org/2000/svg">
<g clip-path="url(#clip0_2271_1206)">
<path d="M14.3915 3.18153C13.3078 2.69278 12.1461 2.33153 10.9313 2.12611C10.9205 2.12404 10.9093 2.12537 10.8993 2.12994C10.8893 2.13451 10.8809 2.14208 10.8754 2.15161C10.7266 2.41299 10.5609 2.7537 10.4447 3.02286C9.15632 2.83036 7.84648 2.83036 6.55809 3.02286C6.4287 2.72456 6.28279 2.43369 6.12105 2.15161C6.11557 2.14197 6.10727 2.13422 6.09727 2.12941C6.08727 2.1246 6.07605 2.12296 6.06509 2.1247C4.85101 2.33011 3.68934 2.69136 2.60488 3.18082C2.59555 3.18473 2.58764 3.19141 2.58222 3.19995C0.377882 6.44057 -0.226326 9.60116 0.0704654 12.7221C0.0712913 12.7297 0.0736639 12.7371 0.0774389 12.7438C0.0812139 12.7505 0.0863123 12.7564 0.0924238 12.761C1.37903 13.6977 2.81408 14.4113 4.33747 14.8719C4.34808 14.8751 4.35944 14.8751 4.37006 14.8718C4.38067 14.8686 4.39005 14.8621 4.39697 14.8534C4.72478 14.415 5.01527 13.9499 5.26538 13.463C5.26885 13.4563 5.27085 13.449 5.27125 13.4415C5.27164 13.434 5.27042 13.4265 5.26767 13.4195C5.26491 13.4125 5.26069 13.4062 5.25529 13.401C5.24988 13.3958 5.24342 13.3918 5.23634 13.3893C4.77876 13.217 4.3354 13.0091 3.91034 12.7674C3.9027 12.763 3.89627 12.7569 3.89161 12.7494C3.88695 12.7419 3.88422 12.7334 3.88366 12.7247C3.8831 12.7159 3.88472 12.7071 3.88839 12.6991C3.89206 12.6911 3.89765 12.6842 3.90467 12.6789C3.99392 12.613 4.08317 12.5443 4.16817 12.4756C4.17582 12.4694 4.18504 12.4655 4.1948 12.4642C4.20455 12.463 4.21446 12.4644 4.22342 12.4685C7.00505 13.718 10.0176 13.718 12.7666 12.4685C12.7756 12.4642 12.7856 12.4625 12.7955 12.4637C12.8054 12.4648 12.8148 12.4687 12.8226 12.4749C12.9076 12.5443 12.9961 12.613 13.0861 12.6789C13.0932 12.6841 13.0989 12.6909 13.1026 12.6988C13.1064 12.7068 13.1082 12.7155 13.1078 12.7243C13.1074 12.733 13.1048 12.7416 13.1002 12.7491C13.0957 12.7566 13.0894 12.7629 13.0818 12.7674C12.6583 13.0111 12.2177 13.2172 11.7551 13.3886C11.748 13.3912 11.7416 13.3953 11.7361 13.4005C11.7307 13.4058 11.7265 13.4122 11.7238 13.4192C11.721 13.4263 11.7198 13.4338 11.7202 13.4414C11.7206 13.4489 11.7226 13.4563 11.7261 13.463C11.9811 13.9496 12.2729 14.4129 12.5938 14.8527C12.6005 14.8618 12.6098 14.8685 12.6204 14.8721C12.6311 14.8756 12.6425 14.8758 12.6533 14.8726C14.1793 14.4133 15.6167 13.6994 16.9047 12.761C16.911 12.7566 16.9163 12.751 16.9202 12.7444C16.9241 12.7378 16.9265 12.7304 16.9274 12.7228C17.2815 9.11453 16.3338 5.97945 14.4135 3.20136C14.4088 3.19234 14.401 3.1853 14.3915 3.18153ZM5.68117 10.8216C4.84392 10.8216 4.1533 10.0644 4.1533 9.13578C4.1533 8.20645 4.83047 7.44995 5.68117 7.44995C6.53826 7.44995 7.22251 8.21282 7.20905 9.13578C7.20905 10.0651 6.53188 10.8216 5.68117 10.8216ZM11.3301 10.8216C10.4922 10.8216 9.80226 10.0644 9.80226 9.13578C9.80226 8.20645 10.4787 7.44995 11.3301 7.44995C12.1872 7.44995 12.8715 8.21282 12.858 9.13578C12.858 10.0651 12.1879 10.8216 11.3301 10.8216Z" fill="currentColor"/>
</g>
<defs>
<clipPath id="clip0_2271_1206">
<rect width="17" height="17" fill="white"/>
</clipPath>
</defs>
</svg>
