<svg width="16" height="17" viewBox="0 0 16 17" fill="none" xmlns="http://www.w3.org/2000/svg">
<g clip-path="url(#clip0_2271_1200)">
<mask id="mask0_2271_1200" style="mask-type:luminance" maskUnits="userSpaceOnUse" x="0" y="0" width="16" height="17">
<path d="M0 0H16V17H0V0Z" fill="white"/>
</mask>
<g mask="url(#mask0_2271_1200)">
<path fill-rule="evenodd" clip-rule="evenodd" d="M8 0C3.58 0 0 3.80375 0 8.5C0 12.2613 2.29 15.4381 5.47 16.5644C5.87 16.6388 6.02 16.3838 6.02 16.1606C6.02 15.9588 6.01 15.2894 6.01 14.5775C4 14.9706 3.48 14.0569 3.32 13.5788C3.23 13.3344 2.84 12.58 2.5 12.3781C2.22 12.2188 1.82 11.8256 2.49 11.815C3.12 11.8044 3.57 12.4313 3.72 12.6863C4.44 13.9719 5.59 13.6106 6.05 13.3875C6.12 12.835 6.33 12.4631 6.56 12.2506C4.78 12.0381 2.92 11.305 2.92 8.05375C2.92 7.12938 3.23 6.36438 3.74 5.76938C3.66 5.55688 3.38 4.68563 3.82 3.51688C3.82 3.51688 4.49 3.29375 6.02 4.38813C6.66 4.19688 7.34 4.10125 8.02 4.10125C8.7 4.10125 9.38 4.19688 10.02 4.38813C11.55 3.28313 12.22 3.51688 12.22 3.51688C12.66 4.68563 12.38 5.55688 12.3 5.76938C12.81 6.36438 13.12 7.11875 13.12 8.05375C13.12 11.3156 11.25 12.0381 9.47 12.2506C9.76 12.5163 10.01 13.0262 10.01 13.8231C10.01 14.96 10 15.8738 10 16.1606C10 16.3838 10.15 16.6494 10.55 16.5644C12.1381 15.9947 13.5181 14.9102 14.4958 13.4636C15.4734 12.0169 15.9995 10.281 16 8.5C16 3.80375 12.42 0 8 0Z" fill="url(#paint0_linear_2271_1200)"/>
</g>
</g>
<defs>
<linearGradient id="paint0_linear_2271_1200" x1="-2.74318" y1="-9.74111" x2="-16.0342" y2="15.9663" gradientUnits="userSpaceOnUse">
<stop stop-color="currentColor"/>
<stop offset="1" stop-color="currentColor"/>
</linearGradient>
<clipPath id="clip0_2271_1200">
<rect width="16" height="17" fill="white"/>
</clipPath>
</defs>
</svg>
