<svg width="17" height="15" viewBox="0 0 17 15" fill="none" xmlns="http://www.w3.org/2000/svg">
<path d="M16.0594 2.4972C15.4813 2.75928 14.8603 2.93636 14.2075 3.01641C14.8811 2.60401 15.385 1.95494 15.6253 1.19032C14.9924 1.57494 14.2998 1.84567 13.5775 1.99074C13.0917 1.4601 12.4483 1.10839 11.7472 0.9902C11.0461 0.872013 10.3265 0.993967 9.70001 1.33713C9.07357 1.68029 8.57538 2.22545 8.2828 2.88799C7.99021 3.55052 7.9196 4.29335 8.08192 5.00116C6.79955 4.93528 5.54505 4.59425 4.39983 4.00021C3.25461 3.40617 2.24427 2.5724 1.43438 1.55299C1.15746 2.04174 0.998228 2.60841 0.998228 3.21191C0.997919 3.75519 1.12868 4.29016 1.37891 4.76934C1.62915 5.24852 1.99111 5.6571 2.43269 5.95882C1.92057 5.94215 1.41976 5.80057 0.971921 5.54586V5.58836C0.971869 6.35035 1.22948 7.08888 1.70105 7.67865C2.17261 8.26843 2.82909 8.67311 3.55907 8.82403C3.084 8.95558 2.58592 8.97496 2.10246 8.8807C2.30842 9.53634 2.70961 10.1097 3.24987 10.5204C3.79012 10.9312 4.4424 11.1588 5.11538 11.1714C3.97296 12.089 2.56207 12.5868 1.10969 12.5846C0.852415 12.5846 0.595358 12.5693 0.339844 12.5385C1.8141 13.5084 3.53023 14.0231 5.28292 14.0211C11.216 14.0211 14.4595 8.99332 14.4595 4.63282C14.4595 4.49116 14.456 4.34807 14.4498 4.20641C15.0807 3.7396 15.6252 3.16154 16.058 2.49932L16.0594 2.4972Z" fill="currentColor"/>
</svg>
