<svg width="30" height="30" viewBox="0 0 30 30" fill="none" xmlns="http://www.w3.org/2000/svg">
<rect width="30" height="30" rx="8" fill="url(#paint0_linear_2271_796)"/>
<path d="M22.1485 17.9475C22.0285 17.745 21.691 17.43 20.851 17.58C20.386 17.6625 19.9135 17.7 19.441 17.6775C17.6935 17.6025 16.111 16.8 15.0085 15.5625C14.0335 14.475 13.4335 13.0575 13.426 11.5275C13.426 10.6725 13.591 9.84753 13.9285 9.06753C14.2585 8.31003 14.026 7.91253 13.861 7.74753C13.6885 7.57503 13.2835 7.33503 12.4885 7.66503C9.421 8.95503 7.5235 12.03 7.7485 15.3225C7.9735 18.42 10.1485 21.0675 13.0285 22.065C13.7185 22.305 14.446 22.4475 15.196 22.4775C15.316 22.485 15.436 22.4925 15.556 22.4925C18.0685 22.4925 20.4235 21.3075 21.9085 19.29C22.411 18.5925 22.276 18.15 22.1485 17.9475Z" fill="#FEFFFF"/>
<defs>
<linearGradient id="paint0_linear_2271_796" x1="-3.91304" y1="9.78261" x2="13.0056" y2="42.0803" gradientUnits="userSpaceOnUse">
<stop stop-color="#0171FD"/>
<stop offset="1" stop-color="#1AE52D"/>
</linearGradient>
</defs>
</svg>
