<svg viewBox="0 0 178 44" fill="none" xmlns="http://www.w3.org/2000/svg">
<g clip-path="url(#clip0_2271_758)">
<path d="M18.2132 43.1573L17.6312 42.8065C13.8638 40.5133 10.6817 37.3452 8.34452 33.5605C6.00736 29.7758 4.58135 25.4817 4.1828 21.0286V20.9944C4.10663 20.0941 3.87813 14.0715 3.87813 13.3823L3.84766 12.5316L18.1675 7.25403L32.9504 12.8762L32.3105 20.1407C32.0475 24.7561 30.6778 29.2355 28.3216 33.1864C25.9653 37.1374 22.6944 40.4394 18.7951 42.8034L18.2132 43.1573ZM6.46788 20.8268C6.82472 24.792 8.06902 28.621 10.1051 32.0196C12.1413 35.4182 14.915 38.2959 18.2132 40.4316C21.6359 38.2247 24.4929 35.2182 26.5472 31.6613C28.6015 28.1044 29.7939 24.0996 30.0255 19.9793V19.9451L30.5129 14.4471L18.1431 9.75934L6.18452 14.1522C6.26679 16.3626 6.41608 20.2152 6.47092 20.7958L6.46788 20.8268Z" fill="#001268"/>
<path d="M35.6328 28.4607L35.3068 28.2713L27.6107 23.7977C28.1399 21.9043 28.0985 19.8926 27.4919 18.0234L35.1088 13.3046L35.4135 13.109C35.8532 12.7818 36.1603 12.3019 36.2768 11.7599C36.3933 11.2179 36.3111 10.6512 36.0458 10.1666C35.7805 9.68208 35.3503 9.31318 34.8365 9.12949C34.3227 8.9458 33.7606 8.96001 33.2564 9.16945L32.647 9.53888L25.1428 14.1956C23.8832 12.923 22.3008 12.0329 20.5727 11.6251V2.26199C20.5443 1.71518 20.3232 1.19719 19.9499 0.803299C19.5766 0.409405 19.0763 0.16609 18.541 0.118117C18.0056 0.0701438 17.4713 0.220737 17.0363 0.542193C16.6012 0.863648 16.2947 1.33435 16.1732 1.86772V11.6499C14.3781 12.0937 12.7482 13.0589 11.4811 14.4284L3.63268 9.86484L3.328 9.68478C2.83282 9.44982 2.27023 9.40819 1.74694 9.5678C1.22364 9.72741 0.776026 10.0772 0.48899 10.5507C0.201953 11.0242 0.0954579 11.5887 0.189699 12.1369C0.28394 12.6851 0.572364 13.1791 1.00027 13.525L1.5822 13.8665L9.27224 18.3214C8.72993 20.1803 8.74478 22.1618 9.31489 24.0119L1.78024 28.6842L1.20136 29.0443C0.780359 29.4019 0.503335 29.9049 0.423162 30.4574C0.342989 31.0099 0.465281 31.5731 0.766695 32.0395C1.06811 32.506 1.52754 32.843 2.05729 32.9863C2.58704 33.1295 3.15002 33.069 3.63877 32.8162L3.95868 32.6145L11.5756 27.8832C12.8266 29.1979 14.4175 30.1246 16.164 30.5562V40.1987C16.2643 40.756 16.5652 41.255 17.0078 41.5979C17.4504 41.9408 18.0028 42.1029 18.5566 42.0524C19.1104 42.0018 19.6257 41.7424 20.0015 41.3248C20.3773 40.9072 20.5864 40.3617 20.5879 39.7951V30.5841C22.4429 30.1427 24.1257 29.1458 25.4201 27.7218L32.9669 32.1084L33.5763 32.4561C34.0858 32.6527 34.6483 32.6524 35.1577 32.4553C35.667 32.2582 36.0879 31.878 36.3409 31.3863C36.594 30.8947 36.6617 30.3257 36.5312 29.7867C36.4008 29.2477 36.0812 28.776 35.6328 28.4607ZM18.4278 27.5666C17.1632 27.5623 15.9283 27.1763 14.8789 26.4573C13.8296 25.7383 13.0128 24.7187 12.5318 23.527C12.0508 22.3354 11.9272 21.0252 12.1764 19.762C12.4257 18.4988 13.0368 17.3392 13.9324 16.4296C14.8281 15.52 15.9681 14.9013 17.2087 14.6515C18.4492 14.4017 19.7346 14.5321 20.9025 15.0261C22.0704 15.5202 23.0684 16.3558 23.7705 17.4275C24.4726 18.4991 24.8473 19.7587 24.8473 21.0472C24.8417 22.7782 24.1628 24.4364 22.9595 25.6584C21.7563 26.8804 20.1266 27.5666 18.4278 27.5666Z" fill="url(#paint0_linear_2271_758)"/>
<path d="M177.835 32.0961C177.816 32.2046 177.78 32.3093 177.729 32.4065C177.68 32.4987 177.614 32.58 177.534 32.6456C177.444 32.7182 177.34 32.771 177.229 32.8008C177.086 32.8413 176.939 32.8612 176.79 32.8598C176.642 32.8614 176.494 32.8415 176.352 32.8008C176.241 32.7697 176.138 32.717 176.047 32.6456C175.966 32.5809 175.9 32.4994 175.852 32.4065C175.801 32.3091 175.765 32.2044 175.745 32.0961C175.725 31.9813 175.715 31.8649 175.715 31.7484C175.715 31.0157 176.074 30.6494 176.793 30.6494C176.973 30.6443 177.152 30.6738 177.32 30.7363C177.452 30.7826 177.567 30.8667 177.653 30.9784C177.73 31.0796 177.787 31.1958 177.82 31.3199C177.855 31.46 177.871 31.604 177.869 31.7484C177.868 31.865 177.857 31.9814 177.835 32.0961ZM177.564 31.4007C177.54 31.3025 177.497 31.2098 177.439 31.1275C177.373 31.0425 177.284 30.978 177.183 30.9412C177.056 30.8947 176.922 30.8726 176.787 30.876C176.652 30.872 176.518 30.8952 176.391 30.9443C176.291 30.9803 176.203 31.045 176.138 31.1306C176.077 31.2113 176.033 31.3045 176.01 31.4038C175.982 31.5163 175.969 31.6322 175.971 31.7484C175.969 31.8653 175.981 31.9821 176.007 32.0961C176.033 32.1951 176.077 32.2879 176.138 32.3692C176.202 32.4567 176.29 32.5226 176.391 32.5586C176.519 32.6027 176.653 32.6238 176.787 32.6207C176.922 32.6235 177.056 32.6025 177.183 32.5586C177.285 32.5218 177.374 32.4561 177.439 32.3692C177.498 32.2876 177.541 32.1947 177.564 32.0961C177.593 31.9825 177.606 31.8656 177.604 31.7484C177.606 31.6312 177.593 31.5142 177.564 31.4007ZM177.168 32.2233C177.119 32.2692 177.06 32.3042 176.997 32.3261C176.933 32.348 176.866 32.3563 176.799 32.3506C176.722 32.3585 176.644 32.3481 176.571 32.3201C176.498 32.2921 176.432 32.2473 176.379 32.1892C176.289 32.0658 176.244 31.9144 176.251 31.7608C176.243 31.6052 176.289 31.4517 176.379 31.3262C176.431 31.2674 176.495 31.2219 176.567 31.1933C176.639 31.1647 176.716 31.1538 176.793 31.1616C176.861 31.157 176.928 31.1661 176.992 31.1885C177.056 31.2109 177.115 31.2461 177.165 31.292C177.209 31.3417 177.242 31.3996 177.263 31.4625C177.285 31.5253 177.294 31.5919 177.29 31.6583H177.065C177.066 31.5822 177.04 31.5082 176.991 31.4503C176.966 31.4272 176.937 31.4095 176.905 31.3983C176.873 31.3871 176.839 31.3826 176.806 31.3851C176.608 31.3851 176.501 31.5093 176.501 31.7515C176.501 31.9936 176.598 32.124 176.806 32.124C176.873 32.1285 176.94 32.1063 176.991 32.0619C177.039 32.0057 177.065 31.9341 177.065 31.8601H177.305C177.308 31.927 177.297 31.9937 177.274 32.0562C177.25 32.1186 177.214 32.1755 177.168 32.2233Z" fill="#001268"/>
<path d="M63.0273 28.4638C62.6786 29.3484 62.132 30.1379 61.4312 30.7696C60.7304 31.4012 59.8946 31.8575 58.9904 32.1022C57.65 32.512 56.255 32.7057 54.8559 32.6765C51.5106 32.6765 49.0914 31.9884 47.5985 30.6121C46.1056 29.2357 45.3358 27.2613 45.2891 24.6887H48.9452C49.0589 27.8719 50.9967 29.4634 54.7584 29.4634C58.1708 29.4634 59.876 28.4027 59.8739 26.2813C59.8784 25.8992 59.7859 25.5224 59.6055 25.1874C59.4251 24.8523 59.1628 24.5704 58.8441 24.369C58.0666 23.8478 57.1889 23.5017 56.2696 23.3538C55.2398 23.1613 54.1277 22.9295 52.9334 22.6584C51.7391 22.3873 50.6219 22.0944 49.582 21.7798C48.5754 21.4876 47.6696 20.9132 46.9678 20.122C46.2612 19.3106 45.8758 18.2606 45.8862 17.1759C45.8862 15.1228 46.5728 13.5043 47.9458 12.3205C49.3189 11.1366 51.4669 10.5437 54.3897 10.5416C57.3573 10.5416 59.555 11.207 60.983 12.5378C62.4109 13.8686 63.137 15.7416 63.1614 18.1569H59.5388C59.4514 16.6233 58.9924 15.4902 58.1616 14.7575C57.3309 14.0248 56.0299 13.6606 54.2587 13.6647C51.0901 13.6647 49.5068 14.714 49.5088 16.8127C49.5109 17.173 49.6075 17.5262 49.7885 17.8356C49.9696 18.1451 50.2286 18.3997 50.5386 18.5729C51.3303 19.0635 52.2113 19.3856 53.1284 19.5198C54.1704 19.7019 55.2875 19.9337 56.4798 20.2152C57.6125 20.4784 58.7311 20.8006 59.8313 21.1807C60.8425 21.5198 61.7406 22.1402 62.4241 22.972C63.1283 23.8606 63.494 24.9784 63.4539 26.1199C63.4593 26.9217 63.3145 27.7172 63.0273 28.4638Z" fill="#001268"/>
<path d="M78.8917 31.9811L78.3494 29.8359C77.9066 30.6038 77.0941 31.2692 75.912 31.8321C74.5784 32.4272 73.1324 32.7155 71.677 32.6765C69.7514 32.6765 68.1742 32.2254 66.9454 31.323C65.7165 30.4206 65.1072 29.1012 65.1173 27.3648C65.1173 25.7856 65.682 24.6008 66.8113 23.8102C67.9406 23.0195 69.7342 22.5021 72.1919 22.2579L77.539 21.7177C77.4963 20.3642 77.153 19.3656 76.5092 18.7219C75.8653 18.0783 74.7359 17.7564 73.1212 17.7564C71.6161 17.7564 70.57 18.0441 69.983 18.6195C69.396 19.1948 69.1025 20.0579 69.1025 21.2086L65.6474 21.2428C65.6474 19.2373 66.1898 17.6747 67.2744 16.555C68.3591 15.4353 70.2968 14.8775 73.0877 14.8817C74.261 14.8618 75.4324 14.9869 76.5762 15.2542C77.3982 15.4353 78.1808 15.7678 78.8856 16.2352C79.4628 16.6578 79.9251 17.2229 80.2293 17.8775C80.5549 18.5424 80.7739 19.2562 80.8782 19.9916C80.9868 20.8564 81.0367 21.7277 81.0275 22.5994V32.6827H79.8088C79.6003 32.69 79.3957 32.6244 79.2289 32.4967C79.062 32.3691 78.9431 32.1872 78.8917 31.9811ZM77.5085 24.459L72.6916 25.0023C71.2311 25.1575 70.2074 25.4162 69.6204 25.7784C69.348 25.9299 69.1217 26.1548 68.9664 26.4286C68.8111 26.7024 68.7327 27.0145 68.7399 27.3306C68.7294 27.6988 68.8146 28.0633 68.9869 28.3872C69.1592 28.711 69.4124 28.9827 69.721 29.1747C70.373 29.6155 71.3195 29.8359 72.5606 29.8359C74.1103 29.8359 75.323 29.4065 76.1984 28.5476C77.0738 27.6887 77.5105 26.5048 77.5085 24.9961V24.459Z" fill="#001268"/>
<path d="M88.492 18.1228V32.509H85.1405V18.1228H82.7031V15.9497L85.1405 15.2046V13.5468C85.1405 11.7214 85.6483 10.4072 86.6639 9.60415C87.6795 8.80112 89.3126 8.40065 91.5631 8.40272C92.2273 8.40272 92.7483 8.40272 93.1231 8.43687V11.3799C92.9677 11.3799 92.7696 11.3799 92.5137 11.3799C92.2578 11.3799 92.0933 11.3644 91.9836 11.3644C90.6521 11.3644 89.7411 11.5444 89.2415 11.9046C88.9881 12.1005 88.787 12.358 88.6566 12.6536C88.5262 12.9492 88.4706 13.2734 88.495 13.5965V15.1891H93.1109V18.1321L88.492 18.1228Z" fill="#001268"/>
<path d="M106.887 30.9692C105.681 32.004 103.826 32.5214 101.324 32.5214C95.6366 32.5214 92.793 29.5421 92.793 23.5836C92.793 17.6727 95.6275 14.7172 101.296 14.7172C102.401 14.6973 103.499 14.8868 104.535 15.276C105.4 15.5972 106.183 16.1117 106.826 16.7817C107.432 17.444 107.906 18.22 108.222 19.0666C108.566 19.9631 108.79 20.903 108.886 21.8606C108.986 22.9124 108.991 23.9714 108.901 25.0241H96.4735C96.6766 28.1596 98.2487 29.7284 101.19 29.7305C103.446 29.7305 104.797 28.8053 105.242 26.9551H108.962C108.895 27.7311 108.678 28.4857 108.321 29.175C107.965 29.8642 107.478 30.4741 106.887 30.9692ZM104.246 18.8183C103.561 17.949 102.465 17.5144 100.958 17.5144C98.1898 17.5144 96.706 19.0604 96.507 22.1525H105.242C105.263 22.1525 105.263 22.1525 105.242 22.1183C105.221 22.0842 105.263 22.0842 105.242 22.0842C105.306 20.909 104.952 19.7497 104.246 18.8183Z" fill="#001268"/>
<path d="M121.309 32.6766L114.134 24.8937V32.6766H110.578V8.74731H114.131V22.1524L120.544 15.3474H125.492L116.821 23.5401L126.156 32.6766H121.309Z" fill="#001268"/>
<path d="M138.34 31.1367C137.121 32.1715 135.265 32.689 132.773 32.689C127.086 32.689 124.242 29.7107 124.242 23.7543C124.242 17.8434 127.078 14.8879 132.749 14.8879C133.853 14.868 134.951 15.0575 135.987 15.4467C136.852 15.7686 137.634 16.283 138.279 16.9524C138.884 17.6154 139.357 18.3913 139.674 19.2373C140.019 20.139 140.242 21.0841 140.338 22.0468C140.432 23.0992 140.432 24.1579 140.338 25.2103H127.926C128.129 28.3458 129.701 29.9136 132.642 29.9136C134.901 29.9136 136.252 28.9884 136.694 27.1382H140.414C140.346 27.9116 140.128 28.6636 139.772 29.3501C139.415 30.0366 138.929 30.644 138.34 31.1367ZM135.698 18.9858C135.014 18.129 133.918 17.7005 132.411 17.7005C129.642 17.7005 128.158 19.2455 127.959 22.3355H136.694C136.716 22.3355 136.716 22.3355 136.694 22.3014C136.673 22.2672 136.716 22.2672 136.694 22.2672C136.761 21.0869 136.407 19.9218 135.698 18.9858Z" fill="#001268"/>
<path d="M155.329 31.1368C154.122 32.1716 152.268 32.689 149.765 32.689C144.078 32.689 141.234 29.7108 141.234 23.7543C141.234 17.8434 144.069 14.8879 149.738 14.8879C150.842 14.8677 151.94 15.0572 152.977 15.4467C153.842 15.7671 154.625 16.2817 155.268 16.9524C155.875 17.6139 156.349 18.3901 156.663 19.2373C157.008 20.1385 157.23 21.0839 157.321 22.0469C157.422 23.0986 157.428 24.1575 157.34 25.2103H144.915C145.118 28.3458 146.69 29.9136 149.631 29.9136C151.892 29.9136 153.244 28.9885 153.686 27.1382H157.407C157.338 27.9119 157.119 28.6639 156.762 29.3504C156.406 30.0369 155.918 30.6442 155.329 31.1368ZM152.69 18.9858C152.002 18.129 150.905 17.7006 149.4 17.7006C146.633 17.7006 145.149 19.2456 144.948 22.3356H153.686C153.708 22.3356 153.708 22.3356 153.686 22.3014C153.665 22.2673 153.708 22.2673 153.686 22.2673C153.753 21.0869 153.399 19.9218 152.69 18.9858Z" fill="#001268"/>
<path d="M168.3 32.6394C165.442 32.6394 163.512 31.8488 162.511 30.2675V39.1712H159.031V15.0711H160.957L161.688 17.5547C162.108 16.8303 162.845 16.198 163.897 15.6579C164.949 15.1177 166.392 14.8435 168.226 14.8352C169.421 14.8018 170.608 15.0448 171.697 15.5461C172.616 15.9794 173.394 16.6722 173.939 17.5423C174.474 18.4029 174.867 19.3467 175.103 20.3363C175.358 21.4557 175.481 22.6021 175.469 23.7512C175.473 29.6746 173.083 32.6373 168.3 32.6394ZM170.938 19.3181C170.286 18.3143 169.067 17.8124 167.282 17.8124C165.442 17.8124 164.184 18.3091 163.51 19.3025C162.836 20.296 162.498 21.7851 162.498 23.7699C162.498 25.7112 162.813 27.1724 163.443 28.1534C164.077 29.1344 165.32 29.6249 167.181 29.6249C169.043 29.6249 170.271 29.1344 170.935 28.1534C171.599 27.1724 171.931 25.7102 171.931 23.7699C171.931 21.8296 171.593 20.3239 170.938 19.3181Z" fill="#001268"/>
</g>
<defs>
<linearGradient id="paint0_linear_2271_758" x1="32.5099" y1="35.4426" x2="3.69918" y2="7.16443" gradientUnits="userSpaceOnUse">
<stop stop-color="#001FF6"/>
<stop offset="1" stop-color="#00A9FF"/>
</linearGradient>
<clipPath id="clip0_2271_758">
<rect width="178" height="44" fill="white"/>
</clipPath>
</defs>
</svg>
