<svg height="3025" viewBox="0 0 1728 3025" fill="none" xmlns="http://www.w3.org/2000/svg">
<path d="M2138.82 2047.81L2139.28 2048.08H2139.5C2171.77 2070.41 2194.8 2103.77 2204.25 2141.89C2213.76 2180.21 2208.89 2220.68 2190.56 2255.65C2172.24 2290.62 2141.74 2317.65 2104.83 2331.62C2067.98 2345.58 2027.29 2345.54 1990.46 2331.52L1946.69 2306.66L1946.69 2306.65L1393.68 1991.31L1392.3 1990.52L1391.22 1991.69C1296.74 2093.74 1173.9 2165.17 1038.51 2196.78L1036.96 2197.14V2198.73V2862.04C1036.87 2902.27 1021.76 2941.02 994.599 2970.68C967.433 3000.33 930.174 3018.77 890.129 3022.36C850.084 3025.95 810.143 3014.43 778.142 2990.08C746.189 2965.76 724.454 2930.39 717.186 2890.89V2197.79V2196.21L715.657 2195.84C588.112 2164.95 471.937 2098.5 380.614 2004.21L379.502 2003.06L378.137 2003.89L-180.048 2344.02L-180.059 2344.03L-203.348 2358.42C-238.703 2376.32 -279.404 2380.58 -317.697 2370.39C-356.016 2360.19 -389.242 2336.23 -411.033 2303.08C-432.825 2269.93 -441.658 2229.92 -435.845 2190.67C-430.04 2151.47 -410.031 2115.77 -379.632 2090.38L-337.426 2064.57L-337.423 2064.57L214.33 1728.52L215.665 1727.71L215.199 1726.21C173.769 1593.53 172.681 1451.52 212.072 1318.22L212.521 1316.7L211.144 1315.91L-353.3 994.299L-353.313 994.292L-395.667 969.739C-426.767 945.177 -447.74 910.013 -454.579 870.96C-461.427 831.861 -453.628 791.607 -432.672 757.902C-411.717 724.196 -379.078 699.405 -341 688.27C-302.943 677.142 -262.124 680.436 -226.343 697.522L-203.362 710.505L-203.354 710.51L370.816 1038.56L372.184 1039.34L373.264 1038.19C465.752 940.003 584.759 870.817 715.814 839.046L717.343 838.675V837.102V134.115C724.605 94.6382 746.316 59.2863 778.237 34.9682C810.205 10.6136 850.11 -0.918844 890.132 2.63008C930.155 6.179 967.411 24.5536 994.601 54.154C1021.79 83.7545 1036.95 122.447 1037.12 162.652V835.533V837.12L1038.67 837.481C1164.79 866.926 1280.22 930.958 1371.99 1022.39L1373.11 1023.5L1374.45 1022.68L1923.22 688.198L1923.23 688.195L1966.51 661.615C2002.77 647.274 2042.99 646.562 2079.73 659.615C2116.52 672.687 2147.33 698.676 2166.42 732.756C2185.51 766.836 2191.59 806.691 2183.54 844.919C2175.49 883.119 2153.87 917.101 2122.69 940.565L2100.04 954.629L2100.03 954.638L1542.8 1293.98L1541.44 1294.8L1541.94 1296.31C1586.26 1430.3 1589.31 1574.52 1550.7 1710.26L1550.27 1711.77L1551.63 1712.55L2114.99 2034.16L2114.99 2034.16L2138.82 2047.81ZM880.286 1983.75H880.29C1005.41 1983.75 1125.42 1934.08 1213.98 1845.65C1302.54 1757.21 1352.42 1637.23 1352.67 1512.04V1512.03C1352.67 1418.78 1325.04 1327.61 1273.28 1250.06C1221.52 1172.5 1147.95 1112.04 1061.86 1076.31C975.771 1040.58 881.028 1031.18 789.604 1049.31C698.179 1067.43 614.175 1112.27 548.205 1178.14C482.236 1244.02 437.261 1327.98 418.964 1419.43C400.667 1510.87 409.869 1605.69 445.406 1691.9C480.943 1778.11 541.222 1851.85 618.625 1903.79C696.029 1955.74 787.084 1983.57 880.286 1983.75Z" stroke="url(#paint0_linear_2172_45003)" stroke-width="4"/>
<defs>
<linearGradient id="paint0_linear_2172_45003" x1="876" y1="932.609" x2="876" y2="2817.75" gradientUnits="userSpaceOnUse">
<stop stop-color="#01A6FF" stop-opacity="0"/>
<stop offset="1" stop-color="#0125F7"/>
</linearGradient>
</defs>
</svg>
