<svg width="68" height="68" viewBox="0 0 68 68" fill="none" xmlns="http://www.w3.org/2000/svg">
<g clip-path="url(#clip0_2084_39734)">
<rect width="68" height="68" rx="8" fill="#0171FD"/>
<path d="M34 72.5L15 46L46 27L72.5 42.5V71L71 72.5H34Z" fill="#B2D4FF"/>
<path opacity="0.4" d="M32.0001 40.8082C33.6505 40.8082 34.9884 39.4703 34.9884 37.8199C34.9884 36.1695 33.6505 34.8315 32.0001 34.8315C30.3496 34.8315 29.0117 36.1695 29.0117 37.8199C29.0117 39.4703 30.3496 40.8082 32.0001 40.8082Z" fill="white"/>
<path d="M40.5263 26.3066H23.4763C15.9596 26.3066 13.668 28.5983 13.668 36.115V39.525C13.668 47.0416 15.9596 49.3333 23.4763 49.3333H40.5263C48.043 49.3333 50.3346 47.0416 50.3346 39.525V36.115C50.3346 28.5983 48.043 26.3066 40.5263 26.3066ZM32.0013 43.3566C28.9396 43.3566 26.4646 40.8633 26.4646 37.82C26.4646 34.7766 28.9396 32.2833 32.0013 32.2833C35.063 32.2833 37.538 34.7766 37.538 37.82C37.538 40.8633 35.063 43.3566 32.0013 43.3566Z" fill="white"/>
<path opacity="0.4" d="M23.0549 26.3248V24.1798C23.0549 18.8082 24.5766 15.2332 32.0016 15.2332C39.9399 15.2332 40.9483 19.1015 40.9483 22.4748C40.9483 23.1898 41.5166 23.7582 42.2316 23.7582C42.9466 23.7582 43.5149 23.1898 43.5149 22.4748C43.5149 15.9665 39.6466 12.6665 32.0016 12.6665C21.6799 12.6665 20.4883 19.2298 20.4883 24.1798V26.4715C21.2583 26.3798 22.1199 26.3248 23.0549 26.3248Z" fill="white"/>
</g>
<defs>
<clipPath id="clip0_2084_39734">
<rect width="68" height="68" rx="8" fill="white"/>
</clipPath>
</defs>
</svg>
