<svg  viewBox="0 0 28 26" fill="none" xmlns="http://www.w3.org/2000/svg">
<g clip-path="url(#clip0_2648_14922)">
<path d="M0 13C0 5.8203 5.8203 0 13 0H15C22.1797 0 28 5.8203 28 13C28 20.1797 22.1797 26 15 26H13C5.8203 26 0 20.1797 0 13ZM11.7761 6.9797C10.066 7.61995 8.6611 8.9193 7.9569 10.5007C7.4277 11.6623 7.2996 12.9681 7.5411 14.2051C7.8848 15.9731 9.0755 17.576 10.7198 18.5191C11.9721 19.2517 13.4806 19.5917 14.9548 19.4818C16.0643 19.4137 17.1467 19.08 18.0924 18.5395C18.8391 18.1128 18.8427 17.1039 18.2117 16.5196C17.6467 15.9965 16.7791 16.0186 16.0712 16.3216C15.3923 16.6123 14.6304 16.7314 13.8852 16.625C12.9892 16.5152 12.1436 16.1037 11.5332 15.4849C10.7093 14.6737 10.3278 13.4934 10.5392 12.3948C10.6764 11.5876 11.1279 10.8342 11.7817 10.2895C12.6756 9.5251 13.9678 9.1845 15.1606 9.4068C15.4843 9.45965 15.7955 9.55566 16.0899 9.68565C16.7873 9.99358 17.638 10.014 18.1969 9.49553C18.8337 8.90478 18.8304 7.88238 18.0758 7.45219C17.6573 7.21364 17.212 7.01576 16.7475 6.86595C15.1501 6.33945 13.3441 6.3804 11.7761 6.9797Z" fill="#1652F0"/>
<path d="M11.7761 6.97958C13.3441 6.38028 15.1501 6.33933 16.7475 6.86583C17.7331 7.18368 18.6319 7.71798 19.3725 8.39788C18.6571 9.07128 17.9354 9.73818 17.2137 10.4051C16.6418 9.90848 15.9369 9.53343 15.1606 9.40668C13.9678 9.18438 12.6756 9.52498 11.7817 10.2894C11.1279 10.8341 10.6764 11.5874 10.5392 12.3947C10.3278 13.4932 10.7093 14.6736 11.5332 15.4848C12.1436 16.1036 12.9892 16.5151 13.8852 16.6249C15.092 16.7972 16.3429 16.3779 17.2137 15.5966C17.934 16.2642 18.6592 16.9278 19.3704 17.6038C18.2 18.6893 16.6075 19.3803 14.9548 19.4817C13.4806 19.5915 11.9721 19.2516 10.7198 18.519C9.0755 17.5759 7.8848 15.973 7.5411 14.205C7.2996 12.968 7.4277 11.6622 7.9569 10.5006C8.6611 8.91918 10.066 7.61983 11.7761 6.97958Z" fill="white"/>
</g>
<defs>
<clipPath id="clip0_2648_14922">
<rect width="28" height="26" fill="white"/>
</clipPath>
</defs>
</svg>
