<svg width="118" height="118" viewBox="0 0 118 118" fill="none" xmlns="http://www.w3.org/2000/svg">
<path d="M108 59C108 86.062 86.062 108 59 108C31.938 108 10 86.062 10 59C10 31.938 31.938 10 59 10C86.062 10 108 31.938 108 59ZM59 116C90.4802 116 116 90.4802 116 59C116 27.5198 90.4802 2 59 2C27.5198 2 2 27.5198 2 59C2 90.4802 27.5198 116 59 116Z" fill="#FF0000" stroke="#FEFFFF" stroke-width="4"/>
<path d="M110 59C110 87.1665 87.1665 110 59 110C30.8335 110 8 87.1665 8 59C8 30.8335 30.8335 8 59 8C87.1665 8 110 30.8335 110 59Z" fill="#FEFFFF"/>
<path opacity="0.4" d="M59.0007 83.1668C72.3475 83.1668 83.1673 72.347 83.1673 59.0002C83.1673 45.6533 72.3475 34.8335 59.0007 34.8335C45.6538 34.8335 34.834 45.6533 34.834 59.0002C34.834 72.347 45.6538 83.1668 59.0007 83.1668Z" fill="#FF0000"/>
<path d="M61.5628 59.0001L67.1211 53.4418C67.8219 52.7409 67.8219 51.581 67.1211 50.8801C66.4203 50.1793 65.2603 50.1793 64.5594 50.8801L59.0011 56.4384L53.4428 50.8801C52.7419 50.1793 51.5819 50.1793 50.8811 50.8801C50.1803 51.581 50.1803 52.7409 50.8811 53.4418L56.4394 59.0001L50.8811 64.5585C50.1803 65.2593 50.1803 66.4193 50.8811 67.1201C51.2436 67.4826 51.7028 67.6518 52.1619 67.6518C52.6211 67.6518 53.0803 67.4826 53.4428 67.1201L59.0011 61.5618L64.5594 67.1201C64.9219 67.4826 65.3811 67.6518 65.8403 67.6518C66.2994 67.6518 66.7586 67.4826 67.1211 67.1201C67.8219 66.4193 67.8219 65.2593 67.1211 64.5585L61.5628 59.0001Z" fill="#FF0000"/>
</svg>
