<svg viewBox="0 0 28 26" fill="none" xmlns="http://www.w3.org/2000/svg">
<g clip-path="url(#clip0_2648_15083)">
<path d="M27.3505 0L15.3359 8.80526L17.5702 3.61603L27.3505 0Z" fill="#E17726"/>
<path d="M0.677734 0.0102539L10.4319 3.61658L12.5534 8.87384L0.677734 0.0102539Z" fill="#E27625"/>
<path d="M22.5155 18.7261L27.8257 18.8262L25.9699 25.0707L19.4902 23.3037L22.5155 18.7261Z" fill="#E27625"/>
<path d="M5.48484 18.7261L8.49892 23.3037L2.03011 25.0709L0.185547 18.8262L5.48484 18.7261Z" fill="#E27625"/>
<path d="M12.2649 7.53467L12.482 14.477L5.98828 14.1844L7.83536 11.4244L7.85874 11.3977L12.2649 7.53467Z" fill="#E27625"/>
<path d="M15.6681 7.45752L20.1415 11.3983L20.1646 11.4247L22.0117 14.1848L15.5195 14.4773L15.6681 7.45752Z" fill="#E27625"/>
<path d="M8.68832 18.7466L12.2341 21.483L8.11523 23.4526L8.68832 18.7466Z" fill="#E27625"/>
<path d="M19.3117 18.7461L19.8729 23.4526L15.7656 21.4827L19.3117 18.7461Z" fill="#E27625"/>
<path d="M15.8574 21.2246L20.0254 23.2236L16.1483 25.0486L16.1886 23.8424L15.8574 21.2246Z" fill="#D5BFB2"/>
<path d="M12.1411 21.2256L11.8229 23.8227L11.849 25.0473L7.96289 23.2237L12.1411 21.2256Z" fill="#D5BFB2"/>
<path d="M10.9374 15.3833L12.0266 17.6505L8.31836 16.5746L10.9374 15.3833Z" fill="#233447"/>
<path d="M17.0615 15.3833L19.6929 16.5743L15.9727 17.6499L17.0615 15.3833Z" fill="#233447"/>
<path d="M8.97223 18.7231L8.37281 23.6024L5.16016 18.8298L8.97223 18.7231Z" fill="#CC6228"/>
<path d="M19.0293 18.7231L22.8415 18.8298L19.6167 23.6026L19.0293 18.7231Z" fill="#CC6228"/>
<path d="M22.1069 13.9087L19.3325 16.7092L17.1935 15.741L16.1694 17.8735L15.498 14.2065L22.1069 13.9087Z" fill="#CC6228"/>
<path d="M5.89258 13.9087L12.5026 14.2066L11.8312 17.8735L10.8069 15.7414L8.67914 16.7093L5.89258 13.9087Z" fill="#CC6228"/>
<path d="M5.70508 13.334L8.84395 16.4887L8.95274 19.6032L5.70508 13.334Z" fill="#E27525"/>
<path d="M22.2984 13.3281L19.0449 19.6086L19.1674 16.4885L22.2984 13.3281Z" fill="#E27525"/>
<path d="M12.35 13.5259L12.4763 14.3135L12.7885 16.2755L12.5878 22.3015L11.639 17.4607L11.6387 17.4107L12.35 13.5259Z" fill="#E27525"/>
<path d="M15.649 13.5151L16.3622 17.4108L16.3619 17.4609L15.4107 22.3138L15.373 21.1L15.2246 16.2399L15.649 13.5151Z" fill="#E27525"/>
<path d="M19.4462 16.3633L19.34 19.0692L16.0288 21.6245L15.3594 21.1561L16.1097 17.3281L19.4462 16.3633Z" fill="#F5841F"/>
<path d="M8.56641 16.3633L11.8914 17.3281L12.6417 21.156L11.9723 21.6245L8.66091 19.069L8.56641 16.3633Z" fill="#F5841F"/>
<path d="M7.33008 22.6265L11.5664 24.6146L11.5485 23.7656L11.9029 23.4575H16.0957L16.463 23.7646L16.4359 24.613L20.6454 22.6315L18.597 24.308L16.1202 25.993H11.869L9.39371 24.3011L7.33008 22.6265Z" fill="#C0AC9D"/>
<path d="M15.5536 20.9604L16.1526 21.3795L16.5036 24.1534L15.9956 23.7285H12.0061L11.5078 24.1619L11.8473 21.3797L12.4465 20.9604H15.5536Z" fill="#161616"/>
<path d="M26.5571 0.243652L27.9993 4.52905L27.0986 8.86199L27.7399 9.35206L26.8721 10.0079L27.5243 10.5068L26.6606 11.2859L27.1909 11.6662L25.7837 13.294L20.012 11.6295L19.9619 11.603L15.8027 8.12782L26.5571 0.243652Z" fill="#763E1A"/>
<path d="M1.44222 0.243652L12.1966 8.12782L8.03736 11.603L7.98734 11.6295L2.21558 13.294L0.808414 11.6662L1.33823 11.2862L0.474962 10.5068L1.12597 10.0084L0.245146 9.35073L0.910689 8.86036L0 4.52921L1.44222 0.243652Z" fill="#763E1A"/>
<path d="M19.7295 11.2656L25.845 13.0292L27.8318 19.0943L22.5902 19.0943L18.9785 19.1394L21.6051 14.0685L19.7295 11.2656Z" fill="#F5841F"/>
<path d="M8.26902 11.2656L6.39311 14.0685L9.02001 19.1394L5.41011 19.0943H0.177734L2.15341 13.0292L8.26902 11.2656Z" fill="#F5841F"/>
<path d="M17.8692 3.58691L16.1587 8.16278L15.7957 14.3444L15.6568 16.2819L15.6458 21.2314H12.3524L12.3417 16.2912L12.2023 14.3427L11.8392 8.16278L10.1289 3.58691H17.8692Z" fill="#F5841F"/>
</g>
<defs>
<clipPath id="clip0_2648_15083">
<rect width="28" height="26" fill="white"/>
</clipPath>
</defs>
</svg>
