<svg width="118" height="118" viewBox="0 0 118 118" fill="none" xmlns="http://www.w3.org/2000/svg">
<path d="M108 59C108 86.062 86.062 108 59 108C31.938 108 10 86.062 10 59C10 31.938 31.938 10 59 10C86.062 10 108 31.938 108 59ZM59 116C90.4802 116 116 90.4802 116 59C116 27.5198 90.4802 2 59 2C27.5198 2 2 27.5198 2 59C2 90.4802 27.5198 116 59 116Z" fill="#00AF00" stroke="#FEFFFF" stroke-width="4"/>
<path d="M110 59C110 87.1665 87.1665 110 59 110C30.8335 110 8 87.1665 8 59C8 30.8335 30.8335 8 59 8C87.1665 8 110 30.8335 110 59Z" fill="#FEFFFF"/>
<path opacity="0.4" d="M59.0007 83.1668C72.3475 83.1668 83.1673 72.347 83.1673 59.0002C83.1673 45.6533 72.3475 34.8335 59.0007 34.8335C45.6538 34.8335 34.834 45.6533 34.834 59.0002C34.834 72.347 45.6538 83.1668 59.0007 83.1668Z" fill="url(#paint0_linear_2074_39155)"/>
<path d="M55.5695 67.6515C55.0861 67.6515 54.627 67.4582 54.2886 67.1199L47.4495 60.2807C46.7486 59.5799 46.7486 58.4199 47.4495 57.719C48.1503 57.0182 49.3103 57.0182 50.0111 57.719L55.5695 63.2774L67.9911 50.8557C68.692 50.1549 69.852 50.1549 70.5528 50.8557C71.2536 51.5565 71.2536 52.7165 70.5528 53.4174L56.8503 67.1199C56.512 67.4582 56.0528 67.6515 55.5695 67.6515Z" fill="url(#paint1_linear_2074_39155)"/>
<defs>
<linearGradient id="paint0_linear_2074_39155" x1="28.5296" y1="50.5944" x2="55.7874" y2="102.63" gradientUnits="userSpaceOnUse">
<stop stop-color="#0171FD"/>
<stop offset="1" stop-color="#1AE52D"/>
</linearGradient>
<linearGradient id="paint1_linear_2074_39155" x1="43.7732" y1="55.9784" x2="51.5966" y2="76.8048" gradientUnits="userSpaceOnUse">
<stop stop-color="#0171FD"/>
<stop offset="1" stop-color="#1AE52D"/>
</linearGradient>
</defs>
</svg>
