<svg viewBox="0 0 28 26" fill="none" xmlns="http://www.w3.org/2000/svg">
<path d="M13.9847 1.05322C18.6032 4.26224 23.9138 4.0601 25.425 4.0601C25.1002 22.2782 22.572 19.8525 13.9847 24.9566C5.39748 19.8525 2.89756 22.2782 2.55859 4.0601C4.06984 4.0601 9.36626 4.24961 13.9847 1.05322Z" fill="white"/>
<path d="M13.9872 1.05335L14.6054 0.282678C14.2371 0.00473218 13.7242 0.00473218 13.3559 0.282678L13.9872 1.05335ZM24.6408 4.06022L25.6535 4.07286C25.6535 3.80754 25.5483 3.55486 25.3642 3.37799C25.1669 3.18848 24.917 3.08741 24.6408 3.08741V4.06022ZM13.9872 24.9567L13.4217 25.7653C13.7637 25.9801 14.2108 25.9801 14.5528 25.7653L13.9872 24.9567ZM3.34685 4.06022V3.08741C3.07065 3.08741 2.8076 3.18848 2.62346 3.37799C2.42618 3.5675 2.32096 3.82018 2.33411 4.07286L3.34685 4.06022ZM13.3691 1.82402C17.9856 5.26044 23.2598 5.03303 24.6408 5.03303V3.07478C23.2072 3.07478 18.6038 3.25165 14.6054 0.270044L13.3691 1.82402ZM23.628 4.03495C23.5491 8.57053 23.3518 11.7669 22.9704 14.1421C22.589 16.492 22.0497 17.8944 21.3527 18.8798C20.6424 19.9032 19.7612 20.5096 18.4591 21.2676C17.1439 22.0257 15.4735 22.8469 13.4217 24.1482L14.5528 25.7779C16.4994 24.5272 18.1303 23.7312 19.5113 22.9479C20.9055 22.152 22.1287 21.2676 23.0493 19.979C23.9832 18.6524 24.5882 16.9342 24.9828 14.4453C25.3773 11.9817 25.5878 8.65897 25.6667 4.07286L23.628 4.03495ZM14.5528 24.1482C12.501 22.8469 10.8438 22.0257 9.51539 21.2676C8.21329 20.5222 7.33207 19.9032 6.62183 18.8798C5.92475 17.8944 5.38549 16.492 5.01722 14.1421C4.6358 11.7669 4.43851 8.57053 4.3596 4.03495L2.33411 4.07286C2.41302 8.64634 2.62346 11.9817 3.01804 14.4453C3.41262 16.9342 4.01763 18.6524 4.95146 19.979C5.87214 21.2676 7.09532 22.1394 8.47634 22.9479C9.85735 23.7439 11.4751 24.5398 13.4217 25.7779L14.5528 24.1482ZM3.34685 5.03303C4.71472 5.03303 10.002 5.24781 14.6054 1.82402L13.3559 0.282678C9.37071 3.25165 4.76733 3.07478 3.34685 3.07478V5.03303Z" fill="#3375BB"/>
</svg>
