<svg viewBox="0 0 28 26" fill="none" xmlns="http://www.w3.org/2000/svg">
<g clip-path="url(#clip0_2648_35325)">
<path fill-rule="evenodd" clip-rule="evenodd" d="M14 0C21.7328 0 28 5.81953 28 13C28 20.1805 21.7328 26 14 26C6.26719 26 0 20.1805 0 13C0 5.81953 6.26719 0 14 0Z" fill="url(#paint0_radial_2648_35325)"/>
<path d="M8.89844 10.0393C11.7148 7.48496 16.2867 7.48496 19.1031 10.0393L19.4422 10.349C19.5844 10.476 19.5844 10.6842 19.4422 10.8111L18.2828 11.8623C18.2117 11.9283 18.0969 11.9283 18.0258 11.8623L17.5609 11.4408C15.5922 9.6584 12.4094 9.6584 10.4406 11.4408L9.94297 11.8928C9.87187 11.9588 9.75703 11.9588 9.68594 11.8928L8.52656 10.8416C8.38437 10.7146 8.38437 10.5064 8.52656 10.3795L8.89844 10.0393ZM21.5039 12.2127L22.5375 13.1471C22.6797 13.274 22.6797 13.4822 22.5375 13.6092L17.8836 17.8291C17.7414 17.9561 17.5117 17.9561 17.375 17.8291L14.0719 14.833C14.0391 14.8025 13.9789 14.8025 13.9461 14.833L10.643 17.8291C10.5008 17.9561 10.2711 17.9561 10.1344 17.8291L5.46406 13.6092C5.32188 13.4822 5.32188 13.274 5.46406 13.1471L6.49766 12.2127C6.63984 12.0857 6.86953 12.0857 7.00625 12.2127L10.3094 15.2088C10.3422 15.2393 10.4023 15.2393 10.4352 15.2088L13.7383 12.2127C13.8805 12.0857 14.1102 12.0857 14.2469 12.2127L17.55 15.2088C17.5828 15.2393 17.643 15.2393 17.6758 15.2088L20.9789 12.2127C21.132 12.0857 21.3617 12.0857 21.5039 12.2127Z" fill="white"/>
</g>
<defs>
<radialGradient id="paint0_radial_2648_35325" cx="0" cy="0" r="1" gradientUnits="userSpaceOnUse" gradientTransform="translate(8.67844e-05 13.0004) scale(28 26)">
<stop stop-color="#5D9DF6"/>
<stop offset="1" stop-color="#006FFF"/>
</radialGradient>
<clipPath id="clip0_2648_35325">
<rect width="28" height="26" fill="white"/>
</clipPath>
</defs>
</svg>
